<svg width="595" height="242" viewBox="0 0 595 242" fill="none" xmlns="http://www.w3.org/2000/svg">
<path d="M173.298 70L168.918 62.05H167.688V70H162.558V48.94H171.168C172.828 48.94 174.238 49.23 175.398 49.81C176.578 50.39 177.458 51.19 178.038 52.21C178.618 53.21 178.908 54.33 178.908 55.57C178.908 56.97 178.508 58.22 177.708 59.32C176.928 60.42 175.768 61.2 174.228 61.66L179.088 70H173.298ZM167.688 58.42H170.868C171.808 58.42 172.508 58.19 172.968 57.73C173.448 57.27 173.688 56.62 173.688 55.78C173.688 54.98 173.448 54.35 172.968 53.89C172.508 53.43 171.808 53.2 170.868 53.2H167.688V58.42ZM197.908 61.36C197.908 61.84 197.878 62.34 197.818 62.86H186.208C186.288 63.9 186.618 64.7 187.198 65.26C187.798 65.8 188.528 66.07 189.388 66.07C190.668 66.07 191.558 65.53 192.058 64.45H197.518C197.238 65.55 196.728 66.54 195.988 67.42C195.268 68.3 194.358 68.99 193.258 69.49C192.158 69.99 190.928 70.24 189.568 70.24C187.928 70.24 186.468 69.89 185.188 69.19C183.908 68.49 182.908 67.49 182.188 66.19C181.468 64.89 181.108 63.37 181.108 61.63C181.108 59.89 181.458 58.37 182.158 57.07C182.878 55.77 183.878 54.77 185.158 54.07C186.438 53.37 187.908 53.02 189.568 53.02C191.188 53.02 192.628 53.36 193.888 54.04C195.148 54.72 196.128 55.69 196.828 56.95C197.548 58.21 197.908 59.68 197.908 61.36ZM192.658 60.01C192.658 59.13 192.358 58.43 191.758 57.91C191.158 57.39 190.408 57.13 189.508 57.13C188.648 57.13 187.918 57.38 187.318 57.88C186.738 58.38 186.378 59.09 186.238 60.01H192.658ZM205.745 55.63C206.245 54.85 206.935 54.22 207.815 53.74C208.695 53.26 209.725 53.02 210.905 53.02C212.285 53.02 213.535 53.37 214.655 54.07C215.775 54.77 216.655 55.77 217.295 57.07C217.955 58.37 218.285 59.88 218.285 61.6C218.285 63.32 217.955 64.84 217.295 66.16C216.655 67.46 215.775 68.47 214.655 69.19C213.535 69.89 212.285 70.24 210.905 70.24C209.745 70.24 208.715 70 207.815 69.52C206.935 69.04 206.245 68.42 205.745 67.66V77.98H200.615V53.26H205.745V55.63ZM213.065 61.6C213.065 60.32 212.705 59.32 211.985 58.6C211.285 57.86 210.415 57.49 209.375 57.49C208.355 57.49 207.485 57.86 206.765 58.6C206.065 59.34 205.715 60.35 205.715 61.63C205.715 62.91 206.065 63.92 206.765 64.66C207.485 65.4 208.355 65.77 209.375 65.77C210.395 65.77 211.265 65.4 211.985 64.66C212.705 63.9 213.065 62.88 213.065 61.6ZM226.106 56.05C226.706 55.13 227.456 54.41 228.356 53.89C229.256 53.35 230.256 53.08 231.356 53.08V58.51H229.946C228.666 58.51 227.706 58.79 227.066 59.35C226.426 59.89 226.106 60.85 226.106 62.23V70H220.976V53.26H226.106V56.05ZM249.588 61.36C249.588 61.84 249.558 62.34 249.498 62.86H237.888C237.968 63.9 238.298 64.7 238.878 65.26C239.478 65.8 240.208 66.07 241.068 66.07C242.348 66.07 243.238 65.53 243.738 64.45H249.198C248.918 65.55 248.408 66.54 247.668 67.42C246.948 68.3 246.038 68.99 244.938 69.49C243.838 69.99 242.608 70.24 241.248 70.24C239.608 70.24 238.148 69.89 236.868 69.19C235.588 68.49 234.588 67.49 233.868 66.19C233.148 64.89 232.788 63.37 232.788 61.63C232.788 59.89 233.138 58.37 233.838 57.07C234.558 55.77 235.558 54.77 236.838 54.07C238.118 53.37 239.588 53.02 241.248 53.02C242.868 53.02 244.308 53.36 245.568 54.04C246.828 54.72 247.808 55.69 248.508 56.95C249.228 58.21 249.588 59.68 249.588 61.36ZM244.338 60.01C244.338 59.13 244.038 58.43 243.438 57.91C242.838 57.39 242.088 57.13 241.188 57.13C240.328 57.13 239.598 57.38 238.998 57.88C238.418 58.38 238.058 59.09 237.918 60.01H244.338ZM259.104 70.24C257.644 70.24 256.344 69.99 255.204 69.49C254.064 68.99 253.164 68.31 252.504 67.45C251.844 66.57 251.474 65.59 251.394 64.51H256.464C256.524 65.09 256.794 65.56 257.274 65.92C257.754 66.28 258.344 66.46 259.044 66.46C259.684 66.46 260.174 66.34 260.514 66.1C260.874 65.84 261.054 65.51 261.054 65.11C261.054 64.63 260.804 64.28 260.304 64.06C259.804 63.82 258.994 63.56 257.874 63.28C256.674 63 255.674 62.71 254.874 62.41C254.074 62.09 253.384 61.6 252.804 60.94C252.224 60.26 251.934 59.35 251.934 58.21C251.934 57.25 252.194 56.38 252.714 55.6C253.254 54.8 254.034 54.17 255.054 53.71C256.094 53.25 257.324 53.02 258.744 53.02C260.844 53.02 262.494 53.54 263.694 54.58C264.914 55.62 265.614 57 265.794 58.72H261.054C260.974 58.14 260.714 57.68 260.274 57.34C259.854 57 259.294 56.83 258.594 56.83C257.994 56.83 257.534 56.95 257.214 57.19C256.894 57.41 256.734 57.72 256.734 58.12C256.734 58.6 256.984 58.96 257.484 59.2C258.004 59.44 258.804 59.68 259.884 59.92C261.124 60.24 262.134 60.56 262.914 60.88C263.694 61.18 264.374 61.68 264.954 62.38C265.554 63.06 265.864 63.98 265.884 65.14C265.884 66.12 265.604 67 265.044 67.78C264.504 68.54 263.714 69.14 262.674 69.58C261.654 70.02 260.464 70.24 259.104 70.24ZM284.803 61.36C284.803 61.84 284.773 62.34 284.713 62.86H273.103C273.183 63.9 273.513 64.7 274.093 65.26C274.693 65.8 275.423 66.07 276.283 66.07C277.563 66.07 278.453 65.53 278.953 64.45H284.413C284.133 65.55 283.623 66.54 282.883 67.42C282.163 68.3 281.253 68.99 280.153 69.49C279.053 69.99 277.823 70.24 276.463 70.24C274.823 70.24 273.363 69.89 272.083 69.19C270.803 68.49 269.803 67.49 269.083 66.19C268.363 64.89 268.003 63.37 268.003 61.63C268.003 59.89 268.353 58.37 269.053 57.07C269.773 55.77 270.773 54.77 272.053 54.07C273.333 53.37 274.803 53.02 276.463 53.02C278.083 53.02 279.523 53.36 280.783 54.04C282.043 54.72 283.023 55.69 283.723 56.95C284.443 58.21 284.803 59.68 284.803 61.36ZM279.553 60.01C279.553 59.13 279.253 58.43 278.653 57.91C278.053 57.39 277.303 57.13 276.403 57.13C275.543 57.13 274.813 57.38 274.213 57.88C273.633 58.38 273.273 59.09 273.133 60.01H279.553ZM297.709 53.08C299.669 53.08 301.229 53.72 302.389 55C303.569 56.26 304.159 58 304.159 60.22V70H299.059V60.91C299.059 59.79 298.769 58.92 298.189 58.3C297.609 57.68 296.829 57.37 295.849 57.37C294.869 57.37 294.089 57.68 293.509 58.3C292.929 58.92 292.639 59.79 292.639 60.91V70H287.509V53.26H292.639V55.48C293.159 54.74 293.859 54.16 294.739 53.74C295.619 53.3 296.609 53.08 297.709 53.08ZM317.054 65.65V70H314.444C312.584 70 311.134 69.55 310.094 68.65C309.054 67.73 308.534 66.24 308.534 64.18V57.52H306.494V53.26H308.534V49.18H313.664V53.26H317.024V57.52H313.664V64.24C313.664 64.74 313.784 65.1 314.024 65.32C314.264 65.54 314.664 65.65 315.224 65.65H317.054ZM331.399 48.94V70H326.269V48.94H331.399ZM341.927 70.24C340.467 70.24 339.167 69.99 338.027 69.49C336.887 68.99 335.987 68.31 335.327 67.45C334.667 66.57 334.297 65.59 334.217 64.51H339.287C339.347 65.09 339.617 65.56 340.097 65.92C340.577 66.28 341.167 66.46 341.867 66.46C342.507 66.46 342.997 66.34 343.337 66.1C343.697 65.84 343.877 65.51 343.877 65.11C343.877 64.63 343.627 64.28 343.127 64.06C342.627 63.82 341.817 63.56 340.697 63.28C339.497 63 338.497 62.71 337.697 62.41C336.897 62.09 336.207 61.6 335.627 60.94C335.047 60.26 334.757 59.35 334.757 58.21C334.757 57.25 335.017 56.38 335.537 55.6C336.077 54.8 336.857 54.17 337.877 53.71C338.917 53.25 340.147 53.02 341.567 53.02C343.667 53.02 345.317 53.54 346.517 54.58C347.737 55.62 348.437 57 348.617 58.72H343.877C343.797 58.14 343.537 57.68 343.097 57.34C342.677 57 342.117 56.83 341.417 56.83C340.817 56.83 340.357 56.95 340.037 57.19C339.717 57.41 339.557 57.72 339.557 58.12C339.557 58.6 339.807 58.96 340.307 59.2C340.827 59.44 341.627 59.68 342.707 59.92C343.947 60.24 344.957 60.56 345.737 60.88C346.517 61.18 347.197 61.68 347.777 62.38C348.377 63.06 348.687 63.98 348.707 65.14C348.707 66.12 348.427 67 347.867 67.78C347.327 68.54 346.537 69.14 345.497 69.58C344.477 70.02 343.287 70.24 341.927 70.24ZM356.975 47.8V70H351.845V47.8H356.975ZM359.673 61.6C359.673 59.88 359.993 58.37 360.633 57.07C361.293 55.77 362.183 54.77 363.303 54.07C364.423 53.37 365.673 53.02 367.053 53.02C368.233 53.02 369.263 53.26 370.143 53.74C371.043 54.22 371.733 54.85 372.213 55.63V53.26H377.343V70H372.213V67.63C371.713 68.41 371.013 69.04 370.113 69.52C369.233 70 368.203 70.24 367.023 70.24C365.663 70.24 364.423 69.89 363.303 69.19C362.183 68.47 361.293 67.46 360.633 66.16C359.993 64.84 359.673 63.32 359.673 61.6ZM372.213 61.63C372.213 60.35 371.853 59.34 371.133 58.6C370.433 57.86 369.573 57.49 368.553 57.49C367.533 57.49 366.663 57.86 365.943 58.6C365.243 59.32 364.893 60.32 364.893 61.6C364.893 62.88 365.243 63.9 365.943 64.66C366.663 65.4 367.533 65.77 368.553 65.77C369.573 65.77 370.433 65.4 371.133 64.66C371.853 63.92 372.213 62.91 372.213 61.63ZM402.414 53.08C404.494 53.08 406.144 53.71 407.364 54.97C408.604 56.23 409.224 57.98 409.224 60.22V70H404.124V60.91C404.124 59.83 403.834 59 403.254 58.42C402.694 57.82 401.914 57.52 400.914 57.52C399.914 57.52 399.124 57.82 398.544 58.42C397.984 59 397.704 59.83 397.704 60.91V70H392.604V60.91C392.604 59.83 392.314 59 391.734 58.42C391.174 57.82 390.394 57.52 389.394 57.52C388.394 57.52 387.604 57.82 387.024 58.42C386.464 59 386.184 59.83 386.184 60.91V70H381.054V53.26H386.184V55.36C386.704 54.66 387.384 54.11 388.224 53.71C389.064 53.29 390.014 53.08 391.074 53.08C392.334 53.08 393.454 53.35 394.434 53.89C395.434 54.43 396.214 55.2 396.774 56.2C397.354 55.28 398.144 54.53 399.144 53.95C400.144 53.37 401.234 53.08 402.414 53.08Z" fill="#7E71B9"/>
<path d="M174.273 110.675C174.273 112.125 173.773 113.333 172.773 114.3C171.79 115.25 170.281 115.725 168.248 115.725H164.898V123H162.623V105.575H168.248C170.215 105.575 171.706 106.05 172.723 107C173.756 107.95 174.273 109.175 174.273 110.675ZM168.248 113.85C169.515 113.85 170.448 113.575 171.048 113.025C171.648 112.475 171.948 111.692 171.948 110.675C171.948 108.525 170.715 107.45 168.248 107.45H164.898V113.85H168.248ZM179.376 111.525C179.776 110.742 180.342 110.133 181.076 109.7C181.826 109.267 182.734 109.05 183.801 109.05V111.4H183.201C180.651 111.4 179.376 112.783 179.376 115.55V123H177.101V109.3H179.376V111.525ZM192.402 123.225C191.118 123.225 189.952 122.933 188.902 122.35C187.868 121.767 187.052 120.942 186.452 119.875C185.868 118.792 185.577 117.542 185.577 116.125C185.577 114.725 185.877 113.492 186.477 112.425C187.093 111.342 187.927 110.517 188.977 109.95C190.027 109.367 191.202 109.075 192.502 109.075C193.802 109.075 194.977 109.367 196.027 109.95C197.077 110.517 197.902 111.333 198.502 112.4C199.118 113.467 199.427 114.708 199.427 116.125C199.427 117.542 199.11 118.792 198.477 119.875C197.86 120.942 197.018 121.767 195.952 122.35C194.885 122.933 193.702 123.225 192.402 123.225ZM192.402 121.225C193.218 121.225 193.985 121.033 194.702 120.65C195.418 120.267 195.993 119.692 196.427 118.925C196.877 118.158 197.102 117.225 197.102 116.125C197.102 115.025 196.885 114.092 196.452 113.325C196.018 112.558 195.452 111.992 194.752 111.625C194.052 111.242 193.293 111.05 192.477 111.05C191.643 111.05 190.877 111.242 190.177 111.625C189.493 111.992 188.943 112.558 188.527 113.325C188.11 114.092 187.902 115.025 187.902 116.125C187.902 117.242 188.102 118.183 188.502 118.95C188.918 119.717 189.468 120.292 190.152 120.675C190.835 121.042 191.585 121.225 192.402 121.225ZM207.518 120.9L211.768 109.3H214.193L208.818 123H206.168L200.793 109.3H203.243L207.518 120.9ZM217.607 107.075C217.173 107.075 216.807 106.925 216.507 106.625C216.207 106.325 216.057 105.958 216.057 105.525C216.057 105.092 216.207 104.725 216.507 104.425C216.807 104.125 217.173 103.975 217.607 103.975C218.023 103.975 218.373 104.125 218.657 104.425C218.957 104.725 219.107 105.092 219.107 105.525C219.107 105.958 218.957 106.325 218.657 106.625C218.373 106.925 218.023 107.075 217.607 107.075ZM218.707 109.3V123H216.432V109.3H218.707ZM221.734 116.1C221.734 114.7 222.017 113.475 222.584 112.425C223.151 111.358 223.926 110.533 224.909 109.95C225.909 109.367 227.026 109.075 228.259 109.075C229.326 109.075 230.317 109.325 231.234 109.825C232.151 110.308 232.851 110.95 233.334 111.75V104.5H235.634V123H233.334V120.425C232.884 121.242 232.217 121.917 231.334 122.45C230.451 122.967 229.417 123.225 228.234 123.225C227.017 123.225 225.909 122.925 224.909 122.325C223.926 121.725 223.151 120.883 222.584 119.8C222.017 118.717 221.734 117.483 221.734 116.1ZM233.334 116.125C233.334 115.092 233.126 114.192 232.709 113.425C232.292 112.658 231.726 112.075 231.009 111.675C230.309 111.258 229.534 111.05 228.684 111.05C227.834 111.05 227.059 111.25 226.359 111.65C225.659 112.05 225.101 112.633 224.684 113.4C224.267 114.167 224.059 115.067 224.059 116.1C224.059 117.15 224.267 118.067 224.684 118.85C225.101 119.617 225.659 120.208 226.359 120.625C227.059 121.025 227.834 121.225 228.684 121.225C229.534 121.225 230.309 121.025 231.009 120.625C231.726 120.208 232.292 119.617 232.709 118.85C233.126 118.067 233.334 117.158 233.334 116.125ZM251.978 115.625C251.978 116.058 251.953 116.517 251.903 117H240.953C241.037 118.35 241.495 119.408 242.328 120.175C243.178 120.925 244.203 121.3 245.403 121.3C246.387 121.3 247.203 121.075 247.853 120.625C248.52 120.158 248.987 119.542 249.253 118.775H251.703C251.337 120.092 250.603 121.167 249.503 122C248.403 122.817 247.037 123.225 245.403 123.225C244.103 123.225 242.937 122.933 241.903 122.35C240.887 121.767 240.087 120.942 239.503 119.875C238.92 118.792 238.628 117.542 238.628 116.125C238.628 114.708 238.912 113.467 239.478 112.4C240.045 111.333 240.837 110.517 241.853 109.95C242.887 109.367 244.07 109.075 245.403 109.075C246.703 109.075 247.853 109.358 248.853 109.925C249.853 110.492 250.62 111.275 251.153 112.275C251.703 113.258 251.978 114.375 251.978 115.625ZM249.628 115.15C249.628 114.283 249.437 113.542 249.053 112.925C248.67 112.292 248.145 111.817 247.478 111.5C246.828 111.167 246.103 111 245.303 111C244.153 111 243.17 111.367 242.353 112.1C241.553 112.833 241.095 113.85 240.978 115.15H249.628ZM260.796 116.1C260.796 114.7 261.08 113.475 261.646 112.425C262.213 111.358 262.988 110.533 263.971 109.95C264.971 109.367 266.08 109.075 267.296 109.075C268.496 109.075 269.538 109.333 270.421 109.85C271.305 110.367 271.963 111.017 272.396 111.8V109.3H274.696V123H272.396V120.45C271.946 121.25 271.271 121.917 270.371 122.45C269.488 122.967 268.455 123.225 267.271 123.225C266.055 123.225 264.955 122.925 263.971 122.325C262.988 121.725 262.213 120.883 261.646 119.8C261.08 118.717 260.796 117.483 260.796 116.1ZM272.396 116.125C272.396 115.092 272.188 114.192 271.771 113.425C271.355 112.658 270.788 112.075 270.071 111.675C269.371 111.258 268.596 111.05 267.746 111.05C266.896 111.05 266.121 111.25 265.421 111.65C264.721 112.05 264.163 112.633 263.746 113.4C263.33 114.167 263.121 115.067 263.121 116.1C263.121 117.15 263.33 118.067 263.746 118.85C264.163 119.617 264.721 120.208 265.421 120.625C266.121 121.025 266.896 121.225 267.746 121.225C268.596 121.225 269.371 121.025 270.071 120.625C270.788 120.208 271.355 119.617 271.771 118.85C272.188 118.067 272.396 117.158 272.396 116.125ZM290.056 123.225C289.006 123.225 288.064 123.05 287.231 122.7C286.398 122.333 285.739 121.833 285.256 121.2C284.773 120.55 284.506 119.808 284.456 118.975H286.806C286.873 119.658 287.189 120.217 287.756 120.65C288.339 121.083 289.098 121.3 290.031 121.3C290.898 121.3 291.581 121.108 292.081 120.725C292.581 120.342 292.831 119.858 292.831 119.275C292.831 118.675 292.564 118.233 292.031 117.95C291.498 117.65 290.673 117.358 289.556 117.075C288.539 116.808 287.706 116.542 287.056 116.275C286.423 115.992 285.873 115.583 285.406 115.05C284.956 114.5 284.731 113.783 284.731 112.9C284.731 112.2 284.939 111.558 285.356 110.975C285.773 110.392 286.364 109.933 287.131 109.6C287.898 109.25 288.773 109.075 289.756 109.075C291.273 109.075 292.498 109.458 293.431 110.225C294.364 110.992 294.864 112.042 294.931 113.375H292.656C292.606 112.658 292.314 112.083 291.781 111.65C291.264 111.217 290.564 111 289.681 111C288.864 111 288.214 111.175 287.731 111.525C287.248 111.875 287.006 112.333 287.006 112.9C287.006 113.35 287.148 113.725 287.431 114.025C287.731 114.308 288.098 114.542 288.531 114.725C288.981 114.892 289.598 115.083 290.381 115.3C291.364 115.567 292.164 115.833 292.781 116.1C293.398 116.35 293.923 116.733 294.356 117.25C294.806 117.767 295.039 118.442 295.056 119.275C295.056 120.025 294.848 120.7 294.431 121.3C294.014 121.9 293.423 122.375 292.656 122.725C291.906 123.058 291.039 123.225 290.056 123.225ZM310.418 109.3V123H308.143V120.975C307.709 121.675 307.101 122.225 306.318 122.625C305.551 123.008 304.701 123.2 303.768 123.2C302.701 123.2 301.743 122.983 300.893 122.55C300.043 122.1 299.368 121.433 298.868 120.55C298.384 119.667 298.143 118.592 298.143 117.325V109.3H300.393V117.025C300.393 118.375 300.734 119.417 301.418 120.15C302.101 120.867 303.034 121.225 304.218 121.225C305.434 121.225 306.393 120.85 307.093 120.1C307.793 119.35 308.143 118.258 308.143 116.825V109.3H310.418ZM316.534 111.825C316.984 111.042 317.65 110.392 318.534 109.875C319.434 109.342 320.475 109.075 321.659 109.075C322.875 109.075 323.975 109.367 324.959 109.95C325.959 110.533 326.742 111.358 327.309 112.425C327.875 113.475 328.159 114.7 328.159 116.1C328.159 117.483 327.875 118.717 327.309 119.8C326.742 120.883 325.959 121.725 324.959 122.325C323.975 122.925 322.875 123.225 321.659 123.225C320.492 123.225 319.459 122.967 318.559 122.45C317.675 121.917 317 121.258 316.534 120.475V129.5H314.259V109.3H316.534V111.825ZM325.834 116.1C325.834 115.067 325.625 114.167 325.209 113.4C324.792 112.633 324.225 112.05 323.509 111.65C322.809 111.25 322.034 111.05 321.184 111.05C320.35 111.05 319.575 111.258 318.859 111.675C318.159 112.075 317.592 112.667 317.159 113.45C316.742 114.217 316.534 115.108 316.534 116.125C316.534 117.158 316.742 118.067 317.159 118.85C317.592 119.617 318.159 120.208 318.859 120.625C319.575 121.025 320.35 121.225 321.184 121.225C322.034 121.225 322.809 121.025 323.509 120.625C324.225 120.208 324.792 119.617 325.209 118.85C325.625 118.067 325.834 117.15 325.834 116.1ZM333.428 111.825C333.878 111.042 334.545 110.392 335.428 109.875C336.328 109.342 337.37 109.075 338.553 109.075C339.77 109.075 340.87 109.367 341.853 109.95C342.853 110.533 343.637 111.358 344.203 112.425C344.77 113.475 345.053 114.7 345.053 116.1C345.053 117.483 344.77 118.717 344.203 119.8C343.637 120.883 342.853 121.725 341.853 122.325C340.87 122.925 339.77 123.225 338.553 123.225C337.387 123.225 336.353 122.967 335.453 122.45C334.57 121.917 333.895 121.258 333.428 120.475V129.5H331.153V109.3H333.428V111.825ZM342.728 116.1C342.728 115.067 342.52 114.167 342.103 113.4C341.687 112.633 341.12 112.05 340.403 111.65C339.703 111.25 338.928 111.05 338.078 111.05C337.245 111.05 336.47 111.258 335.753 111.675C335.053 112.075 334.487 112.667 334.053 113.45C333.637 114.217 333.428 115.108 333.428 116.125C333.428 117.158 333.637 118.067 334.053 118.85C334.487 119.617 335.053 120.208 335.753 120.625C336.47 121.025 337.245 121.225 338.078 121.225C338.928 121.225 339.703 121.025 340.403 120.625C341.12 120.208 341.687 119.617 342.103 118.85C342.52 118.067 342.728 117.15 342.728 116.1ZM354.023 123.225C352.739 123.225 351.573 122.933 350.523 122.35C349.489 121.767 348.673 120.942 348.073 119.875C347.489 118.792 347.198 117.542 347.198 116.125C347.198 114.725 347.498 113.492 348.098 112.425C348.714 111.342 349.548 110.517 350.598 109.95C351.648 109.367 352.823 109.075 354.123 109.075C355.423 109.075 356.598 109.367 357.648 109.95C358.698 110.517 359.523 111.333 360.123 112.4C360.739 113.467 361.048 114.708 361.048 116.125C361.048 117.542 360.731 118.792 360.098 119.875C359.481 120.942 358.639 121.767 357.573 122.35C356.506 122.933 355.323 123.225 354.023 123.225ZM354.023 121.225C354.839 121.225 355.606 121.033 356.323 120.65C357.039 120.267 357.614 119.692 358.048 118.925C358.498 118.158 358.723 117.225 358.723 116.125C358.723 115.025 358.506 114.092 358.073 113.325C357.639 112.558 357.073 111.992 356.373 111.625C355.673 111.242 354.914 111.05 354.098 111.05C353.264 111.05 352.498 111.242 351.798 111.625C351.114 111.992 350.564 112.558 350.148 113.325C349.731 114.092 349.523 115.025 349.523 116.125C349.523 117.242 349.723 118.183 350.123 118.95C350.539 119.717 351.089 120.292 351.773 120.675C352.456 121.042 353.206 121.225 354.023 121.225ZM366.314 111.525C366.714 110.742 367.281 110.133 368.014 109.7C368.764 109.267 369.672 109.05 370.739 109.05V111.4H370.139C367.589 111.4 366.314 112.783 366.314 115.55V123H364.039V109.3H366.314V111.525ZM376.14 111.175V119.25C376.14 119.917 376.282 120.392 376.565 120.675C376.849 120.942 377.34 121.075 378.04 121.075H379.715V123H377.665C376.399 123 375.449 122.708 374.815 122.125C374.182 121.542 373.865 120.583 373.865 119.25V111.175H372.09V109.3H373.865V105.85H376.14V109.3H379.715V111.175H376.14ZM383.647 107.075C383.213 107.075 382.847 106.925 382.547 106.625C382.247 106.325 382.097 105.958 382.097 105.525C382.097 105.092 382.247 104.725 382.547 104.425C382.847 104.125 383.213 103.975 383.647 103.975C384.063 103.975 384.413 104.125 384.697 104.425C384.997 104.725 385.147 105.092 385.147 105.525C385.147 105.958 384.997 106.325 384.697 106.625C384.413 106.925 384.063 107.075 383.647 107.075ZM384.747 109.3V123H382.472V109.3H384.747ZM393.724 120.9L397.974 109.3H400.399L395.024 123H392.374L386.999 109.3H389.449L393.724 120.9ZM415.138 115.625C415.138 116.058 415.113 116.517 415.063 117H404.113C404.196 118.35 404.654 119.408 405.488 120.175C406.338 120.925 407.363 121.3 408.563 121.3C409.546 121.3 410.363 121.075 411.013 120.625C411.679 120.158 412.146 119.542 412.413 118.775H414.863C414.496 120.092 413.763 121.167 412.663 122C411.563 122.817 410.196 123.225 408.563 123.225C407.263 123.225 406.096 122.933 405.063 122.35C404.046 121.767 403.246 120.942 402.663 119.875C402.079 118.792 401.788 117.542 401.788 116.125C401.788 114.708 402.071 113.467 402.638 112.4C403.204 111.333 403.996 110.517 405.013 109.95C406.046 109.367 407.229 109.075 408.563 109.075C409.863 109.075 411.013 109.358 412.013 109.925C413.013 110.492 413.779 111.275 414.313 112.275C414.863 113.258 415.138 114.375 415.138 115.625ZM412.788 115.15C412.788 114.283 412.596 113.542 412.213 112.925C411.829 112.292 411.304 111.817 410.638 111.5C409.988 111.167 409.263 111 408.463 111C407.313 111 406.329 111.367 405.513 112.1C404.713 112.833 404.254 113.85 404.138 115.15H412.788ZM423.956 116.1C423.956 114.7 424.239 113.475 424.806 112.425C425.372 111.358 426.147 110.533 427.131 109.95C428.131 109.367 429.239 109.075 430.456 109.075C431.656 109.075 432.697 109.333 433.581 109.85C434.464 110.367 435.122 111.017 435.556 111.8V109.3H437.856V123H435.556V120.45C435.106 121.25 434.431 121.917 433.531 122.45C432.647 122.967 431.614 123.225 430.431 123.225C429.214 123.225 428.114 122.925 427.131 122.325C426.147 121.725 425.372 120.883 424.806 119.8C424.239 118.717 423.956 117.483 423.956 116.1ZM435.556 116.125C435.556 115.092 435.347 114.192 434.931 113.425C434.514 112.658 433.947 112.075 433.231 111.675C432.531 111.258 431.756 111.05 430.906 111.05C430.056 111.05 429.281 111.25 428.581 111.65C427.881 112.05 427.322 112.633 426.906 113.4C426.489 114.167 426.281 115.067 426.281 116.1C426.281 117.15 426.489 118.067 426.906 118.85C427.322 119.617 427.881 120.208 428.581 120.625C429.281 121.025 430.056 121.225 430.906 121.225C431.756 121.225 432.531 121.025 433.231 120.625C433.947 120.208 434.514 119.617 434.931 118.85C435.347 118.067 435.556 117.158 435.556 116.125ZM448.375 109.05C450.042 109.05 451.392 109.558 452.425 110.575C453.458 111.575 453.975 113.025 453.975 114.925V123H451.725V115.25C451.725 113.883 451.383 112.842 450.7 112.125C450.017 111.392 449.083 111.025 447.9 111.025C446.7 111.025 445.742 111.4 445.025 112.15C444.325 112.9 443.975 113.992 443.975 115.425V123H441.7V109.3H443.975V111.25C444.425 110.55 445.033 110.008 445.8 109.625C446.583 109.242 447.442 109.05 448.375 109.05ZM456.841 116.1C456.841 114.7 457.125 113.475 457.691 112.425C458.258 111.358 459.033 110.533 460.016 109.95C461.016 109.367 462.133 109.075 463.366 109.075C464.433 109.075 465.425 109.325 466.341 109.825C467.258 110.308 467.958 110.95 468.441 111.75V104.5H470.741V123H468.441V120.425C467.991 121.242 467.325 121.917 466.441 122.45C465.558 122.967 464.525 123.225 463.341 123.225C462.125 123.225 461.016 122.925 460.016 122.325C459.033 121.725 458.258 120.883 457.691 119.8C457.125 118.717 456.841 117.483 456.841 116.1ZM468.441 116.125C468.441 115.092 468.233 114.192 467.816 113.425C467.4 112.658 466.833 112.075 466.116 111.675C465.416 111.258 464.641 111.05 463.791 111.05C462.941 111.05 462.166 111.25 461.466 111.65C460.766 112.05 460.208 112.633 459.791 113.4C459.375 114.167 459.166 115.067 459.166 116.1C459.166 117.15 459.375 118.067 459.791 118.85C460.208 119.617 460.766 120.208 461.466 120.625C462.166 121.025 462.941 121.225 463.791 121.225C464.641 121.225 465.416 121.025 466.116 120.625C466.833 120.208 467.4 119.617 467.816 118.85C468.233 118.067 468.441 117.158 468.441 116.125ZM482.426 107.075C481.993 107.075 481.626 106.925 481.326 106.625C481.026 106.325 480.876 105.958 480.876 105.525C480.876 105.092 481.026 104.725 481.326 104.425C481.626 104.125 481.993 103.975 482.426 103.975C482.843 103.975 483.193 104.125 483.476 104.425C483.776 104.725 483.926 105.092 483.926 105.525C483.926 105.958 483.776 106.325 483.476 106.625C483.193 106.925 482.843 107.075 482.426 107.075ZM483.526 109.3V123H481.251V109.3H483.526ZM494.078 109.05C495.745 109.05 497.095 109.558 498.128 110.575C499.162 111.575 499.678 113.025 499.678 114.925V123H497.428V115.25C497.428 113.883 497.087 112.842 496.403 112.125C495.72 111.392 494.787 111.025 493.603 111.025C492.403 111.025 491.445 111.4 490.728 112.15C490.028 112.9 489.678 113.992 489.678 115.425V123H487.403V109.3H489.678V111.25C490.128 110.55 490.737 110.008 491.503 109.625C492.287 109.242 493.145 109.05 494.078 109.05ZM502.544 116.125C502.544 114.708 502.828 113.475 503.394 112.425C503.961 111.358 504.744 110.533 505.744 109.95C506.761 109.367 507.919 109.075 509.219 109.075C510.903 109.075 512.286 109.483 513.369 110.3C514.469 111.117 515.194 112.25 515.544 113.7H513.094C512.861 112.867 512.403 112.208 511.719 111.725C511.053 111.242 510.219 111 509.219 111C507.919 111 506.869 111.45 506.069 112.35C505.269 113.233 504.869 114.492 504.869 116.125C504.869 117.775 505.269 119.05 506.069 119.95C506.869 120.85 507.919 121.3 509.219 121.3C510.219 121.3 511.053 121.067 511.719 120.6C512.386 120.133 512.844 119.467 513.094 118.6H515.544C515.178 120 514.444 121.125 513.344 121.975C512.244 122.808 510.869 123.225 509.219 123.225C507.919 123.225 506.761 122.933 505.744 122.35C504.744 121.767 503.961 120.942 503.394 119.875C502.828 118.808 502.544 117.558 502.544 116.125ZM520.855 104.5V123H518.58V104.5H520.855ZM536.882 109.3V123H534.607V120.975C534.174 121.675 533.566 122.225 532.782 122.625C532.016 123.008 531.166 123.2 530.232 123.2C529.166 123.2 528.207 122.983 527.357 122.55C526.507 122.1 525.832 121.433 525.332 120.55C524.849 119.667 524.607 118.592 524.607 117.325V109.3H526.857V117.025C526.857 118.375 527.199 119.417 527.882 120.15C528.566 120.867 529.499 121.225 530.682 121.225C531.899 121.225 532.857 120.85 533.557 120.1C534.257 119.35 534.607 118.258 534.607 116.825V109.3H536.882ZM545.574 123.225C544.524 123.225 543.582 123.05 542.749 122.7C541.915 122.333 541.257 121.833 540.774 121.2C540.29 120.55 540.024 119.808 539.974 118.975H542.324C542.39 119.658 542.707 120.217 543.274 120.65C543.857 121.083 544.615 121.3 545.549 121.3C546.415 121.3 547.099 121.108 547.599 120.725C548.099 120.342 548.349 119.858 548.349 119.275C548.349 118.675 548.082 118.233 547.549 117.95C547.015 117.65 546.19 117.358 545.074 117.075C544.057 116.808 543.224 116.542 542.574 116.275C541.94 115.992 541.39 115.583 540.924 115.05C540.474 114.5 540.249 113.783 540.249 112.9C540.249 112.2 540.457 111.558 540.874 110.975C541.29 110.392 541.882 109.933 542.649 109.6C543.415 109.25 544.29 109.075 545.274 109.075C546.79 109.075 548.015 109.458 548.949 110.225C549.882 110.992 550.382 112.042 550.449 113.375H548.174C548.124 112.658 547.832 112.083 547.299 111.65C546.782 111.217 546.082 111 545.199 111C544.382 111 543.732 111.175 543.249 111.525C542.765 111.875 542.524 112.333 542.524 112.9C542.524 113.35 542.665 113.725 542.949 114.025C543.249 114.308 543.615 114.542 544.049 114.725C544.499 114.892 545.115 115.083 545.899 115.3C546.882 115.567 547.682 115.833 548.299 116.1C548.915 116.35 549.44 116.733 549.874 117.25C550.324 117.767 550.557 118.442 550.574 119.275C550.574 120.025 550.365 120.7 549.949 121.3C549.532 121.9 548.94 122.375 548.174 122.725C547.424 123.058 546.557 123.225 545.574 123.225ZM554.96 107.075C554.527 107.075 554.16 106.925 553.86 106.625C553.56 106.325 553.41 105.958 553.41 105.525C553.41 105.092 553.56 104.725 553.86 104.425C554.16 104.125 554.527 103.975 554.96 103.975C555.377 103.975 555.727 104.125 556.01 104.425C556.31 104.725 556.46 105.092 556.46 105.525C556.46 105.958 556.31 106.325 556.01 106.625C555.727 106.925 555.377 107.075 554.96 107.075ZM556.06 109.3V123H553.785V109.3H556.06ZM565.037 120.9L569.287 109.3H571.712L566.337 123H563.687L558.312 109.3H560.762L565.037 120.9ZM586.451 115.625C586.451 116.058 586.426 116.517 586.376 117H575.426C575.509 118.35 575.968 119.408 576.801 120.175C577.651 120.925 578.676 121.3 579.876 121.3C580.859 121.3 581.676 121.075 582.326 120.625C582.993 120.158 583.459 119.542 583.726 118.775H586.176C585.809 120.092 585.076 121.167 583.976 122C582.876 122.817 581.509 123.225 579.876 123.225C578.576 123.225 577.409 122.933 576.376 122.35C575.359 121.767 574.559 120.942 573.976 119.875C573.393 118.792 573.101 117.542 573.101 116.125C573.101 114.708 573.384 113.467 573.951 112.4C574.518 111.333 575.309 110.517 576.326 109.95C577.359 109.367 578.543 109.075 579.876 109.075C581.176 109.075 582.326 109.358 583.326 109.925C584.326 110.492 585.093 111.275 585.626 112.275C586.176 113.258 586.451 114.375 586.451 115.625ZM584.101 115.15C584.101 114.283 583.909 113.542 583.526 112.925C583.143 112.292 582.618 111.817 581.951 111.5C581.301 111.167 580.576 111 579.776 111C578.626 111 577.643 111.367 576.826 112.1C576.026 112.833 575.568 113.85 575.451 115.15H584.101ZM161.773 154.125C161.773 152.708 162.056 151.475 162.623 150.425C163.19 149.358 163.973 148.533 164.973 147.95C165.99 147.367 167.148 147.075 168.448 147.075C170.131 147.075 171.515 147.483 172.598 148.3C173.698 149.117 174.423 150.25 174.773 151.7H172.323C172.09 150.867 171.631 150.208 170.948 149.725C170.281 149.242 169.448 149 168.448 149C167.148 149 166.098 149.45 165.298 150.35C164.498 151.233 164.098 152.492 164.098 154.125C164.098 155.775 164.498 157.05 165.298 157.95C166.098 158.85 167.148 159.3 168.448 159.3C169.448 159.3 170.281 159.067 170.948 158.6C171.615 158.133 172.073 157.467 172.323 156.6H174.773C174.406 158 173.673 159.125 172.573 159.975C171.473 160.808 170.098 161.225 168.448 161.225C167.148 161.225 165.99 160.933 164.973 160.35C163.973 159.767 163.19 158.942 162.623 157.875C162.056 156.808 161.773 155.558 161.773 154.125ZM183.784 161.225C182.5 161.225 181.334 160.933 180.284 160.35C179.25 159.767 178.434 158.942 177.834 157.875C177.25 156.792 176.959 155.542 176.959 154.125C176.959 152.725 177.259 151.492 177.859 150.425C178.475 149.342 179.309 148.517 180.359 147.95C181.409 147.367 182.584 147.075 183.884 147.075C185.184 147.075 186.359 147.367 187.409 147.95C188.459 148.517 189.284 149.333 189.884 150.4C190.5 151.467 190.809 152.708 190.809 154.125C190.809 155.542 190.492 156.792 189.859 157.875C189.242 158.942 188.4 159.767 187.334 160.35C186.267 160.933 185.084 161.225 183.784 161.225ZM183.784 159.225C184.6 159.225 185.367 159.033 186.084 158.65C186.8 158.267 187.375 157.692 187.809 156.925C188.259 156.158 188.484 155.225 188.484 154.125C188.484 153.025 188.267 152.092 187.834 151.325C187.4 150.558 186.834 149.992 186.134 149.625C185.434 149.242 184.675 149.05 183.859 149.05C183.025 149.05 182.259 149.242 181.559 149.625C180.875 149.992 180.325 150.558 179.909 151.325C179.492 152.092 179.284 153.025 179.284 154.125C179.284 155.242 179.484 156.183 179.884 156.95C180.3 157.717 180.85 158.292 181.534 158.675C182.217 159.042 182.967 159.225 183.784 159.225ZM210.275 147.05C211.341 147.05 212.291 147.275 213.125 147.725C213.958 148.158 214.616 148.817 215.1 149.7C215.583 150.583 215.825 151.658 215.825 152.925V161H213.575V153.25C213.575 151.883 213.233 150.842 212.55 150.125C211.883 149.392 210.975 149.025 209.825 149.025C208.641 149.025 207.7 149.408 207 150.175C206.3 150.925 205.95 152.017 205.95 153.45V161H203.7V153.25C203.7 151.883 203.358 150.842 202.675 150.125C202.008 149.392 201.1 149.025 199.95 149.025C198.766 149.025 197.825 149.408 197.125 150.175C196.425 150.925 196.075 152.017 196.075 153.45V161H193.8V147.3H196.075V149.275C196.525 148.558 197.125 148.008 197.875 147.625C198.641 147.242 199.483 147.05 200.4 147.05C201.55 147.05 202.566 147.308 203.45 147.825C204.333 148.342 204.991 149.1 205.425 150.1C205.808 149.133 206.441 148.383 207.325 147.85C208.208 147.317 209.191 147.05 210.275 147.05ZM236.032 147.05C237.098 147.05 238.048 147.275 238.882 147.725C239.715 148.158 240.373 148.817 240.857 149.7C241.34 150.583 241.582 151.658 241.582 152.925V161H239.332V153.25C239.332 151.883 238.99 150.842 238.307 150.125C237.64 149.392 236.732 149.025 235.582 149.025C234.398 149.025 233.457 149.408 232.757 150.175C232.057 150.925 231.707 152.017 231.707 153.45V161H229.457V153.25C229.457 151.883 229.115 150.842 228.432 150.125C227.765 149.392 226.857 149.025 225.707 149.025C224.523 149.025 223.582 149.408 222.882 150.175C222.182 150.925 221.832 152.017 221.832 153.45V161H219.557V147.3H221.832V149.275C222.282 148.558 222.882 148.008 223.632 147.625C224.398 147.242 225.24 147.05 226.157 147.05C227.307 147.05 228.323 147.308 229.207 147.825C230.09 148.342 230.748 149.1 231.182 150.1C231.565 149.133 232.198 148.383 233.082 147.85C233.965 147.317 234.948 147.05 236.032 147.05ZM257.463 147.3V161H255.188V158.975C254.755 159.675 254.147 160.225 253.363 160.625C252.597 161.008 251.747 161.2 250.813 161.2C249.747 161.2 248.788 160.983 247.938 160.55C247.088 160.1 246.413 159.433 245.913 158.55C245.43 157.667 245.188 156.592 245.188 155.325V147.3H247.438V155.025C247.438 156.375 247.78 157.417 248.463 158.15C249.147 158.867 250.08 159.225 251.263 159.225C252.48 159.225 253.438 158.85 254.138 158.1C254.838 157.35 255.188 156.258 255.188 154.825V147.3H257.463ZM267.98 147.05C269.646 147.05 270.996 147.558 272.03 148.575C273.063 149.575 273.58 151.025 273.58 152.925V161H271.33V153.25C271.33 151.883 270.988 150.842 270.305 150.125C269.621 149.392 268.688 149.025 267.505 149.025C266.305 149.025 265.346 149.4 264.63 150.15C263.93 150.9 263.58 151.992 263.58 153.425V161H261.305V147.3H263.58V149.25C264.03 148.55 264.638 148.008 265.405 147.625C266.188 147.242 267.046 147.05 267.98 147.05ZM278.471 145.075C278.038 145.075 277.671 144.925 277.371 144.625C277.071 144.325 276.921 143.958 276.921 143.525C276.921 143.092 277.071 142.725 277.371 142.425C277.671 142.125 278.038 141.975 278.471 141.975C278.888 141.975 279.238 142.125 279.521 142.425C279.821 142.725 279.971 143.092 279.971 143.525C279.971 143.958 279.821 144.325 279.521 144.625C279.238 144.925 278.888 145.075 278.471 145.075ZM279.571 147.3V161H277.296V147.3H279.571ZM286.223 149.175V157.25C286.223 157.917 286.365 158.392 286.648 158.675C286.932 158.942 287.423 159.075 288.123 159.075H289.798V161H287.748C286.482 161 285.532 160.708 284.898 160.125C284.265 159.542 283.948 158.583 283.948 157.25V149.175H282.173V147.3H283.948V143.85H286.223V147.3H289.798V149.175H286.223ZM304.355 147.3L296.105 167.45H293.755L296.455 160.85L290.93 147.3H293.455L297.755 158.4L302.005 147.3H304.355ZM319.282 161.225C317.998 161.225 316.832 160.933 315.782 160.35C314.748 159.767 313.932 158.942 313.332 157.875C312.748 156.792 312.457 155.542 312.457 154.125C312.457 152.725 312.757 151.492 313.357 150.425C313.973 149.342 314.807 148.517 315.857 147.95C316.907 147.367 318.082 147.075 319.382 147.075C320.682 147.075 321.857 147.367 322.907 147.95C323.957 148.517 324.782 149.333 325.382 150.4C325.998 151.467 326.307 152.708 326.307 154.125C326.307 155.542 325.99 156.792 325.357 157.875C324.74 158.942 323.898 159.767 322.832 160.35C321.765 160.933 320.582 161.225 319.282 161.225ZM319.282 159.225C320.098 159.225 320.865 159.033 321.582 158.65C322.298 158.267 322.873 157.692 323.307 156.925C323.757 156.158 323.982 155.225 323.982 154.125C323.982 153.025 323.765 152.092 323.332 151.325C322.898 150.558 322.332 149.992 321.632 149.625C320.932 149.242 320.173 149.05 319.357 149.05C318.523 149.05 317.757 149.242 317.057 149.625C316.373 149.992 315.823 150.558 315.407 151.325C314.99 152.092 314.782 153.025 314.782 154.125C314.782 155.242 314.982 156.183 315.382 156.95C315.798 157.717 316.348 158.292 317.032 158.675C317.715 159.042 318.465 159.225 319.282 159.225ZM335.973 147.05C337.639 147.05 338.989 147.558 340.023 148.575C341.056 149.575 341.573 151.025 341.573 152.925V161H339.323V153.25C339.323 151.883 338.981 150.842 338.298 150.125C337.614 149.392 336.681 149.025 335.498 149.025C334.298 149.025 333.339 149.4 332.623 150.15C331.923 150.9 331.573 151.992 331.573 153.425V161H329.298V147.3H331.573V149.25C332.023 148.55 332.631 148.008 333.398 147.625C334.181 147.242 335.039 147.05 335.973 147.05ZM351.104 154.125C351.104 152.708 351.387 151.475 351.954 150.425C352.521 149.358 353.304 148.533 354.304 147.95C355.321 147.367 356.479 147.075 357.779 147.075C359.462 147.075 360.846 147.483 361.929 148.3C363.029 149.117 363.754 150.25 364.104 151.7H361.654C361.421 150.867 360.962 150.208 360.279 149.725C359.612 149.242 358.779 149 357.779 149C356.479 149 355.429 149.45 354.629 150.35C353.829 151.233 353.429 152.492 353.429 154.125C353.429 155.775 353.829 157.05 354.629 157.95C355.429 158.85 356.479 159.3 357.779 159.3C358.779 159.3 359.612 159.067 360.279 158.6C360.946 158.133 361.404 157.467 361.654 156.6H364.104C363.737 158 363.004 159.125 361.904 159.975C360.804 160.808 359.429 161.225 357.779 161.225C356.479 161.225 355.321 160.933 354.304 160.35C353.304 159.767 352.521 158.942 351.954 157.875C351.387 156.808 351.104 155.558 351.104 154.125ZM366.29 154.1C366.29 152.7 366.573 151.475 367.14 150.425C367.706 149.358 368.481 148.533 369.465 147.95C370.465 147.367 371.573 147.075 372.79 147.075C373.99 147.075 375.031 147.333 375.915 147.85C376.798 148.367 377.456 149.017 377.89 149.8V147.3H380.19V161H377.89V158.45C377.44 159.25 376.765 159.917 375.865 160.45C374.981 160.967 373.948 161.225 372.765 161.225C371.548 161.225 370.448 160.925 369.465 160.325C368.481 159.725 367.706 158.883 367.14 157.8C366.573 156.717 366.29 155.483 366.29 154.1ZM377.89 154.125C377.89 153.092 377.681 152.192 377.265 151.425C376.848 150.658 376.281 150.075 375.565 149.675C374.865 149.258 374.09 149.05 373.24 149.05C372.39 149.05 371.615 149.25 370.915 149.65C370.215 150.05 369.656 150.633 369.24 151.4C368.823 152.167 368.615 153.067 368.615 154.1C368.615 155.15 368.823 156.067 369.24 156.85C369.656 157.617 370.215 158.208 370.915 158.625C371.615 159.025 372.39 159.225 373.24 159.225C374.09 159.225 374.865 159.025 375.565 158.625C376.281 158.208 376.848 157.617 377.265 156.85C377.681 156.067 377.89 155.158 377.89 154.125ZM400.509 147.05C401.576 147.05 402.526 147.275 403.359 147.725C404.192 148.158 404.851 148.817 405.334 149.7C405.817 150.583 406.059 151.658 406.059 152.925V161H403.809V153.25C403.809 151.883 403.467 150.842 402.784 150.125C402.117 149.392 401.209 149.025 400.059 149.025C398.876 149.025 397.934 149.408 397.234 150.175C396.534 150.925 396.184 152.017 396.184 153.45V161H393.934V153.25C393.934 151.883 393.592 150.842 392.909 150.125C392.242 149.392 391.334 149.025 390.184 149.025C389.001 149.025 388.059 149.408 387.359 150.175C386.659 150.925 386.309 152.017 386.309 153.45V161H384.034V147.3H386.309V149.275C386.759 148.558 387.359 148.008 388.109 147.625C388.876 147.242 389.717 147.05 390.634 147.05C391.784 147.05 392.801 147.308 393.684 147.825C394.567 148.342 395.226 149.1 395.659 150.1C396.042 149.133 396.676 148.383 397.559 147.85C398.442 147.317 399.426 147.05 400.509 147.05ZM412.066 149.825C412.516 149.042 413.183 148.392 414.066 147.875C414.966 147.342 416.008 147.075 417.191 147.075C418.408 147.075 419.508 147.367 420.491 147.95C421.491 148.533 422.274 149.358 422.841 150.425C423.408 151.475 423.691 152.7 423.691 154.1C423.691 155.483 423.408 156.717 422.841 157.8C422.274 158.883 421.491 159.725 420.491 160.325C419.508 160.925 418.408 161.225 417.191 161.225C416.024 161.225 414.991 160.967 414.091 160.45C413.208 159.917 412.533 159.258 412.066 158.475V167.5H409.791V147.3H412.066V149.825ZM421.366 154.1C421.366 153.067 421.158 152.167 420.741 151.4C420.324 150.633 419.758 150.05 419.041 149.65C418.341 149.25 417.566 149.05 416.716 149.05C415.883 149.05 415.108 149.258 414.391 149.675C413.691 150.075 413.124 150.667 412.691 151.45C412.274 152.217 412.066 153.108 412.066 154.125C412.066 155.158 412.274 156.067 412.691 156.85C413.124 157.617 413.691 158.208 414.391 158.625C415.108 159.025 415.883 159.225 416.716 159.225C417.566 159.225 418.341 159.025 419.041 158.625C419.758 158.208 420.324 157.617 420.741 156.85C421.158 156.067 421.366 155.15 421.366 154.1ZM438.835 147.3V161H436.56V158.975C436.127 159.675 435.519 160.225 434.735 160.625C433.969 161.008 433.119 161.2 432.185 161.2C431.119 161.2 430.16 160.983 429.31 160.55C428.46 160.1 427.785 159.433 427.285 158.55C426.802 157.667 426.56 156.592 426.56 155.325V147.3H428.81V155.025C428.81 156.375 429.152 157.417 429.835 158.15C430.519 158.867 431.452 159.225 432.635 159.225C433.852 159.225 434.81 158.85 435.51 158.1C436.21 157.35 436.56 156.258 436.56 154.825V147.3H438.835ZM447.527 161.225C446.477 161.225 445.535 161.05 444.702 160.7C443.868 160.333 443.21 159.833 442.727 159.2C442.243 158.55 441.977 157.808 441.927 156.975H444.277C444.343 157.658 444.66 158.217 445.227 158.65C445.81 159.083 446.568 159.3 447.502 159.3C448.368 159.3 449.052 159.108 449.552 158.725C450.052 158.342 450.302 157.858 450.302 157.275C450.302 156.675 450.035 156.233 449.502 155.95C448.968 155.65 448.143 155.358 447.027 155.075C446.01 154.808 445.177 154.542 444.527 154.275C443.893 153.992 443.343 153.583 442.877 153.05C442.427 152.5 442.202 151.783 442.202 150.9C442.202 150.2 442.41 149.558 442.827 148.975C443.243 148.392 443.835 147.933 444.602 147.6C445.368 147.25 446.243 147.075 447.227 147.075C448.743 147.075 449.968 147.458 450.902 148.225C451.835 148.992 452.335 150.042 452.402 151.375H450.127C450.077 150.658 449.785 150.083 449.252 149.65C448.735 149.217 448.035 149 447.152 149C446.335 149 445.685 149.175 445.202 149.525C444.718 149.875 444.477 150.333 444.477 150.9C444.477 151.35 444.618 151.725 444.902 152.025C445.202 152.308 445.568 152.542 446.002 152.725C446.452 152.892 447.068 153.083 447.852 153.3C448.835 153.567 449.635 153.833 450.252 154.1C450.868 154.35 451.393 154.733 451.827 155.25C452.277 155.767 452.51 156.442 452.527 157.275C452.527 158.025 452.318 158.7 451.902 159.3C451.485 159.9 450.893 160.375 450.127 160.725C449.377 161.058 448.51 161.225 447.527 161.225ZM467.978 149.175H465.103V161H462.828V149.175H461.053V147.3H462.828V146.325C462.828 144.792 463.22 143.675 464.003 142.975C464.803 142.258 466.078 141.9 467.828 141.9V143.8C466.828 143.8 466.12 144 465.703 144.4C465.303 144.783 465.103 145.425 465.103 146.325V147.3H467.978V149.175ZM476.606 161.225C475.322 161.225 474.156 160.933 473.106 160.35C472.072 159.767 471.256 158.942 470.656 157.875C470.072 156.792 469.781 155.542 469.781 154.125C469.781 152.725 470.081 151.492 470.681 150.425C471.297 149.342 472.131 148.517 473.181 147.95C474.231 147.367 475.406 147.075 476.706 147.075C478.006 147.075 479.181 147.367 480.231 147.95C481.281 148.517 482.106 149.333 482.706 150.4C483.322 151.467 483.631 152.708 483.631 154.125C483.631 155.542 483.314 156.792 482.681 157.875C482.064 158.942 481.222 159.767 480.156 160.35C479.089 160.933 477.906 161.225 476.606 161.225ZM476.606 159.225C477.422 159.225 478.189 159.033 478.906 158.65C479.622 158.267 480.197 157.692 480.631 156.925C481.081 156.158 481.306 155.225 481.306 154.125C481.306 153.025 481.089 152.092 480.656 151.325C480.222 150.558 479.656 149.992 478.956 149.625C478.256 149.242 477.497 149.05 476.681 149.05C475.847 149.05 475.081 149.242 474.381 149.625C473.697 149.992 473.147 150.558 472.731 151.325C472.314 152.092 472.106 153.025 472.106 154.125C472.106 155.242 472.306 156.183 472.706 156.95C473.122 157.717 473.672 158.292 474.356 158.675C475.039 159.042 475.789 159.225 476.606 159.225ZM488.897 149.525C489.297 148.742 489.864 148.133 490.597 147.7C491.347 147.267 492.255 147.05 493.322 147.05V149.4H492.722C490.172 149.4 488.897 150.783 488.897 153.55V161H486.622V147.3H488.897V149.525ZM501.763 154.1C501.763 152.7 502.047 151.475 502.613 150.425C503.18 149.358 503.955 148.533 504.938 147.95C505.938 147.367 507.047 147.075 508.263 147.075C509.463 147.075 510.505 147.333 511.388 147.85C512.272 148.367 512.93 149.017 513.363 149.8V147.3H515.663V161H513.363V158.45C512.913 159.25 512.238 159.917 511.338 160.45C510.455 160.967 509.422 161.225 508.238 161.225C507.022 161.225 505.922 160.925 504.938 160.325C503.955 159.725 503.18 158.883 502.613 157.8C502.047 156.717 501.763 155.483 501.763 154.1ZM513.363 154.125C513.363 153.092 513.155 152.192 512.738 151.425C512.322 150.658 511.755 150.075 511.038 149.675C510.338 149.258 509.563 149.05 508.713 149.05C507.863 149.05 507.088 149.25 506.388 149.65C505.688 150.05 505.13 150.633 504.713 151.4C504.297 152.167 504.088 153.067 504.088 154.1C504.088 155.15 504.297 156.067 504.713 156.85C505.13 157.617 505.688 158.208 506.388 158.625C507.088 159.025 507.863 159.225 508.713 159.225C509.563 159.225 510.338 159.025 511.038 158.625C511.755 158.208 512.322 157.617 512.738 156.85C513.155 156.067 513.363 155.158 513.363 154.125ZM521.783 142.5V161H519.508V142.5H521.783ZM527.935 142.5V161H525.66V142.5H527.935ZM180.298 181.7V199H178.023V186.1L172.273 199H170.673L164.898 186.075V199H162.623V181.7H165.073L171.473 196L177.873 181.7H180.298ZM196.306 185.3V199H194.031V196.975C193.598 197.675 192.99 198.225 192.206 198.625C191.44 199.008 190.59 199.2 189.656 199.2C188.59 199.2 187.631 198.983 186.781 198.55C185.931 198.1 185.256 197.433 184.756 196.55C184.273 195.667 184.031 194.592 184.031 193.325V185.3H186.281V193.025C186.281 194.375 186.623 195.417 187.306 196.15C187.99 196.867 188.923 197.225 190.106 197.225C191.323 197.225 192.281 196.85 192.981 196.1C193.681 195.35 194.031 194.258 194.031 192.825V185.3H196.306ZM204.997 199.225C203.947 199.225 203.006 199.05 202.172 198.7C201.339 198.333 200.681 197.833 200.197 197.2C199.714 196.55 199.447 195.808 199.397 194.975H201.747C201.814 195.658 202.131 196.217 202.697 196.65C203.281 197.083 204.039 197.3 204.972 197.3C205.839 197.3 206.522 197.108 207.022 196.725C207.522 196.342 207.772 195.858 207.772 195.275C207.772 194.675 207.506 194.233 206.972 193.95C206.439 193.65 205.614 193.358 204.497 193.075C203.481 192.808 202.647 192.542 201.997 192.275C201.364 191.992 200.814 191.583 200.347 191.05C199.897 190.5 199.672 189.783 199.672 188.9C199.672 188.2 199.881 187.558 200.297 186.975C200.714 186.392 201.306 185.933 202.072 185.6C202.839 185.25 203.714 185.075 204.697 185.075C206.214 185.075 207.439 185.458 208.372 186.225C209.306 186.992 209.806 188.042 209.872 189.375H207.597C207.547 188.658 207.256 188.083 206.722 187.65C206.206 187.217 205.506 187 204.622 187C203.806 187 203.156 187.175 202.672 187.525C202.189 187.875 201.947 188.333 201.947 188.9C201.947 189.35 202.089 189.725 202.372 190.025C202.672 190.308 203.039 190.542 203.472 190.725C203.922 190.892 204.539 191.083 205.322 191.3C206.306 191.567 207.106 191.833 207.722 192.1C208.339 192.35 208.864 192.733 209.297 193.25C209.747 193.767 209.981 194.442 209.997 195.275C209.997 196.025 209.789 196.7 209.372 197.3C208.956 197.9 208.364 198.375 207.597 198.725C206.847 199.058 205.981 199.225 204.997 199.225ZM215.484 180.5V199H213.209V180.5H215.484ZM220.536 183.075C220.103 183.075 219.736 182.925 219.436 182.625C219.136 182.325 218.986 181.958 218.986 181.525C218.986 181.092 219.136 180.725 219.436 180.425C219.736 180.125 220.103 179.975 220.536 179.975C220.953 179.975 221.303 180.125 221.586 180.425C221.886 180.725 222.036 181.092 222.036 181.525C222.036 181.958 221.886 182.325 221.586 182.625C221.303 182.925 220.953 183.075 220.536 183.075ZM221.636 185.3V199H219.361V185.3H221.636ZM241.989 185.05C243.055 185.05 244.005 185.275 244.839 185.725C245.672 186.158 246.33 186.817 246.814 187.7C247.297 188.583 247.539 189.658 247.539 190.925V199H245.289V191.25C245.289 189.883 244.947 188.842 244.264 188.125C243.597 187.392 242.689 187.025 241.539 187.025C240.355 187.025 239.414 187.408 238.714 188.175C238.014 188.925 237.664 190.017 237.664 191.45V199H235.414V191.25C235.414 189.883 235.072 188.842 234.389 188.125C233.722 187.392 232.814 187.025 231.664 187.025C230.48 187.025 229.539 187.408 228.839 188.175C228.139 188.925 227.789 190.017 227.789 191.45V199H225.514V185.3H227.789V187.275C228.239 186.558 228.839 186.008 229.589 185.625C230.355 185.242 231.197 185.05 232.114 185.05C233.264 185.05 234.28 185.308 235.164 185.825C236.047 186.342 236.705 187.1 237.139 188.1C237.522 187.133 238.155 186.383 239.039 185.85C239.922 185.317 240.905 185.05 241.989 185.05ZM256.12 199.225C255.07 199.225 254.129 199.05 253.295 198.7C252.462 198.333 251.804 197.833 251.32 197.2C250.837 196.55 250.57 195.808 250.52 194.975H252.87C252.937 195.658 253.254 196.217 253.82 196.65C254.404 197.083 255.162 197.3 256.095 197.3C256.962 197.3 257.645 197.108 258.145 196.725C258.645 196.342 258.895 195.858 258.895 195.275C258.895 194.675 258.629 194.233 258.095 193.95C257.562 193.65 256.737 193.358 255.62 193.075C254.604 192.808 253.77 192.542 253.12 192.275C252.487 191.992 251.937 191.583 251.47 191.05C251.02 190.5 250.795 189.783 250.795 188.9C250.795 188.2 251.004 187.558 251.42 186.975C251.837 186.392 252.429 185.933 253.195 185.6C253.962 185.25 254.837 185.075 255.82 185.075C257.337 185.075 258.562 185.458 259.495 186.225C260.429 186.992 260.929 188.042 260.995 189.375H258.72C258.67 188.658 258.379 188.083 257.845 187.65C257.329 187.217 256.629 187 255.745 187C254.929 187 254.279 187.175 253.795 187.525C253.312 187.875 253.07 188.333 253.07 188.9C253.07 189.35 253.212 189.725 253.495 190.025C253.795 190.308 254.162 190.542 254.595 190.725C255.045 190.892 255.662 191.083 256.445 191.3C257.429 191.567 258.229 191.833 258.845 192.1C259.462 192.35 259.987 192.733 260.42 193.25C260.87 193.767 261.104 194.442 261.12 195.275C261.12 196.025 260.912 196.7 260.495 197.3C260.079 197.9 259.487 198.375 258.72 198.725C257.97 199.058 257.104 199.225 256.12 199.225ZM265.057 199.15C264.624 199.15 264.257 199 263.957 198.7C263.657 198.4 263.507 198.033 263.507 197.6C263.507 197.167 263.657 196.8 263.957 196.5C264.257 196.2 264.624 196.05 265.057 196.05C265.474 196.05 265.824 196.2 266.107 196.5C266.407 196.8 266.557 197.167 266.557 197.6C266.557 198.033 266.407 198.4 266.107 198.7C265.824 199 265.474 199.15 265.057 199.15Z" fill="black"/>
<path d="M15.0568 194V181.216L63.0682 128.659C68.7027 122.504 73.3428 117.153 76.9886 112.608C80.6345 108.015 83.3333 103.706 85.0852 99.6818C86.8845 95.6098 87.7841 91.3485 87.7841 86.8977C87.7841 81.7841 86.553 77.357 84.0909 73.6165C81.6761 69.8759 78.3617 66.9877 74.1477 64.9517C69.9337 62.9157 65.1989 61.8977 59.9432 61.8977C54.3561 61.8977 49.4792 63.0578 45.3125 65.3778C41.1932 67.6506 37.9972 70.8466 35.7244 74.9659C33.4991 79.0852 32.3864 83.9148 32.3864 89.4545H15.625C15.625 80.9318 17.59 73.4508 21.5199 67.0114C25.4498 60.572 30.8002 55.553 37.571 51.9545C44.3892 48.3561 52.036 46.5568 60.5114 46.5568C69.0341 46.5568 76.5862 48.3561 83.1676 51.9545C89.7491 55.553 94.91 60.4062 98.6506 66.5142C102.391 72.6222 104.261 79.4167 104.261 86.8977C104.261 92.2481 103.291 97.4801 101.349 102.594C99.4555 107.66 96.1411 113.318 91.4062 119.568C86.7188 125.771 80.2083 133.347 71.875 142.295L39.2045 177.239V178.375H106.818V194H15.0568Z" fill="#EDBB5F"/>
</svg>
