<svg width="681" height="242" viewBox="0 0 681 242" fill="none" xmlns="http://www.w3.org/2000/svg">
<path d="M180.61 55.2C181.83 55.46 182.81 56.07 183.55 57.03C184.29 57.97 184.66 59.05 184.66 60.27C184.66 62.03 184.04 63.43 182.8 64.47C181.58 65.49 179.87 66 177.67 66H167.86V44.94H177.34C179.48 44.94 181.15 45.43 182.35 46.41C183.57 47.39 184.18 48.72 184.18 50.4C184.18 51.64 183.85 52.67 183.19 53.49C182.55 54.31 181.69 54.88 180.61 55.2ZM172.99 53.46H176.35C177.19 53.46 177.83 53.28 178.27 52.92C178.73 52.54 178.96 51.99 178.96 51.27C178.96 50.55 178.73 50 178.27 49.62C177.83 49.24 177.19 49.05 176.35 49.05H172.99V53.46ZM176.77 61.86C177.63 61.86 178.29 61.67 178.75 61.29C179.23 60.89 179.47 60.32 179.47 59.58C179.47 58.84 179.22 58.26 178.72 57.84C178.24 57.42 177.57 57.21 176.71 57.21H172.99V61.86H176.77ZM203.415 57.36C203.415 57.84 203.385 58.34 203.325 58.86H191.715C191.795 59.9 192.125 60.7 192.705 61.26C193.305 61.8 194.035 62.07 194.895 62.07C196.175 62.07 197.065 61.53 197.565 60.45H203.025C202.745 61.55 202.235 62.54 201.495 63.42C200.775 64.3 199.865 64.99 198.765 65.49C197.665 65.99 196.435 66.24 195.075 66.24C193.435 66.24 191.975 65.89 190.695 65.19C189.415 64.49 188.415 63.49 187.695 62.19C186.975 60.89 186.615 59.37 186.615 57.63C186.615 55.89 186.965 54.37 187.665 53.07C188.385 51.77 189.385 50.77 190.665 50.07C191.945 49.37 193.415 49.02 195.075 49.02C196.695 49.02 198.135 49.36 199.395 50.04C200.655 50.72 201.635 51.69 202.335 52.95C203.055 54.21 203.415 55.68 203.415 57.36ZM198.165 56.01C198.165 55.13 197.865 54.43 197.265 53.91C196.665 53.39 195.915 53.13 195.015 53.13C194.155 53.13 193.425 53.38 192.825 53.88C192.245 54.38 191.885 55.09 191.745 56.01H198.165ZM217.609 43.8V66H212.479V43.8H217.609ZM237.107 57.36C237.107 57.84 237.077 58.34 237.017 58.86H225.407C225.487 59.9 225.817 60.7 226.397 61.26C226.997 61.8 227.727 62.07 228.587 62.07C229.867 62.07 230.757 61.53 231.257 60.45H236.717C236.437 61.55 235.927 62.54 235.187 63.42C234.467 64.3 233.557 64.99 232.457 65.49C231.357 65.99 230.127 66.24 228.767 66.24C227.127 66.24 225.667 65.89 224.387 65.19C223.107 64.49 222.107 63.49 221.387 62.19C220.667 60.89 220.307 59.37 220.307 57.63C220.307 55.89 220.657 54.37 221.357 53.07C222.077 51.77 223.077 50.77 224.357 50.07C225.637 49.37 227.107 49.02 228.767 49.02C230.387 49.02 231.827 49.36 233.087 50.04C234.347 50.72 235.327 51.69 236.027 52.95C236.747 54.21 237.107 55.68 237.107 57.36ZM231.857 56.01C231.857 55.13 231.557 54.43 230.957 53.91C230.357 53.39 229.607 53.13 228.707 53.13C227.847 53.13 227.117 53.38 226.517 53.88C225.937 54.38 225.577 55.09 225.437 56.01H231.857ZM238.793 57.6C238.793 55.88 239.113 54.37 239.753 53.07C240.413 51.77 241.303 50.77 242.423 50.07C243.543 49.37 244.793 49.02 246.173 49.02C247.353 49.02 248.383 49.26 249.263 49.74C250.163 50.22 250.853 50.85 251.333 51.63V49.26H256.463V66H251.333V63.63C250.833 64.41 250.133 65.04 249.233 65.52C248.353 66 247.323 66.24 246.143 66.24C244.783 66.24 243.543 65.89 242.423 65.19C241.303 64.47 240.413 63.46 239.753 62.16C239.113 60.84 238.793 59.32 238.793 57.6ZM251.333 57.63C251.333 56.35 250.973 55.34 250.253 54.6C249.553 53.86 248.693 53.49 247.673 53.49C246.653 53.49 245.783 53.86 245.063 54.6C244.363 55.32 244.013 56.32 244.013 57.6C244.013 58.88 244.363 59.9 245.063 60.66C245.783 61.4 246.653 61.77 247.673 61.77C248.693 61.77 249.553 61.4 250.253 60.66C250.973 59.92 251.333 58.91 251.333 57.63ZM259.154 57.6C259.154 55.88 259.474 54.37 260.114 53.07C260.774 51.77 261.664 50.77 262.784 50.07C263.904 49.37 265.154 49.02 266.534 49.02C267.634 49.02 268.634 49.25 269.534 49.71C270.454 50.17 271.174 50.79 271.694 51.57V43.8H276.824V66H271.694V63.6C271.214 64.4 270.524 65.04 269.624 65.52C268.744 66 267.714 66.24 266.534 66.24C265.154 66.24 263.904 65.89 262.784 65.19C261.664 64.47 260.774 63.46 260.114 62.16C259.474 60.84 259.154 59.32 259.154 57.6ZM271.694 57.63C271.694 56.35 271.334 55.34 270.614 54.6C269.914 53.86 269.054 53.49 268.034 53.49C267.014 53.49 266.144 53.86 265.424 54.6C264.724 55.32 264.374 56.32 264.374 57.6C264.374 58.88 264.724 59.9 265.424 60.66C266.144 61.4 267.014 61.77 268.034 61.77C269.054 61.77 269.914 61.4 270.614 60.66C271.334 59.92 271.694 58.91 271.694 57.63ZM296.316 57.36C296.316 57.84 296.286 58.34 296.226 58.86H284.616C284.696 59.9 285.026 60.7 285.606 61.26C286.206 61.8 286.936 62.07 287.796 62.07C289.076 62.07 289.966 61.53 290.466 60.45H295.926C295.646 61.55 295.136 62.54 294.396 63.42C293.676 64.3 292.766 64.99 291.666 65.49C290.566 65.99 289.336 66.24 287.976 66.24C286.336 66.24 284.876 65.89 283.596 65.19C282.316 64.49 281.316 63.49 280.596 62.19C279.876 60.89 279.516 59.37 279.516 57.63C279.516 55.89 279.866 54.37 280.566 53.07C281.286 51.77 282.286 50.77 283.566 50.07C284.846 49.37 286.316 49.02 287.976 49.02C289.596 49.02 291.036 49.36 292.296 50.04C293.556 50.72 294.536 51.69 295.236 52.95C295.956 54.21 296.316 55.68 296.316 57.36ZM291.066 56.01C291.066 55.13 290.766 54.43 290.166 53.91C289.566 53.39 288.816 53.13 287.916 53.13C287.056 53.13 286.326 53.38 285.726 53.88C285.146 54.38 284.786 55.09 284.646 56.01H291.066ZM304.152 52.05C304.752 51.13 305.502 50.41 306.402 49.89C307.302 49.35 308.302 49.08 309.402 49.08V54.51H307.992C306.712 54.51 305.752 54.79 305.112 55.35C304.472 55.89 304.152 56.85 304.152 58.23V66H299.022V49.26H304.152V52.05ZM318.664 66.24C317.204 66.24 315.904 65.99 314.764 65.49C313.624 64.99 312.724 64.31 312.064 63.45C311.404 62.57 311.034 61.59 310.954 60.51H316.024C316.084 61.09 316.354 61.56 316.834 61.92C317.314 62.28 317.904 62.46 318.604 62.46C319.244 62.46 319.734 62.34 320.074 62.1C320.434 61.84 320.614 61.51 320.614 61.11C320.614 60.63 320.364 60.28 319.864 60.06C319.364 59.82 318.554 59.56 317.434 59.28C316.234 59 315.234 58.71 314.434 58.41C313.634 58.09 312.944 57.6 312.364 56.94C311.784 56.26 311.494 55.35 311.494 54.21C311.494 53.25 311.754 52.38 312.274 51.6C312.814 50.8 313.594 50.17 314.614 49.71C315.654 49.25 316.884 49.02 318.304 49.02C320.404 49.02 322.054 49.54 323.254 50.58C324.474 51.62 325.174 53 325.354 54.72H320.614C320.534 54.14 320.274 53.68 319.834 53.34C319.414 53 318.854 52.83 318.154 52.83C317.554 52.83 317.094 52.95 316.774 53.19C316.454 53.41 316.294 53.72 316.294 54.12C316.294 54.6 316.544 54.96 317.044 55.2C317.564 55.44 318.364 55.68 319.444 55.92C320.684 56.24 321.694 56.56 322.474 56.88C323.254 57.18 323.934 57.68 324.514 58.38C325.114 59.06 325.424 59.98 325.444 61.14C325.444 62.12 325.164 63 324.604 63.78C324.064 64.54 323.274 65.14 322.234 65.58C321.214 66.02 320.024 66.24 318.664 66.24ZM337.52 47.52C336.62 47.52 335.88 47.26 335.3 46.74C334.74 46.2 334.46 45.54 334.46 44.76C334.46 43.96 334.74 43.3 335.3 42.78C335.88 42.24 336.62 41.97 337.52 41.97C338.4 41.97 339.12 42.24 339.68 42.78C340.26 43.3 340.55 43.96 340.55 44.76C340.55 45.54 340.26 46.2 339.68 46.74C339.12 47.26 338.4 47.52 337.52 47.52ZM340.07 49.26V66H334.94V49.26H340.07ZM353.988 49.08C355.948 49.08 357.508 49.72 358.668 51C359.848 52.26 360.438 54 360.438 56.22V66H355.338V56.91C355.338 55.79 355.048 54.92 354.468 54.3C353.888 53.68 353.108 53.37 352.128 53.37C351.148 53.37 350.368 53.68 349.788 54.3C349.208 54.92 348.918 55.79 348.918 56.91V66H343.788V49.26H348.918V51.48C349.438 50.74 350.138 50.16 351.018 49.74C351.898 49.3 352.888 49.08 353.988 49.08ZM375.49 44.94V66H370.36V44.94H375.49ZM386.018 66.24C384.558 66.24 383.258 65.99 382.118 65.49C380.978 64.99 380.078 64.31 379.418 63.45C378.758 62.57 378.388 61.59 378.308 60.51H383.378C383.438 61.09 383.708 61.56 384.188 61.92C384.668 62.28 385.258 62.46 385.958 62.46C386.598 62.46 387.088 62.34 387.428 62.1C387.788 61.84 387.968 61.51 387.968 61.11C387.968 60.63 387.718 60.28 387.218 60.06C386.718 59.82 385.908 59.56 384.788 59.28C383.588 59 382.588 58.71 381.788 58.41C380.988 58.09 380.298 57.6 379.718 56.94C379.138 56.26 378.848 55.35 378.848 54.21C378.848 53.25 379.108 52.38 379.628 51.6C380.168 50.8 380.948 50.17 381.968 49.71C383.008 49.25 384.238 49.02 385.658 49.02C387.758 49.02 389.408 49.54 390.608 50.58C391.828 51.62 392.528 53 392.708 54.72H387.968C387.888 54.14 387.628 53.68 387.188 53.34C386.768 53 386.208 52.83 385.508 52.83C384.908 52.83 384.448 52.95 384.128 53.19C383.808 53.41 383.648 53.72 383.648 54.12C383.648 54.6 383.898 54.96 384.398 55.2C384.918 55.44 385.718 55.68 386.798 55.92C388.038 56.24 389.048 56.56 389.828 56.88C390.608 57.18 391.288 57.68 391.868 58.38C392.468 59.06 392.778 59.98 392.798 61.14C392.798 62.12 392.518 63 391.958 63.78C391.418 64.54 390.628 65.14 389.588 65.58C388.568 66.02 387.378 66.24 386.018 66.24ZM401.066 43.8V66H395.936V43.8H401.066ZM403.764 57.6C403.764 55.88 404.084 54.37 404.724 53.07C405.384 51.77 406.274 50.77 407.394 50.07C408.514 49.37 409.764 49.02 411.144 49.02C412.324 49.02 413.354 49.26 414.234 49.74C415.134 50.22 415.824 50.85 416.304 51.63V49.26H421.434V66H416.304V63.63C415.804 64.41 415.104 65.04 414.204 65.52C413.324 66 412.294 66.24 411.114 66.24C409.754 66.24 408.514 65.89 407.394 65.19C406.274 64.47 405.384 63.46 404.724 62.16C404.084 60.84 403.764 59.32 403.764 57.6ZM416.304 57.63C416.304 56.35 415.944 55.34 415.224 54.6C414.524 53.86 413.664 53.49 412.644 53.49C411.624 53.49 410.754 53.86 410.034 54.6C409.334 55.32 408.984 56.32 408.984 57.6C408.984 58.88 409.334 59.9 410.034 60.66C410.754 61.4 411.624 61.77 412.644 61.77C413.664 61.77 414.524 61.4 415.224 60.66C415.944 59.92 416.304 58.91 416.304 57.63ZM446.505 49.08C448.585 49.08 450.235 49.71 451.455 50.97C452.695 52.23 453.315 53.98 453.315 56.22V66H448.215V56.91C448.215 55.83 447.925 55 447.345 54.42C446.785 53.82 446.005 53.52 445.005 53.52C444.005 53.52 443.215 53.82 442.635 54.42C442.075 55 441.795 55.83 441.795 56.91V66H436.695V56.91C436.695 55.83 436.405 55 435.825 54.42C435.265 53.82 434.485 53.52 433.485 53.52C432.485 53.52 431.695 53.82 431.115 54.42C430.555 55 430.275 55.83 430.275 56.91V66H425.145V49.26H430.275V51.36C430.795 50.66 431.475 50.11 432.315 49.71C433.155 49.29 434.105 49.08 435.165 49.08C436.425 49.08 437.545 49.35 438.525 49.89C439.525 50.43 440.305 51.2 440.865 52.2C441.445 51.28 442.235 50.53 443.235 49.95C444.235 49.37 445.325 49.08 446.505 49.08Z" fill="#7E71B9"/>
<path d="M173.45 119.175C172.3 119.175 171.267 118.975 170.35 118.575C169.45 118.158 168.742 117.592 168.225 116.875C167.708 116.142 167.442 115.3 167.425 114.35H169.85C169.933 115.167 170.267 115.858 170.85 116.425C171.45 116.975 172.317 117.25 173.45 117.25C174.533 117.25 175.383 116.983 176 116.45C176.633 115.9 176.95 115.2 176.95 114.35C176.95 113.683 176.767 113.142 176.4 112.725C176.033 112.308 175.575 111.992 175.025 111.775C174.475 111.558 173.733 111.325 172.8 111.075C171.65 110.775 170.725 110.475 170.025 110.175C169.342 109.875 168.75 109.408 168.25 108.775C167.767 108.125 167.525 107.258 167.525 106.175C167.525 105.225 167.767 104.383 168.25 103.65C168.733 102.917 169.408 102.35 170.275 101.95C171.158 101.55 172.167 101.35 173.3 101.35C174.933 101.35 176.267 101.758 177.3 102.575C178.35 103.392 178.942 104.475 179.075 105.825H176.575C176.492 105.158 176.142 104.575 175.525 104.075C174.908 103.558 174.092 103.3 173.075 103.3C172.125 103.3 171.35 103.55 170.75 104.05C170.15 104.533 169.85 105.217 169.85 106.1C169.85 106.733 170.025 107.25 170.375 107.65C170.742 108.05 171.183 108.358 171.7 108.575C172.233 108.775 172.975 109.008 173.925 109.275C175.075 109.592 176 109.908 176.7 110.225C177.4 110.525 178 111 178.5 111.65C179 112.283 179.25 113.15 179.25 114.25C179.25 115.1 179.025 115.9 178.575 116.65C178.125 117.4 177.458 118.008 176.575 118.475C175.692 118.942 174.65 119.175 173.45 119.175ZM195.098 111.625C195.098 112.058 195.073 112.517 195.023 113H184.073C184.156 114.35 184.615 115.408 185.448 116.175C186.298 116.925 187.323 117.3 188.523 117.3C189.506 117.3 190.323 117.075 190.973 116.625C191.64 116.158 192.106 115.542 192.373 114.775H194.823C194.456 116.092 193.723 117.167 192.623 118C191.523 118.817 190.156 119.225 188.523 119.225C187.223 119.225 186.056 118.933 185.023 118.35C184.006 117.767 183.206 116.942 182.623 115.875C182.04 114.792 181.748 113.542 181.748 112.125C181.748 110.708 182.031 109.467 182.598 108.4C183.165 107.333 183.956 106.517 184.973 105.95C186.006 105.367 187.19 105.075 188.523 105.075C189.823 105.075 190.973 105.358 191.973 105.925C192.973 106.492 193.74 107.275 194.273 108.275C194.823 109.258 195.098 110.375 195.098 111.625ZM192.748 111.15C192.748 110.283 192.556 109.542 192.173 108.925C191.79 108.292 191.265 107.817 190.598 107.5C189.948 107.167 189.223 107 188.423 107C187.273 107 186.29 107.367 185.473 108.1C184.673 108.833 184.215 109.85 184.098 111.15H192.748ZM200.376 107.525C200.776 106.742 201.342 106.133 202.076 105.7C202.826 105.267 203.734 105.05 204.801 105.05V107.4H204.201C201.651 107.4 200.376 108.783 200.376 111.55V119H198.101V105.3H200.376V107.525ZM212.527 116.9L216.777 105.3H219.202L213.827 119H211.177L205.802 105.3H208.252L212.527 116.9ZM233.941 111.625C233.941 112.058 233.916 112.517 233.866 113H222.916C222.999 114.35 223.457 115.408 224.291 116.175C225.141 116.925 226.166 117.3 227.366 117.3C228.349 117.3 229.166 117.075 229.816 116.625C230.482 116.158 230.949 115.542 231.216 114.775H233.666C233.299 116.092 232.566 117.167 231.466 118C230.366 118.817 228.999 119.225 227.366 119.225C226.066 119.225 224.899 118.933 223.866 118.35C222.849 117.767 222.049 116.942 221.466 115.875C220.882 114.792 220.591 113.542 220.591 112.125C220.591 110.708 220.874 109.467 221.441 108.4C222.007 107.333 222.799 106.517 223.816 105.95C224.849 105.367 226.032 105.075 227.366 105.075C228.666 105.075 229.816 105.358 230.816 105.925C231.816 106.492 232.582 107.275 233.116 108.275C233.666 109.258 233.941 110.375 233.941 111.625ZM231.591 111.15C231.591 110.283 231.399 109.542 231.016 108.925C230.632 108.292 230.107 107.817 229.441 107.5C228.791 107.167 228.066 107 227.266 107C226.116 107 225.132 107.367 224.316 108.1C223.516 108.833 223.057 109.85 222.941 111.15H231.591ZM242.759 112.1C242.759 110.7 243.042 109.475 243.609 108.425C244.175 107.358 244.95 106.533 245.934 105.95C246.934 105.367 248.042 105.075 249.259 105.075C250.459 105.075 251.5 105.333 252.384 105.85C253.267 106.367 253.925 107.017 254.359 107.8V105.3H256.659V119H254.359V116.45C253.909 117.25 253.234 117.917 252.334 118.45C251.45 118.967 250.417 119.225 249.234 119.225C248.017 119.225 246.917 118.925 245.934 118.325C244.95 117.725 244.175 116.883 243.609 115.8C243.042 114.717 242.759 113.483 242.759 112.1ZM254.359 112.125C254.359 111.092 254.15 110.192 253.734 109.425C253.317 108.658 252.75 108.075 252.034 107.675C251.334 107.258 250.559 107.05 249.709 107.05C248.859 107.05 248.084 107.25 247.384 107.65C246.684 108.05 246.125 108.633 245.709 109.4C245.292 110.167 245.084 111.067 245.084 112.1C245.084 113.15 245.292 114.067 245.709 114.85C246.125 115.617 246.684 116.208 247.384 116.625C248.084 117.025 248.859 117.225 249.709 117.225C250.559 117.225 251.334 117.025 252.034 116.625C252.75 116.208 253.317 115.617 253.734 114.85C254.15 114.067 254.359 113.158 254.359 112.125ZM265.353 119.225C264.303 119.225 263.361 119.05 262.528 118.7C261.695 118.333 261.036 117.833 260.553 117.2C260.07 116.55 259.803 115.808 259.753 114.975H262.103C262.17 115.658 262.486 116.217 263.053 116.65C263.636 117.083 264.395 117.3 265.328 117.3C266.195 117.3 266.878 117.108 267.378 116.725C267.878 116.342 268.128 115.858 268.128 115.275C268.128 114.675 267.861 114.233 267.328 113.95C266.795 113.65 265.97 113.358 264.853 113.075C263.836 112.808 263.003 112.542 262.353 112.275C261.72 111.992 261.17 111.583 260.703 111.05C260.253 110.5 260.028 109.783 260.028 108.9C260.028 108.2 260.236 107.558 260.653 106.975C261.07 106.392 261.661 105.933 262.428 105.6C263.195 105.25 264.07 105.075 265.053 105.075C266.57 105.075 267.795 105.458 268.728 106.225C269.661 106.992 270.161 108.042 270.228 109.375H267.953C267.903 108.658 267.611 108.083 267.078 107.65C266.561 107.217 265.861 107 264.978 107C264.161 107 263.511 107.175 263.028 107.525C262.545 107.875 262.303 108.333 262.303 108.9C262.303 109.35 262.445 109.725 262.728 110.025C263.028 110.308 263.395 110.542 263.828 110.725C264.278 110.892 264.895 111.083 265.678 111.3C266.661 111.567 267.461 111.833 268.078 112.1C268.695 112.35 269.22 112.733 269.653 113.25C270.103 113.767 270.336 114.442 270.353 115.275C270.353 116.025 270.145 116.7 269.728 117.3C269.311 117.9 268.72 118.375 267.953 118.725C267.203 119.058 266.336 119.225 265.353 119.225ZM282.505 107.525C282.905 106.742 283.471 106.133 284.205 105.7C284.955 105.267 285.863 105.05 286.93 105.05V107.4H286.33C283.78 107.4 282.505 108.783 282.505 111.55V119H280.23V105.3H282.505V107.525ZM302.056 111.625C302.056 112.058 302.031 112.517 301.981 113H291.031C291.114 114.35 291.573 115.408 292.406 116.175C293.256 116.925 294.281 117.3 295.481 117.3C296.464 117.3 297.281 117.075 297.931 116.625C298.598 116.158 299.064 115.542 299.331 114.775H301.781C301.414 116.092 300.681 117.167 299.581 118C298.481 118.817 297.114 119.225 295.481 119.225C294.181 119.225 293.014 118.933 291.981 118.35C290.964 117.767 290.164 116.942 289.581 115.875C288.998 114.792 288.706 113.542 288.706 112.125C288.706 110.708 288.989 109.467 289.556 108.4C290.123 107.333 290.914 106.517 291.931 105.95C292.964 105.367 294.148 105.075 295.481 105.075C296.781 105.075 297.931 105.358 298.931 105.925C299.931 106.492 300.698 107.275 301.231 108.275C301.781 109.258 302.056 110.375 302.056 111.625ZM299.706 111.15C299.706 110.283 299.514 109.542 299.131 108.925C298.748 108.292 298.223 107.817 297.556 107.5C296.906 107.167 296.181 107 295.381 107C294.231 107 293.248 107.367 292.431 108.1C291.631 108.833 291.173 109.85 291.056 111.15H299.706ZM307.334 107.825C307.784 107.042 308.45 106.392 309.334 105.875C310.234 105.342 311.275 105.075 312.459 105.075C313.675 105.075 314.775 105.367 315.759 105.95C316.759 106.533 317.542 107.358 318.109 108.425C318.675 109.475 318.959 110.7 318.959 112.1C318.959 113.483 318.675 114.717 318.109 115.8C317.542 116.883 316.759 117.725 315.759 118.325C314.775 118.925 313.675 119.225 312.459 119.225C311.292 119.225 310.259 118.967 309.359 118.45C308.475 117.917 307.8 117.258 307.334 116.475V125.5H305.059V105.3H307.334V107.825ZM316.634 112.1C316.634 111.067 316.425 110.167 316.009 109.4C315.592 108.633 315.025 108.05 314.309 107.65C313.609 107.25 312.834 107.05 311.984 107.05C311.15 107.05 310.375 107.258 309.659 107.675C308.959 108.075 308.392 108.667 307.959 109.45C307.542 110.217 307.334 111.108 307.334 112.125C307.334 113.158 307.542 114.067 307.959 114.85C308.392 115.617 308.959 116.208 309.659 116.625C310.375 117.025 311.15 117.225 311.984 117.225C312.834 117.225 313.609 117.025 314.309 116.625C315.025 116.208 315.592 115.617 316.009 114.85C316.425 114.067 316.634 113.15 316.634 112.1ZM324.228 107.525C324.628 106.742 325.195 106.133 325.928 105.7C326.678 105.267 327.587 105.05 328.653 105.05V107.4H328.053C325.503 107.4 324.228 108.783 324.228 111.55V119H321.953V105.3H324.228V107.525ZM343.779 111.625C343.779 112.058 343.754 112.517 343.704 113H332.754C332.838 114.35 333.296 115.408 334.129 116.175C334.979 116.925 336.004 117.3 337.204 117.3C338.188 117.3 339.004 117.075 339.654 116.625C340.321 116.158 340.788 115.542 341.054 114.775H343.504C343.138 116.092 342.404 117.167 341.304 118C340.204 118.817 338.838 119.225 337.204 119.225C335.904 119.225 334.738 118.933 333.704 118.35C332.688 117.767 331.888 116.942 331.304 115.875C330.721 114.792 330.429 113.542 330.429 112.125C330.429 110.708 330.713 109.467 331.279 108.4C331.846 107.333 332.638 106.517 333.654 105.95C334.688 105.367 335.871 105.075 337.204 105.075C338.504 105.075 339.654 105.358 340.654 105.925C341.654 106.492 342.421 107.275 342.954 108.275C343.504 109.258 343.779 110.375 343.779 111.625ZM341.429 111.15C341.429 110.283 341.238 109.542 340.854 108.925C340.471 108.292 339.946 107.817 339.279 107.5C338.629 107.167 337.904 107 337.104 107C335.954 107 334.971 107.367 334.154 108.1C333.354 108.833 332.896 109.85 332.779 111.15H341.429ZM351.632 119.225C350.582 119.225 349.641 119.05 348.807 118.7C347.974 118.333 347.316 117.833 346.832 117.2C346.349 116.55 346.082 115.808 346.032 114.975H348.382C348.449 115.658 348.766 116.217 349.332 116.65C349.916 117.083 350.674 117.3 351.607 117.3C352.474 117.3 353.157 117.108 353.657 116.725C354.157 116.342 354.407 115.858 354.407 115.275C354.407 114.675 354.141 114.233 353.607 113.95C353.074 113.65 352.249 113.358 351.132 113.075C350.116 112.808 349.282 112.542 348.632 112.275C347.999 111.992 347.449 111.583 346.982 111.05C346.532 110.5 346.307 109.783 346.307 108.9C346.307 108.2 346.516 107.558 346.932 106.975C347.349 106.392 347.941 105.933 348.707 105.6C349.474 105.25 350.349 105.075 351.332 105.075C352.849 105.075 354.074 105.458 355.007 106.225C355.941 106.992 356.441 108.042 356.507 109.375H354.232C354.182 108.658 353.891 108.083 353.357 107.65C352.841 107.217 352.141 107 351.257 107C350.441 107 349.791 107.175 349.307 107.525C348.824 107.875 348.582 108.333 348.582 108.9C348.582 109.35 348.724 109.725 349.007 110.025C349.307 110.308 349.674 110.542 350.107 110.725C350.557 110.892 351.174 111.083 351.957 111.3C352.941 111.567 353.741 111.833 354.357 112.1C354.974 112.35 355.499 112.733 355.932 113.25C356.382 113.767 356.616 114.442 356.632 115.275C356.632 116.025 356.424 116.7 356.007 117.3C355.591 117.9 354.999 118.375 354.232 118.725C353.482 119.058 352.616 119.225 351.632 119.225ZM372.344 111.625C372.344 112.058 372.319 112.517 372.269 113H361.319C361.402 114.35 361.861 115.408 362.694 116.175C363.544 116.925 364.569 117.3 365.769 117.3C366.752 117.3 367.569 117.075 368.219 116.625C368.886 116.158 369.352 115.542 369.619 114.775H372.069C371.702 116.092 370.969 117.167 369.869 118C368.769 118.817 367.402 119.225 365.769 119.225C364.469 119.225 363.302 118.933 362.269 118.35C361.252 117.767 360.452 116.942 359.869 115.875C359.286 114.792 358.994 113.542 358.994 112.125C358.994 110.708 359.277 109.467 359.844 108.4C360.411 107.333 361.202 106.517 362.219 105.95C363.252 105.367 364.436 105.075 365.769 105.075C367.069 105.075 368.219 105.358 369.219 105.925C370.219 106.492 370.986 107.275 371.519 108.275C372.069 109.258 372.344 110.375 372.344 111.625ZM369.994 111.15C369.994 110.283 369.802 109.542 369.419 108.925C369.036 108.292 368.511 107.817 367.844 107.5C367.194 107.167 366.469 107 365.669 107C364.519 107 363.536 107.367 362.719 108.1C361.919 108.833 361.461 109.85 361.344 111.15H369.994ZM382.022 105.05C383.689 105.05 385.039 105.558 386.072 106.575C387.105 107.575 387.622 109.025 387.622 110.925V119H385.372V111.25C385.372 109.883 385.03 108.842 384.347 108.125C383.664 107.392 382.73 107.025 381.547 107.025C380.347 107.025 379.389 107.4 378.672 108.15C377.972 108.9 377.622 109.992 377.622 111.425V119H375.347V105.3H377.622V107.25C378.072 106.55 378.68 106.008 379.447 105.625C380.23 105.242 381.089 105.05 382.022 105.05ZM394.113 107.175V115.25C394.113 115.917 394.255 116.392 394.538 116.675C394.821 116.942 395.313 117.075 396.013 117.075H397.688V119H395.638C394.371 119 393.421 118.708 392.788 118.125C392.155 117.542 391.838 116.583 391.838 115.25V107.175H390.063V105.3H391.838V101.85H394.113V105.3H397.688V107.175H394.113ZM399.595 112.1C399.595 110.7 399.878 109.475 400.445 108.425C401.011 107.358 401.786 106.533 402.77 105.95C403.77 105.367 404.878 105.075 406.095 105.075C407.295 105.075 408.336 105.333 409.22 105.85C410.103 106.367 410.761 107.017 411.195 107.8V105.3H413.495V119H411.195V116.45C410.745 117.25 410.07 117.917 409.17 118.45C408.286 118.967 407.253 119.225 406.07 119.225C404.853 119.225 403.753 118.925 402.77 118.325C401.786 117.725 401.011 116.883 400.445 115.8C399.878 114.717 399.595 113.483 399.595 112.1ZM411.195 112.125C411.195 111.092 410.986 110.192 410.57 109.425C410.153 108.658 409.586 108.075 408.87 107.675C408.17 107.258 407.395 107.05 406.545 107.05C405.695 107.05 404.92 107.25 404.22 107.65C403.52 108.05 402.961 108.633 402.545 109.4C402.128 110.167 401.92 111.067 401.92 112.1C401.92 113.15 402.128 114.067 402.545 114.85C402.961 115.617 403.52 116.208 404.22 116.625C404.92 117.025 405.695 117.225 406.545 117.225C407.395 117.225 408.17 117.025 408.87 116.625C409.586 116.208 410.153 115.617 410.57 114.85C410.986 114.067 411.195 113.158 411.195 112.125ZM420.114 107.175V115.25C420.114 115.917 420.256 116.392 420.539 116.675C420.822 116.942 421.314 117.075 422.014 117.075H423.689V119H421.639C420.372 119 419.422 118.708 418.789 118.125C418.156 117.542 417.839 116.583 417.839 115.25V107.175H416.064V105.3H417.839V101.85H420.114V105.3H423.689V107.175H420.114ZM427.621 103.075C427.187 103.075 426.821 102.925 426.521 102.625C426.221 102.325 426.071 101.958 426.071 101.525C426.071 101.092 426.221 100.725 426.521 100.425C426.821 100.125 427.187 99.975 427.621 99.975C428.037 99.975 428.387 100.125 428.671 100.425C428.971 100.725 429.121 101.092 429.121 101.525C429.121 101.958 428.971 102.325 428.671 102.625C428.387 102.925 428.037 103.075 427.621 103.075ZM428.721 105.3V119H426.446V105.3H428.721ZM437.698 116.9L441.948 105.3H444.373L438.998 119H436.348L430.973 105.3H433.423L437.698 116.9ZM459.112 111.625C459.112 112.058 459.087 112.517 459.037 113H448.087C448.17 114.35 448.628 115.408 449.462 116.175C450.312 116.925 451.337 117.3 452.537 117.3C453.52 117.3 454.337 117.075 454.987 116.625C455.653 116.158 456.12 115.542 456.387 114.775H458.837C458.47 116.092 457.737 117.167 456.637 118C455.537 118.817 454.17 119.225 452.537 119.225C451.237 119.225 450.07 118.933 449.037 118.35C448.02 117.767 447.22 116.942 446.637 115.875C446.053 114.792 445.762 113.542 445.762 112.125C445.762 110.708 446.045 109.467 446.612 108.4C447.178 107.333 447.97 106.517 448.987 105.95C450.02 105.367 451.203 105.075 452.537 105.075C453.837 105.075 454.987 105.358 455.987 105.925C456.987 106.492 457.753 107.275 458.287 108.275C458.837 109.258 459.112 110.375 459.112 111.625ZM456.762 111.15C456.762 110.283 456.57 109.542 456.187 108.925C455.803 108.292 455.278 107.817 454.612 107.5C453.962 107.167 453.237 107 452.437 107C451.287 107 450.303 107.367 449.487 108.1C448.687 108.833 448.228 109.85 448.112 111.15H456.762ZM466.964 119.225C465.914 119.225 464.973 119.05 464.139 118.7C463.306 118.333 462.648 117.833 462.164 117.2C461.681 116.55 461.414 115.808 461.364 114.975H463.714C463.781 115.658 464.098 116.217 464.664 116.65C465.248 117.083 466.006 117.3 466.939 117.3C467.806 117.3 468.489 117.108 468.989 116.725C469.489 116.342 469.739 115.858 469.739 115.275C469.739 114.675 469.473 114.233 468.939 113.95C468.406 113.65 467.581 113.358 466.464 113.075C465.448 112.808 464.614 112.542 463.964 112.275C463.331 111.992 462.781 111.583 462.314 111.05C461.864 110.5 461.639 109.783 461.639 108.9C461.639 108.2 461.848 107.558 462.264 106.975C462.681 106.392 463.273 105.933 464.039 105.6C464.806 105.25 465.681 105.075 466.664 105.075C468.181 105.075 469.406 105.458 470.339 106.225C471.273 106.992 471.773 108.042 471.839 109.375H469.564C469.514 108.658 469.223 108.083 468.689 107.65C468.173 107.217 467.473 107 466.589 107C465.773 107 465.123 107.175 464.639 107.525C464.156 107.875 463.914 108.333 463.914 108.9C463.914 109.35 464.056 109.725 464.339 110.025C464.639 110.308 465.006 110.542 465.439 110.725C465.889 110.892 466.506 111.083 467.289 111.3C468.273 111.567 469.073 111.833 469.689 112.1C470.306 112.35 470.831 112.733 471.264 113.25C471.714 113.767 471.948 114.442 471.964 115.275C471.964 116.025 471.756 116.7 471.339 117.3C470.923 117.9 470.331 118.375 469.564 118.725C468.814 119.058 467.948 119.225 466.964 119.225ZM487.416 107.175H484.541V119H482.266V107.175H480.491V105.3H482.266V104.325C482.266 102.792 482.658 101.675 483.441 100.975C484.241 100.258 485.516 99.9 487.266 99.9V101.8C486.266 101.8 485.558 102 485.141 102.4C484.741 102.783 484.541 103.425 484.541 104.325V105.3H487.416V107.175ZM496.044 119.225C494.76 119.225 493.594 118.933 492.544 118.35C491.51 117.767 490.694 116.942 490.094 115.875C489.51 114.792 489.219 113.542 489.219 112.125C489.219 110.725 489.519 109.492 490.119 108.425C490.735 107.342 491.569 106.517 492.619 105.95C493.669 105.367 494.844 105.075 496.144 105.075C497.444 105.075 498.619 105.367 499.669 105.95C500.719 106.517 501.544 107.333 502.144 108.4C502.76 109.467 503.069 110.708 503.069 112.125C503.069 113.542 502.752 114.792 502.119 115.875C501.502 116.942 500.66 117.767 499.594 118.35C498.527 118.933 497.344 119.225 496.044 119.225ZM496.044 117.225C496.86 117.225 497.627 117.033 498.344 116.65C499.06 116.267 499.635 115.692 500.069 114.925C500.519 114.158 500.744 113.225 500.744 112.125C500.744 111.025 500.527 110.092 500.094 109.325C499.66 108.558 499.094 107.992 498.394 107.625C497.694 107.242 496.935 107.05 496.119 107.05C495.285 107.05 494.519 107.242 493.819 107.625C493.135 107.992 492.585 108.558 492.169 109.325C491.752 110.092 491.544 111.025 491.544 112.125C491.544 113.242 491.744 114.183 492.144 114.95C492.56 115.717 493.11 116.292 493.794 116.675C494.477 117.042 495.227 117.225 496.044 117.225ZM508.335 107.525C508.735 106.742 509.301 106.133 510.035 105.7C510.785 105.267 511.693 105.05 512.76 105.05V107.4H512.16C509.61 107.4 508.335 108.783 508.335 111.55V119H506.06V105.3H508.335V107.525ZM524.826 107.175V115.25C524.826 115.917 524.968 116.392 525.251 116.675C525.534 116.942 526.026 117.075 526.726 117.075H528.401V119H526.351C525.084 119 524.134 118.708 523.501 118.125C522.868 117.542 522.551 116.583 522.551 115.25V107.175H520.776V105.3H522.551V101.85H524.826V105.3H528.401V107.175H524.826ZM537.957 105.05C538.991 105.05 539.924 105.275 540.757 105.725C541.591 106.158 542.241 106.817 542.707 107.7C543.191 108.583 543.432 109.658 543.432 110.925V119H541.182V111.25C541.182 109.883 540.841 108.842 540.157 108.125C539.474 107.392 538.541 107.025 537.357 107.025C536.157 107.025 535.199 107.4 534.482 108.15C533.782 108.9 533.432 109.992 533.432 111.425V119H531.157V100.5H533.432V107.25C533.882 106.55 534.499 106.008 535.282 105.625C536.082 105.242 536.974 105.05 537.957 105.05ZM559.649 111.625C559.649 112.058 559.624 112.517 559.574 113H548.624C548.707 114.35 549.165 115.408 549.999 116.175C550.849 116.925 551.874 117.3 553.074 117.3C554.057 117.3 554.874 117.075 555.524 116.625C556.19 116.158 556.657 115.542 556.924 114.775H559.374C559.007 116.092 558.274 117.167 557.174 118C556.074 118.817 554.707 119.225 553.074 119.225C551.774 119.225 550.607 118.933 549.574 118.35C548.557 117.767 547.757 116.942 547.174 115.875C546.59 114.792 546.299 113.542 546.299 112.125C546.299 110.708 546.582 109.467 547.149 108.4C547.715 107.333 548.507 106.517 549.524 105.95C550.557 105.367 551.74 105.075 553.074 105.075C554.374 105.075 555.524 105.358 556.524 105.925C557.524 106.492 558.29 107.275 558.824 108.275C559.374 109.258 559.649 110.375 559.649 111.625ZM557.299 111.15C557.299 110.283 557.107 109.542 556.724 108.925C556.34 108.292 555.815 107.817 555.149 107.5C554.499 107.167 553.774 107 552.974 107C551.824 107 550.84 107.367 550.024 108.1C549.224 108.833 548.765 109.85 548.649 111.15H557.299ZM586.992 101.7V119H584.717V106.1L578.967 119H577.367L571.592 106.075V119H569.317V101.7H571.767L578.167 116L584.567 101.7H586.992ZM603 105.3V119H600.725V116.975C600.291 117.675 599.683 118.225 598.9 118.625C598.133 119.008 597.283 119.2 596.35 119.2C595.283 119.2 594.325 118.983 593.475 118.55C592.625 118.1 591.95 117.433 591.45 116.55C590.966 115.667 590.725 114.592 590.725 113.325V105.3H592.975V113.025C592.975 114.375 593.316 115.417 594 116.15C594.683 116.867 595.616 117.225 596.8 117.225C598.016 117.225 598.975 116.85 599.675 116.1C600.375 115.35 600.725 114.258 600.725 112.825V105.3H603ZM611.691 119.225C610.641 119.225 609.699 119.05 608.866 118.7C608.033 118.333 607.374 117.833 606.891 117.2C606.408 116.55 606.141 115.808 606.091 114.975H608.441C608.508 115.658 608.824 116.217 609.391 116.65C609.974 117.083 610.733 117.3 611.666 117.3C612.533 117.3 613.216 117.108 613.716 116.725C614.216 116.342 614.466 115.858 614.466 115.275C614.466 114.675 614.199 114.233 613.666 113.95C613.133 113.65 612.308 113.358 611.191 113.075C610.174 112.808 609.341 112.542 608.691 112.275C608.058 111.992 607.508 111.583 607.041 111.05C606.591 110.5 606.366 109.783 606.366 108.9C606.366 108.2 606.574 107.558 606.991 106.975C607.408 106.392 607.999 105.933 608.766 105.6C609.533 105.25 610.408 105.075 611.391 105.075C612.908 105.075 614.133 105.458 615.066 106.225C615.999 106.992 616.499 108.042 616.566 109.375H614.291C614.241 108.658 613.949 108.083 613.416 107.65C612.899 107.217 612.199 107 611.316 107C610.499 107 609.849 107.175 609.366 107.525C608.883 107.875 608.641 108.333 608.641 108.9C608.641 109.35 608.783 109.725 609.066 110.025C609.366 110.308 609.733 110.542 610.166 110.725C610.616 110.892 611.233 111.083 612.016 111.3C612.999 111.567 613.799 111.833 614.416 112.1C615.033 112.35 615.558 112.733 615.991 113.25C616.441 113.767 616.674 114.442 616.691 115.275C616.691 116.025 616.483 116.7 616.066 117.3C615.649 117.9 615.058 118.375 614.291 118.725C613.541 119.058 612.674 119.225 611.691 119.225ZM622.178 100.5V119H619.903V100.5H622.178ZM627.23 103.075C626.797 103.075 626.43 102.925 626.13 102.625C625.83 102.325 625.68 101.958 625.68 101.525C625.68 101.092 625.83 100.725 626.13 100.425C626.43 100.125 626.797 99.975 627.23 99.975C627.647 99.975 627.997 100.125 628.28 100.425C628.58 100.725 628.73 101.092 628.73 101.525C628.73 101.958 628.58 102.325 628.28 102.625C627.997 102.925 627.647 103.075 627.23 103.075ZM628.33 105.3V119H626.055V105.3H628.33ZM648.682 105.05C649.749 105.05 650.699 105.275 651.532 105.725C652.366 106.158 653.024 106.817 653.507 107.7C653.991 108.583 654.232 109.658 654.232 110.925V119H651.982V111.25C651.982 109.883 651.641 108.842 650.957 108.125C650.291 107.392 649.382 107.025 648.232 107.025C647.049 107.025 646.107 107.408 645.407 108.175C644.707 108.925 644.357 110.017 644.357 111.45V119H642.107V111.25C642.107 109.883 641.766 108.842 641.082 108.125C640.416 107.392 639.507 107.025 638.357 107.025C637.174 107.025 636.232 107.408 635.532 108.175C634.832 108.925 634.482 110.017 634.482 111.45V119H632.207V105.3H634.482V107.275C634.932 106.558 635.532 106.008 636.282 105.625C637.049 105.242 637.891 105.05 638.807 105.05C639.957 105.05 640.974 105.308 641.857 105.825C642.741 106.342 643.399 107.1 643.832 108.1C644.216 107.133 644.849 106.383 645.732 105.85C646.616 105.317 647.599 105.05 648.682 105.05ZM170.2 145.85C170.667 145.033 171.35 144.367 172.25 143.85C173.15 143.333 174.175 143.075 175.325 143.075C176.558 143.075 177.667 143.367 178.65 143.95C179.633 144.533 180.408 145.358 180.975 146.425C181.542 147.475 181.825 148.7 181.825 150.1C181.825 151.483 181.542 152.717 180.975 153.8C180.408 154.883 179.625 155.725 178.625 156.325C177.642 156.925 176.542 157.225 175.325 157.225C174.142 157.225 173.1 156.967 172.2 156.45C171.317 155.933 170.65 155.275 170.2 154.475V157H167.925V138.5H170.2V145.85ZM179.5 150.1C179.5 149.067 179.292 148.167 178.875 147.4C178.458 146.633 177.892 146.05 177.175 145.65C176.475 145.25 175.7 145.05 174.85 145.05C174.017 145.05 173.242 145.258 172.525 145.675C171.825 146.075 171.258 146.667 170.825 147.45C170.408 148.217 170.2 149.108 170.2 150.125C170.2 151.158 170.408 152.067 170.825 152.85C171.258 153.617 171.825 154.208 172.525 154.625C173.242 155.025 174.017 155.225 174.85 155.225C175.7 155.225 176.475 155.025 177.175 154.625C177.892 154.208 178.458 153.617 178.875 152.85C179.292 152.067 179.5 151.15 179.5 150.1ZM190.795 157.225C189.511 157.225 188.345 156.933 187.295 156.35C186.261 155.767 185.445 154.942 184.845 153.875C184.261 152.792 183.97 151.542 183.97 150.125C183.97 148.725 184.27 147.492 184.87 146.425C185.486 145.342 186.32 144.517 187.37 143.95C188.42 143.367 189.595 143.075 190.895 143.075C192.195 143.075 193.37 143.367 194.42 143.95C195.47 144.517 196.295 145.333 196.895 146.4C197.511 147.467 197.82 148.708 197.82 150.125C197.82 151.542 197.503 152.792 196.87 153.875C196.253 154.942 195.411 155.767 194.345 156.35C193.278 156.933 192.095 157.225 190.795 157.225ZM190.795 155.225C191.611 155.225 192.378 155.033 193.095 154.65C193.811 154.267 194.386 153.692 194.82 152.925C195.27 152.158 195.495 151.225 195.495 150.125C195.495 149.025 195.278 148.092 194.845 147.325C194.411 146.558 193.845 145.992 193.145 145.625C192.445 145.242 191.686 145.05 190.87 145.05C190.036 145.05 189.27 145.242 188.57 145.625C187.886 145.992 187.336 146.558 186.92 147.325C186.503 148.092 186.295 149.025 186.295 150.125C186.295 151.242 186.495 152.183 186.895 152.95C187.311 153.717 187.861 154.292 188.545 154.675C189.228 155.042 189.978 155.225 190.795 155.225ZM199.961 150.1C199.961 148.7 200.244 147.475 200.811 146.425C201.377 145.358 202.152 144.533 203.136 143.95C204.136 143.367 205.252 143.075 206.486 143.075C207.552 143.075 208.544 143.325 209.461 143.825C210.377 144.308 211.077 144.95 211.561 145.75V138.5H213.861V157H211.561V154.425C211.111 155.242 210.444 155.917 209.561 156.45C208.677 156.967 207.644 157.225 206.461 157.225C205.244 157.225 204.136 156.925 203.136 156.325C202.152 155.725 201.377 154.883 200.811 153.8C200.244 152.717 199.961 151.483 199.961 150.1ZM211.561 150.125C211.561 149.092 211.352 148.192 210.936 147.425C210.519 146.658 209.952 146.075 209.236 145.675C208.536 145.258 207.761 145.05 206.911 145.05C206.061 145.05 205.286 145.25 204.586 145.65C203.886 146.05 203.327 146.633 202.911 147.4C202.494 148.167 202.286 149.067 202.286 150.1C202.286 151.15 202.494 152.067 202.911 152.85C203.327 153.617 203.886 154.208 204.586 154.625C205.286 155.025 206.061 155.225 206.911 155.225C207.761 155.225 208.536 155.025 209.236 154.625C209.952 154.208 210.519 153.617 210.936 152.85C211.352 152.067 211.561 151.158 211.561 150.125ZM229.505 143.3L221.255 163.45H218.905L221.605 156.85L216.08 143.3H218.605L222.905 154.4L227.155 143.3H229.505ZM244.432 157.225C243.149 157.225 241.982 156.933 240.932 156.35C239.899 155.767 239.082 154.942 238.482 153.875C237.899 152.792 237.607 151.542 237.607 150.125C237.607 148.725 237.907 147.492 238.507 146.425C239.124 145.342 239.957 144.517 241.007 143.95C242.057 143.367 243.232 143.075 244.532 143.075C245.832 143.075 247.007 143.367 248.057 143.95C249.107 144.517 249.932 145.333 250.532 146.4C251.149 147.467 251.457 148.708 251.457 150.125C251.457 151.542 251.141 152.792 250.507 153.875C249.891 154.942 249.049 155.767 247.982 156.35C246.916 156.933 245.732 157.225 244.432 157.225ZM244.432 155.225C245.249 155.225 246.016 155.033 246.732 154.65C247.449 154.267 248.024 153.692 248.457 152.925C248.907 152.158 249.132 151.225 249.132 150.125C249.132 149.025 248.916 148.092 248.482 147.325C248.049 146.558 247.482 145.992 246.782 145.625C246.082 145.242 245.324 145.05 244.507 145.05C243.674 145.05 242.907 145.242 242.207 145.625C241.524 145.992 240.974 146.558 240.557 147.325C240.141 148.092 239.932 149.025 239.932 150.125C239.932 151.242 240.132 152.183 240.532 152.95C240.949 153.717 241.499 154.292 242.182 154.675C242.866 155.042 243.616 155.225 244.432 155.225ZM261.123 143.05C262.79 143.05 264.14 143.558 265.173 144.575C266.207 145.575 266.723 147.025 266.723 148.925V157H264.473V149.25C264.473 147.883 264.132 146.842 263.448 146.125C262.765 145.392 261.832 145.025 260.648 145.025C259.448 145.025 258.49 145.4 257.773 146.15C257.073 146.9 256.723 147.992 256.723 149.425V157H254.448V143.3H256.723V145.25C257.173 144.55 257.782 144.008 258.548 143.625C259.332 143.242 260.19 143.05 261.123 143.05ZM276.255 150.125C276.255 148.708 276.538 147.475 277.105 146.425C277.671 145.358 278.455 144.533 279.455 143.95C280.471 143.367 281.63 143.075 282.93 143.075C284.613 143.075 285.996 143.483 287.08 144.3C288.18 145.117 288.905 146.25 289.255 147.7H286.805C286.571 146.867 286.113 146.208 285.43 145.725C284.763 145.242 283.93 145 282.93 145C281.63 145 280.58 145.45 279.78 146.35C278.98 147.233 278.58 148.492 278.58 150.125C278.58 151.775 278.98 153.05 279.78 153.95C280.58 154.85 281.63 155.3 282.93 155.3C283.93 155.3 284.763 155.067 285.43 154.6C286.096 154.133 286.555 153.467 286.805 152.6H289.255C288.888 154 288.155 155.125 287.055 155.975C285.955 156.808 284.58 157.225 282.93 157.225C281.63 157.225 280.471 156.933 279.455 156.35C278.455 155.767 277.671 154.942 277.105 153.875C276.538 152.808 276.255 151.558 276.255 150.125ZM291.44 150.1C291.44 148.7 291.724 147.475 292.29 146.425C292.857 145.358 293.632 144.533 294.615 143.95C295.615 143.367 296.724 143.075 297.94 143.075C299.14 143.075 300.182 143.333 301.065 143.85C301.949 144.367 302.607 145.017 303.04 145.8V143.3H305.34V157H303.04V154.45C302.59 155.25 301.915 155.917 301.015 156.45C300.132 156.967 299.099 157.225 297.915 157.225C296.699 157.225 295.599 156.925 294.615 156.325C293.632 155.725 292.857 154.883 292.29 153.8C291.724 152.717 291.44 151.483 291.44 150.1ZM303.04 150.125C303.04 149.092 302.832 148.192 302.415 147.425C301.999 146.658 301.432 146.075 300.715 145.675C300.015 145.258 299.24 145.05 298.39 145.05C297.54 145.05 296.765 145.25 296.065 145.65C295.365 146.05 294.807 146.633 294.39 147.4C293.974 148.167 293.765 149.067 293.765 150.1C293.765 151.15 293.974 152.067 294.39 152.85C294.807 153.617 295.365 154.208 296.065 154.625C296.765 155.025 297.54 155.225 298.39 155.225C299.24 155.225 300.015 155.025 300.715 154.625C301.432 154.208 301.999 153.617 302.415 152.85C302.832 152.067 303.04 151.158 303.04 150.125ZM325.66 143.05C326.726 143.05 327.676 143.275 328.51 143.725C329.343 144.158 330.001 144.817 330.485 145.7C330.968 146.583 331.21 147.658 331.21 148.925V157H328.96V149.25C328.96 147.883 328.618 146.842 327.935 146.125C327.268 145.392 326.36 145.025 325.21 145.025C324.026 145.025 323.085 145.408 322.385 146.175C321.685 146.925 321.335 148.017 321.335 149.45V157H319.085V149.25C319.085 147.883 318.743 146.842 318.06 146.125C317.393 145.392 316.485 145.025 315.335 145.025C314.151 145.025 313.21 145.408 312.51 146.175C311.81 146.925 311.46 148.017 311.46 149.45V157H309.185V143.3H311.46V145.275C311.91 144.558 312.51 144.008 313.26 143.625C314.026 143.242 314.868 143.05 315.785 143.05C316.935 143.05 317.951 143.308 318.835 143.825C319.718 144.342 320.376 145.1 320.81 146.1C321.193 145.133 321.826 144.383 322.71 143.85C323.593 143.317 324.576 143.05 325.66 143.05ZM337.217 145.825C337.667 145.042 338.333 144.392 339.217 143.875C340.117 143.342 341.158 143.075 342.342 143.075C343.558 143.075 344.658 143.367 345.642 143.95C346.642 144.533 347.425 145.358 347.992 146.425C348.558 147.475 348.842 148.7 348.842 150.1C348.842 151.483 348.558 152.717 347.992 153.8C347.425 154.883 346.642 155.725 345.642 156.325C344.658 156.925 343.558 157.225 342.342 157.225C341.175 157.225 340.142 156.967 339.242 156.45C338.358 155.917 337.683 155.258 337.217 154.475V163.5H334.942V143.3H337.217V145.825ZM346.517 150.1C346.517 149.067 346.308 148.167 345.892 147.4C345.475 146.633 344.908 146.05 344.192 145.65C343.492 145.25 342.717 145.05 341.867 145.05C341.033 145.05 340.258 145.258 339.542 145.675C338.842 146.075 338.275 146.667 337.842 147.45C337.425 148.217 337.217 149.108 337.217 150.125C337.217 151.158 337.425 152.067 337.842 152.85C338.275 153.617 338.842 154.208 339.542 154.625C340.258 155.025 341.033 155.225 341.867 155.225C342.717 155.225 343.492 155.025 344.192 154.625C344.908 154.208 345.475 153.617 345.892 152.85C346.308 152.067 346.517 151.15 346.517 150.1ZM363.986 143.3V157H361.711V154.975C361.278 155.675 360.669 156.225 359.886 156.625C359.119 157.008 358.269 157.2 357.336 157.2C356.269 157.2 355.311 156.983 354.461 156.55C353.611 156.1 352.936 155.433 352.436 154.55C351.953 153.667 351.711 152.592 351.711 151.325V143.3H353.961V151.025C353.961 152.375 354.303 153.417 354.986 154.15C355.669 154.867 356.603 155.225 357.786 155.225C359.003 155.225 359.961 154.85 360.661 154.1C361.361 153.35 361.711 152.258 361.711 150.825V143.3H363.986ZM372.677 157.225C371.627 157.225 370.686 157.05 369.852 156.7C369.019 156.333 368.361 155.833 367.877 155.2C367.394 154.55 367.127 153.808 367.077 152.975H369.427C369.494 153.658 369.811 154.217 370.377 154.65C370.961 155.083 371.719 155.3 372.652 155.3C373.519 155.3 374.202 155.108 374.702 154.725C375.202 154.342 375.452 153.858 375.452 153.275C375.452 152.675 375.186 152.233 374.652 151.95C374.119 151.65 373.294 151.358 372.177 151.075C371.161 150.808 370.327 150.542 369.677 150.275C369.044 149.992 368.494 149.583 368.027 149.05C367.577 148.5 367.352 147.783 367.352 146.9C367.352 146.2 367.561 145.558 367.977 144.975C368.394 144.392 368.986 143.933 369.752 143.6C370.519 143.25 371.394 143.075 372.377 143.075C373.894 143.075 375.119 143.458 376.052 144.225C376.986 144.992 377.486 146.042 377.552 147.375H375.277C375.227 146.658 374.936 146.083 374.402 145.65C373.886 145.217 373.186 145 372.302 145C371.486 145 370.836 145.175 370.352 145.525C369.869 145.875 369.627 146.333 369.627 146.9C369.627 147.35 369.769 147.725 370.052 148.025C370.352 148.308 370.719 148.542 371.152 148.725C371.602 148.892 372.219 149.083 373.002 149.3C373.986 149.567 374.786 149.833 375.402 150.1C376.019 150.35 376.544 150.733 376.977 151.25C377.427 151.767 377.661 152.442 377.677 153.275C377.677 154.025 377.469 154.7 377.052 155.3C376.636 155.9 376.044 156.375 375.277 156.725C374.527 157.058 373.661 157.225 372.677 157.225ZM389.829 145.85C390.296 145.033 390.979 144.367 391.879 143.85C392.779 143.333 393.804 143.075 394.954 143.075C396.187 143.075 397.296 143.367 398.279 143.95C399.262 144.533 400.037 145.358 400.604 146.425C401.171 147.475 401.454 148.7 401.454 150.1C401.454 151.483 401.171 152.717 400.604 153.8C400.037 154.883 399.254 155.725 398.254 156.325C397.271 156.925 396.171 157.225 394.954 157.225C393.771 157.225 392.729 156.967 391.829 156.45C390.946 155.933 390.279 155.275 389.829 154.475V157H387.554V138.5H389.829V145.85ZM399.129 150.1C399.129 149.067 398.921 148.167 398.504 147.4C398.087 146.633 397.521 146.05 396.804 145.65C396.104 145.25 395.329 145.05 394.479 145.05C393.646 145.05 392.871 145.258 392.154 145.675C391.454 146.075 390.887 146.667 390.454 147.45C390.037 148.217 389.829 149.108 389.829 150.125C389.829 151.158 390.037 152.067 390.454 152.85C390.887 153.617 391.454 154.208 392.154 154.625C392.871 155.025 393.646 155.225 394.479 155.225C395.329 155.225 396.104 155.025 396.804 154.625C397.521 154.208 398.087 153.617 398.504 152.85C398.921 152.067 399.129 151.15 399.129 150.1ZM416.248 143.3L407.998 163.45H405.648L408.348 156.85L402.823 143.3H405.348L409.648 154.4L413.898 143.3H416.248ZM424.35 150.125C424.35 148.708 424.634 147.475 425.2 146.425C425.767 145.358 426.55 144.533 427.55 143.95C428.567 143.367 429.725 143.075 431.025 143.075C432.709 143.075 434.092 143.483 435.175 144.3C436.275 145.117 437 146.25 437.35 147.7H434.9C434.667 146.867 434.209 146.208 433.525 145.725C432.859 145.242 432.025 145 431.025 145C429.725 145 428.675 145.45 427.875 146.35C427.075 147.233 426.675 148.492 426.675 150.125C426.675 151.775 427.075 153.05 427.875 153.95C428.675 154.85 429.725 155.3 431.025 155.3C432.025 155.3 432.859 155.067 433.525 154.6C434.192 154.133 434.65 153.467 434.9 152.6H437.35C436.984 154 436.25 155.125 435.15 155.975C434.05 156.808 432.675 157.225 431.025 157.225C429.725 157.225 428.567 156.933 427.55 156.35C426.55 155.767 425.767 154.942 425.2 153.875C424.634 152.808 424.35 151.558 424.35 150.125ZM446.361 157.225C445.078 157.225 443.911 156.933 442.861 156.35C441.828 155.767 441.011 154.942 440.411 153.875C439.828 152.792 439.536 151.542 439.536 150.125C439.536 148.725 439.836 147.492 440.436 146.425C441.053 145.342 441.886 144.517 442.936 143.95C443.986 143.367 445.161 143.075 446.461 143.075C447.761 143.075 448.936 143.367 449.986 143.95C451.036 144.517 451.861 145.333 452.461 146.4C453.078 147.467 453.386 148.708 453.386 150.125C453.386 151.542 453.069 152.792 452.436 153.875C451.819 154.942 450.978 155.767 449.911 156.35C448.844 156.933 447.661 157.225 446.361 157.225ZM446.361 155.225C447.178 155.225 447.944 155.033 448.661 154.65C449.378 154.267 449.953 153.692 450.386 152.925C450.836 152.158 451.061 151.225 451.061 150.125C451.061 149.025 450.844 148.092 450.411 147.325C449.978 146.558 449.411 145.992 448.711 145.625C448.011 145.242 447.253 145.05 446.436 145.05C445.603 145.05 444.836 145.242 444.136 145.625C443.453 145.992 442.903 146.558 442.486 147.325C442.069 148.092 441.861 149.025 441.861 150.125C441.861 151.242 442.061 152.183 442.461 152.95C442.878 153.717 443.428 154.292 444.111 154.675C444.794 155.042 445.544 155.225 446.361 155.225ZM463.052 143.05C464.719 143.05 466.069 143.558 467.102 144.575C468.135 145.575 468.652 147.025 468.652 148.925V157H466.402V149.25C466.402 147.883 466.06 146.842 465.377 146.125C464.694 145.392 463.76 145.025 462.577 145.025C461.377 145.025 460.419 145.4 459.702 146.15C459.002 146.9 458.652 147.992 458.652 149.425V157H456.377V143.3H458.652V145.25C459.102 144.55 459.71 144.008 460.477 143.625C461.26 143.242 462.119 143.05 463.052 143.05ZM471.518 150.1C471.518 148.7 471.802 147.475 472.368 146.425C472.935 145.358 473.71 144.533 474.693 143.95C475.693 143.367 476.81 143.075 478.043 143.075C479.11 143.075 480.102 143.325 481.018 143.825C481.935 144.308 482.635 144.95 483.118 145.75V138.5H485.418V157H483.118V154.425C482.668 155.242 482.002 155.917 481.118 156.45C480.235 156.967 479.202 157.225 478.018 157.225C476.802 157.225 475.693 156.925 474.693 156.325C473.71 155.725 472.935 154.883 472.368 153.8C471.802 152.717 471.518 151.483 471.518 150.1ZM483.118 150.125C483.118 149.092 482.91 148.192 482.493 147.425C482.077 146.658 481.51 146.075 480.793 145.675C480.093 145.258 479.318 145.05 478.468 145.05C477.618 145.05 476.843 145.25 476.143 145.65C475.443 146.05 474.885 146.633 474.468 147.4C474.052 148.167 473.843 149.067 473.843 150.1C473.843 151.15 474.052 152.067 474.468 152.85C474.885 153.617 475.443 154.208 476.143 154.625C476.843 155.025 477.618 155.225 478.468 155.225C479.318 155.225 480.093 155.025 480.793 154.625C481.51 154.208 482.077 153.617 482.493 152.85C482.91 152.067 483.118 151.158 483.118 150.125ZM501.413 143.3V157H499.138V154.975C498.705 155.675 498.096 156.225 497.313 156.625C496.546 157.008 495.696 157.2 494.763 157.2C493.696 157.2 492.738 156.983 491.888 156.55C491.038 156.1 490.363 155.433 489.863 154.55C489.38 153.667 489.138 152.592 489.138 151.325V143.3H491.388V151.025C491.388 152.375 491.73 153.417 492.413 154.15C493.096 154.867 494.03 155.225 495.213 155.225C496.43 155.225 497.388 154.85 498.088 154.1C498.788 153.35 499.138 152.258 499.138 150.825V143.3H501.413ZM504.404 150.125C504.404 148.708 504.687 147.475 505.254 146.425C505.821 145.358 506.604 144.533 507.604 143.95C508.621 143.367 509.779 143.075 511.079 143.075C512.762 143.075 514.146 143.483 515.229 144.3C516.329 145.117 517.054 146.25 517.404 147.7H514.954C514.721 146.867 514.262 146.208 513.579 145.725C512.912 145.242 512.079 145 511.079 145C509.779 145 508.729 145.45 507.929 146.35C507.129 147.233 506.729 148.492 506.729 150.125C506.729 151.775 507.129 153.05 507.929 153.95C508.729 154.85 509.779 155.3 511.079 155.3C512.079 155.3 512.912 155.067 513.579 154.6C514.246 154.133 514.704 153.467 514.954 152.6H517.404C517.037 154 516.304 155.125 515.204 155.975C514.104 156.808 512.729 157.225 511.079 157.225C509.779 157.225 508.621 156.933 507.604 156.35C506.604 155.767 505.821 154.942 505.254 153.875C504.687 152.808 504.404 151.558 504.404 150.125ZM523.215 145.175V153.25C523.215 153.917 523.356 154.392 523.64 154.675C523.923 154.942 524.415 155.075 525.115 155.075H526.79V157H524.74C523.473 157 522.523 156.708 521.89 156.125C521.256 155.542 520.94 154.583 520.94 153.25V145.175H519.165V143.3H520.94V139.85H523.215V143.3H526.79V145.175H523.215ZM530.721 141.075C530.288 141.075 529.921 140.925 529.621 140.625C529.321 140.325 529.171 139.958 529.171 139.525C529.171 139.092 529.321 138.725 529.621 138.425C529.921 138.125 530.288 137.975 530.721 137.975C531.138 137.975 531.488 138.125 531.771 138.425C532.071 138.725 532.221 139.092 532.221 139.525C532.221 139.958 532.071 140.325 531.771 140.625C531.488 140.925 531.138 141.075 530.721 141.075ZM531.821 143.3V157H529.546V143.3H531.821ZM542.373 143.05C544.04 143.05 545.39 143.558 546.423 144.575C547.457 145.575 547.973 147.025 547.973 148.925V157H545.723V149.25C545.723 147.883 545.382 146.842 544.698 146.125C544.015 145.392 543.082 145.025 541.898 145.025C540.698 145.025 539.74 145.4 539.023 146.15C538.323 146.9 537.973 147.992 537.973 149.425V157H535.698V143.3H537.973V145.25C538.423 144.55 539.032 144.008 539.798 143.625C540.582 143.242 541.44 143.05 542.373 143.05ZM557.34 143.075C558.523 143.075 559.556 143.333 560.44 143.85C561.34 144.367 562.006 145.017 562.44 145.8V143.3H564.74V157.3C564.74 158.55 564.473 159.658 563.94 160.625C563.406 161.608 562.64 162.375 561.64 162.925C560.656 163.475 559.506 163.75 558.19 163.75C556.39 163.75 554.89 163.325 553.69 162.475C552.49 161.625 551.781 160.467 551.565 159H553.815C554.065 159.833 554.581 160.5 555.365 161C556.148 161.517 557.09 161.775 558.19 161.775C559.44 161.775 560.456 161.383 561.24 160.6C562.04 159.817 562.44 158.717 562.44 157.3V154.425C561.99 155.225 561.323 155.892 560.44 156.425C559.556 156.958 558.523 157.225 557.34 157.225C556.123 157.225 555.015 156.925 554.015 156.325C553.031 155.725 552.256 154.883 551.69 153.8C551.123 152.717 550.84 151.483 550.84 150.1C550.84 148.7 551.123 147.475 551.69 146.425C552.256 145.358 553.031 144.533 554.015 143.95C555.015 143.367 556.123 143.075 557.34 143.075ZM562.44 150.125C562.44 149.092 562.231 148.192 561.815 147.425C561.398 146.658 560.831 146.075 560.115 145.675C559.415 145.258 558.64 145.05 557.79 145.05C556.94 145.05 556.165 145.25 555.465 145.65C554.765 146.05 554.206 146.633 553.79 147.4C553.373 148.167 553.165 149.067 553.165 150.1C553.165 151.15 553.373 152.067 553.79 152.85C554.206 153.617 554.765 154.208 555.465 154.625C556.165 155.025 556.94 155.225 557.79 155.225C558.64 155.225 559.415 155.025 560.115 154.625C560.831 154.208 561.398 153.617 561.815 152.85C562.231 152.067 562.44 151.158 562.44 150.125ZM173.9 195.225C172.617 195.225 171.45 194.933 170.4 194.35C169.367 193.767 168.55 192.942 167.95 191.875C167.367 190.792 167.075 189.542 167.075 188.125C167.075 186.725 167.375 185.492 167.975 184.425C168.592 183.342 169.425 182.517 170.475 181.95C171.525 181.367 172.7 181.075 174 181.075C175.3 181.075 176.475 181.367 177.525 181.95C178.575 182.517 179.4 183.333 180 184.4C180.617 185.467 180.925 186.708 180.925 188.125C180.925 189.542 180.608 190.792 179.975 191.875C179.358 192.942 178.517 193.767 177.45 194.35C176.383 194.933 175.2 195.225 173.9 195.225ZM173.9 193.225C174.717 193.225 175.483 193.033 176.2 192.65C176.917 192.267 177.492 191.692 177.925 190.925C178.375 190.158 178.6 189.225 178.6 188.125C178.6 187.025 178.383 186.092 177.95 185.325C177.517 184.558 176.95 183.992 176.25 183.625C175.55 183.242 174.792 183.05 173.975 183.05C173.142 183.05 172.375 183.242 171.675 183.625C170.992 183.992 170.442 184.558 170.025 185.325C169.608 186.092 169.4 187.025 169.4 188.125C169.4 189.242 169.6 190.183 170 190.95C170.417 191.717 170.967 192.292 171.65 192.675C172.333 193.042 173.083 193.225 173.9 193.225ZM196.066 181.3V195H193.791V192.975C193.358 193.675 192.75 194.225 191.966 194.625C191.2 195.008 190.35 195.2 189.416 195.2C188.35 195.2 187.391 194.983 186.541 194.55C185.691 194.1 185.016 193.433 184.516 192.55C184.033 191.667 183.791 190.592 183.791 189.325V181.3H186.041V189.025C186.041 190.375 186.383 191.417 187.066 192.15C187.75 192.867 188.683 193.225 189.866 193.225C191.083 193.225 192.041 192.85 192.741 192.1C193.441 191.35 193.791 190.258 193.791 188.825V181.3H196.066ZM202.182 183.525C202.582 182.742 203.149 182.133 203.882 181.7C204.632 181.267 205.541 181.05 206.607 181.05V183.4H206.007C203.457 183.4 202.182 184.783 202.182 187.55V195H199.907V181.3H202.182V183.525ZM214.084 195.225C213.034 195.225 212.092 195.05 211.259 194.7C210.425 194.333 209.767 193.833 209.284 193.2C208.8 192.55 208.534 191.808 208.484 190.975H210.834C210.9 191.658 211.217 192.217 211.784 192.65C212.367 193.083 213.125 193.3 214.059 193.3C214.925 193.3 215.609 193.108 216.109 192.725C216.609 192.342 216.859 191.858 216.859 191.275C216.859 190.675 216.592 190.233 216.059 189.95C215.525 189.65 214.7 189.358 213.584 189.075C212.567 188.808 211.734 188.542 211.084 188.275C210.45 187.992 209.9 187.583 209.434 187.05C208.984 186.5 208.759 185.783 208.759 184.9C208.759 184.2 208.967 183.558 209.384 182.975C209.8 182.392 210.392 181.933 211.159 181.6C211.925 181.25 212.8 181.075 213.784 181.075C215.3 181.075 216.525 181.458 217.459 182.225C218.392 182.992 218.892 184.042 218.959 185.375H216.684C216.634 184.658 216.342 184.083 215.809 183.65C215.292 183.217 214.592 183 213.709 183C212.892 183 212.242 183.175 211.759 183.525C211.275 183.875 211.034 184.333 211.034 184.9C211.034 185.35 211.175 185.725 211.459 186.025C211.759 186.308 212.125 186.542 212.559 186.725C213.009 186.892 213.625 187.083 214.409 187.3C215.392 187.567 216.192 187.833 216.809 188.1C217.425 188.35 217.95 188.733 218.384 189.25C218.834 189.767 219.067 190.442 219.084 191.275C219.084 192.025 218.875 192.7 218.459 193.3C218.042 193.9 217.45 194.375 216.684 194.725C215.934 195.058 215.067 195.225 214.084 195.225ZM234.795 187.625C234.795 188.058 234.77 188.517 234.72 189H223.77C223.853 190.35 224.312 191.408 225.145 192.175C225.995 192.925 227.02 193.3 228.22 193.3C229.203 193.3 230.02 193.075 230.67 192.625C231.337 192.158 231.803 191.542 232.07 190.775H234.52C234.153 192.092 233.42 193.167 232.32 194C231.22 194.817 229.853 195.225 228.22 195.225C226.92 195.225 225.753 194.933 224.72 194.35C223.703 193.767 222.903 192.942 222.32 191.875C221.737 190.792 221.445 189.542 221.445 188.125C221.445 186.708 221.728 185.467 222.295 184.4C222.862 183.333 223.653 182.517 224.67 181.95C225.703 181.367 226.887 181.075 228.22 181.075C229.52 181.075 230.67 181.358 231.67 181.925C232.67 182.492 233.437 183.275 233.97 184.275C234.52 185.258 234.795 186.375 234.795 187.625ZM232.445 187.15C232.445 186.283 232.253 185.542 231.87 184.925C231.487 184.292 230.962 183.817 230.295 183.5C229.645 183.167 228.92 183 228.12 183C226.97 183 225.987 183.367 225.17 184.1C224.37 184.833 223.912 185.85 223.795 187.15H232.445ZM240.073 176.5V195H237.798V176.5H240.073ZM249.05 192.9L253.3 181.3H255.725L250.35 195H247.7L242.325 181.3H244.775L249.05 192.9ZM270.464 187.625C270.464 188.058 270.439 188.517 270.389 189H259.439C259.522 190.35 259.981 191.408 260.814 192.175C261.664 192.925 262.689 193.3 263.889 193.3C264.872 193.3 265.689 193.075 266.339 192.625C267.006 192.158 267.472 191.542 267.739 190.775H270.189C269.822 192.092 269.089 193.167 267.989 194C266.889 194.817 265.522 195.225 263.889 195.225C262.589 195.225 261.422 194.933 260.389 194.35C259.372 193.767 258.572 192.942 257.989 191.875C257.406 190.792 257.114 189.542 257.114 188.125C257.114 186.708 257.397 185.467 257.964 184.4C258.531 183.333 259.322 182.517 260.339 181.95C261.372 181.367 262.556 181.075 263.889 181.075C265.189 181.075 266.339 181.358 267.339 181.925C268.339 182.492 269.106 183.275 269.639 184.275C270.189 185.258 270.464 186.375 270.464 187.625ZM268.114 187.15C268.114 186.283 267.922 185.542 267.539 184.925C267.156 184.292 266.631 183.817 265.964 183.5C265.314 183.167 264.589 183 263.789 183C262.639 183 261.656 183.367 260.839 184.1C260.039 184.833 259.581 185.85 259.464 187.15H268.114ZM278.317 195.225C277.267 195.225 276.325 195.05 275.492 194.7C274.659 194.333 274 193.833 273.517 193.2C273.034 192.55 272.767 191.808 272.717 190.975H275.067C275.134 191.658 275.45 192.217 276.017 192.65C276.6 193.083 277.359 193.3 278.292 193.3C279.159 193.3 279.842 193.108 280.342 192.725C280.842 192.342 281.092 191.858 281.092 191.275C281.092 190.675 280.825 190.233 280.292 189.95C279.759 189.65 278.934 189.358 277.817 189.075C276.8 188.808 275.967 188.542 275.317 188.275C274.684 187.992 274.134 187.583 273.667 187.05C273.217 186.5 272.992 185.783 272.992 184.9C272.992 184.2 273.2 183.558 273.617 182.975C274.034 182.392 274.625 181.933 275.392 181.6C276.159 181.25 277.034 181.075 278.017 181.075C279.534 181.075 280.759 181.458 281.692 182.225C282.625 182.992 283.125 184.042 283.192 185.375H280.917C280.867 184.658 280.575 184.083 280.042 183.65C279.525 183.217 278.825 183 277.942 183C277.125 183 276.475 183.175 275.992 183.525C275.509 183.875 275.267 184.333 275.267 184.9C275.267 185.35 275.409 185.725 275.692 186.025C275.992 186.308 276.359 186.542 276.792 186.725C277.242 186.892 277.859 187.083 278.642 187.3C279.625 187.567 280.425 187.833 281.042 188.1C281.659 188.35 282.184 188.733 282.617 189.25C283.067 189.767 283.3 190.442 283.317 191.275C283.317 192.025 283.109 192.7 282.692 193.3C282.275 193.9 281.684 194.375 280.917 194.725C280.167 195.058 279.3 195.225 278.317 195.225ZM292.344 188.1C292.344 186.7 292.627 185.475 293.194 184.425C293.76 183.358 294.535 182.533 295.519 181.95C296.519 181.367 297.627 181.075 298.844 181.075C300.044 181.075 301.085 181.333 301.969 181.85C302.852 182.367 303.51 183.017 303.944 183.8V181.3H306.244V195H303.944V192.45C303.494 193.25 302.819 193.917 301.919 194.45C301.035 194.967 300.002 195.225 298.819 195.225C297.602 195.225 296.502 194.925 295.519 194.325C294.535 193.725 293.76 192.883 293.194 191.8C292.627 190.717 292.344 189.483 292.344 188.1ZM303.944 188.125C303.944 187.092 303.735 186.192 303.319 185.425C302.902 184.658 302.335 184.075 301.619 183.675C300.919 183.258 300.144 183.05 299.294 183.05C298.444 183.05 297.669 183.25 296.969 183.65C296.269 184.05 295.71 184.633 295.294 185.4C294.877 186.167 294.669 187.067 294.669 188.1C294.669 189.15 294.877 190.067 295.294 190.85C295.71 191.617 296.269 192.208 296.969 192.625C297.669 193.025 298.444 193.225 299.294 193.225C300.144 193.225 300.919 193.025 301.619 192.625C302.335 192.208 302.902 191.617 303.319 190.85C303.735 190.067 303.944 189.158 303.944 188.125ZM309.238 188.125C309.238 186.708 309.521 185.475 310.088 184.425C310.655 183.358 311.438 182.533 312.438 181.95C313.455 181.367 314.613 181.075 315.913 181.075C317.596 181.075 318.98 181.483 320.063 182.3C321.163 183.117 321.888 184.25 322.238 185.7H319.788C319.555 184.867 319.096 184.208 318.413 183.725C317.746 183.242 316.913 183 315.913 183C314.613 183 313.563 183.45 312.763 184.35C311.963 185.233 311.563 186.492 311.563 188.125C311.563 189.775 311.963 191.05 312.763 191.95C313.563 192.85 314.613 193.3 315.913 193.3C316.913 193.3 317.746 193.067 318.413 192.6C319.08 192.133 319.538 191.467 319.788 190.6H322.238C321.871 192 321.138 193.125 320.038 193.975C318.938 194.808 317.563 195.225 315.913 195.225C314.613 195.225 313.455 194.933 312.438 194.35C311.438 193.767 310.655 192.942 310.088 191.875C309.521 190.808 309.238 189.558 309.238 188.125ZM324.424 188.125C324.424 186.708 324.707 185.475 325.274 184.425C325.84 183.358 326.624 182.533 327.624 181.95C328.64 181.367 329.799 181.075 331.099 181.075C332.782 181.075 334.165 181.483 335.249 182.3C336.349 183.117 337.074 184.25 337.424 185.7H334.974C334.74 184.867 334.282 184.208 333.599 183.725C332.932 183.242 332.099 183 331.099 183C329.799 183 328.749 183.45 327.949 184.35C327.149 185.233 326.749 186.492 326.749 188.125C326.749 189.775 327.149 191.05 327.949 191.95C328.749 192.85 329.799 193.3 331.099 193.3C332.099 193.3 332.932 193.067 333.599 192.6C334.265 192.133 334.724 191.467 334.974 190.6H337.424C337.057 192 336.324 193.125 335.224 193.975C334.124 194.808 332.749 195.225 331.099 195.225C329.799 195.225 328.64 194.933 327.624 194.35C326.624 193.767 325.84 192.942 325.274 191.875C324.707 190.808 324.424 189.558 324.424 188.125ZM346.434 195.225C345.151 195.225 343.984 194.933 342.934 194.35C341.901 193.767 341.084 192.942 340.484 191.875C339.901 190.792 339.609 189.542 339.609 188.125C339.609 186.725 339.909 185.492 340.509 184.425C341.126 183.342 341.959 182.517 343.009 181.95C344.059 181.367 345.234 181.075 346.534 181.075C347.834 181.075 349.009 181.367 350.059 181.95C351.109 182.517 351.934 183.333 352.534 184.4C353.151 185.467 353.459 186.708 353.459 188.125C353.459 189.542 353.143 190.792 352.509 191.875C351.893 192.942 351.051 193.767 349.984 194.35C348.918 194.933 347.734 195.225 346.434 195.225ZM346.434 193.225C347.251 193.225 348.018 193.033 348.734 192.65C349.451 192.267 350.026 191.692 350.459 190.925C350.909 190.158 351.134 189.225 351.134 188.125C351.134 187.025 350.918 186.092 350.484 185.325C350.051 184.558 349.484 183.992 348.784 183.625C348.084 183.242 347.326 183.05 346.509 183.05C345.676 183.05 344.909 183.242 344.209 183.625C343.526 183.992 342.976 184.558 342.559 185.325C342.143 186.092 341.934 187.025 341.934 188.125C341.934 189.242 342.134 190.183 342.534 190.95C342.951 191.717 343.501 192.292 344.184 192.675C344.868 193.042 345.618 193.225 346.434 193.225ZM358.725 183.525C359.125 182.742 359.692 182.133 360.425 181.7C361.175 181.267 362.084 181.05 363.15 181.05V183.4H362.55C360 183.4 358.725 184.783 358.725 187.55V195H356.45V181.3H358.725V183.525ZM364.927 188.1C364.927 186.7 365.21 185.475 365.777 184.425C366.343 183.358 367.118 182.533 368.102 181.95C369.102 181.367 370.218 181.075 371.452 181.075C372.518 181.075 373.51 181.325 374.427 181.825C375.343 182.308 376.043 182.95 376.527 183.75V176.5H378.827V195H376.527V192.425C376.077 193.242 375.41 193.917 374.527 194.45C373.643 194.967 372.61 195.225 371.427 195.225C370.21 195.225 369.102 194.925 368.102 194.325C367.118 193.725 366.343 192.883 365.777 191.8C365.21 190.717 364.927 189.483 364.927 188.1ZM376.527 188.125C376.527 187.092 376.318 186.192 375.902 185.425C375.485 184.658 374.918 184.075 374.202 183.675C373.502 183.258 372.727 183.05 371.877 183.05C371.027 183.05 370.252 183.25 369.552 183.65C368.852 184.05 368.293 184.633 367.877 185.4C367.46 186.167 367.252 187.067 367.252 188.1C367.252 189.15 367.46 190.067 367.877 190.85C368.293 191.617 368.852 192.208 369.552 192.625C370.252 193.025 371.027 193.225 371.877 193.225C372.727 193.225 373.502 193.025 374.202 192.625C374.918 192.208 375.485 191.617 375.902 190.85C376.318 190.067 376.527 189.158 376.527 188.125ZM383.846 179.075C383.413 179.075 383.046 178.925 382.746 178.625C382.446 178.325 382.296 177.958 382.296 177.525C382.296 177.092 382.446 176.725 382.746 176.425C383.046 176.125 383.413 175.975 383.846 175.975C384.263 175.975 384.613 176.125 384.896 176.425C385.196 176.725 385.346 177.092 385.346 177.525C385.346 177.958 385.196 178.325 384.896 178.625C384.613 178.925 384.263 179.075 383.846 179.075ZM384.946 181.3V195H382.671V181.3H384.946ZM395.498 181.05C397.165 181.05 398.515 181.558 399.548 182.575C400.582 183.575 401.098 185.025 401.098 186.925V195H398.848V187.25C398.848 185.883 398.507 184.842 397.823 184.125C397.14 183.392 396.207 183.025 395.023 183.025C393.823 183.025 392.865 183.4 392.148 184.15C391.448 184.9 391.098 185.992 391.098 187.425V195H388.823V181.3H391.098V183.25C391.548 182.55 392.157 182.008 392.923 181.625C393.707 181.242 394.565 181.05 395.498 181.05ZM410.465 181.075C411.648 181.075 412.681 181.333 413.565 181.85C414.465 182.367 415.131 183.017 415.565 183.8V181.3H417.865V195.3C417.865 196.55 417.598 197.658 417.065 198.625C416.531 199.608 415.765 200.375 414.765 200.925C413.781 201.475 412.631 201.75 411.315 201.75C409.515 201.75 408.015 201.325 406.815 200.475C405.615 199.625 404.906 198.467 404.69 197H406.94C407.19 197.833 407.706 198.5 408.49 199C409.273 199.517 410.215 199.775 411.315 199.775C412.565 199.775 413.581 199.383 414.365 198.6C415.165 197.817 415.565 196.717 415.565 195.3V192.425C415.115 193.225 414.448 193.892 413.565 194.425C412.681 194.958 411.648 195.225 410.465 195.225C409.248 195.225 408.14 194.925 407.14 194.325C406.156 193.725 405.381 192.883 404.815 191.8C404.248 190.717 403.965 189.483 403.965 188.1C403.965 186.7 404.248 185.475 404.815 184.425C405.381 183.358 406.156 182.533 407.14 181.95C408.14 181.367 409.248 181.075 410.465 181.075ZM415.565 188.125C415.565 187.092 415.356 186.192 414.94 185.425C414.523 184.658 413.956 184.075 413.24 183.675C412.54 183.258 411.765 183.05 410.915 183.05C410.065 183.05 409.29 183.25 408.59 183.65C407.89 184.05 407.331 184.633 406.915 185.4C406.498 186.167 406.29 187.067 406.29 188.1C406.29 189.15 406.498 190.067 406.915 190.85C407.331 191.617 407.89 192.208 408.59 192.625C409.29 193.025 410.065 193.225 410.915 193.225C411.765 193.225 412.54 193.025 413.24 192.625C413.956 192.208 414.523 191.617 414.94 190.85C415.356 190.067 415.565 189.158 415.565 188.125ZM431.149 183.175V191.25C431.149 191.917 431.291 192.392 431.574 192.675C431.858 192.942 432.349 193.075 433.049 193.075H434.724V195H432.674C431.408 195 430.458 194.708 429.824 194.125C429.191 193.542 428.874 192.583 428.874 191.25V183.175H427.099V181.3H428.874V177.85H431.149V181.3H434.724V183.175H431.149ZM443.456 195.225C442.172 195.225 441.006 194.933 439.956 194.35C438.922 193.767 438.106 192.942 437.506 191.875C436.922 190.792 436.631 189.542 436.631 188.125C436.631 186.725 436.931 185.492 437.531 184.425C438.147 183.342 438.981 182.517 440.031 181.95C441.081 181.367 442.256 181.075 443.556 181.075C444.856 181.075 446.031 181.367 447.081 181.95C448.131 182.517 448.956 183.333 449.556 184.4C450.172 185.467 450.481 186.708 450.481 188.125C450.481 189.542 450.164 190.792 449.531 191.875C448.914 192.942 448.072 193.767 447.006 194.35C445.939 194.933 444.756 195.225 443.456 195.225ZM443.456 193.225C444.272 193.225 445.039 193.033 445.756 192.65C446.472 192.267 447.047 191.692 447.481 190.925C447.931 190.158 448.156 189.225 448.156 188.125C448.156 187.025 447.939 186.092 447.506 185.325C447.072 184.558 446.506 183.992 445.806 183.625C445.106 183.242 444.347 183.05 443.531 183.05C442.697 183.05 441.931 183.242 441.231 183.625C440.547 183.992 439.997 184.558 439.581 185.325C439.164 186.092 438.956 187.025 438.956 188.125C438.956 189.242 439.156 190.183 439.556 190.95C439.972 191.717 440.522 192.292 441.206 192.675C441.889 193.042 442.639 193.225 443.456 193.225ZM462.912 183.175V191.25C462.912 191.917 463.054 192.392 463.337 192.675C463.62 192.942 464.112 193.075 464.812 193.075H466.487V195H464.437C463.17 195 462.22 194.708 461.587 194.125C460.954 193.542 460.637 192.583 460.637 191.25V183.175H458.862V181.3H460.637V177.85H462.912V181.3H466.487V183.175H462.912ZM476.043 181.05C477.077 181.05 478.01 181.275 478.843 181.725C479.677 182.158 480.327 182.817 480.793 183.7C481.277 184.583 481.518 185.658 481.518 186.925V195H479.268V187.25C479.268 185.883 478.927 184.842 478.243 184.125C477.56 183.392 476.627 183.025 475.443 183.025C474.243 183.025 473.285 183.4 472.568 184.15C471.868 184.9 471.518 185.992 471.518 187.425V195H469.243V176.5H471.518V183.25C471.968 182.55 472.585 182.008 473.368 181.625C474.168 181.242 475.06 181.05 476.043 181.05ZM497.735 187.625C497.735 188.058 497.71 188.517 497.66 189H486.71C486.793 190.35 487.251 191.408 488.085 192.175C488.935 192.925 489.96 193.3 491.16 193.3C492.143 193.3 492.96 193.075 493.61 192.625C494.276 192.158 494.743 191.542 495.01 190.775H497.46C497.093 192.092 496.36 193.167 495.26 194C494.16 194.817 492.793 195.225 491.16 195.225C489.86 195.225 488.693 194.933 487.66 194.35C486.643 193.767 485.843 192.942 485.26 191.875C484.676 190.792 484.385 189.542 484.385 188.125C484.385 186.708 484.668 185.467 485.235 184.4C485.801 183.333 486.593 182.517 487.61 181.95C488.643 181.367 489.826 181.075 491.16 181.075C492.46 181.075 493.61 181.358 494.61 181.925C495.61 182.492 496.376 183.275 496.91 184.275C497.46 185.258 497.735 186.375 497.735 187.625ZM495.385 187.15C495.385 186.283 495.193 185.542 494.81 184.925C494.426 184.292 493.901 183.817 493.235 183.5C492.585 183.167 491.86 183 491.06 183C489.91 183 488.926 183.367 488.11 184.1C487.31 184.833 486.851 185.85 486.735 187.15H495.385ZM506.553 188.1C506.553 186.7 506.836 185.475 507.403 184.425C507.969 183.358 508.744 182.533 509.728 181.95C510.728 181.367 511.836 181.075 513.053 181.075C514.253 181.075 515.294 181.333 516.178 181.85C517.061 182.367 517.719 183.017 518.153 183.8V181.3H520.453V195H518.153V192.45C517.703 193.25 517.028 193.917 516.128 194.45C515.244 194.967 514.211 195.225 513.028 195.225C511.811 195.225 510.711 194.925 509.728 194.325C508.744 193.725 507.969 192.883 507.403 191.8C506.836 190.717 506.553 189.483 506.553 188.1ZM518.153 188.125C518.153 187.092 517.944 186.192 517.528 185.425C517.111 184.658 516.544 184.075 515.828 183.675C515.128 183.258 514.353 183.05 513.503 183.05C512.653 183.05 511.878 183.25 511.178 183.65C510.478 184.05 509.919 184.633 509.503 185.4C509.086 186.167 508.878 187.067 508.878 188.1C508.878 189.15 509.086 190.067 509.503 190.85C509.919 191.617 510.478 192.208 511.178 192.625C511.878 193.025 512.653 193.225 513.503 193.225C514.353 193.225 515.128 193.025 515.828 192.625C516.544 192.208 517.111 191.617 517.528 190.85C517.944 190.067 518.153 189.158 518.153 188.125ZM536.447 181.3V195H534.172V192.975C533.739 193.675 533.13 194.225 532.347 194.625C531.58 195.008 530.73 195.2 529.797 195.2C528.73 195.2 527.772 194.983 526.922 194.55C526.072 194.1 525.397 193.433 524.897 192.55C524.414 191.667 524.172 190.592 524.172 189.325V181.3H526.422V189.025C526.422 190.375 526.764 191.417 527.447 192.15C528.13 192.867 529.064 193.225 530.247 193.225C531.464 193.225 532.422 192.85 533.122 192.1C533.822 191.35 534.172 190.258 534.172 188.825V181.3H536.447ZM543.063 183.175V191.25C543.063 191.917 543.205 192.392 543.488 192.675C543.772 192.942 544.263 193.075 544.963 193.075H546.638V195H544.588C543.322 195 542.372 194.708 541.738 194.125C541.105 193.542 540.788 192.583 540.788 191.25V183.175H539.013V181.3H540.788V177.85H543.063V181.3H546.638V183.175H543.063ZM556.195 181.05C557.228 181.05 558.161 181.275 558.995 181.725C559.828 182.158 560.478 182.817 560.945 183.7C561.428 184.583 561.67 185.658 561.67 186.925V195H559.42V187.25C559.42 185.883 559.078 184.842 558.395 184.125C557.711 183.392 556.778 183.025 555.595 183.025C554.395 183.025 553.436 183.4 552.72 184.15C552.02 184.9 551.67 185.992 551.67 187.425V195H549.395V176.5H551.67V183.25C552.12 182.55 552.736 182.008 553.52 181.625C554.32 181.242 555.211 181.05 556.195 181.05ZM577.886 187.625C577.886 188.058 577.861 188.517 577.811 189H566.861C566.944 190.35 567.403 191.408 568.236 192.175C569.086 192.925 570.111 193.3 571.311 193.3C572.294 193.3 573.111 193.075 573.761 192.625C574.428 192.158 574.894 191.542 575.161 190.775H577.611C577.244 192.092 576.511 193.167 575.411 194C574.311 194.817 572.944 195.225 571.311 195.225C570.011 195.225 568.844 194.933 567.811 194.35C566.794 193.767 565.994 192.942 565.411 191.875C564.828 190.792 564.536 189.542 564.536 188.125C564.536 186.708 564.819 185.467 565.386 184.4C565.953 183.333 566.744 182.517 567.761 181.95C568.794 181.367 569.978 181.075 571.311 181.075C572.611 181.075 573.761 181.358 574.761 181.925C575.761 182.492 576.528 183.275 577.061 184.275C577.611 185.258 577.886 186.375 577.886 187.625ZM575.536 187.15C575.536 186.283 575.344 185.542 574.961 184.925C574.578 184.292 574.053 183.817 573.386 183.5C572.736 183.167 572.011 183 571.211 183C570.061 183 569.078 183.367 568.261 184.1C567.461 184.833 567.003 185.85 566.886 187.15H575.536ZM587.564 181.05C589.231 181.05 590.581 181.558 591.614 182.575C592.647 183.575 593.164 185.025 593.164 186.925V195H590.914V187.25C590.914 185.883 590.572 184.842 589.889 184.125C589.206 183.392 588.272 183.025 587.089 183.025C585.889 183.025 584.931 183.4 584.214 184.15C583.514 184.9 583.164 185.992 583.164 187.425V195H580.889V181.3H583.164V183.25C583.614 182.55 584.222 182.008 584.989 181.625C585.772 181.242 586.631 181.05 587.564 181.05ZM599.655 183.175V191.25C599.655 191.917 599.797 192.392 600.08 192.675C600.363 192.942 600.855 193.075 601.555 193.075H603.23V195H601.18C599.913 195 598.963 194.708 598.33 194.125C597.697 193.542 597.38 192.583 597.38 191.25V183.175H595.605V181.3H597.38V177.85H599.655V181.3H603.23V183.175H599.655ZM607.162 179.075C606.728 179.075 606.362 178.925 606.062 178.625C605.762 178.325 605.612 177.958 605.612 177.525C605.612 177.092 605.762 176.725 606.062 176.425C606.362 176.125 606.728 175.975 607.162 175.975C607.578 175.975 607.928 176.125 608.212 176.425C608.512 176.725 608.662 177.092 608.662 177.525C608.662 177.958 608.512 178.325 608.212 178.625C607.928 178.925 607.578 179.075 607.162 179.075ZM608.262 181.3V195H605.987V181.3H608.262ZM611.289 188.125C611.289 186.708 611.572 185.475 612.139 184.425C612.706 183.358 613.489 182.533 614.489 181.95C615.506 181.367 616.664 181.075 617.964 181.075C619.647 181.075 621.031 181.483 622.114 182.3C623.214 183.117 623.939 184.25 624.289 185.7H621.839C621.606 184.867 621.147 184.208 620.464 183.725C619.797 183.242 618.964 183 617.964 183C616.664 183 615.614 183.45 614.814 184.35C614.014 185.233 613.614 186.492 613.614 188.125C613.614 189.775 614.014 191.05 614.814 191.95C615.614 192.85 616.664 193.3 617.964 193.3C618.964 193.3 619.797 193.067 620.464 192.6C621.131 192.133 621.589 191.467 621.839 190.6H624.289C623.922 192 623.189 193.125 622.089 193.975C620.989 194.808 619.614 195.225 617.964 195.225C616.664 195.225 615.506 194.933 614.489 194.35C613.489 193.767 612.706 192.942 612.139 191.875C611.572 190.808 611.289 189.558 611.289 188.125ZM170.7 221.175V229.25C170.7 229.917 170.842 230.392 171.125 230.675C171.408 230.942 171.9 231.075 172.6 231.075H174.275V233H172.225C170.958 233 170.008 232.708 169.375 232.125C168.742 231.542 168.425 230.583 168.425 229.25V221.175H166.65V219.3H168.425V215.85H170.7V219.3H174.275V221.175H170.7ZM189.531 225.625C189.531 226.058 189.506 226.517 189.456 227H178.506C178.59 228.35 179.048 229.408 179.881 230.175C180.731 230.925 181.756 231.3 182.956 231.3C183.94 231.3 184.756 231.075 185.406 230.625C186.073 230.158 186.54 229.542 186.806 228.775H189.256C188.89 230.092 188.156 231.167 187.056 232C185.956 232.817 184.59 233.225 182.956 233.225C181.656 233.225 180.49 232.933 179.456 232.35C178.44 231.767 177.64 230.942 177.056 229.875C176.473 228.792 176.181 227.542 176.181 226.125C176.181 224.708 176.465 223.467 177.031 222.4C177.598 221.333 178.39 220.517 179.406 219.95C180.44 219.367 181.623 219.075 182.956 219.075C184.256 219.075 185.406 219.358 186.406 219.925C187.406 220.492 188.173 221.275 188.706 222.275C189.256 223.258 189.531 224.375 189.531 225.625ZM187.181 225.15C187.181 224.283 186.99 223.542 186.606 222.925C186.223 222.292 185.698 221.817 185.031 221.5C184.381 221.167 183.656 221 182.856 221C181.706 221 180.723 221.367 179.906 222.1C179.106 222.833 178.648 223.85 178.531 225.15H187.181ZM191.684 226.1C191.684 224.7 191.968 223.475 192.534 222.425C193.101 221.358 193.876 220.533 194.859 219.95C195.859 219.367 196.968 219.075 198.184 219.075C199.384 219.075 200.426 219.333 201.309 219.85C202.193 220.367 202.851 221.017 203.284 221.8V219.3H205.584V233H203.284V230.45C202.834 231.25 202.159 231.917 201.259 232.45C200.376 232.967 199.343 233.225 198.159 233.225C196.943 233.225 195.843 232.925 194.859 232.325C193.876 231.725 193.101 230.883 192.534 229.8C191.968 228.717 191.684 227.483 191.684 226.1ZM203.284 226.125C203.284 225.092 203.076 224.192 202.659 223.425C202.243 222.658 201.676 222.075 200.959 221.675C200.259 221.258 199.484 221.05 198.634 221.05C197.784 221.05 197.009 221.25 196.309 221.65C195.609 222.05 195.051 222.633 194.634 223.4C194.218 224.167 194.009 225.067 194.009 226.1C194.009 227.15 194.218 228.067 194.634 228.85C195.051 229.617 195.609 230.208 196.309 230.625C197.009 231.025 197.784 231.225 198.634 231.225C199.484 231.225 200.259 231.025 200.959 230.625C201.676 230.208 202.243 229.617 202.659 228.85C203.076 228.067 203.284 227.158 203.284 226.125ZM208.579 226.125C208.579 224.708 208.862 223.475 209.429 222.425C209.996 221.358 210.779 220.533 211.779 219.95C212.796 219.367 213.954 219.075 215.254 219.075C216.937 219.075 218.321 219.483 219.404 220.3C220.504 221.117 221.229 222.25 221.579 223.7H219.129C218.896 222.867 218.437 222.208 217.754 221.725C217.087 221.242 216.254 221 215.254 221C213.954 221 212.904 221.45 212.104 222.35C211.304 223.233 210.904 224.492 210.904 226.125C210.904 227.775 211.304 229.05 212.104 229.95C212.904 230.85 213.954 231.3 215.254 231.3C216.254 231.3 217.087 231.067 217.754 230.6C218.421 230.133 218.879 229.467 219.129 228.6H221.579C221.212 230 220.479 231.125 219.379 231.975C218.279 232.808 216.904 233.225 215.254 233.225C213.954 233.225 212.796 232.933 211.779 232.35C210.779 231.767 209.996 230.942 209.429 229.875C208.862 228.808 208.579 227.558 208.579 226.125ZM231.414 219.05C232.448 219.05 233.381 219.275 234.214 219.725C235.048 220.158 235.698 220.817 236.164 221.7C236.648 222.583 236.889 223.658 236.889 224.925V233H234.639V225.25C234.639 223.883 234.298 222.842 233.614 222.125C232.931 221.392 231.998 221.025 230.814 221.025C229.614 221.025 228.656 221.4 227.939 222.15C227.239 222.9 226.889 223.992 226.889 225.425V233H224.614V214.5H226.889V221.25C227.339 220.55 227.956 220.008 228.739 219.625C229.539 219.242 230.431 219.05 231.414 219.05ZM241.781 217.075C241.347 217.075 240.981 216.925 240.681 216.625C240.381 216.325 240.231 215.958 240.231 215.525C240.231 215.092 240.381 214.725 240.681 214.425C240.981 214.125 241.347 213.975 241.781 213.975C242.197 213.975 242.547 214.125 242.831 214.425C243.131 214.725 243.281 215.092 243.281 215.525C243.281 215.958 243.131 216.325 242.831 216.625C242.547 216.925 242.197 217.075 241.781 217.075ZM242.881 219.3V233H240.606V219.3H242.881ZM253.433 219.05C255.1 219.05 256.45 219.558 257.483 220.575C258.516 221.575 259.033 223.025 259.033 224.925V233H256.783V225.25C256.783 223.883 256.441 222.842 255.758 222.125C255.075 221.392 254.141 221.025 252.958 221.025C251.758 221.025 250.8 221.4 250.083 222.15C249.383 222.9 249.033 223.992 249.033 225.425V233H246.758V219.3H249.033V221.25C249.483 220.55 250.091 220.008 250.858 219.625C251.641 219.242 252.5 219.05 253.433 219.05ZM268.399 219.075C269.583 219.075 270.616 219.333 271.499 219.85C272.399 220.367 273.066 221.017 273.499 221.8V219.3H275.799V233.3C275.799 234.55 275.533 235.658 274.999 236.625C274.466 237.608 273.699 238.375 272.699 238.925C271.716 239.475 270.566 239.75 269.249 239.75C267.449 239.75 265.949 239.325 264.749 238.475C263.549 237.625 262.841 236.467 262.624 235H264.874C265.124 235.833 265.641 236.5 266.424 237C267.208 237.517 268.149 237.775 269.249 237.775C270.499 237.775 271.516 237.383 272.299 236.6C273.099 235.817 273.499 234.717 273.499 233.3V230.425C273.049 231.225 272.383 231.892 271.499 232.425C270.616 232.958 269.583 233.225 268.399 233.225C267.183 233.225 266.074 232.925 265.074 232.325C264.091 231.725 263.316 230.883 262.749 229.8C262.183 228.717 261.899 227.483 261.899 226.1C261.899 224.7 262.183 223.475 262.749 222.425C263.316 221.358 264.091 220.533 265.074 219.95C266.074 219.367 267.183 219.075 268.399 219.075ZM273.499 226.125C273.499 225.092 273.291 224.192 272.874 223.425C272.458 222.658 271.891 222.075 271.174 221.675C270.474 221.258 269.699 221.05 268.849 221.05C267.999 221.05 267.224 221.25 266.524 221.65C265.824 222.05 265.266 222.633 264.849 223.4C264.433 224.167 264.224 225.067 264.224 226.1C264.224 227.15 264.433 228.067 264.849 228.85C265.266 229.617 265.824 230.208 266.524 230.625C267.224 231.025 267.999 231.225 268.849 231.225C269.699 231.225 270.474 231.025 271.174 230.625C271.891 230.208 272.458 229.617 272.874 228.85C273.291 228.067 273.499 227.158 273.499 226.125ZM284.494 233.225C283.444 233.225 282.502 233.05 281.669 232.7C280.835 232.333 280.177 231.833 279.694 231.2C279.21 230.55 278.944 229.808 278.894 228.975H281.244C281.31 229.658 281.627 230.217 282.194 230.65C282.777 231.083 283.535 231.3 284.469 231.3C285.335 231.3 286.019 231.108 286.519 230.725C287.019 230.342 287.269 229.858 287.269 229.275C287.269 228.675 287.002 228.233 286.469 227.95C285.935 227.65 285.11 227.358 283.994 227.075C282.977 226.808 282.144 226.542 281.494 226.275C280.86 225.992 280.31 225.583 279.844 225.05C279.394 224.5 279.169 223.783 279.169 222.9C279.169 222.2 279.377 221.558 279.794 220.975C280.21 220.392 280.802 219.933 281.569 219.6C282.335 219.25 283.21 219.075 284.194 219.075C285.71 219.075 286.935 219.458 287.869 220.225C288.802 220.992 289.302 222.042 289.369 223.375H287.094C287.044 222.658 286.752 222.083 286.219 221.65C285.702 221.217 285.002 221 284.119 221C283.302 221 282.652 221.175 282.169 221.525C281.685 221.875 281.444 222.333 281.444 222.9C281.444 223.35 281.585 223.725 281.869 224.025C282.169 224.308 282.535 224.542 282.969 224.725C283.419 224.892 284.035 225.083 284.819 225.3C285.802 225.567 286.602 225.833 287.219 226.1C287.835 226.35 288.36 226.733 288.794 227.25C289.244 227.767 289.477 228.442 289.494 229.275C289.494 230.025 289.285 230.7 288.869 231.3C288.452 231.9 287.86 232.375 287.094 232.725C286.344 233.058 285.477 233.225 284.494 233.225ZM305.345 233.225C304.062 233.225 302.895 232.933 301.845 232.35C300.812 231.767 299.995 230.942 299.395 229.875C298.812 228.792 298.52 227.542 298.52 226.125C298.52 224.725 298.82 223.492 299.42 222.425C300.037 221.342 300.87 220.517 301.92 219.95C302.97 219.367 304.145 219.075 305.445 219.075C306.745 219.075 307.92 219.367 308.97 219.95C310.02 220.517 310.845 221.333 311.445 222.4C312.062 223.467 312.37 224.708 312.37 226.125C312.37 227.542 312.054 228.792 311.42 229.875C310.804 230.942 309.962 231.767 308.895 232.35C307.829 232.933 306.645 233.225 305.345 233.225ZM305.345 231.225C306.162 231.225 306.929 231.033 307.645 230.65C308.362 230.267 308.937 229.692 309.37 228.925C309.82 228.158 310.045 227.225 310.045 226.125C310.045 225.025 309.829 224.092 309.395 223.325C308.962 222.558 308.395 221.992 307.695 221.625C306.995 221.242 306.237 221.05 305.42 221.05C304.587 221.05 303.82 221.242 303.12 221.625C302.437 221.992 301.887 222.558 301.47 223.325C301.054 224.092 300.845 225.025 300.845 226.125C300.845 227.242 301.045 228.183 301.445 228.95C301.862 229.717 302.412 230.292 303.095 230.675C303.779 231.042 304.529 231.225 305.345 231.225ZM320.937 221.175H318.062V233H315.787V221.175H314.012V219.3H315.787V218.325C315.787 216.792 316.178 215.675 316.962 214.975C317.762 214.258 319.037 213.9 320.787 213.9V215.8C319.787 215.8 319.078 216 318.662 216.4C318.262 216.783 318.062 217.425 318.062 218.325V219.3H320.937V221.175ZM332.529 215.575V233H330.254V215.575H332.529ZM341.256 233.225C340.206 233.225 339.265 233.05 338.431 232.7C337.598 232.333 336.94 231.833 336.456 231.2C335.973 230.55 335.706 229.808 335.656 228.975H338.006C338.073 229.658 338.39 230.217 338.956 230.65C339.54 231.083 340.298 231.3 341.231 231.3C342.098 231.3 342.781 231.108 343.281 230.725C343.781 230.342 344.031 229.858 344.031 229.275C344.031 228.675 343.765 228.233 343.231 227.95C342.698 227.65 341.873 227.358 340.756 227.075C339.74 226.808 338.906 226.542 338.256 226.275C337.623 225.992 337.073 225.583 336.606 225.05C336.156 224.5 335.931 223.783 335.931 222.9C335.931 222.2 336.14 221.558 336.556 220.975C336.973 220.392 337.565 219.933 338.331 219.6C339.098 219.25 339.973 219.075 340.956 219.075C342.473 219.075 343.698 219.458 344.631 220.225C345.565 220.992 346.065 222.042 346.131 223.375H343.856C343.806 222.658 343.515 222.083 342.981 221.65C342.465 221.217 341.765 221 340.881 221C340.065 221 339.415 221.175 338.931 221.525C338.448 221.875 338.206 222.333 338.206 222.9C338.206 223.35 338.348 223.725 338.631 224.025C338.931 224.308 339.298 224.542 339.731 224.725C340.181 224.892 340.798 225.083 341.581 225.3C342.565 225.567 343.365 225.833 343.981 226.1C344.598 226.35 345.123 226.733 345.556 227.25C346.006 227.767 346.24 228.442 346.256 229.275C346.256 230.025 346.048 230.7 345.631 231.3C345.215 231.9 344.623 232.375 343.856 232.725C343.106 233.058 342.24 233.225 341.256 233.225ZM351.743 214.5V233H349.468V214.5H351.743ZM354.77 226.1C354.77 224.7 355.054 223.475 355.62 222.425C356.187 221.358 356.962 220.533 357.945 219.95C358.945 219.367 360.054 219.075 361.27 219.075C362.47 219.075 363.512 219.333 364.395 219.85C365.279 220.367 365.937 221.017 366.37 221.8V219.3H368.67V233H366.37V230.45C365.92 231.25 365.245 231.917 364.345 232.45C363.462 232.967 362.429 233.225 361.245 233.225C360.029 233.225 358.929 232.925 357.945 232.325C356.962 231.725 356.187 230.883 355.62 229.8C355.054 228.717 354.77 227.483 354.77 226.1ZM366.37 226.125C366.37 225.092 366.162 224.192 365.745 223.425C365.329 222.658 364.762 222.075 364.045 221.675C363.345 221.258 362.57 221.05 361.72 221.05C360.87 221.05 360.095 221.25 359.395 221.65C358.695 222.05 358.137 222.633 357.72 223.4C357.304 224.167 357.095 225.067 357.095 226.1C357.095 227.15 357.304 228.067 357.72 228.85C358.137 229.617 358.695 230.208 359.395 230.625C360.095 231.025 360.87 231.225 361.72 231.225C362.57 231.225 363.345 231.025 364.045 230.625C364.762 230.208 365.329 229.617 365.745 228.85C366.162 228.067 366.37 227.158 366.37 226.125ZM388.99 219.05C390.057 219.05 391.007 219.275 391.84 219.725C392.673 220.158 393.332 220.817 393.815 221.7C394.298 222.583 394.54 223.658 394.54 224.925V233H392.29V225.25C392.29 223.883 391.948 222.842 391.265 222.125C390.598 221.392 389.69 221.025 388.54 221.025C387.357 221.025 386.415 221.408 385.715 222.175C385.015 222.925 384.665 224.017 384.665 225.45V233H382.415V225.25C382.415 223.883 382.073 222.842 381.39 222.125C380.723 221.392 379.815 221.025 378.665 221.025C377.482 221.025 376.54 221.408 375.84 222.175C375.14 222.925 374.79 224.017 374.79 225.45V233H372.515V219.3H374.79V221.275C375.24 220.558 375.84 220.008 376.59 219.625C377.357 219.242 378.198 219.05 379.115 219.05C380.265 219.05 381.282 219.308 382.165 219.825C383.048 220.342 383.707 221.1 384.14 222.1C384.523 221.133 385.157 220.383 386.04 219.85C386.923 219.317 387.907 219.05 388.99 219.05ZM398.997 233.15C398.563 233.15 398.197 233 397.897 232.7C397.597 232.4 397.447 232.033 397.447 231.6C397.447 231.167 397.597 230.8 397.897 230.5C398.197 230.2 398.563 230.05 398.997 230.05C399.413 230.05 399.763 230.2 400.047 230.5C400.347 230.8 400.497 231.167 400.497 231.6C400.497 232.033 400.347 232.4 400.047 232.7C399.763 233 399.413 233.15 398.997 233.15Z" fill="black"/>
<path d="M11.6477 164.17V149.682L75.5682 48.5455H86.0795V70.9886H78.9773L30.6818 147.409V148.545H116.761V164.17H11.6477ZM80.1136 194V159.767V153.02V48.5455H96.875V194H80.1136Z" fill="#EDBB5F"/>
</svg>
