<svg width="596" height="242" viewBox="0 0 596 242" fill="none" xmlns="http://www.w3.org/2000/svg">
<path d="M185.941 42.94V64H180.811V51.37L176.101 64H171.961L167.221 51.34V64H162.091V42.94H168.151L174.061 57.52L179.911 42.94H185.941ZM197.25 64.24C195.61 64.24 194.13 63.89 192.81 63.19C191.51 62.49 190.48 61.49 189.72 60.19C188.98 58.89 188.61 57.37 188.61 55.63C188.61 53.91 188.99 52.4 189.75 51.1C190.51 49.78 191.55 48.77 192.87 48.07C194.19 47.37 195.67 47.02 197.31 47.02C198.95 47.02 200.43 47.37 201.75 48.07C203.07 48.77 204.11 49.78 204.87 51.1C205.63 52.4 206.01 53.91 206.01 55.63C206.01 57.35 205.62 58.87 204.84 60.19C204.08 61.49 203.03 62.49 201.69 63.19C200.37 63.89 198.89 64.24 197.25 64.24ZM197.25 59.8C198.23 59.8 199.06 59.44 199.74 58.72C200.44 58 200.79 56.97 200.79 55.63C200.79 54.29 200.45 53.26 199.77 52.54C199.11 51.82 198.29 51.46 197.31 51.46C196.31 51.46 195.48 51.82 194.82 52.54C194.16 53.24 193.83 54.27 193.83 55.63C193.83 56.97 194.15 58 194.79 58.72C195.45 59.44 196.27 59.8 197.25 59.8ZM218.061 59.65V64H215.451C213.591 64 212.141 63.55 211.101 62.65C210.061 61.73 209.541 60.24 209.541 58.18V51.52H207.501V47.26H209.541V43.18H214.671V47.26H218.031V51.52H214.671V58.24C214.671 58.74 214.791 59.1 215.031 59.32C215.271 59.54 215.671 59.65 216.231 59.65H218.061ZM223.499 45.52C222.599 45.52 221.859 45.26 221.279 44.74C220.719 44.2 220.439 43.54 220.439 42.76C220.439 41.96 220.719 41.3 221.279 40.78C221.859 40.24 222.599 39.97 223.499 39.97C224.379 39.97 225.099 40.24 225.659 40.78C226.239 41.3 226.529 41.96 226.529 42.76C226.529 43.54 226.239 44.2 225.659 44.74C225.099 45.26 224.379 45.52 223.499 45.52ZM226.049 47.26V64H220.919V47.26H226.049ZM237.296 59.2L240.926 47.26H246.386L240.446 64H234.116L228.176 47.26H233.666L237.296 59.2ZM247.526 55.6C247.526 53.88 247.846 52.37 248.486 51.07C249.146 49.77 250.036 48.77 251.156 48.07C252.276 47.37 253.526 47.02 254.906 47.02C256.086 47.02 257.116 47.26 257.996 47.74C258.896 48.22 259.586 48.85 260.066 49.63V47.26H265.196V64H260.066V61.63C259.566 62.41 258.866 63.04 257.966 63.52C257.086 64 256.056 64.24 254.876 64.24C253.516 64.24 252.276 63.89 251.156 63.19C250.036 62.47 249.146 61.46 248.486 60.16C247.846 58.84 247.526 57.32 247.526 55.6ZM260.066 55.63C260.066 54.35 259.706 53.34 258.986 52.6C258.286 51.86 257.426 51.49 256.406 51.49C255.386 51.49 254.516 51.86 253.796 52.6C253.096 53.32 252.746 54.32 252.746 55.6C252.746 56.88 253.096 57.9 253.796 58.66C254.516 59.4 255.386 59.77 256.406 59.77C257.426 59.77 258.286 59.4 258.986 58.66C259.706 57.92 260.066 56.91 260.066 55.63ZM278.237 59.65V64H275.627C273.767 64 272.317 63.55 271.277 62.65C270.237 61.73 269.717 60.24 269.717 58.18V51.52H267.677V47.26H269.717V43.18H274.847V47.26H278.207V51.52H274.847V58.24C274.847 58.74 274.967 59.1 275.207 59.32C275.447 59.54 275.847 59.65 276.407 59.65H278.237ZM296.875 55.36C296.875 55.84 296.845 56.34 296.785 56.86H285.175C285.255 57.9 285.585 58.7 286.165 59.26C286.765 59.8 287.495 60.07 288.355 60.07C289.635 60.07 290.525 59.53 291.025 58.45H296.485C296.205 59.55 295.695 60.54 294.955 61.42C294.235 62.3 293.325 62.99 292.225 63.49C291.125 63.99 289.895 64.24 288.535 64.24C286.895 64.24 285.435 63.89 284.155 63.19C282.875 62.49 281.875 61.49 281.155 60.19C280.435 58.89 280.075 57.37 280.075 55.63C280.075 53.89 280.425 52.37 281.125 51.07C281.845 49.77 282.845 48.77 284.125 48.07C285.405 47.37 286.875 47.02 288.535 47.02C290.155 47.02 291.595 47.36 292.855 48.04C294.115 48.72 295.095 49.69 295.795 50.95C296.515 52.21 296.875 53.68 296.875 55.36ZM291.625 54.01C291.625 53.13 291.325 52.43 290.725 51.91C290.125 51.39 289.375 51.13 288.475 51.13C287.615 51.13 286.885 51.38 286.285 51.88C285.705 52.38 285.345 53.09 285.205 54.01H291.625ZM315.268 59.65V64H312.658C310.798 64 309.348 63.55 308.308 62.65C307.268 61.73 306.748 60.24 306.748 58.18V51.52H304.708V47.26H306.748V43.18H311.878V47.26H315.238V51.52H311.878V58.24C311.878 58.74 311.998 59.1 312.238 59.32C312.478 59.54 312.878 59.65 313.438 59.65H315.268ZM328.416 47.08C330.336 47.08 331.876 47.72 333.036 49C334.196 50.26 334.776 52 334.776 54.22V64H329.676V54.91C329.676 53.79 329.386 52.92 328.806 52.3C328.226 51.68 327.446 51.37 326.466 51.37C325.486 51.37 324.706 51.68 324.126 52.3C323.546 52.92 323.256 53.79 323.256 54.91V64H318.126V41.8H323.256V49.51C323.776 48.77 324.486 48.18 325.386 47.74C326.286 47.3 327.296 47.08 328.416 47.08ZM354.121 55.36C354.121 55.84 354.091 56.34 354.031 56.86H342.421C342.501 57.9 342.831 58.7 343.411 59.26C344.011 59.8 344.741 60.07 345.601 60.07C346.881 60.07 347.771 59.53 348.271 58.45H353.731C353.451 59.55 352.941 60.54 352.201 61.42C351.481 62.3 350.571 62.99 349.471 63.49C348.371 63.99 347.141 64.24 345.781 64.24C344.141 64.24 342.681 63.89 341.401 63.19C340.121 62.49 339.121 61.49 338.401 60.19C337.681 58.89 337.321 57.37 337.321 55.63C337.321 53.89 337.671 52.37 338.371 51.07C339.091 49.77 340.091 48.77 341.371 48.07C342.651 47.37 344.121 47.02 345.781 47.02C347.401 47.02 348.841 47.36 350.101 48.04C351.361 48.72 352.341 49.69 353.041 50.95C353.761 52.21 354.121 53.68 354.121 55.36ZM348.871 54.01C348.871 53.13 348.571 52.43 347.971 51.91C347.371 51.39 346.621 51.13 345.721 51.13C344.861 51.13 344.131 51.38 343.531 51.88C342.951 52.38 342.591 53.09 342.451 54.01H348.871ZM380.284 47.26L369.784 71.95H364.264L368.104 63.43L361.294 47.26H367.024L370.894 57.73L374.734 47.26H380.284ZM389.76 64.24C388.12 64.24 386.64 63.89 385.32 63.19C384.02 62.49 382.99 61.49 382.23 60.19C381.49 58.89 381.12 57.37 381.12 55.63C381.12 53.91 381.5 52.4 382.26 51.1C383.02 49.78 384.06 48.77 385.38 48.07C386.7 47.37 388.18 47.02 389.82 47.02C391.46 47.02 392.94 47.37 394.26 48.07C395.58 48.77 396.62 49.78 397.38 51.1C398.14 52.4 398.52 53.91 398.52 55.63C398.52 57.35 398.13 58.87 397.35 60.19C396.59 61.49 395.54 62.49 394.2 63.19C392.88 63.89 391.4 64.24 389.76 64.24ZM389.76 59.8C390.74 59.8 391.57 59.44 392.25 58.72C392.95 58 393.3 56.97 393.3 55.63C393.3 54.29 392.96 53.26 392.28 52.54C391.62 51.82 390.8 51.46 389.82 51.46C388.82 51.46 387.99 51.82 387.33 52.54C386.67 53.24 386.34 54.27 386.34 55.63C386.34 56.97 386.66 58 387.3 58.72C387.96 59.44 388.78 59.8 389.76 59.8ZM417.771 47.26V64H412.641V61.72C412.121 62.46 411.411 63.06 410.511 63.52C409.631 63.96 408.651 64.18 407.571 64.18C406.291 64.18 405.161 63.9 404.181 63.34C403.201 62.76 402.441 61.93 401.901 60.85C401.361 59.77 401.091 58.5 401.091 57.04V47.26H406.191V56.35C406.191 57.47 406.481 58.34 407.061 58.96C407.641 59.58 408.421 59.89 409.401 59.89C410.401 59.89 411.191 59.58 411.771 58.96C412.351 58.34 412.641 57.47 412.641 56.35V47.26H417.771ZM430.786 59.65V64H428.176C426.316 64 424.866 63.55 423.826 62.65C422.786 61.73 422.266 60.24 422.266 58.18V51.52H420.226V47.26H422.266V43.18H427.396V47.26H430.756V51.52H427.396V58.24C427.396 58.74 427.516 59.1 427.756 59.32C427.996 59.54 428.396 59.65 428.956 59.65H430.786ZM443.933 47.08C445.853 47.08 447.393 47.72 448.553 49C449.713 50.26 450.293 52 450.293 54.22V64H445.193V54.91C445.193 53.79 444.903 52.92 444.323 52.3C443.743 51.68 442.963 51.37 441.983 51.37C441.003 51.37 440.223 51.68 439.643 52.3C439.063 52.92 438.773 53.79 438.773 54.91V64H433.643V41.8H438.773V49.51C439.293 48.77 440.003 48.18 440.903 47.74C441.803 47.3 442.813 47.08 443.933 47.08Z" fill="#7E71B9"/>
<path d="M164.431 101.425V107.25H170.781V109.125H164.431V115.125H171.531V117H162.156V99.55H171.531V101.425H164.431ZM191.448 103.05C192.515 103.05 193.465 103.275 194.298 103.725C195.131 104.158 195.79 104.817 196.273 105.7C196.756 106.583 196.998 107.658 196.998 108.925V117H194.748V109.25C194.748 107.883 194.406 106.842 193.723 106.125C193.056 105.392 192.148 105.025 190.998 105.025C189.815 105.025 188.873 105.408 188.173 106.175C187.473 106.925 187.123 108.017 187.123 109.45V117H184.873V109.25C184.873 107.883 184.531 106.842 183.848 106.125C183.181 105.392 182.273 105.025 181.123 105.025C179.94 105.025 178.998 105.408 178.298 106.175C177.598 106.925 177.248 108.017 177.248 109.45V117H174.973V103.3H177.248V105.275C177.698 104.558 178.298 104.008 179.048 103.625C179.815 103.242 180.656 103.05 181.573 103.05C182.723 103.05 183.74 103.308 184.623 103.825C185.506 104.342 186.165 105.1 186.598 106.1C186.981 105.133 187.615 104.383 188.498 103.85C189.381 103.317 190.365 103.05 191.448 103.05ZM203.005 105.825C203.455 105.042 204.122 104.392 205.005 103.875C205.905 103.342 206.947 103.075 208.13 103.075C209.347 103.075 210.447 103.367 211.43 103.95C212.43 104.533 213.213 105.358 213.78 106.425C214.347 107.475 214.63 108.7 214.63 110.1C214.63 111.483 214.347 112.717 213.78 113.8C213.213 114.883 212.43 115.725 211.43 116.325C210.447 116.925 209.347 117.225 208.13 117.225C206.963 117.225 205.93 116.967 205.03 116.45C204.147 115.917 203.472 115.258 203.005 114.475V123.5H200.73V103.3H203.005V105.825ZM212.305 110.1C212.305 109.067 212.097 108.167 211.68 107.4C211.263 106.633 210.697 106.05 209.98 105.65C209.28 105.25 208.505 105.05 207.655 105.05C206.822 105.05 206.047 105.258 205.33 105.675C204.63 106.075 204.063 106.667 203.63 107.45C203.213 108.217 203.005 109.108 203.005 110.125C203.005 111.158 203.213 112.067 203.63 112.85C204.063 113.617 204.63 114.208 205.33 114.625C206.047 115.025 206.822 115.225 207.655 115.225C208.505 115.225 209.28 115.025 209.98 114.625C210.697 114.208 211.263 113.617 211.68 112.85C212.097 112.067 212.305 111.15 212.305 110.1ZM223.599 117.225C222.316 117.225 221.149 116.933 220.099 116.35C219.066 115.767 218.249 114.942 217.649 113.875C217.066 112.792 216.774 111.542 216.774 110.125C216.774 108.725 217.074 107.492 217.674 106.425C218.291 105.342 219.124 104.517 220.174 103.95C221.224 103.367 222.399 103.075 223.699 103.075C224.999 103.075 226.174 103.367 227.224 103.95C228.274 104.517 229.099 105.333 229.699 106.4C230.316 107.467 230.624 108.708 230.624 110.125C230.624 111.542 230.308 112.792 229.674 113.875C229.058 114.942 228.216 115.767 227.149 116.35C226.083 116.933 224.899 117.225 223.599 117.225ZM223.599 115.225C224.416 115.225 225.183 115.033 225.899 114.65C226.616 114.267 227.191 113.692 227.624 112.925C228.074 112.158 228.299 111.225 228.299 110.125C228.299 109.025 228.083 108.092 227.649 107.325C227.216 106.558 226.649 105.992 225.949 105.625C225.249 105.242 224.491 105.05 223.674 105.05C222.841 105.05 222.074 105.242 221.374 105.625C220.691 105.992 220.141 106.558 219.724 107.325C219.308 108.092 219.099 109.025 219.099 110.125C219.099 111.242 219.299 112.183 219.699 112.95C220.116 113.717 220.666 114.292 221.349 114.675C222.033 115.042 222.783 115.225 223.599 115.225ZM251.866 103.3L247.591 117H245.241L241.941 106.125L238.641 117H236.291L231.991 103.3H234.316L237.466 114.8L240.866 103.3H243.191L246.516 114.825L249.616 103.3H251.866ZM266.623 109.625C266.623 110.058 266.598 110.517 266.548 111H255.598C255.682 112.35 256.14 113.408 256.973 114.175C257.823 114.925 258.848 115.3 260.048 115.3C261.032 115.3 261.848 115.075 262.498 114.625C263.165 114.158 263.632 113.542 263.898 112.775H266.348C265.982 114.092 265.248 115.167 264.148 116C263.048 116.817 261.682 117.225 260.048 117.225C258.748 117.225 257.582 116.933 256.548 116.35C255.532 115.767 254.732 114.942 254.148 113.875C253.565 112.792 253.273 111.542 253.273 110.125C253.273 108.708 253.557 107.467 254.123 106.4C254.69 105.333 255.482 104.517 256.498 103.95C257.532 103.367 258.715 103.075 260.048 103.075C261.348 103.075 262.498 103.358 263.498 103.925C264.498 104.492 265.265 105.275 265.798 106.275C266.348 107.258 266.623 108.375 266.623 109.625ZM264.273 109.15C264.273 108.283 264.082 107.542 263.698 106.925C263.315 106.292 262.79 105.817 262.123 105.5C261.473 105.167 260.748 105 259.948 105C258.798 105 257.815 105.367 256.998 106.1C256.198 106.833 255.74 107.85 255.623 109.15H264.273ZM271.901 105.525C272.301 104.742 272.868 104.133 273.601 103.7C274.351 103.267 275.26 103.05 276.326 103.05V105.4H275.726C273.176 105.4 271.901 106.783 271.901 109.55V117H269.626V103.3H271.901V105.525ZM303.293 99.7V117H301.018V104.1L295.268 117H293.668L287.893 104.075V117H285.618V99.7H288.068L294.468 114L300.868 99.7H303.293ZM319.301 103.3V117H317.026V114.975C316.592 115.675 315.984 116.225 315.201 116.625C314.434 117.008 313.584 117.2 312.651 117.2C311.584 117.2 310.626 116.983 309.776 116.55C308.926 116.1 308.251 115.433 307.751 114.55C307.267 113.667 307.026 112.592 307.026 111.325V103.3H309.276V111.025C309.276 112.375 309.617 113.417 310.301 114.15C310.984 114.867 311.917 115.225 313.101 115.225C314.317 115.225 315.276 114.85 315.976 114.1C316.676 113.35 317.026 112.258 317.026 110.825V103.3H319.301ZM327.992 117.225C326.942 117.225 326 117.05 325.167 116.7C324.334 116.333 323.675 115.833 323.192 115.2C322.709 114.55 322.442 113.808 322.392 112.975H324.742C324.809 113.658 325.125 114.217 325.692 114.65C326.275 115.083 327.034 115.3 327.967 115.3C328.834 115.3 329.517 115.108 330.017 114.725C330.517 114.342 330.767 113.858 330.767 113.275C330.767 112.675 330.5 112.233 329.967 111.95C329.434 111.65 328.609 111.358 327.492 111.075C326.475 110.808 325.642 110.542 324.992 110.275C324.359 109.992 323.809 109.583 323.342 109.05C322.892 108.5 322.667 107.783 322.667 106.9C322.667 106.2 322.875 105.558 323.292 104.975C323.709 104.392 324.3 103.933 325.067 103.6C325.834 103.25 326.709 103.075 327.692 103.075C329.209 103.075 330.434 103.458 331.367 104.225C332.3 104.992 332.8 106.042 332.867 107.375H330.592C330.542 106.658 330.25 106.083 329.717 105.65C329.2 105.217 328.5 105 327.617 105C326.8 105 326.15 105.175 325.667 105.525C325.184 105.875 324.942 106.333 324.942 106.9C324.942 107.35 325.084 107.725 325.367 108.025C325.667 108.308 326.034 108.542 326.467 108.725C326.917 108.892 327.534 109.083 328.317 109.3C329.3 109.567 330.1 109.833 330.717 110.1C331.334 110.35 331.859 110.733 332.292 111.25C332.742 111.767 332.975 112.442 332.992 113.275C332.992 114.025 332.784 114.7 332.367 115.3C331.95 115.9 331.359 116.375 330.592 116.725C329.842 117.058 328.975 117.225 327.992 117.225ZM338.479 98.5V117H336.204V98.5H338.479ZM343.531 101.075C343.098 101.075 342.731 100.925 342.431 100.625C342.131 100.325 341.981 99.9583 341.981 99.525C341.981 99.0917 342.131 98.725 342.431 98.425C342.731 98.125 343.098 97.975 343.531 97.975C343.948 97.975 344.298 98.125 344.581 98.425C344.881 98.725 345.031 99.0917 345.031 99.525C345.031 99.9583 344.881 100.325 344.581 100.625C344.298 100.925 343.948 101.075 343.531 101.075ZM344.631 103.3V117H342.356V103.3H344.631ZM364.983 103.05C366.05 103.05 367 103.275 367.833 103.725C368.667 104.158 369.325 104.817 369.808 105.7C370.292 106.583 370.533 107.658 370.533 108.925V117H368.283V109.25C368.283 107.883 367.942 106.842 367.258 106.125C366.592 105.392 365.683 105.025 364.533 105.025C363.35 105.025 362.408 105.408 361.708 106.175C361.008 106.925 360.658 108.017 360.658 109.45V117H358.408V109.25C358.408 107.883 358.067 106.842 357.383 106.125C356.717 105.392 355.808 105.025 354.658 105.025C353.475 105.025 352.533 105.408 351.833 106.175C351.133 106.925 350.783 108.017 350.783 109.45V117H348.508V103.3H350.783V105.275C351.233 104.558 351.833 104.008 352.583 103.625C353.35 103.242 354.192 103.05 355.108 103.05C356.258 103.05 357.275 103.308 358.158 103.825C359.042 104.342 359.7 105.1 360.133 106.1C360.517 105.133 361.15 104.383 362.033 103.85C362.917 103.317 363.9 103.05 364.983 103.05ZM385.78 117.225C384.73 117.225 383.788 117.05 382.955 116.7C382.122 116.333 381.463 115.833 380.98 115.2C380.497 114.55 380.23 113.808 380.18 112.975H382.53C382.597 113.658 382.913 114.217 383.48 114.65C384.063 115.083 384.822 115.3 385.755 115.3C386.622 115.3 387.305 115.108 387.805 114.725C388.305 114.342 388.555 113.858 388.555 113.275C388.555 112.675 388.288 112.233 387.755 111.95C387.222 111.65 386.397 111.358 385.28 111.075C384.263 110.808 383.43 110.542 382.78 110.275C382.147 109.992 381.597 109.583 381.13 109.05C380.68 108.5 380.455 107.783 380.455 106.9C380.455 106.2 380.663 105.558 381.08 104.975C381.497 104.392 382.088 103.933 382.855 103.6C383.622 103.25 384.497 103.075 385.48 103.075C386.997 103.075 388.222 103.458 389.155 104.225C390.088 104.992 390.588 106.042 390.655 107.375H388.38C388.33 106.658 388.038 106.083 387.505 105.65C386.988 105.217 386.288 105 385.405 105C384.588 105 383.938 105.175 383.455 105.525C382.972 105.875 382.73 106.333 382.73 106.9C382.73 107.35 382.872 107.725 383.155 108.025C383.455 108.308 383.822 108.542 384.255 108.725C384.705 108.892 385.322 109.083 386.105 109.3C387.088 109.567 387.888 109.833 388.505 110.1C389.122 110.35 389.647 110.733 390.08 111.25C390.53 111.767 390.763 112.442 390.78 113.275C390.78 114.025 390.572 114.7 390.155 115.3C389.738 115.9 389.147 116.375 388.38 116.725C387.63 117.058 386.763 117.225 385.78 117.225ZM396.767 105.175V113.25C396.767 113.917 396.908 114.392 397.192 114.675C397.475 114.942 397.967 115.075 398.667 115.075H400.342V117H398.292C397.025 117 396.075 116.708 395.442 116.125C394.808 115.542 394.492 114.583 394.492 113.25V105.175H392.717V103.3H394.492V99.85H396.767V103.3H400.342V105.175H396.767ZM415.248 103.3V117H412.973V114.975C412.54 115.675 411.931 116.225 411.148 116.625C410.381 117.008 409.531 117.2 408.598 117.2C407.531 117.2 406.573 116.983 405.723 116.55C404.873 116.1 404.198 115.433 403.698 114.55C403.215 113.667 402.973 112.592 402.973 111.325V103.3H405.223V111.025C405.223 112.375 405.565 113.417 406.248 114.15C406.931 114.867 407.865 115.225 409.048 115.225C410.265 115.225 411.223 114.85 411.923 114.1C412.623 113.35 412.973 112.258 412.973 110.825V103.3H415.248ZM418.239 110.1C418.239 108.7 418.523 107.475 419.089 106.425C419.656 105.358 420.431 104.533 421.414 103.95C422.414 103.367 423.531 103.075 424.764 103.075C425.831 103.075 426.823 103.325 427.739 103.825C428.656 104.308 429.356 104.95 429.839 105.75V98.5H432.139V117H429.839V114.425C429.389 115.242 428.723 115.917 427.839 116.45C426.956 116.967 425.923 117.225 424.739 117.225C423.523 117.225 422.414 116.925 421.414 116.325C420.431 115.725 419.656 114.883 419.089 113.8C418.523 112.717 418.239 111.483 418.239 110.1ZM429.839 110.125C429.839 109.092 429.631 108.192 429.214 107.425C428.798 106.658 428.231 106.075 427.514 105.675C426.814 105.258 426.039 105.05 425.189 105.05C424.339 105.05 423.564 105.25 422.864 105.65C422.164 106.05 421.606 106.633 421.189 107.4C420.773 108.167 420.564 109.067 420.564 110.1C420.564 111.15 420.773 112.067 421.189 112.85C421.606 113.617 422.164 114.208 422.864 114.625C423.564 115.025 424.339 115.225 425.189 115.225C426.039 115.225 426.814 115.025 427.514 114.625C428.231 114.208 428.798 113.617 429.214 112.85C429.631 112.067 429.839 111.158 429.839 110.125ZM448.484 109.625C448.484 110.058 448.459 110.517 448.409 111H437.459C437.542 112.35 438.001 113.408 438.834 114.175C439.684 114.925 440.709 115.3 441.909 115.3C442.892 115.3 443.709 115.075 444.359 114.625C445.026 114.158 445.492 113.542 445.759 112.775H448.209C447.842 114.092 447.109 115.167 446.009 116C444.909 116.817 443.542 117.225 441.909 117.225C440.609 117.225 439.442 116.933 438.409 116.35C437.392 115.767 436.592 114.942 436.009 113.875C435.426 112.792 435.134 111.542 435.134 110.125C435.134 108.708 435.417 107.467 435.984 106.4C436.551 105.333 437.342 104.517 438.359 103.95C439.392 103.367 440.576 103.075 441.909 103.075C443.209 103.075 444.359 103.358 445.359 103.925C446.359 104.492 447.126 105.275 447.659 106.275C448.209 107.258 448.484 108.375 448.484 109.625ZM446.134 109.15C446.134 108.283 445.942 107.542 445.559 106.925C445.176 106.292 444.651 105.817 443.984 105.5C443.334 105.167 442.609 105 441.809 105C440.659 105 439.676 105.367 438.859 106.1C438.059 106.833 437.601 107.85 437.484 109.15H446.134ZM458.162 103.05C459.828 103.05 461.178 103.558 462.212 104.575C463.245 105.575 463.762 107.025 463.762 108.925V117H461.512V109.25C461.512 107.883 461.17 106.842 460.487 106.125C459.803 105.392 458.87 105.025 457.687 105.025C456.487 105.025 455.528 105.4 454.812 106.15C454.112 106.9 453.762 107.992 453.762 109.425V117H451.487V103.3H453.762V105.25C454.212 104.55 454.82 104.008 455.587 103.625C456.37 103.242 457.228 103.05 458.162 103.05ZM470.253 105.175V113.25C470.253 113.917 470.395 114.392 470.678 114.675C470.961 114.942 471.453 115.075 472.153 115.075H473.828V117H471.778C470.511 117 469.561 116.708 468.928 116.125C468.295 115.542 467.978 114.583 467.978 113.25V105.175H466.203V103.3H467.978V99.85H470.253V103.3H473.828V105.175H470.253ZM481.434 117.225C480.384 117.225 479.443 117.05 478.609 116.7C477.776 116.333 477.118 115.833 476.634 115.2C476.151 114.55 475.884 113.808 475.834 112.975H478.184C478.251 113.658 478.568 114.217 479.134 114.65C479.718 115.083 480.476 115.3 481.409 115.3C482.276 115.3 482.959 115.108 483.459 114.725C483.959 114.342 484.209 113.858 484.209 113.275C484.209 112.675 483.943 112.233 483.409 111.95C482.876 111.65 482.051 111.358 480.934 111.075C479.918 110.808 479.084 110.542 478.434 110.275C477.801 109.992 477.251 109.583 476.784 109.05C476.334 108.5 476.109 107.783 476.109 106.9C476.109 106.2 476.318 105.558 476.734 104.975C477.151 104.392 477.743 103.933 478.509 103.6C479.276 103.25 480.151 103.075 481.134 103.075C482.651 103.075 483.876 103.458 484.809 104.225C485.743 104.992 486.243 106.042 486.309 107.375H484.034C483.984 106.658 483.693 106.083 483.159 105.65C482.643 105.217 481.943 105 481.059 105C480.243 105 479.593 105.175 479.109 105.525C478.626 105.875 478.384 106.333 478.384 106.9C478.384 107.35 478.526 107.725 478.809 108.025C479.109 108.308 479.476 108.542 479.909 108.725C480.359 108.892 480.976 109.083 481.759 109.3C482.743 109.567 483.543 109.833 484.159 110.1C484.776 110.35 485.301 110.733 485.734 111.25C486.184 111.767 486.418 112.442 486.434 113.275C486.434 114.025 486.226 114.7 485.809 115.3C485.393 115.9 484.801 116.375 484.034 116.725C483.284 117.058 482.418 117.225 481.434 117.225ZM499.086 105.175V113.25C499.086 113.917 499.228 114.392 499.511 114.675C499.794 114.942 500.286 115.075 500.986 115.075H502.661V117H500.611C499.344 117 498.394 116.708 497.761 116.125C497.128 115.542 496.811 114.583 496.811 113.25V105.175H495.036V103.3H496.811V99.85H499.086V103.3H502.661V105.175H499.086ZM511.392 117.225C510.109 117.225 508.942 116.933 507.892 116.35C506.859 115.767 506.042 114.942 505.442 113.875C504.859 112.792 504.567 111.542 504.567 110.125C504.567 108.725 504.867 107.492 505.467 106.425C506.084 105.342 506.917 104.517 507.967 103.95C509.017 103.367 510.192 103.075 511.492 103.075C512.792 103.075 513.967 103.367 515.017 103.95C516.067 104.517 516.892 105.333 517.492 106.4C518.109 107.467 518.417 108.708 518.417 110.125C518.417 111.542 518.101 112.792 517.467 113.875C516.851 114.942 516.009 115.767 514.942 116.35C513.876 116.933 512.692 117.225 511.392 117.225ZM511.392 115.225C512.209 115.225 512.976 115.033 513.692 114.65C514.409 114.267 514.984 113.692 515.417 112.925C515.867 112.158 516.092 111.225 516.092 110.125C516.092 109.025 515.876 108.092 515.442 107.325C515.009 106.558 514.442 105.992 513.742 105.625C513.042 105.242 512.284 105.05 511.467 105.05C510.634 105.05 509.867 105.242 509.167 105.625C508.484 105.992 507.934 106.558 507.517 107.325C507.101 108.092 506.892 109.025 506.892 110.125C506.892 111.242 507.092 112.183 507.492 112.95C507.909 113.717 508.459 114.292 509.142 114.675C509.826 115.042 510.576 115.225 511.392 115.225ZM164.431 143.85C164.897 143.033 165.581 142.367 166.481 141.85C167.381 141.333 168.406 141.075 169.556 141.075C170.789 141.075 171.897 141.367 172.881 141.95C173.864 142.533 174.639 143.358 175.206 144.425C175.772 145.475 176.056 146.7 176.056 148.1C176.056 149.483 175.772 150.717 175.206 151.8C174.639 152.883 173.856 153.725 172.856 154.325C171.872 154.925 170.772 155.225 169.556 155.225C168.372 155.225 167.331 154.967 166.431 154.45C165.547 153.933 164.881 153.275 164.431 152.475V155H162.156V136.5H164.431V143.85ZM173.731 148.1C173.731 147.067 173.522 146.167 173.106 145.4C172.689 144.633 172.122 144.05 171.406 143.65C170.706 143.25 169.931 143.05 169.081 143.05C168.247 143.05 167.472 143.258 166.756 143.675C166.056 144.075 165.489 144.667 165.056 145.45C164.639 146.217 164.431 147.108 164.431 148.125C164.431 149.158 164.639 150.067 165.056 150.85C165.489 151.617 166.056 152.208 166.756 152.625C167.472 153.025 168.247 153.225 169.081 153.225C169.931 153.225 170.706 153.025 171.406 152.625C172.122 152.208 172.689 151.617 173.106 150.85C173.522 150.067 173.731 149.15 173.731 148.1ZM191.55 147.625C191.55 148.058 191.525 148.517 191.475 149H180.525C180.609 150.35 181.067 151.408 181.9 152.175C182.75 152.925 183.775 153.3 184.975 153.3C185.959 153.3 186.775 153.075 187.425 152.625C188.092 152.158 188.559 151.542 188.825 150.775H191.275C190.909 152.092 190.175 153.167 189.075 154C187.975 154.817 186.609 155.225 184.975 155.225C183.675 155.225 182.509 154.933 181.475 154.35C180.459 153.767 179.659 152.942 179.075 151.875C178.492 150.792 178.2 149.542 178.2 148.125C178.2 146.708 178.484 145.467 179.05 144.4C179.617 143.333 180.409 142.517 181.425 141.95C182.459 141.367 183.642 141.075 184.975 141.075C186.275 141.075 187.425 141.358 188.425 141.925C189.425 142.492 190.192 143.275 190.725 144.275C191.275 145.258 191.55 146.375 191.55 147.625ZM189.2 147.15C189.2 146.283 189.009 145.542 188.625 144.925C188.242 144.292 187.717 143.817 187.05 143.5C186.4 143.167 185.675 143 184.875 143C183.725 143 182.742 143.367 181.925 144.1C181.125 144.833 180.667 145.85 180.55 147.15H189.2ZM193.703 148.125C193.703 146.708 193.987 145.475 194.553 144.425C195.12 143.358 195.903 142.533 196.903 141.95C197.92 141.367 199.078 141.075 200.378 141.075C202.062 141.075 203.445 141.483 204.528 142.3C205.628 143.117 206.353 144.25 206.703 145.7H204.253C204.02 144.867 203.562 144.208 202.878 143.725C202.212 143.242 201.378 143 200.378 143C199.078 143 198.028 143.45 197.228 144.35C196.428 145.233 196.028 146.492 196.028 148.125C196.028 149.775 196.428 151.05 197.228 151.95C198.028 152.85 199.078 153.3 200.378 153.3C201.378 153.3 202.212 153.067 202.878 152.6C203.545 152.133 204.003 151.467 204.253 150.6H206.703C206.337 152 205.603 153.125 204.503 153.975C203.403 154.808 202.028 155.225 200.378 155.225C199.078 155.225 197.92 154.933 196.903 154.35C195.903 153.767 195.12 152.942 194.553 151.875C193.987 150.808 193.703 149.558 193.703 148.125ZM215.714 155.225C214.43 155.225 213.264 154.933 212.214 154.35C211.18 153.767 210.364 152.942 209.764 151.875C209.18 150.792 208.889 149.542 208.889 148.125C208.889 146.725 209.189 145.492 209.789 144.425C210.405 143.342 211.239 142.517 212.289 141.95C213.339 141.367 214.514 141.075 215.814 141.075C217.114 141.075 218.289 141.367 219.339 141.95C220.389 142.517 221.214 143.333 221.814 144.4C222.43 145.467 222.739 146.708 222.739 148.125C222.739 149.542 222.422 150.792 221.789 151.875C221.172 152.942 220.33 153.767 219.264 154.35C218.197 154.933 217.014 155.225 215.714 155.225ZM215.714 153.225C216.53 153.225 217.297 153.033 218.014 152.65C218.73 152.267 219.305 151.692 219.739 150.925C220.189 150.158 220.414 149.225 220.414 148.125C220.414 147.025 220.197 146.092 219.764 145.325C219.33 144.558 218.764 143.992 218.064 143.625C217.364 143.242 216.605 143.05 215.789 143.05C214.955 143.05 214.189 143.242 213.489 143.625C212.805 143.992 212.255 144.558 211.839 145.325C211.422 146.092 211.214 147.025 211.214 148.125C211.214 149.242 211.414 150.183 211.814 150.95C212.23 151.717 212.78 152.292 213.464 152.675C214.147 153.042 214.897 153.225 215.714 153.225ZM242.205 141.05C243.272 141.05 244.222 141.275 245.055 141.725C245.888 142.158 246.547 142.817 247.03 143.7C247.513 144.583 247.755 145.658 247.755 146.925V155H245.505V147.25C245.505 145.883 245.163 144.842 244.48 144.125C243.813 143.392 242.905 143.025 241.755 143.025C240.572 143.025 239.63 143.408 238.93 144.175C238.23 144.925 237.88 146.017 237.88 147.45V155H235.63V147.25C235.63 145.883 235.288 144.842 234.605 144.125C233.938 143.392 233.03 143.025 231.88 143.025C230.697 143.025 229.755 143.408 229.055 144.175C228.355 144.925 228.005 146.017 228.005 147.45V155H225.73V141.3H228.005V143.275C228.455 142.558 229.055 142.008 229.805 141.625C230.572 141.242 231.413 141.05 232.33 141.05C233.48 141.05 234.497 141.308 235.38 141.825C236.263 142.342 236.922 143.1 237.355 144.1C237.738 143.133 238.372 142.383 239.255 141.85C240.138 141.317 241.122 141.05 242.205 141.05ZM263.987 147.625C263.987 148.058 263.962 148.517 263.912 149H252.962C253.045 150.35 253.503 151.408 254.337 152.175C255.187 152.925 256.212 153.3 257.412 153.3C258.395 153.3 259.212 153.075 259.862 152.625C260.528 152.158 260.995 151.542 261.262 150.775H263.712C263.345 152.092 262.612 153.167 261.512 154C260.412 154.817 259.045 155.225 257.412 155.225C256.112 155.225 254.945 154.933 253.912 154.35C252.895 153.767 252.095 152.942 251.512 151.875C250.928 150.792 250.637 149.542 250.637 148.125C250.637 146.708 250.92 145.467 251.487 144.4C252.053 143.333 252.845 142.517 253.862 141.95C254.895 141.367 256.078 141.075 257.412 141.075C258.712 141.075 259.862 141.358 260.862 141.925C261.862 142.492 262.628 143.275 263.162 144.275C263.712 145.258 263.987 146.375 263.987 147.625ZM261.637 147.15C261.637 146.283 261.445 145.542 261.062 144.925C260.678 144.292 260.153 143.817 259.487 143.5C258.837 143.167 258.112 143 257.312 143C256.162 143 255.178 143.367 254.362 144.1C253.562 144.833 253.103 145.85 252.987 147.15H261.637ZM275.93 136.5V155H273.655V136.5H275.93ZM292.307 147.625C292.307 148.058 292.282 148.517 292.232 149H281.282C281.365 150.35 281.824 151.408 282.657 152.175C283.507 152.925 284.532 153.3 285.732 153.3C286.715 153.3 287.532 153.075 288.182 152.625C288.849 152.158 289.315 151.542 289.582 150.775H292.032C291.665 152.092 290.932 153.167 289.832 154C288.732 154.817 287.365 155.225 285.732 155.225C284.432 155.225 283.265 154.933 282.232 154.35C281.215 153.767 280.415 152.942 279.832 151.875C279.249 150.792 278.957 149.542 278.957 148.125C278.957 146.708 279.24 145.467 279.807 144.4C280.374 143.333 281.165 142.517 282.182 141.95C283.215 141.367 284.399 141.075 285.732 141.075C287.032 141.075 288.182 141.358 289.182 141.925C290.182 142.492 290.949 143.275 291.482 144.275C292.032 145.258 292.307 146.375 292.307 147.625ZM289.957 147.15C289.957 146.283 289.765 145.542 289.382 144.925C288.999 144.292 288.474 143.817 287.807 143.5C287.157 143.167 286.432 143 285.632 143C284.482 143 283.499 143.367 282.682 144.1C281.882 144.833 281.424 145.85 281.307 147.15H289.957ZM294.46 148.1C294.46 146.7 294.743 145.475 295.31 144.425C295.877 143.358 296.652 142.533 297.635 141.95C298.635 141.367 299.743 141.075 300.96 141.075C302.16 141.075 303.202 141.333 304.085 141.85C304.968 142.367 305.627 143.017 306.06 143.8V141.3H308.36V155H306.06V152.45C305.61 153.25 304.935 153.917 304.035 154.45C303.152 154.967 302.118 155.225 300.935 155.225C299.718 155.225 298.618 154.925 297.635 154.325C296.652 153.725 295.877 152.883 295.31 151.8C294.743 150.717 294.46 149.483 294.46 148.1ZM306.06 148.125C306.06 147.092 305.852 146.192 305.435 145.425C305.018 144.658 304.452 144.075 303.735 143.675C303.035 143.258 302.26 143.05 301.41 143.05C300.56 143.05 299.785 143.25 299.085 143.65C298.385 144.05 297.827 144.633 297.41 145.4C296.993 146.167 296.785 147.067 296.785 148.1C296.785 149.15 296.993 150.067 297.41 150.85C297.827 151.617 298.385 152.208 299.085 152.625C299.785 153.025 300.56 153.225 301.41 153.225C302.26 153.225 303.035 153.025 303.735 152.625C304.452 152.208 305.018 151.617 305.435 150.85C305.852 150.067 306.06 149.158 306.06 148.125ZM311.355 148.1C311.355 146.7 311.638 145.475 312.205 144.425C312.771 143.358 313.546 142.533 314.53 141.95C315.53 141.367 316.646 141.075 317.88 141.075C318.946 141.075 319.938 141.325 320.855 141.825C321.771 142.308 322.471 142.95 322.955 143.75V136.5H325.255V155H322.955V152.425C322.505 153.242 321.838 153.917 320.955 154.45C320.071 154.967 319.038 155.225 317.855 155.225C316.638 155.225 315.53 154.925 314.53 154.325C313.546 153.725 312.771 152.883 312.205 151.8C311.638 150.717 311.355 149.483 311.355 148.1ZM322.955 148.125C322.955 147.092 322.746 146.192 322.33 145.425C321.913 144.658 321.346 144.075 320.63 143.675C319.93 143.258 319.155 143.05 318.305 143.05C317.455 143.05 316.68 143.25 315.98 143.65C315.28 144.05 314.721 144.633 314.305 145.4C313.888 146.167 313.68 147.067 313.68 148.1C313.68 149.15 313.888 150.067 314.305 150.85C314.721 151.617 315.28 152.208 315.98 152.625C316.68 153.025 317.455 153.225 318.305 153.225C319.155 153.225 319.93 153.025 320.63 152.625C321.346 152.208 321.913 151.617 322.33 150.85C322.746 150.067 322.955 149.158 322.955 148.125ZM341.599 147.625C341.599 148.058 341.574 148.517 341.524 149H330.574C330.657 150.35 331.116 151.408 331.949 152.175C332.799 152.925 333.824 153.3 335.024 153.3C336.007 153.3 336.824 153.075 337.474 152.625C338.141 152.158 338.607 151.542 338.874 150.775H341.324C340.957 152.092 340.224 153.167 339.124 154C338.024 154.817 336.657 155.225 335.024 155.225C333.724 155.225 332.557 154.933 331.524 154.35C330.507 153.767 329.707 152.942 329.124 151.875C328.541 150.792 328.249 149.542 328.249 148.125C328.249 146.708 328.532 145.467 329.099 144.4C329.666 143.333 330.457 142.517 331.474 141.95C332.507 141.367 333.691 141.075 335.024 141.075C336.324 141.075 337.474 141.358 338.474 141.925C339.474 142.492 340.241 143.275 340.774 144.275C341.324 145.258 341.599 146.375 341.599 147.625ZM339.249 147.15C339.249 146.283 339.057 145.542 338.674 144.925C338.291 144.292 337.766 143.817 337.099 143.5C336.449 143.167 335.724 143 334.924 143C333.774 143 332.791 143.367 331.974 144.1C331.174 144.833 330.716 145.85 330.599 147.15H339.249ZM346.877 143.525C347.277 142.742 347.844 142.133 348.577 141.7C349.327 141.267 350.235 141.05 351.302 141.05V143.4H350.702C348.152 143.4 346.877 144.783 346.877 147.55V155H344.602V141.3H346.877V143.525ZM358.778 155.225C357.728 155.225 356.787 155.05 355.953 154.7C355.12 154.333 354.462 153.833 353.978 153.2C353.495 152.55 353.228 151.808 353.178 150.975H355.528C355.595 151.658 355.912 152.217 356.478 152.65C357.062 153.083 357.82 153.3 358.753 153.3C359.62 153.3 360.303 153.108 360.803 152.725C361.303 152.342 361.553 151.858 361.553 151.275C361.553 150.675 361.287 150.233 360.753 149.95C360.22 149.65 359.395 149.358 358.278 149.075C357.262 148.808 356.428 148.542 355.778 148.275C355.145 147.992 354.595 147.583 354.128 147.05C353.678 146.5 353.453 145.783 353.453 144.9C353.453 144.2 353.662 143.558 354.078 142.975C354.495 142.392 355.087 141.933 355.853 141.6C356.62 141.25 357.495 141.075 358.478 141.075C359.995 141.075 361.22 141.458 362.153 142.225C363.087 142.992 363.587 144.042 363.653 145.375H361.378C361.328 144.658 361.037 144.083 360.503 143.65C359.987 143.217 359.287 143 358.403 143C357.587 143 356.937 143.175 356.453 143.525C355.97 143.875 355.728 144.333 355.728 144.9C355.728 145.35 355.87 145.725 356.153 146.025C356.453 146.308 356.82 146.542 357.253 146.725C357.703 146.892 358.32 147.083 359.103 147.3C360.087 147.567 360.887 147.833 361.503 148.1C362.12 148.35 362.645 148.733 363.078 149.25C363.528 149.767 363.762 150.442 363.778 151.275C363.778 152.025 363.57 152.7 363.153 153.3C362.737 153.9 362.145 154.375 361.378 154.725C360.628 155.058 359.762 155.225 358.778 155.225ZM374.83 139.075C374.396 139.075 374.03 138.925 373.73 138.625C373.43 138.325 373.28 137.958 373.28 137.525C373.28 137.092 373.43 136.725 373.73 136.425C374.03 136.125 374.396 135.975 374.83 135.975C375.246 135.975 375.596 136.125 375.88 136.425C376.18 136.725 376.33 137.092 376.33 137.525C376.33 137.958 376.18 138.325 375.88 138.625C375.596 138.925 375.246 139.075 374.83 139.075ZM375.93 141.3V155H373.655V141.3H375.93ZM386.482 141.05C388.149 141.05 389.499 141.558 390.532 142.575C391.565 143.575 392.082 145.025 392.082 146.925V155H389.832V147.25C389.832 145.883 389.49 144.842 388.807 144.125C388.124 143.392 387.19 143.025 386.007 143.025C384.807 143.025 383.849 143.4 383.132 144.15C382.432 144.9 382.082 145.992 382.082 147.425V155H379.807V141.3H382.082V143.25C382.532 142.55 383.14 142.008 383.907 141.625C384.69 141.242 385.549 141.05 386.482 141.05ZM405.238 143.175V151.25C405.238 151.917 405.38 152.392 405.663 152.675C405.947 152.942 406.438 153.075 407.138 153.075H408.813V155H406.763C405.497 155 404.547 154.708 403.913 154.125C403.28 153.542 402.963 152.583 402.963 151.25V143.175H401.188V141.3H402.963V137.85H405.238V141.3H408.813V143.175H405.238ZM418.37 141.05C419.403 141.05 420.336 141.275 421.17 141.725C422.003 142.158 422.653 142.817 423.12 143.7C423.603 144.583 423.845 145.658 423.845 146.925V155H421.595V147.25C421.595 145.883 421.253 144.842 420.57 144.125C419.886 143.392 418.953 143.025 417.77 143.025C416.57 143.025 415.611 143.4 414.895 144.15C414.195 144.9 413.845 145.992 413.845 147.425V155H411.57V136.5H413.845V143.25C414.295 142.55 414.911 142.008 415.695 141.625C416.495 141.242 417.386 141.05 418.37 141.05ZM440.061 147.625C440.061 148.058 440.036 148.517 439.986 149H429.036C429.119 150.35 429.578 151.408 430.411 152.175C431.261 152.925 432.286 153.3 433.486 153.3C434.469 153.3 435.286 153.075 435.936 152.625C436.603 152.158 437.069 151.542 437.336 150.775H439.786C439.419 152.092 438.686 153.167 437.586 154C436.486 154.817 435.119 155.225 433.486 155.225C432.186 155.225 431.019 154.933 429.986 154.35C428.969 153.767 428.169 152.942 427.586 151.875C427.003 150.792 426.711 149.542 426.711 148.125C426.711 146.708 426.994 145.467 427.561 144.4C428.128 143.333 428.919 142.517 429.936 141.95C430.969 141.367 432.153 141.075 433.486 141.075C434.786 141.075 435.936 141.358 436.936 141.925C437.936 142.492 438.703 143.275 439.236 144.275C439.786 145.258 440.061 146.375 440.061 147.625ZM437.711 147.15C437.711 146.283 437.519 145.542 437.136 144.925C436.753 144.292 436.228 143.817 435.561 143.5C434.911 143.167 434.186 143 433.386 143C432.236 143 431.253 143.367 430.436 144.1C429.636 144.833 429.178 145.85 429.061 147.15H437.711ZM444.239 139.075C443.806 139.075 443.439 138.925 443.139 138.625C442.839 138.325 442.689 137.958 442.689 137.525C442.689 137.092 442.839 136.725 443.139 136.425C443.439 136.125 443.806 135.975 444.239 135.975C444.656 135.975 445.006 136.125 445.289 136.425C445.589 136.725 445.739 137.092 445.739 137.525C445.739 137.958 445.589 138.325 445.289 138.625C445.006 138.925 444.656 139.075 444.239 139.075ZM445.339 141.3V155H443.064V141.3H445.339ZM451.491 143.525C451.891 142.742 452.458 142.133 453.191 141.7C453.941 141.267 454.85 141.05 455.916 141.05V143.4H455.316C452.766 143.4 451.491 144.783 451.491 147.55V155H449.216V141.3H451.491V143.525ZM161.306 186.125C161.306 184.708 161.589 183.475 162.156 182.425C162.722 181.358 163.506 180.533 164.506 179.95C165.522 179.367 166.681 179.075 167.981 179.075C169.664 179.075 171.047 179.483 172.131 180.3C173.231 181.117 173.956 182.25 174.306 183.7H171.856C171.622 182.867 171.164 182.208 170.481 181.725C169.814 181.242 168.981 181 167.981 181C166.681 181 165.631 181.45 164.831 182.35C164.031 183.233 163.631 184.492 163.631 186.125C163.631 187.775 164.031 189.05 164.831 189.95C165.631 190.85 166.681 191.3 167.981 191.3C168.981 191.3 169.814 191.067 170.481 190.6C171.147 190.133 171.606 189.467 171.856 188.6H174.306C173.939 190 173.206 191.125 172.106 191.975C171.006 192.808 169.631 193.225 167.981 193.225C166.681 193.225 165.522 192.933 164.506 192.35C163.506 191.767 162.722 190.942 162.156 189.875C161.589 188.808 161.306 187.558 161.306 186.125ZM183.316 193.225C182.033 193.225 180.866 192.933 179.816 192.35C178.783 191.767 177.966 190.942 177.366 189.875C176.783 188.792 176.491 187.542 176.491 186.125C176.491 184.725 176.791 183.492 177.391 182.425C178.008 181.342 178.841 180.517 179.891 179.95C180.941 179.367 182.116 179.075 183.416 179.075C184.716 179.075 185.891 179.367 186.941 179.95C187.991 180.517 188.816 181.333 189.416 182.4C190.033 183.467 190.341 184.708 190.341 186.125C190.341 187.542 190.025 188.792 189.391 189.875C188.775 190.942 187.933 191.767 186.866 192.35C185.8 192.933 184.616 193.225 183.316 193.225ZM183.316 191.225C184.133 191.225 184.9 191.033 185.616 190.65C186.333 190.267 186.908 189.692 187.341 188.925C187.791 188.158 188.016 187.225 188.016 186.125C188.016 185.025 187.8 184.092 187.366 183.325C186.933 182.558 186.366 181.992 185.666 181.625C184.966 181.242 184.208 181.05 183.391 181.05C182.558 181.05 181.791 181.242 181.091 181.625C180.408 181.992 179.858 182.558 179.441 183.325C179.025 184.092 178.816 185.025 178.816 186.125C178.816 187.242 179.016 188.183 179.416 188.95C179.833 189.717 180.383 190.292 181.066 190.675C181.75 191.042 182.5 191.225 183.316 191.225ZM209.807 179.05C210.874 179.05 211.824 179.275 212.657 179.725C213.491 180.158 214.149 180.817 214.632 181.7C215.116 182.583 215.357 183.658 215.357 184.925V193H213.107V185.25C213.107 183.883 212.766 182.842 212.082 182.125C211.416 181.392 210.507 181.025 209.357 181.025C208.174 181.025 207.232 181.408 206.532 182.175C205.832 182.925 205.482 184.017 205.482 185.45V193H203.232V185.25C203.232 183.883 202.891 182.842 202.207 182.125C201.541 181.392 200.632 181.025 199.482 181.025C198.299 181.025 197.357 181.408 196.657 182.175C195.957 182.925 195.607 184.017 195.607 185.45V193H193.332V179.3H195.607V181.275C196.057 180.558 196.657 180.008 197.407 179.625C198.174 179.242 199.016 179.05 199.932 179.05C201.082 179.05 202.099 179.308 202.982 179.825C203.866 180.342 204.524 181.1 204.957 182.1C205.341 181.133 205.974 180.383 206.857 179.85C207.741 179.317 208.724 179.05 209.807 179.05ZM235.564 179.05C236.631 179.05 237.581 179.275 238.414 179.725C239.248 180.158 239.906 180.817 240.389 181.7C240.873 182.583 241.114 183.658 241.114 184.925V193H238.864V185.25C238.864 183.883 238.523 182.842 237.839 182.125C237.173 181.392 236.264 181.025 235.114 181.025C233.931 181.025 232.989 181.408 232.289 182.175C231.589 182.925 231.239 184.017 231.239 185.45V193H228.989V185.25C228.989 183.883 228.648 182.842 227.964 182.125C227.298 181.392 226.389 181.025 225.239 181.025C224.056 181.025 223.114 181.408 222.414 182.175C221.714 182.925 221.364 184.017 221.364 185.45V193H219.089V179.3H221.364V181.275C221.814 180.558 222.414 180.008 223.164 179.625C223.931 179.242 224.773 179.05 225.689 179.05C226.839 179.05 227.856 179.308 228.739 179.825C229.623 180.342 230.281 181.1 230.714 182.1C231.098 181.133 231.731 180.383 232.614 179.85C233.498 179.317 234.481 179.05 235.564 179.05ZM256.996 179.3V193H254.721V190.975C254.288 191.675 253.679 192.225 252.896 192.625C252.129 193.008 251.279 193.2 250.346 193.2C249.279 193.2 248.321 192.983 247.471 192.55C246.621 192.1 245.946 191.433 245.446 190.55C244.963 189.667 244.721 188.592 244.721 187.325V179.3H246.971V187.025C246.971 188.375 247.313 189.417 247.996 190.15C248.679 190.867 249.613 191.225 250.796 191.225C252.013 191.225 252.971 190.85 253.671 190.1C254.371 189.35 254.721 188.258 254.721 186.825V179.3H256.996ZM267.512 179.05C269.179 179.05 270.529 179.558 271.562 180.575C272.596 181.575 273.112 183.025 273.112 184.925V193H270.862V185.25C270.862 183.883 270.521 182.842 269.837 182.125C269.154 181.392 268.221 181.025 267.037 181.025C265.837 181.025 264.879 181.4 264.162 182.15C263.462 182.9 263.112 183.992 263.112 185.425V193H260.837V179.3H263.112V181.25C263.562 180.55 264.171 180.008 264.937 179.625C265.721 179.242 266.579 179.05 267.512 179.05ZM278.004 177.075C277.57 177.075 277.204 176.925 276.904 176.625C276.604 176.325 276.454 175.958 276.454 175.525C276.454 175.092 276.604 174.725 276.904 174.425C277.204 174.125 277.57 173.975 278.004 173.975C278.42 173.975 278.77 174.125 279.054 174.425C279.354 174.725 279.504 175.092 279.504 175.525C279.504 175.958 279.354 176.325 279.054 176.625C278.77 176.925 278.42 177.075 278.004 177.075ZM279.104 179.3V193H276.829V179.3H279.104ZM285.756 181.175V189.25C285.756 189.917 285.898 190.392 286.181 190.675C286.464 190.942 286.956 191.075 287.656 191.075H289.331V193H287.281C286.014 193 285.064 192.708 284.431 192.125C283.798 191.542 283.481 190.583 283.481 189.25V181.175H281.706V179.3H283.481V175.85H285.756V179.3H289.331V181.175H285.756ZM293.262 177.075C292.829 177.075 292.462 176.925 292.162 176.625C291.862 176.325 291.712 175.958 291.712 175.525C291.712 175.092 291.862 174.725 292.162 174.425C292.462 174.125 292.829 173.975 293.262 173.975C293.679 173.975 294.029 174.125 294.312 174.425C294.612 174.725 294.762 175.092 294.762 175.525C294.762 175.958 294.612 176.325 294.312 176.625C294.029 176.925 293.679 177.075 293.262 177.075ZM294.362 179.3V193H292.087V179.3H294.362ZM310.74 185.625C310.74 186.058 310.715 186.517 310.665 187H299.715C299.798 188.35 300.256 189.408 301.09 190.175C301.94 190.925 302.965 191.3 304.165 191.3C305.148 191.3 305.965 191.075 306.615 190.625C307.281 190.158 307.748 189.542 308.015 188.775H310.465C310.098 190.092 309.365 191.167 308.265 192C307.165 192.817 305.798 193.225 304.165 193.225C302.865 193.225 301.698 192.933 300.665 192.35C299.648 191.767 298.848 190.942 298.265 189.875C297.681 188.792 297.39 187.542 297.39 186.125C297.39 184.708 297.673 183.467 298.24 182.4C298.806 181.333 299.598 180.517 300.615 179.95C301.648 179.367 302.831 179.075 304.165 179.075C305.465 179.075 306.615 179.358 307.615 179.925C308.615 180.492 309.381 181.275 309.915 182.275C310.465 183.258 310.74 184.375 310.74 185.625ZM308.39 185.15C308.39 184.283 308.198 183.542 307.815 182.925C307.431 182.292 306.906 181.817 306.24 181.5C305.59 181.167 304.865 181 304.065 181C302.915 181 301.931 181.367 301.115 182.1C300.315 182.833 299.856 183.85 299.74 185.15H308.39ZM318.593 193.225C317.543 193.225 316.601 193.05 315.768 192.7C314.934 192.333 314.276 191.833 313.793 191.2C313.309 190.55 313.043 189.808 312.993 188.975H315.343C315.409 189.658 315.726 190.217 316.293 190.65C316.876 191.083 317.634 191.3 318.568 191.3C319.434 191.3 320.118 191.108 320.618 190.725C321.118 190.342 321.368 189.858 321.368 189.275C321.368 188.675 321.101 188.233 320.568 187.95C320.034 187.65 319.209 187.358 318.093 187.075C317.076 186.808 316.243 186.542 315.593 186.275C314.959 185.992 314.409 185.583 313.943 185.05C313.493 184.5 313.268 183.783 313.268 182.9C313.268 182.2 313.476 181.558 313.893 180.975C314.309 180.392 314.901 179.933 315.668 179.6C316.434 179.25 317.309 179.075 318.293 179.075C319.809 179.075 321.034 179.458 321.968 180.225C322.901 180.992 323.401 182.042 323.468 183.375H321.193C321.143 182.658 320.851 182.083 320.318 181.65C319.801 181.217 319.101 181 318.218 181C317.401 181 316.751 181.175 316.268 181.525C315.784 181.875 315.543 182.333 315.543 182.9C315.543 183.35 315.684 183.725 315.968 184.025C316.268 184.308 316.634 184.542 317.068 184.725C317.518 184.892 318.134 185.083 318.918 185.3C319.901 185.567 320.701 185.833 321.318 186.1C321.934 186.35 322.459 186.733 322.893 187.25C323.343 187.767 323.576 188.442 323.593 189.275C323.593 190.025 323.384 190.7 322.968 191.3C322.551 191.9 321.959 192.375 321.193 192.725C320.443 193.058 319.576 193.225 318.593 193.225ZM327.529 193.15C327.096 193.15 326.729 193 326.429 192.7C326.129 192.4 325.979 192.033 325.979 191.6C325.979 191.167 326.129 190.8 326.429 190.5C326.729 190.2 327.096 190.05 327.529 190.05C327.946 190.05 328.296 190.2 328.579 190.5C328.879 190.8 329.029 191.167 329.029 191.6C329.029 192.033 328.879 192.4 328.579 192.7C328.296 193 327.946 193.15 327.529 193.15Z" fill="black"/>
<path d="M60.5114 195.989C52.178 195.989 44.6733 194.331 37.9972 191.017C31.321 187.703 25.9706 183.157 21.946 177.381C17.9214 171.604 15.7197 165.023 15.3409 157.636H32.3864C33.0492 164.218 36.0322 169.663 41.3352 173.972C46.6856 178.233 53.0777 180.364 60.5114 180.364C66.4773 180.364 71.7803 178.967 76.4205 176.173C81.108 173.38 84.7775 169.545 87.429 164.668C90.1278 159.743 91.4773 154.18 91.4773 147.977C91.4773 141.633 90.0805 135.974 87.2869 131.003C84.5407 125.984 80.7528 122.03 75.9233 119.142C71.0938 116.254 65.5777 114.786 59.375 114.739C54.9242 114.691 50.3551 115.378 45.6676 116.798C40.9801 118.171 37.1212 119.947 34.0909 122.125L17.6136 120.136L26.4205 48.5455H101.989V64.1705H41.1932L36.0795 107.068H36.9318C39.9148 104.701 43.6553 102.736 48.1534 101.173C52.6515 99.6108 57.339 98.8295 62.2159 98.8295C71.1174 98.8295 79.0483 100.96 86.0085 105.222C93.0161 109.436 98.5085 115.212 102.486 122.551C106.51 129.89 108.523 138.271 108.523 147.693C108.523 156.973 106.439 165.259 102.273 172.551C98.1534 179.795 92.4716 185.525 85.2273 189.739C77.983 193.905 69.7443 195.989 60.5114 195.989Z" fill="#EDBB5F"/>
</svg>
