<svg width="596" height="242" viewBox="0 0 596 242" fill="none" xmlns="http://www.w3.org/2000/svg">
<path d="M174.61 62.2C175.83 62.46 176.81 63.07 177.55 64.03C178.29 64.97 178.66 66.05 178.66 67.27C178.66 69.03 178.04 70.43 176.8 71.47C175.58 72.49 173.87 73 171.67 73H161.86V51.94H171.34C173.48 51.94 175.15 52.43 176.35 53.41C177.57 54.39 178.18 55.72 178.18 57.4C178.18 58.64 177.85 59.67 177.19 60.49C176.55 61.31 175.69 61.88 174.61 62.2ZM166.99 60.46H170.35C171.19 60.46 171.83 60.28 172.27 59.92C172.73 59.54 172.96 58.99 172.96 58.27C172.96 57.55 172.73 57 172.27 56.62C171.83 56.24 171.19 56.05 170.35 56.05H166.99V60.46ZM170.77 68.86C171.63 68.86 172.29 68.67 172.75 68.29C173.23 67.89 173.47 67.32 173.47 66.58C173.47 65.84 173.22 65.26 172.72 64.84C172.24 64.42 171.57 64.21 170.71 64.21H166.99V68.86H170.77ZM198.165 56.26V73H193.035V70.72C192.515 71.46 191.805 72.06 190.905 72.52C190.025 72.96 189.045 73.18 187.965 73.18C186.685 73.18 185.555 72.9 184.575 72.34C183.595 71.76 182.835 70.93 182.295 69.85C181.755 68.77 181.485 67.5 181.485 66.04V56.26H186.585V65.35C186.585 66.47 186.875 67.34 187.455 67.96C188.035 68.58 188.815 68.89 189.795 68.89C190.795 68.89 191.585 68.58 192.165 67.96C192.745 67.34 193.035 66.47 193.035 65.35V56.26H198.165ZM204.43 54.52C203.53 54.52 202.79 54.26 202.21 53.74C201.65 53.2 201.37 52.54 201.37 51.76C201.37 50.96 201.65 50.3 202.21 49.78C202.79 49.24 203.53 48.97 204.43 48.97C205.31 48.97 206.03 49.24 206.59 49.78C207.17 50.3 207.46 50.96 207.46 51.76C207.46 52.54 207.17 53.2 206.59 53.74C206.03 54.26 205.31 54.52 204.43 54.52ZM206.98 56.26V73H201.85V56.26H206.98ZM215.828 50.8V73H210.698V50.8H215.828ZM218.526 64.6C218.526 62.88 218.846 61.37 219.486 60.07C220.146 58.77 221.036 57.77 222.156 57.07C223.276 56.37 224.526 56.02 225.906 56.02C227.006 56.02 228.006 56.25 228.906 56.71C229.826 57.17 230.546 57.79 231.066 58.57V50.8H236.196V73H231.066V70.6C230.586 71.4 229.896 72.04 228.996 72.52C228.116 73 227.086 73.24 225.906 73.24C224.526 73.24 223.276 72.89 222.156 72.19C221.036 71.47 220.146 70.46 219.486 69.16C218.846 67.84 218.526 66.32 218.526 64.6ZM231.066 64.63C231.066 63.35 230.706 62.34 229.986 61.6C229.286 60.86 228.426 60.49 227.406 60.49C226.386 60.49 225.516 60.86 224.796 61.6C224.096 62.32 223.746 63.32 223.746 64.6C223.746 65.88 224.096 66.9 224.796 67.66C225.516 68.4 226.386 68.77 227.406 68.77C228.426 68.77 229.286 68.4 229.986 67.66C230.706 66.92 231.066 65.91 231.066 64.63ZM245.244 64.6C245.244 62.88 245.564 61.37 246.204 60.07C246.864 58.77 247.754 57.77 248.874 57.07C249.994 56.37 251.244 56.02 252.624 56.02C253.804 56.02 254.834 56.26 255.714 56.74C256.614 57.22 257.304 57.85 257.784 58.63V56.26H262.914V73H257.784V70.63C257.284 71.41 256.584 72.04 255.684 72.52C254.804 73 253.774 73.24 252.594 73.24C251.234 73.24 249.994 72.89 248.874 72.19C247.754 71.47 246.864 70.46 246.204 69.16C245.564 67.84 245.244 66.32 245.244 64.6ZM257.784 64.63C257.784 63.35 257.424 62.34 256.704 61.6C256.004 60.86 255.144 60.49 254.124 60.49C253.104 60.49 252.234 60.86 251.514 61.6C250.814 62.32 250.464 63.32 250.464 64.6C250.464 65.88 250.814 66.9 251.514 67.66C252.234 68.4 253.104 68.77 254.124 68.77C255.144 68.77 256.004 68.4 256.704 67.66C257.424 66.92 257.784 65.91 257.784 64.63ZM271.963 64.63C271.963 62.89 272.313 61.37 273.013 60.07C273.733 58.77 274.723 57.77 275.983 57.07C277.263 56.37 278.723 56.02 280.363 56.02C282.463 56.02 284.213 56.57 285.613 57.67C287.033 58.77 287.963 60.32 288.403 62.32H282.943C282.483 61.04 281.593 60.4 280.273 60.4C279.333 60.4 278.583 60.77 278.023 61.51C277.463 62.23 277.183 63.27 277.183 64.63C277.183 65.99 277.463 67.04 278.023 67.78C278.583 68.5 279.333 68.86 280.273 68.86C281.593 68.86 282.483 68.22 282.943 66.94H288.403C287.963 68.9 287.033 70.44 285.613 71.56C284.193 72.68 282.443 73.24 280.363 73.24C278.723 73.24 277.263 72.89 275.983 72.19C274.723 71.49 273.733 70.49 273.013 69.19C272.313 67.89 271.963 66.37 271.963 64.63ZM298.767 73.24C297.127 73.24 295.647 72.89 294.327 72.19C293.027 71.49 291.997 70.49 291.237 69.19C290.497 67.89 290.127 66.37 290.127 64.63C290.127 62.91 290.507 61.4 291.267 60.1C292.027 58.78 293.067 57.77 294.387 57.07C295.707 56.37 297.187 56.02 298.827 56.02C300.467 56.02 301.947 56.37 303.267 57.07C304.587 57.77 305.627 58.78 306.387 60.1C307.147 61.4 307.527 62.91 307.527 64.63C307.527 66.35 307.137 67.87 306.357 69.19C305.597 70.49 304.547 71.49 303.207 72.19C301.887 72.89 300.407 73.24 298.767 73.24ZM298.767 68.8C299.747 68.8 300.577 68.44 301.257 67.72C301.957 67 302.307 65.97 302.307 64.63C302.307 63.29 301.967 62.26 301.287 61.54C300.627 60.82 299.807 60.46 298.827 60.46C297.827 60.46 296.997 60.82 296.337 61.54C295.677 62.24 295.347 63.27 295.347 64.63C295.347 65.97 295.667 67 296.307 67.72C296.967 68.44 297.787 68.8 298.767 68.8ZM331.609 56.08C333.689 56.08 335.339 56.71 336.559 57.97C337.799 59.23 338.419 60.98 338.419 63.22V73H333.319V63.91C333.319 62.83 333.029 62 332.449 61.42C331.889 60.82 331.109 60.52 330.109 60.52C329.109 60.52 328.319 60.82 327.739 61.42C327.179 62 326.899 62.83 326.899 63.91V73H321.799V63.91C321.799 62.83 321.509 62 320.929 61.42C320.369 60.82 319.589 60.52 318.589 60.52C317.589 60.52 316.799 60.82 316.219 61.42C315.659 62 315.379 62.83 315.379 63.91V73H310.249V56.26H315.379V58.36C315.899 57.66 316.579 57.11 317.419 56.71C318.259 56.29 319.209 56.08 320.269 56.08C321.529 56.08 322.649 56.35 323.629 56.89C324.629 57.43 325.409 58.2 325.969 59.2C326.549 58.28 327.339 57.53 328.339 56.95C329.339 56.37 330.429 56.08 331.609 56.08ZM363.366 56.08C365.446 56.08 367.096 56.71 368.316 57.97C369.556 59.23 370.176 60.98 370.176 63.22V73H365.076V63.91C365.076 62.83 364.786 62 364.206 61.42C363.646 60.82 362.866 60.52 361.866 60.52C360.866 60.52 360.076 60.82 359.496 61.42C358.936 62 358.656 62.83 358.656 63.91V73H353.556V63.91C353.556 62.83 353.266 62 352.686 61.42C352.126 60.82 351.346 60.52 350.346 60.52C349.346 60.52 348.556 60.82 347.976 61.42C347.416 62 347.136 62.83 347.136 63.91V73H342.006V56.26H347.136V58.36C347.656 57.66 348.336 57.11 349.176 56.71C350.016 56.29 350.966 56.08 352.026 56.08C353.286 56.08 354.406 56.35 355.386 56.89C356.386 57.43 357.166 58.2 357.726 59.2C358.306 58.28 359.096 57.53 360.096 56.95C361.096 56.37 362.186 56.08 363.366 56.08ZM390.294 56.26V73H385.164V70.72C384.644 71.46 383.934 72.06 383.034 72.52C382.154 72.96 381.174 73.18 380.094 73.18C378.814 73.18 377.684 72.9 376.704 72.34C375.724 71.76 374.964 70.93 374.424 69.85C373.884 68.77 373.614 67.5 373.614 66.04V56.26H378.714V65.35C378.714 66.47 379.004 67.34 379.584 67.96C380.164 68.58 380.944 68.89 381.924 68.89C382.924 68.89 383.714 68.58 384.294 67.96C384.874 67.34 385.164 66.47 385.164 65.35V56.26H390.294ZM404.179 56.08C406.139 56.08 407.699 56.72 408.859 58C410.039 59.26 410.629 61 410.629 63.22V73H405.529V63.91C405.529 62.79 405.239 61.92 404.659 61.3C404.079 60.68 403.299 60.37 402.319 60.37C401.339 60.37 400.559 60.68 399.979 61.3C399.399 61.92 399.109 62.79 399.109 63.91V73H393.979V56.26H399.109V58.48C399.629 57.74 400.329 57.16 401.209 56.74C402.089 56.3 403.079 56.08 404.179 56.08ZM416.774 54.52C415.874 54.52 415.134 54.26 414.554 53.74C413.994 53.2 413.714 52.54 413.714 51.76C413.714 50.96 413.994 50.3 414.554 49.78C415.134 49.24 415.874 48.97 416.774 48.97C417.654 48.97 418.374 49.24 418.934 49.78C419.514 50.3 419.804 50.96 419.804 51.76C419.804 52.54 419.514 53.2 418.934 53.74C418.374 54.26 417.654 54.52 416.774 54.52ZM419.324 56.26V73H414.194V56.26H419.324ZM432.372 68.65V73H429.762C427.902 73 426.452 72.55 425.412 71.65C424.372 70.73 423.852 69.24 423.852 67.18V60.52H421.812V56.26H423.852V52.18H428.982V56.26H432.342V60.52H428.982V67.24C428.982 67.74 429.102 68.1 429.342 68.32C429.582 68.54 429.982 68.65 430.542 68.65H432.372ZM452.329 56.26L441.829 80.95H436.309L440.149 72.43L433.339 56.26H439.069L442.939 66.73L446.779 56.26H452.329Z" fill="#7E71B9"/>
<path d="M173.575 105.675C173.575 107.125 173.075 108.333 172.075 109.3C171.092 110.25 169.583 110.725 167.55 110.725H164.2V118H161.925V100.575H167.55C169.517 100.575 171.008 101.05 172.025 102C173.058 102.95 173.575 104.175 173.575 105.675ZM167.55 108.85C168.817 108.85 169.75 108.575 170.35 108.025C170.95 107.475 171.25 106.692 171.25 105.675C171.25 103.525 170.017 102.45 167.55 102.45H164.2V108.85H167.55ZM178.678 106.525C179.078 105.742 179.644 105.133 180.378 104.7C181.128 104.267 182.036 104.05 183.103 104.05V106.4H182.503C179.953 106.4 178.678 107.783 178.678 110.55V118H176.403V104.3H178.678V106.525ZM191.704 118.225C190.42 118.225 189.254 117.933 188.204 117.35C187.17 116.767 186.354 115.942 185.754 114.875C185.17 113.792 184.879 112.542 184.879 111.125C184.879 109.725 185.179 108.492 185.779 107.425C186.395 106.342 187.229 105.517 188.279 104.95C189.329 104.367 190.504 104.075 191.804 104.075C193.104 104.075 194.279 104.367 195.329 104.95C196.379 105.517 197.204 106.333 197.804 107.4C198.42 108.467 198.729 109.708 198.729 111.125C198.729 112.542 198.412 113.792 197.779 114.875C197.162 115.942 196.32 116.767 195.254 117.35C194.187 117.933 193.004 118.225 191.704 118.225ZM191.704 116.225C192.52 116.225 193.287 116.033 194.004 115.65C194.72 115.267 195.295 114.692 195.729 113.925C196.179 113.158 196.404 112.225 196.404 111.125C196.404 110.025 196.187 109.092 195.754 108.325C195.32 107.558 194.754 106.992 194.054 106.625C193.354 106.242 192.595 106.05 191.779 106.05C190.945 106.05 190.179 106.242 189.479 106.625C188.795 106.992 188.245 107.558 187.829 108.325C187.412 109.092 187.204 110.025 187.204 111.125C187.204 112.242 187.404 113.183 187.804 113.95C188.22 114.717 188.77 115.292 189.454 115.675C190.137 116.042 190.887 116.225 191.704 116.225ZM206.82 115.9L211.07 104.3H213.495L208.12 118H205.47L200.095 104.3H202.545L206.82 115.9ZM216.909 102.075C216.475 102.075 216.109 101.925 215.809 101.625C215.509 101.325 215.359 100.958 215.359 100.525C215.359 100.092 215.509 99.725 215.809 99.425C216.109 99.125 216.475 98.975 216.909 98.975C217.325 98.975 217.675 99.125 217.959 99.425C218.259 99.725 218.409 100.092 218.409 100.525C218.409 100.958 218.259 101.325 217.959 101.625C217.675 101.925 217.325 102.075 216.909 102.075ZM218.009 104.3V118H215.734V104.3H218.009ZM221.036 111.1C221.036 109.7 221.319 108.475 221.886 107.425C222.453 106.358 223.228 105.533 224.211 104.95C225.211 104.367 226.328 104.075 227.561 104.075C228.628 104.075 229.619 104.325 230.536 104.825C231.453 105.308 232.153 105.95 232.636 106.75V99.5H234.936V118H232.636V115.425C232.186 116.242 231.519 116.917 230.636 117.45C229.753 117.967 228.719 118.225 227.536 118.225C226.319 118.225 225.211 117.925 224.211 117.325C223.228 116.725 222.453 115.883 221.886 114.8C221.319 113.717 221.036 112.483 221.036 111.1ZM232.636 111.125C232.636 110.092 232.428 109.192 232.011 108.425C231.594 107.658 231.028 107.075 230.311 106.675C229.611 106.258 228.836 106.05 227.986 106.05C227.136 106.05 226.361 106.25 225.661 106.65C224.961 107.05 224.403 107.633 223.986 108.4C223.569 109.167 223.361 110.067 223.361 111.1C223.361 112.15 223.569 113.067 223.986 113.85C224.403 114.617 224.961 115.208 225.661 115.625C226.361 116.025 227.136 116.225 227.986 116.225C228.836 116.225 229.611 116.025 230.311 115.625C231.028 115.208 231.594 114.617 232.011 113.85C232.428 113.067 232.636 112.158 232.636 111.125ZM251.28 110.625C251.28 111.058 251.255 111.517 251.205 112H240.255C240.339 113.35 240.797 114.408 241.63 115.175C242.48 115.925 243.505 116.3 244.705 116.3C245.689 116.3 246.505 116.075 247.155 115.625C247.822 115.158 248.289 114.542 248.555 113.775H251.005C250.639 115.092 249.905 116.167 248.805 117C247.705 117.817 246.339 118.225 244.705 118.225C243.405 118.225 242.239 117.933 241.205 117.35C240.189 116.767 239.389 115.942 238.805 114.875C238.222 113.792 237.93 112.542 237.93 111.125C237.93 109.708 238.214 108.467 238.78 107.4C239.347 106.333 240.139 105.517 241.155 104.95C242.189 104.367 243.372 104.075 244.705 104.075C246.005 104.075 247.155 104.358 248.155 104.925C249.155 105.492 249.922 106.275 250.455 107.275C251.005 108.258 251.28 109.375 251.28 110.625ZM248.93 110.15C248.93 109.283 248.739 108.542 248.355 107.925C247.972 107.292 247.447 106.817 246.78 106.5C246.13 106.167 245.405 106 244.605 106C243.455 106 242.472 106.367 241.655 107.1C240.855 107.833 240.397 108.85 240.28 110.15H248.93ZM260.098 111.1C260.098 109.7 260.382 108.475 260.948 107.425C261.515 106.358 262.29 105.533 263.273 104.95C264.273 104.367 265.382 104.075 266.598 104.075C267.798 104.075 268.84 104.333 269.723 104.85C270.607 105.367 271.265 106.017 271.698 106.8V104.3H273.998V118H271.698V115.45C271.248 116.25 270.573 116.917 269.673 117.45C268.79 117.967 267.757 118.225 266.573 118.225C265.357 118.225 264.257 117.925 263.273 117.325C262.29 116.725 261.515 115.883 260.948 114.8C260.382 113.717 260.098 112.483 260.098 111.1ZM271.698 111.125C271.698 110.092 271.49 109.192 271.073 108.425C270.657 107.658 270.09 107.075 269.373 106.675C268.673 106.258 267.898 106.05 267.048 106.05C266.198 106.05 265.423 106.25 264.723 106.65C264.023 107.05 263.465 107.633 263.048 108.4C262.632 109.167 262.423 110.067 262.423 111.1C262.423 112.15 262.632 113.067 263.048 113.85C263.465 114.617 264.023 115.208 264.723 115.625C265.423 116.025 266.198 116.225 267.048 116.225C267.898 116.225 268.673 116.025 269.373 115.625C270.09 115.208 270.657 114.617 271.073 113.85C271.49 113.067 271.698 112.158 271.698 111.125ZM289.358 118.225C288.308 118.225 287.366 118.05 286.533 117.7C285.7 117.333 285.041 116.833 284.558 116.2C284.075 115.55 283.808 114.808 283.758 113.975H286.108C286.175 114.658 286.491 115.217 287.058 115.65C287.641 116.083 288.4 116.3 289.333 116.3C290.2 116.3 290.883 116.108 291.383 115.725C291.883 115.342 292.133 114.858 292.133 114.275C292.133 113.675 291.866 113.233 291.333 112.95C290.8 112.65 289.975 112.358 288.858 112.075C287.841 111.808 287.008 111.542 286.358 111.275C285.725 110.992 285.175 110.583 284.708 110.05C284.258 109.5 284.033 108.783 284.033 107.9C284.033 107.2 284.241 106.558 284.658 105.975C285.075 105.392 285.666 104.933 286.433 104.6C287.2 104.25 288.075 104.075 289.058 104.075C290.575 104.075 291.8 104.458 292.733 105.225C293.666 105.992 294.166 107.042 294.233 108.375H291.958C291.908 107.658 291.616 107.083 291.083 106.65C290.566 106.217 289.866 106 288.983 106C288.166 106 287.516 106.175 287.033 106.525C286.55 106.875 286.308 107.333 286.308 107.9C286.308 108.35 286.45 108.725 286.733 109.025C287.033 109.308 287.4 109.542 287.833 109.725C288.283 109.892 288.9 110.083 289.683 110.3C290.666 110.567 291.466 110.833 292.083 111.1C292.7 111.35 293.225 111.733 293.658 112.25C294.108 112.767 294.341 113.442 294.358 114.275C294.358 115.025 294.15 115.7 293.733 116.3C293.316 116.9 292.725 117.375 291.958 117.725C291.208 118.058 290.341 118.225 289.358 118.225ZM309.72 104.3V118H307.445V115.975C307.011 116.675 306.403 117.225 305.62 117.625C304.853 118.008 304.003 118.2 303.07 118.2C302.003 118.2 301.045 117.983 300.195 117.55C299.345 117.1 298.67 116.433 298.17 115.55C297.686 114.667 297.445 113.592 297.445 112.325V104.3H299.695V112.025C299.695 113.375 300.036 114.417 300.72 115.15C301.403 115.867 302.336 116.225 303.52 116.225C304.736 116.225 305.695 115.85 306.395 115.1C307.095 114.35 307.445 113.258 307.445 111.825V104.3H309.72ZM315.836 106.825C316.286 106.042 316.952 105.392 317.836 104.875C318.736 104.342 319.777 104.075 320.961 104.075C322.177 104.075 323.277 104.367 324.261 104.95C325.261 105.533 326.044 106.358 326.611 107.425C327.177 108.475 327.461 109.7 327.461 111.1C327.461 112.483 327.177 113.717 326.611 114.8C326.044 115.883 325.261 116.725 324.261 117.325C323.277 117.925 322.177 118.225 320.961 118.225C319.794 118.225 318.761 117.967 317.861 117.45C316.977 116.917 316.302 116.258 315.836 115.475V124.5H313.561V104.3H315.836V106.825ZM325.136 111.1C325.136 110.067 324.927 109.167 324.511 108.4C324.094 107.633 323.527 107.05 322.811 106.65C322.111 106.25 321.336 106.05 320.486 106.05C319.652 106.05 318.877 106.258 318.161 106.675C317.461 107.075 316.894 107.667 316.461 108.45C316.044 109.217 315.836 110.108 315.836 111.125C315.836 112.158 316.044 113.067 316.461 113.85C316.894 114.617 317.461 115.208 318.161 115.625C318.877 116.025 319.652 116.225 320.486 116.225C321.336 116.225 322.111 116.025 322.811 115.625C323.527 115.208 324.094 114.617 324.511 113.85C324.927 113.067 325.136 112.15 325.136 111.1ZM332.73 106.825C333.18 106.042 333.847 105.392 334.73 104.875C335.63 104.342 336.672 104.075 337.855 104.075C339.072 104.075 340.172 104.367 341.155 104.95C342.155 105.533 342.939 106.358 343.505 107.425C344.072 108.475 344.355 109.7 344.355 111.1C344.355 112.483 344.072 113.717 343.505 114.8C342.939 115.883 342.155 116.725 341.155 117.325C340.172 117.925 339.072 118.225 337.855 118.225C336.689 118.225 335.655 117.967 334.755 117.45C333.872 116.917 333.197 116.258 332.73 115.475V124.5H330.455V104.3H332.73V106.825ZM342.03 111.1C342.03 110.067 341.822 109.167 341.405 108.4C340.989 107.633 340.422 107.05 339.705 106.65C339.005 106.25 338.23 106.05 337.38 106.05C336.547 106.05 335.772 106.258 335.055 106.675C334.355 107.075 333.789 107.667 333.355 108.45C332.939 109.217 332.73 110.108 332.73 111.125C332.73 112.158 332.939 113.067 333.355 113.85C333.789 114.617 334.355 115.208 335.055 115.625C335.772 116.025 336.547 116.225 337.38 116.225C338.23 116.225 339.005 116.025 339.705 115.625C340.422 115.208 340.989 114.617 341.405 113.85C341.822 113.067 342.03 112.15 342.03 111.1ZM353.325 118.225C352.041 118.225 350.875 117.933 349.825 117.35C348.791 116.767 347.975 115.942 347.375 114.875C346.791 113.792 346.5 112.542 346.5 111.125C346.5 109.725 346.8 108.492 347.4 107.425C348.016 106.342 348.85 105.517 349.9 104.95C350.95 104.367 352.125 104.075 353.425 104.075C354.725 104.075 355.9 104.367 356.95 104.95C358 105.517 358.825 106.333 359.425 107.4C360.041 108.467 360.35 109.708 360.35 111.125C360.35 112.542 360.033 113.792 359.4 114.875C358.783 115.942 357.941 116.767 356.875 117.35C355.808 117.933 354.625 118.225 353.325 118.225ZM353.325 116.225C354.141 116.225 354.908 116.033 355.625 115.65C356.341 115.267 356.916 114.692 357.35 113.925C357.8 113.158 358.025 112.225 358.025 111.125C358.025 110.025 357.808 109.092 357.375 108.325C356.941 107.558 356.375 106.992 355.675 106.625C354.975 106.242 354.216 106.05 353.4 106.05C352.566 106.05 351.8 106.242 351.1 106.625C350.416 106.992 349.866 107.558 349.45 108.325C349.033 109.092 348.825 110.025 348.825 111.125C348.825 112.242 349.025 113.183 349.425 113.95C349.841 114.717 350.391 115.292 351.075 115.675C351.758 116.042 352.508 116.225 353.325 116.225ZM365.616 106.525C366.016 105.742 366.583 105.133 367.316 104.7C368.066 104.267 368.974 104.05 370.041 104.05V106.4H369.441C366.891 106.4 365.616 107.783 365.616 110.55V118H363.341V104.3H365.616V106.525ZM375.442 106.175V114.25C375.442 114.917 375.584 115.392 375.867 115.675C376.151 115.942 376.642 116.075 377.342 116.075H379.017V118H376.967C375.701 118 374.751 117.708 374.117 117.125C373.484 116.542 373.167 115.583 373.167 114.25V106.175H371.392V104.3H373.167V100.85H375.442V104.3H379.017V106.175H375.442ZM382.949 102.075C382.515 102.075 382.149 101.925 381.849 101.625C381.549 101.325 381.399 100.958 381.399 100.525C381.399 100.092 381.549 99.725 381.849 99.425C382.149 99.125 382.515 98.975 382.949 98.975C383.365 98.975 383.715 99.125 383.999 99.425C384.299 99.725 384.449 100.092 384.449 100.525C384.449 100.958 384.299 101.325 383.999 101.625C383.715 101.925 383.365 102.075 382.949 102.075ZM384.049 104.3V118H381.774V104.3H384.049ZM393.026 115.9L397.276 104.3H399.701L394.326 118H391.676L386.301 104.3H388.751L393.026 115.9ZM414.44 110.625C414.44 111.058 414.415 111.517 414.365 112H403.415C403.498 113.35 403.956 114.408 404.79 115.175C405.64 115.925 406.665 116.3 407.865 116.3C408.848 116.3 409.665 116.075 410.315 115.625C410.981 115.158 411.448 114.542 411.715 113.775H414.165C413.798 115.092 413.065 116.167 411.965 117C410.865 117.817 409.498 118.225 407.865 118.225C406.565 118.225 405.398 117.933 404.365 117.35C403.348 116.767 402.548 115.942 401.965 114.875C401.381 113.792 401.09 112.542 401.09 111.125C401.09 109.708 401.373 108.467 401.94 107.4C402.506 106.333 403.298 105.517 404.315 104.95C405.348 104.367 406.531 104.075 407.865 104.075C409.165 104.075 410.315 104.358 411.315 104.925C412.315 105.492 413.081 106.275 413.615 107.275C414.165 108.258 414.44 109.375 414.44 110.625ZM412.09 110.15C412.09 109.283 411.898 108.542 411.515 107.925C411.131 107.292 410.606 106.817 409.94 106.5C409.29 106.167 408.565 106 407.765 106C406.615 106 405.631 106.367 404.815 107.1C404.015 107.833 403.556 108.85 403.44 110.15H412.09ZM423.258 111.1C423.258 109.7 423.541 108.475 424.108 107.425C424.674 106.358 425.449 105.533 426.433 104.95C427.433 104.367 428.541 104.075 429.758 104.075C430.958 104.075 431.999 104.333 432.883 104.85C433.766 105.367 434.424 106.017 434.858 106.8V104.3H437.158V118H434.858V115.45C434.408 116.25 433.733 116.917 432.833 117.45C431.949 117.967 430.916 118.225 429.733 118.225C428.516 118.225 427.416 117.925 426.433 117.325C425.449 116.725 424.674 115.883 424.108 114.8C423.541 113.717 423.258 112.483 423.258 111.1ZM434.858 111.125C434.858 110.092 434.649 109.192 434.233 108.425C433.816 107.658 433.249 107.075 432.533 106.675C431.833 106.258 431.058 106.05 430.208 106.05C429.358 106.05 428.583 106.25 427.883 106.65C427.183 107.05 426.624 107.633 426.208 108.4C425.791 109.167 425.583 110.067 425.583 111.1C425.583 112.15 425.791 113.067 426.208 113.85C426.624 114.617 427.183 115.208 427.883 115.625C428.583 116.025 429.358 116.225 430.208 116.225C431.058 116.225 431.833 116.025 432.533 115.625C433.249 115.208 433.816 114.617 434.233 113.85C434.649 113.067 434.858 112.158 434.858 111.125ZM447.677 104.05C449.344 104.05 450.694 104.558 451.727 105.575C452.76 106.575 453.277 108.025 453.277 109.925V118H451.027V110.25C451.027 108.883 450.685 107.842 450.002 107.125C449.319 106.392 448.385 106.025 447.202 106.025C446.002 106.025 445.044 106.4 444.327 107.15C443.627 107.9 443.277 108.992 443.277 110.425V118H441.002V104.3H443.277V106.25C443.727 105.55 444.335 105.008 445.102 104.625C445.885 104.242 446.744 104.05 447.677 104.05ZM456.143 111.1C456.143 109.7 456.427 108.475 456.993 107.425C457.56 106.358 458.335 105.533 459.318 104.95C460.318 104.367 461.435 104.075 462.668 104.075C463.735 104.075 464.727 104.325 465.643 104.825C466.56 105.308 467.26 105.95 467.743 106.75V99.5H470.043V118H467.743V115.425C467.293 116.242 466.627 116.917 465.743 117.45C464.86 117.967 463.827 118.225 462.643 118.225C461.427 118.225 460.318 117.925 459.318 117.325C458.335 116.725 457.56 115.883 456.993 114.8C456.427 113.717 456.143 112.483 456.143 111.1ZM467.743 111.125C467.743 110.092 467.535 109.192 467.118 108.425C466.702 107.658 466.135 107.075 465.418 106.675C464.718 106.258 463.943 106.05 463.093 106.05C462.243 106.05 461.468 106.25 460.768 106.65C460.068 107.05 459.51 107.633 459.093 108.4C458.677 109.167 458.468 110.067 458.468 111.1C458.468 112.15 458.677 113.067 459.093 113.85C459.51 114.617 460.068 115.208 460.768 115.625C461.468 116.025 462.243 116.225 463.093 116.225C463.943 116.225 464.718 116.025 465.418 115.625C466.135 115.208 466.702 114.617 467.118 113.85C467.535 113.067 467.743 112.158 467.743 111.125ZM481.728 102.075C481.295 102.075 480.928 101.925 480.628 101.625C480.328 101.325 480.178 100.958 480.178 100.525C480.178 100.092 480.328 99.725 480.628 99.425C480.928 99.125 481.295 98.975 481.728 98.975C482.145 98.975 482.495 99.125 482.778 99.425C483.078 99.725 483.228 100.092 483.228 100.525C483.228 100.958 483.078 101.325 482.778 101.625C482.495 101.925 482.145 102.075 481.728 102.075ZM482.828 104.3V118H480.553V104.3H482.828ZM493.38 104.05C495.047 104.05 496.397 104.558 497.43 105.575C498.464 106.575 498.98 108.025 498.98 109.925V118H496.73V110.25C496.73 108.883 496.389 107.842 495.705 107.125C495.022 106.392 494.089 106.025 492.905 106.025C491.705 106.025 490.747 106.4 490.03 107.15C489.33 107.9 488.98 108.992 488.98 110.425V118H486.705V104.3H488.98V106.25C489.43 105.55 490.039 105.008 490.805 104.625C491.589 104.242 492.447 104.05 493.38 104.05ZM501.846 111.125C501.846 109.708 502.13 108.475 502.696 107.425C503.263 106.358 504.046 105.533 505.046 104.95C506.063 104.367 507.221 104.075 508.521 104.075C510.205 104.075 511.588 104.483 512.671 105.3C513.771 106.117 514.496 107.25 514.846 108.7H512.396C512.163 107.867 511.705 107.208 511.021 106.725C510.355 106.242 509.521 106 508.521 106C507.221 106 506.171 106.45 505.371 107.35C504.571 108.233 504.171 109.492 504.171 111.125C504.171 112.775 504.571 114.05 505.371 114.95C506.171 115.85 507.221 116.3 508.521 116.3C509.521 116.3 510.355 116.067 511.021 115.6C511.688 115.133 512.146 114.467 512.396 113.6H514.846C514.48 115 513.746 116.125 512.646 116.975C511.546 117.808 510.171 118.225 508.521 118.225C507.221 118.225 506.063 117.933 505.046 117.35C504.046 116.767 503.263 115.942 502.696 114.875C502.13 113.808 501.846 112.558 501.846 111.125ZM520.157 99.5V118H517.882V99.5H520.157ZM536.184 104.3V118H533.909V115.975C533.476 116.675 532.868 117.225 532.084 117.625C531.318 118.008 530.468 118.2 529.534 118.2C528.468 118.2 527.509 117.983 526.659 117.55C525.809 117.1 525.134 116.433 524.634 115.55C524.151 114.667 523.909 113.592 523.909 112.325V104.3H526.159V112.025C526.159 113.375 526.501 114.417 527.184 115.15C527.868 115.867 528.801 116.225 529.984 116.225C531.201 116.225 532.159 115.85 532.859 115.1C533.559 114.35 533.909 113.258 533.909 111.825V104.3H536.184ZM544.876 118.225C543.826 118.225 542.884 118.05 542.051 117.7C541.217 117.333 540.559 116.833 540.076 116.2C539.592 115.55 539.326 114.808 539.276 113.975H541.626C541.692 114.658 542.009 115.217 542.576 115.65C543.159 116.083 543.917 116.3 544.851 116.3C545.717 116.3 546.401 116.108 546.901 115.725C547.401 115.342 547.651 114.858 547.651 114.275C547.651 113.675 547.384 113.233 546.851 112.95C546.317 112.65 545.492 112.358 544.376 112.075C543.359 111.808 542.526 111.542 541.876 111.275C541.242 110.992 540.692 110.583 540.226 110.05C539.776 109.5 539.551 108.783 539.551 107.9C539.551 107.2 539.759 106.558 540.176 105.975C540.592 105.392 541.184 104.933 541.951 104.6C542.717 104.25 543.592 104.075 544.576 104.075C546.092 104.075 547.317 104.458 548.251 105.225C549.184 105.992 549.684 107.042 549.751 108.375H547.476C547.426 107.658 547.134 107.083 546.601 106.65C546.084 106.217 545.384 106 544.501 106C543.684 106 543.034 106.175 542.551 106.525C542.067 106.875 541.826 107.333 541.826 107.9C541.826 108.35 541.967 108.725 542.251 109.025C542.551 109.308 542.917 109.542 543.351 109.725C543.801 109.892 544.417 110.083 545.201 110.3C546.184 110.567 546.984 110.833 547.601 111.1C548.217 111.35 548.742 111.733 549.176 112.25C549.626 112.767 549.859 113.442 549.876 114.275C549.876 115.025 549.667 115.7 549.251 116.3C548.834 116.9 548.242 117.375 547.476 117.725C546.726 118.058 545.859 118.225 544.876 118.225ZM554.262 102.075C553.829 102.075 553.462 101.925 553.162 101.625C552.862 101.325 552.712 100.958 552.712 100.525C552.712 100.092 552.862 99.725 553.162 99.425C553.462 99.125 553.829 98.975 554.262 98.975C554.679 98.975 555.029 99.125 555.312 99.425C555.612 99.725 555.762 100.092 555.762 100.525C555.762 100.958 555.612 101.325 555.312 101.625C555.029 101.925 554.679 102.075 554.262 102.075ZM555.362 104.3V118H553.087V104.3H555.362ZM564.339 115.9L568.589 104.3H571.014L565.639 118H562.989L557.614 104.3H560.064L564.339 115.9ZM585.753 110.625C585.753 111.058 585.728 111.517 585.678 112H574.728C574.811 113.35 575.27 114.408 576.103 115.175C576.953 115.925 577.978 116.3 579.178 116.3C580.161 116.3 580.978 116.075 581.628 115.625C582.295 115.158 582.761 114.542 583.028 113.775H585.478C585.111 115.092 584.378 116.167 583.278 117C582.178 117.817 580.811 118.225 579.178 118.225C577.878 118.225 576.711 117.933 575.678 117.35C574.661 116.767 573.861 115.942 573.278 114.875C572.695 113.792 572.403 112.542 572.403 111.125C572.403 109.708 572.686 108.467 573.253 107.4C573.82 106.333 574.611 105.517 575.628 104.95C576.661 104.367 577.845 104.075 579.178 104.075C580.478 104.075 581.628 104.358 582.628 104.925C583.628 105.492 584.395 106.275 584.928 107.275C585.478 108.258 585.753 109.375 585.753 110.625ZM583.403 110.15C583.403 109.283 583.211 108.542 582.828 107.925C582.445 107.292 581.92 106.817 581.253 106.5C580.603 106.167 579.878 106 579.078 106C577.928 106 576.945 106.367 576.128 107.1C575.328 107.833 574.87 108.85 574.753 110.15H583.403ZM161.075 149.125C161.075 147.708 161.358 146.475 161.925 145.425C162.492 144.358 163.275 143.533 164.275 142.95C165.292 142.367 166.45 142.075 167.75 142.075C169.433 142.075 170.817 142.483 171.9 143.3C173 144.117 173.725 145.25 174.075 146.7H171.625C171.392 145.867 170.933 145.208 170.25 144.725C169.583 144.242 168.75 144 167.75 144C166.45 144 165.4 144.45 164.6 145.35C163.8 146.233 163.4 147.492 163.4 149.125C163.4 150.775 163.8 152.05 164.6 152.95C165.4 153.85 166.45 154.3 167.75 154.3C168.75 154.3 169.583 154.067 170.25 153.6C170.917 153.133 171.375 152.467 171.625 151.6H174.075C173.708 153 172.975 154.125 171.875 154.975C170.775 155.808 169.4 156.225 167.75 156.225C166.45 156.225 165.292 155.933 164.275 155.35C163.275 154.767 162.492 153.942 161.925 152.875C161.358 151.808 161.075 150.558 161.075 149.125ZM183.086 156.225C181.802 156.225 180.636 155.933 179.586 155.35C178.552 154.767 177.736 153.942 177.136 152.875C176.552 151.792 176.261 150.542 176.261 149.125C176.261 147.725 176.561 146.492 177.161 145.425C177.777 144.342 178.611 143.517 179.661 142.95C180.711 142.367 181.886 142.075 183.186 142.075C184.486 142.075 185.661 142.367 186.711 142.95C187.761 143.517 188.586 144.333 189.186 145.4C189.802 146.467 190.111 147.708 190.111 149.125C190.111 150.542 189.794 151.792 189.161 152.875C188.544 153.942 187.702 154.767 186.636 155.35C185.569 155.933 184.386 156.225 183.086 156.225ZM183.086 154.225C183.902 154.225 184.669 154.033 185.386 153.65C186.102 153.267 186.677 152.692 187.111 151.925C187.561 151.158 187.786 150.225 187.786 149.125C187.786 148.025 187.569 147.092 187.136 146.325C186.702 145.558 186.136 144.992 185.436 144.625C184.736 144.242 183.977 144.05 183.161 144.05C182.327 144.05 181.561 144.242 180.861 144.625C180.177 144.992 179.627 145.558 179.211 146.325C178.794 147.092 178.586 148.025 178.586 149.125C178.586 150.242 178.786 151.183 179.186 151.95C179.602 152.717 180.152 153.292 180.836 153.675C181.519 154.042 182.269 154.225 183.086 154.225ZM209.577 142.05C210.643 142.05 211.593 142.275 212.427 142.725C213.26 143.158 213.918 143.817 214.402 144.7C214.885 145.583 215.127 146.658 215.127 147.925V156H212.877V148.25C212.877 146.883 212.535 145.842 211.852 145.125C211.185 144.392 210.277 144.025 209.127 144.025C207.943 144.025 207.002 144.408 206.302 145.175C205.602 145.925 205.252 147.017 205.252 148.45V156H203.002V148.25C203.002 146.883 202.66 145.842 201.977 145.125C201.31 144.392 200.402 144.025 199.252 144.025C198.068 144.025 197.127 144.408 196.427 145.175C195.727 145.925 195.377 147.017 195.377 148.45V156H193.102V142.3H195.377V144.275C195.827 143.558 196.427 143.008 197.177 142.625C197.943 142.242 198.785 142.05 199.702 142.05C200.852 142.05 201.868 142.308 202.752 142.825C203.635 143.342 204.293 144.1 204.727 145.1C205.11 144.133 205.743 143.383 206.627 142.85C207.51 142.317 208.493 142.05 209.577 142.05ZM235.334 142.05C236.4 142.05 237.35 142.275 238.184 142.725C239.017 143.158 239.675 143.817 240.159 144.7C240.642 145.583 240.884 146.658 240.884 147.925V156H238.634V148.25C238.634 146.883 238.292 145.842 237.609 145.125C236.942 144.392 236.034 144.025 234.884 144.025C233.7 144.025 232.759 144.408 232.059 145.175C231.359 145.925 231.009 147.017 231.009 148.45V156H228.759V148.25C228.759 146.883 228.417 145.842 227.734 145.125C227.067 144.392 226.159 144.025 225.009 144.025C223.825 144.025 222.884 144.408 222.184 145.175C221.484 145.925 221.134 147.017 221.134 148.45V156H218.859V142.3H221.134V144.275C221.584 143.558 222.184 143.008 222.934 142.625C223.7 142.242 224.542 142.05 225.459 142.05C226.609 142.05 227.625 142.308 228.509 142.825C229.392 143.342 230.05 144.1 230.484 145.1C230.867 144.133 231.5 143.383 232.384 142.85C233.267 142.317 234.25 142.05 235.334 142.05ZM256.765 142.3V156H254.49V153.975C254.057 154.675 253.449 155.225 252.665 155.625C251.899 156.008 251.049 156.2 250.115 156.2C249.049 156.2 248.09 155.983 247.24 155.55C246.39 155.1 245.715 154.433 245.215 153.55C244.732 152.667 244.49 151.592 244.49 150.325V142.3H246.74V150.025C246.74 151.375 247.082 152.417 247.765 153.15C248.449 153.867 249.382 154.225 250.565 154.225C251.782 154.225 252.74 153.85 253.44 153.1C254.14 152.35 254.49 151.258 254.49 149.825V142.3H256.765ZM267.282 142.05C268.948 142.05 270.298 142.558 271.332 143.575C272.365 144.575 272.882 146.025 272.882 147.925V156H270.632V148.25C270.632 146.883 270.29 145.842 269.607 145.125C268.923 144.392 267.99 144.025 266.807 144.025C265.607 144.025 264.648 144.4 263.932 145.15C263.232 145.9 262.882 146.992 262.882 148.425V156H260.607V142.3H262.882V144.25C263.332 143.55 263.94 143.008 264.707 142.625C265.49 142.242 266.348 142.05 267.282 142.05ZM277.773 140.075C277.34 140.075 276.973 139.925 276.673 139.625C276.373 139.325 276.223 138.958 276.223 138.525C276.223 138.092 276.373 137.725 276.673 137.425C276.973 137.125 277.34 136.975 277.773 136.975C278.19 136.975 278.54 137.125 278.823 137.425C279.123 137.725 279.273 138.092 279.273 138.525C279.273 138.958 279.123 139.325 278.823 139.625C278.54 139.925 278.19 140.075 277.773 140.075ZM278.873 142.3V156H276.598V142.3H278.873ZM285.525 144.175V152.25C285.525 152.917 285.667 153.392 285.95 153.675C286.234 153.942 286.725 154.075 287.425 154.075H289.1V156H287.05C285.784 156 284.834 155.708 284.2 155.125C283.567 154.542 283.25 153.583 283.25 152.25V144.175H281.475V142.3H283.25V138.85H285.525V142.3H289.1V144.175H285.525ZM303.657 142.3L295.407 162.45H293.057L295.757 155.85L290.232 142.3H292.757L297.057 153.4L301.307 142.3H303.657ZM318.584 156.225C317.3 156.225 316.134 155.933 315.084 155.35C314.05 154.767 313.234 153.942 312.634 152.875C312.05 151.792 311.759 150.542 311.759 149.125C311.759 147.725 312.059 146.492 312.659 145.425C313.275 144.342 314.109 143.517 315.159 142.95C316.209 142.367 317.384 142.075 318.684 142.075C319.984 142.075 321.159 142.367 322.209 142.95C323.259 143.517 324.084 144.333 324.684 145.4C325.3 146.467 325.609 147.708 325.609 149.125C325.609 150.542 325.292 151.792 324.659 152.875C324.042 153.942 323.2 154.767 322.134 155.35C321.067 155.933 319.884 156.225 318.584 156.225ZM318.584 154.225C319.4 154.225 320.167 154.033 320.884 153.65C321.6 153.267 322.175 152.692 322.609 151.925C323.059 151.158 323.284 150.225 323.284 149.125C323.284 148.025 323.067 147.092 322.634 146.325C322.2 145.558 321.634 144.992 320.934 144.625C320.234 144.242 319.475 144.05 318.659 144.05C317.825 144.05 317.059 144.242 316.359 144.625C315.675 144.992 315.125 145.558 314.709 146.325C314.292 147.092 314.084 148.025 314.084 149.125C314.084 150.242 314.284 151.183 314.684 151.95C315.1 152.717 315.65 153.292 316.334 153.675C317.017 154.042 317.767 154.225 318.584 154.225ZM335.275 142.05C336.941 142.05 338.291 142.558 339.325 143.575C340.358 144.575 340.875 146.025 340.875 147.925V156H338.625V148.25C338.625 146.883 338.283 145.842 337.6 145.125C336.916 144.392 335.983 144.025 334.8 144.025C333.6 144.025 332.641 144.4 331.925 145.15C331.225 145.9 330.875 146.992 330.875 148.425V156H328.6V142.3H330.875V144.25C331.325 143.55 331.933 143.008 332.7 142.625C333.483 142.242 334.341 142.05 335.275 142.05ZM350.406 149.125C350.406 147.708 350.689 146.475 351.256 145.425C351.823 144.358 352.606 143.533 353.606 142.95C354.623 142.367 355.781 142.075 357.081 142.075C358.764 142.075 360.148 142.483 361.231 143.3C362.331 144.117 363.056 145.25 363.406 146.7H360.956C360.723 145.867 360.264 145.208 359.581 144.725C358.914 144.242 358.081 144 357.081 144C355.781 144 354.731 144.45 353.931 145.35C353.131 146.233 352.731 147.492 352.731 149.125C352.731 150.775 353.131 152.05 353.931 152.95C354.731 153.85 355.781 154.3 357.081 154.3C358.081 154.3 358.914 154.067 359.581 153.6C360.248 153.133 360.706 152.467 360.956 151.6H363.406C363.039 153 362.306 154.125 361.206 154.975C360.106 155.808 358.731 156.225 357.081 156.225C355.781 156.225 354.623 155.933 353.606 155.35C352.606 154.767 351.823 153.942 351.256 152.875C350.689 151.808 350.406 150.558 350.406 149.125ZM365.592 149.1C365.592 147.7 365.875 146.475 366.442 145.425C367.008 144.358 367.783 143.533 368.767 142.95C369.767 142.367 370.875 142.075 372.092 142.075C373.292 142.075 374.333 142.333 375.217 142.85C376.1 143.367 376.758 144.017 377.192 144.8V142.3H379.492V156H377.192V153.45C376.742 154.25 376.067 154.917 375.167 155.45C374.283 155.967 373.25 156.225 372.067 156.225C370.85 156.225 369.75 155.925 368.767 155.325C367.783 154.725 367.008 153.883 366.442 152.8C365.875 151.717 365.592 150.483 365.592 149.1ZM377.192 149.125C377.192 148.092 376.983 147.192 376.567 146.425C376.15 145.658 375.583 145.075 374.867 144.675C374.167 144.258 373.392 144.05 372.542 144.05C371.692 144.05 370.917 144.25 370.217 144.65C369.517 145.05 368.958 145.633 368.542 146.4C368.125 147.167 367.917 148.067 367.917 149.1C367.917 150.15 368.125 151.067 368.542 151.85C368.958 152.617 369.517 153.208 370.217 153.625C370.917 154.025 371.692 154.225 372.542 154.225C373.392 154.225 374.167 154.025 374.867 153.625C375.583 153.208 376.15 152.617 376.567 151.85C376.983 151.067 377.192 150.158 377.192 149.125ZM399.811 142.05C400.878 142.05 401.828 142.275 402.661 142.725C403.494 143.158 404.153 143.817 404.636 144.7C405.119 145.583 405.361 146.658 405.361 147.925V156H403.111V148.25C403.111 146.883 402.769 145.842 402.086 145.125C401.419 144.392 400.511 144.025 399.361 144.025C398.178 144.025 397.236 144.408 396.536 145.175C395.836 145.925 395.486 147.017 395.486 148.45V156H393.236V148.25C393.236 146.883 392.894 145.842 392.211 145.125C391.544 144.392 390.636 144.025 389.486 144.025C388.303 144.025 387.361 144.408 386.661 145.175C385.961 145.925 385.611 147.017 385.611 148.45V156H383.336V142.3H385.611V144.275C386.061 143.558 386.661 143.008 387.411 142.625C388.178 142.242 389.019 142.05 389.936 142.05C391.086 142.05 392.103 142.308 392.986 142.825C393.869 143.342 394.528 144.1 394.961 145.1C395.344 144.133 395.978 143.383 396.861 142.85C397.744 142.317 398.728 142.05 399.811 142.05ZM411.368 144.825C411.818 144.042 412.485 143.392 413.368 142.875C414.268 142.342 415.31 142.075 416.493 142.075C417.71 142.075 418.81 142.367 419.793 142.95C420.793 143.533 421.576 144.358 422.143 145.425C422.71 146.475 422.993 147.7 422.993 149.1C422.993 150.483 422.71 151.717 422.143 152.8C421.576 153.883 420.793 154.725 419.793 155.325C418.81 155.925 417.71 156.225 416.493 156.225C415.326 156.225 414.293 155.967 413.393 155.45C412.51 154.917 411.835 154.258 411.368 153.475V162.5H409.093V142.3H411.368V144.825ZM420.668 149.1C420.668 148.067 420.46 147.167 420.043 146.4C419.626 145.633 419.06 145.05 418.343 144.65C417.643 144.25 416.868 144.05 416.018 144.05C415.185 144.05 414.41 144.258 413.693 144.675C412.993 145.075 412.426 145.667 411.993 146.45C411.576 147.217 411.368 148.108 411.368 149.125C411.368 150.158 411.576 151.067 411.993 151.85C412.426 152.617 412.993 153.208 413.693 153.625C414.41 154.025 415.185 154.225 416.018 154.225C416.868 154.225 417.643 154.025 418.343 153.625C419.06 153.208 419.626 152.617 420.043 151.85C420.46 151.067 420.668 150.15 420.668 149.1ZM438.138 142.3V156H435.863V153.975C435.429 154.675 434.821 155.225 434.038 155.625C433.271 156.008 432.421 156.2 431.488 156.2C430.421 156.2 429.463 155.983 428.613 155.55C427.763 155.1 427.088 154.433 426.588 153.55C426.104 152.667 425.863 151.592 425.863 150.325V142.3H428.113V150.025C428.113 151.375 428.454 152.417 429.138 153.15C429.821 153.867 430.754 154.225 431.938 154.225C433.154 154.225 434.113 153.85 434.813 153.1C435.513 152.35 435.863 151.258 435.863 149.825V142.3H438.138ZM446.829 156.225C445.779 156.225 444.837 156.05 444.004 155.7C443.17 155.333 442.512 154.833 442.029 154.2C441.545 153.55 441.279 152.808 441.229 151.975H443.579C443.645 152.658 443.962 153.217 444.529 153.65C445.112 154.083 445.87 154.3 446.804 154.3C447.67 154.3 448.354 154.108 448.854 153.725C449.354 153.342 449.604 152.858 449.604 152.275C449.604 151.675 449.337 151.233 448.804 150.95C448.27 150.65 447.445 150.358 446.329 150.075C445.312 149.808 444.479 149.542 443.829 149.275C443.195 148.992 442.645 148.583 442.179 148.05C441.729 147.5 441.504 146.783 441.504 145.9C441.504 145.2 441.712 144.558 442.129 143.975C442.545 143.392 443.137 142.933 443.904 142.6C444.67 142.25 445.545 142.075 446.529 142.075C448.045 142.075 449.27 142.458 450.204 143.225C451.137 143.992 451.637 145.042 451.704 146.375H449.429C449.379 145.658 449.087 145.083 448.554 144.65C448.037 144.217 447.337 144 446.454 144C445.637 144 444.987 144.175 444.504 144.525C444.02 144.875 443.779 145.333 443.779 145.9C443.779 146.35 443.92 146.725 444.204 147.025C444.504 147.308 444.87 147.542 445.304 147.725C445.754 147.892 446.37 148.083 447.154 148.3C448.137 148.567 448.937 148.833 449.554 149.1C450.17 149.35 450.695 149.733 451.129 150.25C451.579 150.767 451.812 151.442 451.829 152.275C451.829 153.025 451.62 153.7 451.204 154.3C450.787 154.9 450.195 155.375 449.429 155.725C448.679 156.058 447.812 156.225 446.829 156.225ZM467.28 144.175H464.405V156H462.13V144.175H460.355V142.3H462.13V141.325C462.13 139.792 462.522 138.675 463.305 137.975C464.105 137.258 465.38 136.9 467.13 136.9V138.8C466.13 138.8 465.422 139 465.005 139.4C464.605 139.783 464.405 140.425 464.405 141.325V142.3H467.28V144.175ZM475.908 156.225C474.624 156.225 473.458 155.933 472.408 155.35C471.374 154.767 470.558 153.942 469.958 152.875C469.374 151.792 469.083 150.542 469.083 149.125C469.083 147.725 469.383 146.492 469.983 145.425C470.599 144.342 471.433 143.517 472.483 142.95C473.533 142.367 474.708 142.075 476.008 142.075C477.308 142.075 478.483 142.367 479.533 142.95C480.583 143.517 481.408 144.333 482.008 145.4C482.624 146.467 482.933 147.708 482.933 149.125C482.933 150.542 482.616 151.792 481.983 152.875C481.366 153.942 480.524 154.767 479.458 155.35C478.391 155.933 477.208 156.225 475.908 156.225ZM475.908 154.225C476.724 154.225 477.491 154.033 478.208 153.65C478.924 153.267 479.499 152.692 479.933 151.925C480.383 151.158 480.608 150.225 480.608 149.125C480.608 148.025 480.391 147.092 479.958 146.325C479.524 145.558 478.958 144.992 478.258 144.625C477.558 144.242 476.799 144.05 475.983 144.05C475.149 144.05 474.383 144.242 473.683 144.625C472.999 144.992 472.449 145.558 472.033 146.325C471.616 147.092 471.408 148.025 471.408 149.125C471.408 150.242 471.608 151.183 472.008 151.95C472.424 152.717 472.974 153.292 473.658 153.675C474.341 154.042 475.091 154.225 475.908 154.225ZM488.199 144.525C488.599 143.742 489.166 143.133 489.899 142.7C490.649 142.267 491.557 142.05 492.624 142.05V144.4H492.024C489.474 144.4 488.199 145.783 488.199 148.55V156H485.924V142.3H488.199V144.525ZM501.065 149.1C501.065 147.7 501.349 146.475 501.915 145.425C502.482 144.358 503.257 143.533 504.24 142.95C505.24 142.367 506.349 142.075 507.565 142.075C508.765 142.075 509.807 142.333 510.69 142.85C511.574 143.367 512.232 144.017 512.665 144.8V142.3H514.965V156H512.665V153.45C512.215 154.25 511.54 154.917 510.64 155.45C509.757 155.967 508.724 156.225 507.54 156.225C506.324 156.225 505.224 155.925 504.24 155.325C503.257 154.725 502.482 153.883 501.915 152.8C501.349 151.717 501.065 150.483 501.065 149.1ZM512.665 149.125C512.665 148.092 512.457 147.192 512.04 146.425C511.624 145.658 511.057 145.075 510.34 144.675C509.64 144.258 508.865 144.05 508.015 144.05C507.165 144.05 506.39 144.25 505.69 144.65C504.99 145.05 504.432 145.633 504.015 146.4C503.599 147.167 503.39 148.067 503.39 149.1C503.39 150.15 503.599 151.067 504.015 151.85C504.432 152.617 504.99 153.208 505.69 153.625C506.39 154.025 507.165 154.225 508.015 154.225C508.865 154.225 509.64 154.025 510.34 153.625C511.057 153.208 511.624 152.617 512.04 151.85C512.457 151.067 512.665 150.158 512.665 149.125ZM521.085 137.5V156H518.81V137.5H521.085ZM527.237 137.5V156H524.962V137.5H527.237ZM179.6 176.7V194H177.325V181.1L171.575 194H169.975L164.2 181.075V194H161.925V176.7H164.375L170.775 191L177.175 176.7H179.6ZM195.608 180.3V194H193.333V191.975C192.9 192.675 192.292 193.225 191.508 193.625C190.742 194.008 189.892 194.2 188.958 194.2C187.892 194.2 186.933 193.983 186.083 193.55C185.233 193.1 184.558 192.433 184.058 191.55C183.575 190.667 183.333 189.592 183.333 188.325V180.3H185.583V188.025C185.583 189.375 185.925 190.417 186.608 191.15C187.292 191.867 188.225 192.225 189.408 192.225C190.625 192.225 191.583 191.85 192.283 191.1C192.983 190.35 193.333 189.258 193.333 187.825V180.3H195.608ZM204.299 194.225C203.249 194.225 202.308 194.05 201.474 193.7C200.641 193.333 199.983 192.833 199.499 192.2C199.016 191.55 198.749 190.808 198.699 189.975H201.049C201.116 190.658 201.433 191.217 201.999 191.65C202.583 192.083 203.341 192.3 204.274 192.3C205.141 192.3 205.824 192.108 206.324 191.725C206.824 191.342 207.074 190.858 207.074 190.275C207.074 189.675 206.808 189.233 206.274 188.95C205.741 188.65 204.916 188.358 203.799 188.075C202.783 187.808 201.949 187.542 201.299 187.275C200.666 186.992 200.116 186.583 199.649 186.05C199.199 185.5 198.974 184.783 198.974 183.9C198.974 183.2 199.183 182.558 199.599 181.975C200.016 181.392 200.608 180.933 201.374 180.6C202.141 180.25 203.016 180.075 203.999 180.075C205.516 180.075 206.741 180.458 207.674 181.225C208.608 181.992 209.108 183.042 209.174 184.375H206.899C206.849 183.658 206.558 183.083 206.024 182.65C205.508 182.217 204.808 182 203.924 182C203.108 182 202.458 182.175 201.974 182.525C201.491 182.875 201.249 183.333 201.249 183.9C201.249 184.35 201.391 184.725 201.674 185.025C201.974 185.308 202.341 185.542 202.774 185.725C203.224 185.892 203.841 186.083 204.624 186.3C205.608 186.567 206.408 186.833 207.024 187.1C207.641 187.35 208.166 187.733 208.599 188.25C209.049 188.767 209.283 189.442 209.299 190.275C209.299 191.025 209.091 191.7 208.674 192.3C208.258 192.9 207.666 193.375 206.899 193.725C206.149 194.058 205.283 194.225 204.299 194.225ZM214.786 175.5V194H212.511V175.5H214.786ZM219.838 178.075C219.405 178.075 219.038 177.925 218.738 177.625C218.438 177.325 218.288 176.958 218.288 176.525C218.288 176.092 218.438 175.725 218.738 175.425C219.038 175.125 219.405 174.975 219.838 174.975C220.255 174.975 220.605 175.125 220.888 175.425C221.188 175.725 221.338 176.092 221.338 176.525C221.338 176.958 221.188 177.325 220.888 177.625C220.605 177.925 220.255 178.075 219.838 178.075ZM220.938 180.3V194H218.663V180.3H220.938ZM241.291 180.05C242.357 180.05 243.307 180.275 244.141 180.725C244.974 181.158 245.632 181.817 246.116 182.7C246.599 183.583 246.841 184.658 246.841 185.925V194H244.591V186.25C244.591 184.883 244.249 183.842 243.566 183.125C242.899 182.392 241.991 182.025 240.841 182.025C239.657 182.025 238.716 182.408 238.016 183.175C237.316 183.925 236.966 185.017 236.966 186.45V194H234.716V186.25C234.716 184.883 234.374 183.842 233.691 183.125C233.024 182.392 232.116 182.025 230.966 182.025C229.782 182.025 228.841 182.408 228.141 183.175C227.441 183.925 227.091 185.017 227.091 186.45V194H224.816V180.3H227.091V182.275C227.541 181.558 228.141 181.008 228.891 180.625C229.657 180.242 230.499 180.05 231.416 180.05C232.566 180.05 233.582 180.308 234.466 180.825C235.349 181.342 236.007 182.1 236.441 183.1C236.824 182.133 237.457 181.383 238.341 180.85C239.224 180.317 240.207 180.05 241.291 180.05ZM255.422 194.225C254.372 194.225 253.431 194.05 252.597 193.7C251.764 193.333 251.106 192.833 250.622 192.2C250.139 191.55 249.872 190.808 249.822 189.975H252.172C252.239 190.658 252.556 191.217 253.122 191.65C253.706 192.083 254.464 192.3 255.397 192.3C256.264 192.3 256.947 192.108 257.447 191.725C257.947 191.342 258.197 190.858 258.197 190.275C258.197 189.675 257.931 189.233 257.397 188.95C256.864 188.65 256.039 188.358 254.922 188.075C253.906 187.808 253.072 187.542 252.422 187.275C251.789 186.992 251.239 186.583 250.772 186.05C250.322 185.5 250.097 184.783 250.097 183.9C250.097 183.2 250.306 182.558 250.722 181.975C251.139 181.392 251.731 180.933 252.497 180.6C253.264 180.25 254.139 180.075 255.122 180.075C256.639 180.075 257.864 180.458 258.797 181.225C259.731 181.992 260.231 183.042 260.297 184.375H258.022C257.972 183.658 257.681 183.083 257.147 182.65C256.631 182.217 255.931 182 255.047 182C254.231 182 253.581 182.175 253.097 182.525C252.614 182.875 252.372 183.333 252.372 183.9C252.372 184.35 252.514 184.725 252.797 185.025C253.097 185.308 253.464 185.542 253.897 185.725C254.347 185.892 254.964 186.083 255.747 186.3C256.731 186.567 257.531 186.833 258.147 187.1C258.764 187.35 259.289 187.733 259.722 188.25C260.172 188.767 260.406 189.442 260.422 190.275C260.422 191.025 260.214 191.7 259.797 192.3C259.381 192.9 258.789 193.375 258.022 193.725C257.272 194.058 256.406 194.225 255.422 194.225ZM264.359 194.15C263.926 194.15 263.559 194 263.259 193.7C262.959 193.4 262.809 193.033 262.809 192.6C262.809 192.167 262.959 191.8 263.259 191.5C263.559 191.2 263.926 191.05 264.359 191.05C264.776 191.05 265.126 191.2 265.409 191.5C265.709 191.8 265.859 192.167 265.859 192.6C265.859 193.033 265.709 193.4 265.409 193.7C265.126 194 264.776 194.15 264.359 194.15Z" fill="black"/>
<path d="M66.1932 48.5455V194H48.5795V67.0114H47.7273L12.2159 90.5909V72.6932L48.5795 48.5455H66.1932Z" fill="#EDBB5F"/>
<path d="M66.1932 48.5455V194H48.5795V67.0114H47.7273L12.2159 90.5909V72.6932L48.5795 48.5455H66.1932Z" fill="#EDBB5F"/>
</svg>
