<svg width="368" height="642" viewBox="0 0 368 642" fill="none" xmlns="http://www.w3.org/2000/svg">
<rect x="1.5" y="1.5" width="365" height="639" fill="#D7CCEC" stroke="#28004F" stroke-width="3"/>
<rect x="3" y="3" width="362" height="73" fill="#28004F"/>
<line x1="126" y1="-4.37114e-08" x2="126" y2="642" stroke="#28004F" stroke-width="2"/>
<line x1="250" y1="4.37114e-08" x2="250" y2="76" stroke="#28004F" stroke-width="2"/>
<line x1="2" y1="75" x2="368" y2="75" stroke="#28004F" stroke-width="2"/>
<line x1="2" y1="164" x2="368" y2="164" stroke="#28004F" stroke-width="2"/>
<line x1="2" y1="263" x2="368" y2="263" stroke="#28004F" stroke-width="2"/>
<line y1="356" x2="366" y2="356" stroke="#28004F" stroke-width="2"/>
<line y1="452" x2="366" y2="452" stroke="#28004F" stroke-width="2"/>
<line x1="2" y1="545" x2="368" y2="545" stroke="#28004F" stroke-width="2"/>
<path d="M35.8862 35.36C35.8862 36.1067 35.7062 36.8067 35.3462 37.46C34.9995 38.1133 34.4462 38.64 33.6862 39.04C32.9395 39.44 31.9928 39.64 30.8462 39.64H28.5062V45H25.7062V31.04H30.8462C31.9262 31.04 32.8462 31.2267 33.6062 31.6C34.3662 31.9733 34.9328 32.4867 35.3062 33.14C35.6928 33.7933 35.8862 34.5333 35.8862 35.36ZM30.7262 37.38C31.4995 37.38 32.0728 37.2067 32.4462 36.86C32.8195 36.5 33.0062 36 33.0062 35.36C33.0062 34 32.2462 33.32 30.7262 33.32H28.5062V37.38H30.7262ZM40.6741 35.64C41.0341 35.0533 41.5008 34.5933 42.0741 34.26C42.6608 33.9267 43.3275 33.76 44.0741 33.76V36.7H43.3341C42.4541 36.7 41.7875 36.9067 41.3341 37.32C40.8941 37.7333 40.6741 38.4533 40.6741 39.48V45H37.8741V33.92H40.6741V35.64ZM45.2401 39.42C45.2401 38.3 45.4601 37.3067 45.9001 36.44C46.3534 35.5733 46.9601 34.9067 47.7201 34.44C48.4934 33.9733 49.3534 33.74 50.3001 33.74C51.1267 33.74 51.8467 33.9067 52.4601 34.24C53.0867 34.5733 53.5867 34.9933 53.9601 35.5V33.92H56.7801V45H53.9601V43.38C53.6001 43.9 53.1001 44.3333 52.4601 44.68C51.8334 45.0133 51.1067 45.18 50.2801 45.18C49.3467 45.18 48.4934 44.94 47.7201 44.46C46.9601 43.98 46.3534 43.3067 45.9001 42.44C45.4601 41.56 45.2401 40.5533 45.2401 39.42ZM53.9601 39.46C53.9601 38.78 53.8267 38.2 53.5601 37.72C53.2934 37.2267 52.9334 36.8533 52.4801 36.6C52.0267 36.3333 51.5401 36.2 51.0201 36.2C50.5001 36.2 50.0201 36.3267 49.5801 36.58C49.1401 36.8333 48.7801 37.2067 48.5001 37.7C48.2334 38.18 48.1001 38.7533 48.1001 39.42C48.1001 40.0867 48.2334 40.6733 48.5001 41.18C48.7801 41.6733 49.1401 42.0533 49.5801 42.32C50.0334 42.5867 50.5134 42.72 51.0201 42.72C51.5401 42.72 52.0267 42.5933 52.4801 42.34C52.9334 42.0733 53.2934 41.7 53.5601 41.22C53.8267 40.7267 53.9601 40.14 53.9601 39.46ZM70.1148 33.92L63.2548 50.24H60.2748L62.6748 44.72L58.2348 33.92H61.3748L64.2348 41.66L67.1348 33.92H70.1148ZM81.9241 39.22C81.9241 39.62 81.8975 39.98 81.8441 40.3H73.7441C73.8108 41.1 74.0908 41.7267 74.5841 42.18C75.0775 42.6333 75.6841 42.86 76.4041 42.86C77.4441 42.86 78.1841 42.4133 78.6241 41.52H81.6441C81.3241 42.5867 80.7108 43.4667 79.8041 44.16C78.8975 44.84 77.7841 45.18 76.4641 45.18C75.3975 45.18 74.4375 44.9467 73.5841 44.48C72.7441 44 72.0841 43.3267 71.6041 42.46C71.1375 41.5933 70.9041 40.5933 70.9041 39.46C70.9041 38.3133 71.1375 37.3067 71.6041 36.44C72.0708 35.5733 72.7241 34.9067 73.5641 34.44C74.4041 33.9733 75.3708 33.74 76.4641 33.74C77.5175 33.74 78.4575 33.9667 79.2841 34.42C80.1241 34.8733 80.7708 35.52 81.2241 36.36C81.6908 37.1867 81.9241 38.14 81.9241 39.22ZM79.0241 38.42C79.0108 37.7 78.7508 37.1267 78.2441 36.7C77.7375 36.26 77.1175 36.04 76.3841 36.04C75.6908 36.04 75.1041 36.2533 74.6241 36.68C74.1575 37.0933 73.8708 37.6733 73.7641 38.42H79.0241ZM86.7679 35.64C87.1279 35.0533 87.5946 34.5933 88.1679 34.26C88.7546 33.9267 89.4212 33.76 90.1679 33.76V36.7H89.4279C88.5479 36.7 87.8812 36.9067 87.4279 37.32C86.9879 37.7333 86.7679 38.4533 86.7679 39.48V45H83.9679V33.92H86.7679V35.64Z" fill="white"/>
<path d="M27.1807 222.14C26.2607 222.14 25.434 221.98 24.7007 221.66C23.9807 221.327 23.414 220.873 23.0007 220.3C22.5874 219.713 22.374 219.04 22.3607 218.28H24.3007C24.3674 218.933 24.634 219.487 25.1007 219.94C25.5807 220.38 26.274 220.6 27.1807 220.6C28.0474 220.6 28.7274 220.387 29.2207 219.96C29.7274 219.52 29.9807 218.96 29.9807 218.28C29.9807 217.747 29.834 217.313 29.5407 216.98C29.2474 216.647 28.8807 216.393 28.4407 216.22C28.0007 216.047 27.4074 215.86 26.6607 215.66C25.7407 215.42 25.0007 215.18 24.4407 214.94C23.894 214.7 23.4207 214.327 23.0207 213.82C22.634 213.3 22.4407 212.607 22.4407 211.74C22.4407 210.98 22.634 210.307 23.0207 209.72C23.4074 209.133 23.9474 208.68 24.6407 208.36C25.3474 208.04 26.154 207.88 27.0607 207.88C28.3674 207.88 29.434 208.207 30.2607 208.86C31.1007 209.513 31.574 210.38 31.6807 211.46H29.6807C29.614 210.927 29.334 210.46 28.8407 210.06C28.3474 209.647 27.694 209.44 26.8807 209.44C26.1207 209.44 25.5007 209.64 25.0207 210.04C24.5407 210.427 24.3007 210.973 24.3007 211.68C24.3007 212.187 24.4407 212.6 24.7207 212.92C25.014 213.24 25.3674 213.487 25.7807 213.66C26.2074 213.82 26.8007 214.007 27.5607 214.22C28.4807 214.473 29.2207 214.727 29.7807 214.98C30.3407 215.22 30.8207 215.6 31.2207 216.12C31.6207 216.627 31.8207 217.32 31.8207 218.2C31.8207 218.88 31.6407 219.52 31.2807 220.12C30.9207 220.72 30.3874 221.207 29.6807 221.58C28.974 221.953 28.1407 222.14 27.1807 222.14ZM44.219 211.04V222H42.399V220.38C42.0523 220.94 41.5657 221.38 40.939 221.7C40.3257 222.007 39.6457 222.16 38.899 222.16C38.0457 222.16 37.279 221.987 36.599 221.64C35.919 221.28 35.379 220.747 34.979 220.04C34.5923 219.333 34.399 218.473 34.399 217.46V211.04H36.199V217.22C36.199 218.3 36.4723 219.133 37.019 219.72C37.5657 220.293 38.3123 220.58 39.259 220.58C40.2323 220.58 40.999 220.28 41.559 219.68C42.119 219.08 42.399 218.207 42.399 217.06V211.04H44.219ZM52.632 210.84C53.9653 210.84 55.0453 211.247 55.872 212.06C56.6986 212.86 57.112 214.02 57.112 215.54V222H55.312V215.8C55.312 214.707 55.0386 213.873 54.492 213.3C53.9453 212.713 53.1986 212.42 52.252 212.42C51.292 212.42 50.5253 212.72 49.952 213.32C49.392 213.92 49.112 214.793 49.112 215.94V222H47.292V211.04H49.112V212.6C49.472 212.04 49.9586 211.607 50.572 211.3C51.1986 210.993 51.8853 210.84 52.632 210.84ZM61.9049 212.82C62.2249 212.193 62.6783 211.707 63.2649 211.36C63.8649 211.013 64.5916 210.84 65.4449 210.84V212.72H64.9649C62.9249 212.72 61.9049 213.827 61.9049 216.04V222H60.0849V211.04H61.9049V212.82ZM68.4859 209.26C68.1392 209.26 67.8459 209.14 67.6059 208.9C67.3659 208.66 67.2459 208.367 67.2459 208.02C67.2459 207.673 67.3659 207.38 67.6059 207.14C67.8459 206.9 68.1392 206.78 68.4859 206.78C68.8192 206.78 69.0992 206.9 69.3259 207.14C69.5659 207.38 69.6859 207.673 69.6859 208.02C69.6859 208.367 69.5659 208.66 69.3259 208.9C69.0992 209.14 68.8192 209.26 68.4859 209.26ZM69.3659 211.04V222H67.5459V211.04H69.3659ZM76.3477 222.18C75.5077 222.18 74.7544 222.04 74.0877 221.76C73.4211 221.467 72.8944 221.067 72.5077 220.56C72.1211 220.04 71.9077 219.447 71.8677 218.78H73.7477C73.8011 219.327 74.0544 219.773 74.5077 220.12C74.9744 220.467 75.5811 220.64 76.3277 220.64C77.0211 220.64 77.5677 220.487 77.9677 220.18C78.3677 219.873 78.5677 219.487 78.5677 219.02C78.5677 218.54 78.3544 218.187 77.9277 217.96C77.5011 217.72 76.8411 217.487 75.9477 217.26C75.1344 217.047 74.4677 216.833 73.9477 216.62C73.4411 216.393 73.0011 216.067 72.6277 215.64C72.2677 215.2 72.0877 214.627 72.0877 213.92C72.0877 213.36 72.2544 212.847 72.5877 212.38C72.9211 211.913 73.3944 211.547 74.0077 211.28C74.6211 211 75.3211 210.86 76.1077 210.86C77.3211 210.86 78.3011 211.167 79.0477 211.78C79.7944 212.393 80.1944 213.233 80.2477 214.3H78.4277C78.3877 213.727 78.1544 213.267 77.7277 212.92C77.3144 212.573 76.7544 212.4 76.0477 212.4C75.3944 212.4 74.8744 212.54 74.4877 212.82C74.1011 213.1 73.9077 213.467 73.9077 213.92C73.9077 214.28 74.0211 214.58 74.2477 214.82C74.4877 215.047 74.7811 215.233 75.1277 215.38C75.4877 215.513 75.9811 215.667 76.6077 215.84C77.3944 216.053 78.0344 216.267 78.5277 216.48C79.0211 216.68 79.4411 216.987 79.7877 217.4C80.1477 217.813 80.3344 218.353 80.3477 219.02C80.3477 219.62 80.1811 220.16 79.8477 220.64C79.5144 221.12 79.0411 221.5 78.4277 221.78C77.8277 222.047 77.1344 222.18 76.3477 222.18ZM92.917 216.1C92.917 216.447 92.897 216.813 92.857 217.2H84.097C84.1636 218.28 84.5303 219.127 85.197 219.74C85.877 220.34 86.697 220.64 87.657 220.64C88.4436 220.64 89.097 220.46 89.617 220.1C90.1503 219.727 90.5236 219.233 90.737 218.62H92.697C92.4036 219.673 91.817 220.533 90.937 221.2C90.057 221.853 88.9636 222.18 87.657 222.18C86.617 222.18 85.6836 221.947 84.857 221.48C84.0436 221.013 83.4036 220.353 82.937 219.5C82.4703 218.633 82.237 217.633 82.237 216.5C82.237 215.367 82.4636 214.373 82.917 213.52C83.3703 212.667 84.0036 212.013 84.817 211.56C85.6436 211.093 86.5903 210.86 87.657 210.86C88.697 210.86 89.617 211.087 90.417 211.54C91.217 211.993 91.8303 212.62 92.257 213.42C92.697 214.207 92.917 215.1 92.917 216.1ZM91.037 215.72C91.037 215.027 90.8836 214.433 90.577 213.94C90.2703 213.433 89.8503 213.053 89.317 212.8C88.797 212.533 88.217 212.4 87.577 212.4C86.657 212.4 85.8703 212.693 85.217 213.28C84.577 213.867 84.2103 214.68 84.117 215.72H91.037Z" fill="#28004F"/>
<path d="M48.9122 114.06V115.54H42.8522V120.24H47.7722V121.72H42.8522V128H41.0322V114.06H48.9122ZM50.4303 122.48C50.4303 121.36 50.657 120.38 51.1103 119.54C51.5636 118.687 52.1836 118.027 52.9703 117.56C53.7703 117.093 54.657 116.86 55.6303 116.86C56.5903 116.86 57.4236 117.067 58.1303 117.48C58.837 117.893 59.3636 118.413 59.7103 119.04V117.04H61.5503V128H59.7103V125.96C59.3503 126.6 58.8103 127.133 58.0903 127.56C57.3836 127.973 56.557 128.18 55.6103 128.18C54.637 128.18 53.757 127.94 52.9703 127.46C52.1836 126.98 51.5636 126.307 51.1103 125.44C50.657 124.573 50.4303 123.587 50.4303 122.48ZM59.7103 122.5C59.7103 121.673 59.5436 120.953 59.2103 120.34C58.877 119.727 58.4236 119.26 57.8503 118.94C57.2903 118.607 56.6703 118.44 55.9903 118.44C55.3103 118.44 54.6903 118.6 54.1303 118.92C53.5703 119.24 53.1236 119.707 52.7903 120.32C52.457 120.933 52.2903 121.653 52.2903 122.48C52.2903 123.32 52.457 124.053 52.7903 124.68C53.1236 125.293 53.5703 125.767 54.1303 126.1C54.6903 126.42 55.3103 126.58 55.9903 126.58C56.6703 126.58 57.2903 126.42 57.8503 126.1C58.4236 125.767 58.877 125.293 59.2103 124.68C59.5436 124.053 59.7103 123.327 59.7103 122.5ZM65.6059 115.26C65.2593 115.26 64.9659 115.14 64.7259 114.9C64.4993 114.66 64.3859 114.367 64.3859 114.02C64.3859 113.673 64.4993 113.38 64.7259 113.14C64.9659 112.9 65.2593 112.78 65.6059 112.78C65.9526 112.78 66.2393 112.9 66.4659 113.14C66.7059 113.38 66.8259 113.673 66.8259 114.02C66.8259 114.367 66.7059 114.66 66.4659 114.9C66.2393 115.14 65.9526 115.26 65.6059 115.26ZM66.5059 130.38C66.5059 131.353 66.2593 132.067 65.7659 132.52C65.2726 132.973 64.5526 133.2 63.6059 133.2H62.5459V131.66H63.3059C63.8126 131.66 64.1659 131.56 64.3659 131.36C64.5793 131.16 64.6859 130.82 64.6859 130.34V117.04H66.5059V130.38ZM71.4069 118.82C71.7269 118.193 72.1802 117.707 72.7669 117.36C73.3669 117.013 74.0935 116.84 74.9469 116.84V118.72H74.4669C72.4269 118.72 71.4069 119.827 71.4069 122.04V128H69.5869V117.04H71.4069V118.82Z" fill="#28004F"/>
<path d="M154.637 124.12C154.77 124.88 155.077 125.467 155.557 125.88C156.05 126.293 156.71 126.5 157.537 126.5C158.643 126.5 159.457 126.067 159.977 125.2C160.51 124.333 160.763 122.873 160.737 120.82C160.457 121.42 159.99 121.893 159.337 122.24C158.683 122.573 157.957 122.74 157.157 122.74C156.263 122.74 155.463 122.56 154.757 122.2C154.063 121.827 153.517 121.287 153.117 120.58C152.717 119.873 152.517 119.02 152.517 118.02C152.517 116.593 152.93 115.447 153.757 114.58C154.583 113.7 155.757 113.26 157.277 113.26C159.143 113.26 160.45 113.867 161.197 115.08C161.957 116.293 162.337 118.1 162.337 120.5C162.337 122.18 162.183 123.567 161.877 124.66C161.583 125.753 161.077 126.587 160.357 127.16C159.65 127.733 158.677 128.02 157.437 128.02C156.077 128.02 155.017 127.653 154.257 126.92C153.497 126.187 153.063 125.253 152.957 124.12H154.637ZM157.457 121.2C158.35 121.2 159.083 120.927 159.657 120.38C160.23 119.82 160.517 119.067 160.517 118.12C160.517 117.12 160.237 116.313 159.677 115.7C159.117 115.087 158.33 114.78 157.317 114.78C156.383 114.78 155.637 115.073 155.077 115.66C154.53 116.247 154.257 117.02 154.257 117.98C154.257 118.953 154.53 119.733 155.077 120.32C155.623 120.907 156.417 121.2 157.457 121.2ZM165.774 128.12C165.428 128.12 165.134 128 164.894 127.76C164.654 127.52 164.534 127.227 164.534 126.88C164.534 126.533 164.654 126.24 164.894 126C165.134 125.76 165.428 125.64 165.774 125.64C166.108 125.64 166.388 125.76 166.614 126C166.854 126.24 166.974 126.533 166.974 126.88C166.974 127.227 166.854 127.52 166.614 127.76C166.388 128 166.108 128.12 165.774 128.12ZM165.774 119.56C165.428 119.56 165.134 119.44 164.894 119.2C164.654 118.96 164.534 118.667 164.534 118.32C164.534 117.973 164.654 117.68 164.894 117.44C165.134 117.2 165.428 117.08 165.774 117.08C166.108 117.08 166.388 117.2 166.614 117.44C166.854 117.68 166.974 117.973 166.974 118.32C166.974 118.667 166.854 118.96 166.614 119.2C166.388 119.44 166.108 119.56 165.774 119.56ZM168.672 115.2V113.54H172.432V128H170.592V115.2H168.672ZM175.338 126.54C177.032 125.18 178.358 124.067 179.318 123.2C180.278 122.32 181.085 121.407 181.738 120.46C182.405 119.5 182.738 118.56 182.738 117.64C182.738 116.773 182.525 116.093 182.098 115.6C181.685 115.093 181.012 114.84 180.078 114.84C179.172 114.84 178.465 115.127 177.958 115.7C177.465 116.26 177.198 117.013 177.158 117.96H175.398C175.452 116.467 175.905 115.313 176.758 114.5C177.612 113.687 178.712 113.28 180.058 113.28C181.432 113.28 182.518 113.66 183.318 114.42C184.132 115.18 184.538 116.227 184.538 117.56C184.538 118.667 184.205 119.747 183.538 120.8C182.885 121.84 182.138 122.76 181.298 123.56C180.458 124.347 179.385 125.267 178.078 126.32H184.958V127.84H175.338V126.54ZM189.182 119.06C189.542 118.433 190.076 117.913 190.782 117.5C191.502 117.073 192.336 116.86 193.282 116.86C194.256 116.86 195.136 117.093 195.922 117.56C196.722 118.027 197.349 118.687 197.802 119.54C198.256 120.38 198.482 121.36 198.482 122.48C198.482 123.587 198.256 124.573 197.802 125.44C197.349 126.307 196.722 126.98 195.922 127.46C195.136 127.94 194.256 128.18 193.282 128.18C192.349 128.18 191.522 127.973 190.802 127.56C190.096 127.133 189.556 126.607 189.182 125.98V133.2H187.362V117.04H189.182V119.06ZM196.622 122.48C196.622 121.653 196.456 120.933 196.122 120.32C195.789 119.707 195.336 119.24 194.762 118.92C194.202 118.6 193.582 118.44 192.902 118.44C192.236 118.44 191.616 118.607 191.042 118.94C190.482 119.26 190.029 119.733 189.682 120.36C189.349 120.973 189.182 121.687 189.182 122.5C189.182 123.327 189.349 124.053 189.682 124.68C190.029 125.293 190.482 125.767 191.042 126.1C191.616 126.42 192.236 126.58 192.902 126.58C193.582 126.58 194.202 126.42 194.762 126.1C195.336 125.767 195.789 125.293 196.122 124.68C196.456 124.053 196.622 123.32 196.622 122.48ZM214.058 116.84C214.911 116.84 215.671 117.02 216.338 117.38C217.005 117.727 217.531 118.253 217.918 118.96C218.305 119.667 218.498 120.527 218.498 121.54V128H216.698V121.8C216.698 120.707 216.425 119.873 215.878 119.3C215.345 118.713 214.618 118.42 213.698 118.42C212.751 118.42 211.998 118.727 211.438 119.34C210.878 119.94 210.598 120.813 210.598 121.96V128H208.798V121.8C208.798 120.707 208.525 119.873 207.978 119.3C207.445 118.713 206.718 118.42 205.798 118.42C204.851 118.42 204.098 118.727 203.538 119.34C202.978 119.94 202.698 120.813 202.698 121.96V128H200.878V117.04H202.698V118.62C203.058 118.047 203.538 117.607 204.138 117.3C204.751 116.993 205.425 116.84 206.158 116.84C207.078 116.84 207.891 117.047 208.598 117.46C209.305 117.873 209.831 118.48 210.178 119.28C210.485 118.507 210.991 117.907 211.698 117.48C212.405 117.053 213.191 116.84 214.058 116.84Z" fill="#28004F"/>
<path d="M279.609 124.12C279.743 124.88 280.049 125.467 280.529 125.88C281.023 126.293 281.683 126.5 282.509 126.5C283.616 126.5 284.429 126.067 284.949 125.2C285.483 124.333 285.736 122.873 285.709 120.82C285.429 121.42 284.963 121.893 284.309 122.24C283.656 122.573 282.929 122.74 282.129 122.74C281.236 122.74 280.436 122.56 279.729 122.2C279.036 121.827 278.489 121.287 278.089 120.58C277.689 119.873 277.489 119.02 277.489 118.02C277.489 116.593 277.903 115.447 278.729 114.58C279.556 113.7 280.729 113.26 282.249 113.26C284.116 113.26 285.423 113.867 286.169 115.08C286.929 116.293 287.309 118.1 287.309 120.5C287.309 122.18 287.156 123.567 286.849 124.66C286.556 125.753 286.049 126.587 285.329 127.16C284.623 127.733 283.649 128.02 282.409 128.02C281.049 128.02 279.989 127.653 279.229 126.92C278.469 126.187 278.036 125.253 277.929 124.12H279.609ZM282.429 121.2C283.323 121.2 284.056 120.927 284.629 120.38C285.203 119.82 285.489 119.067 285.489 118.12C285.489 117.12 285.209 116.313 284.649 115.7C284.089 115.087 283.303 114.78 282.289 114.78C281.356 114.78 280.609 115.073 280.049 115.66C279.503 116.247 279.229 117.02 279.229 117.98C279.229 118.953 279.503 119.733 280.049 120.32C280.596 120.907 281.389 121.2 282.429 121.2ZM290.747 128.12C290.4 128.12 290.107 128 289.867 127.76C289.627 127.52 289.507 127.227 289.507 126.88C289.507 126.533 289.627 126.24 289.867 126C290.107 125.76 290.4 125.64 290.747 125.64C291.08 125.64 291.36 125.76 291.587 126C291.827 126.24 291.947 126.533 291.947 126.88C291.947 127.227 291.827 127.52 291.587 127.76C291.36 128 291.08 128.12 290.747 128.12ZM290.747 119.56C290.4 119.56 290.107 119.44 289.867 119.2C289.627 118.96 289.507 118.667 289.507 118.32C289.507 117.973 289.627 117.68 289.867 117.44C290.107 117.2 290.4 117.08 290.747 117.08C291.08 117.08 291.36 117.2 291.587 117.44C291.827 117.68 291.947 117.973 291.947 118.32C291.947 118.667 291.827 118.96 291.587 119.2C291.36 119.44 291.08 119.56 290.747 119.56ZM293.645 115.2V113.54H297.405V128H295.565V115.2H293.645ZM309.751 115.12H302.731V119.68C303.038 119.253 303.491 118.907 304.091 118.64C304.691 118.36 305.338 118.22 306.031 118.22C307.138 118.22 308.038 118.453 308.731 118.92C309.424 119.373 309.918 119.967 310.211 120.7C310.518 121.42 310.671 122.187 310.671 123C310.671 123.96 310.491 124.82 310.131 125.58C309.771 126.34 309.218 126.94 308.471 127.38C307.738 127.82 306.824 128.04 305.731 128.04C304.331 128.04 303.198 127.68 302.331 126.96C301.464 126.24 300.938 125.28 300.751 124.08H302.531C302.704 124.84 303.071 125.433 303.631 125.86C304.191 126.287 304.898 126.5 305.751 126.5C306.804 126.5 307.598 126.187 308.131 125.56C308.664 124.92 308.931 124.08 308.931 123.04C308.931 122 308.664 121.2 308.131 120.64C307.598 120.067 306.811 119.78 305.771 119.78C305.064 119.78 304.444 119.953 303.911 120.3C303.391 120.633 303.011 121.093 302.771 121.68H301.051V113.52H309.751V115.12ZM315.21 119.06C315.57 118.433 316.103 117.913 316.81 117.5C317.53 117.073 318.363 116.86 319.31 116.86C320.283 116.86 321.163 117.093 321.95 117.56C322.75 118.027 323.376 118.687 323.83 119.54C324.283 120.38 324.51 121.36 324.51 122.48C324.51 123.587 324.283 124.573 323.83 125.44C323.376 126.307 322.75 126.98 321.95 127.46C321.163 127.94 320.283 128.18 319.31 128.18C318.376 128.18 317.55 127.973 316.83 127.56C316.123 127.133 315.583 126.607 315.21 125.98V133.2H313.39V117.04H315.21V119.06ZM322.65 122.48C322.65 121.653 322.483 120.933 322.15 120.32C321.816 119.707 321.363 119.24 320.79 118.92C320.23 118.6 319.61 118.44 318.93 118.44C318.263 118.44 317.643 118.607 317.07 118.94C316.51 119.26 316.056 119.733 315.71 120.36C315.376 120.973 315.21 121.687 315.21 122.5C315.21 123.327 315.376 124.053 315.71 124.68C316.056 125.293 316.51 125.767 317.07 126.1C317.643 126.42 318.263 126.58 318.93 126.58C319.61 126.58 320.23 126.42 320.79 126.1C321.363 125.767 321.816 125.293 322.15 124.68C322.483 124.053 322.65 123.32 322.65 122.48ZM340.085 116.84C340.939 116.84 341.699 117.02 342.365 117.38C343.032 117.727 343.559 118.253 343.945 118.96C344.332 119.667 344.525 120.527 344.525 121.54V128H342.725V121.8C342.725 120.707 342.452 119.873 341.905 119.3C341.372 118.713 340.645 118.42 339.725 118.42C338.779 118.42 338.025 118.727 337.465 119.34C336.905 119.94 336.625 120.813 336.625 121.96V128H334.825V121.8C334.825 120.707 334.552 119.873 334.005 119.3C333.472 118.713 332.745 118.42 331.825 118.42C330.879 118.42 330.125 118.727 329.565 119.34C329.005 119.94 328.725 120.813 328.725 121.96V128H326.905V117.04H328.725V118.62C329.085 118.047 329.565 117.607 330.165 117.3C330.779 116.993 331.452 116.84 332.185 116.84C333.105 116.84 333.919 117.047 334.625 117.46C335.332 117.873 335.859 118.48 336.205 119.28C336.512 118.507 337.019 117.907 337.725 117.48C338.432 117.053 339.219 116.84 340.085 116.84Z" fill="#28004F"/>
<path d="M215.182 209.2V207.54H218.942V222H217.102V209.2H215.182ZM222.068 214.62C222.068 212.327 222.441 210.54 223.188 209.26C223.935 207.967 225.241 207.32 227.108 207.32C228.961 207.32 230.261 207.967 231.008 209.26C231.755 210.54 232.128 212.327 232.128 214.62C232.128 216.953 231.755 218.767 231.008 220.06C230.261 221.353 228.961 222 227.108 222C225.241 222 223.935 221.353 223.188 220.06C222.441 218.767 222.068 216.953 222.068 214.62ZM230.328 214.62C230.328 213.46 230.248 212.48 230.088 211.68C229.941 210.867 229.628 210.213 229.148 209.72C228.681 209.227 228.001 208.98 227.108 208.98C226.201 208.98 225.508 209.227 225.028 209.72C224.561 210.213 224.248 210.867 224.088 211.68C223.941 212.48 223.868 213.46 223.868 214.62C223.868 215.82 223.941 216.827 224.088 217.64C224.248 218.453 224.561 219.107 225.028 219.6C225.508 220.093 226.201 220.34 227.108 220.34C228.001 220.34 228.681 220.093 229.148 219.6C229.628 219.107 229.941 218.453 230.088 217.64C230.248 216.827 230.328 215.82 230.328 214.62ZM235.507 222.12C235.16 222.12 234.867 222 234.627 221.76C234.387 221.52 234.267 221.227 234.267 220.88C234.267 220.533 234.387 220.24 234.627 220C234.867 219.76 235.16 219.64 235.507 219.64C235.84 219.64 236.12 219.76 236.347 220C236.587 220.24 236.707 220.533 236.707 220.88C236.707 221.227 236.587 221.52 236.347 221.76C236.12 222 235.84 222.12 235.507 222.12ZM235.507 213.56C235.16 213.56 234.867 213.44 234.627 213.2C234.387 212.96 234.267 212.667 234.267 212.32C234.267 211.973 234.387 211.68 234.627 211.44C234.867 211.2 235.16 211.08 235.507 211.08C235.84 211.08 236.12 211.2 236.347 211.44C236.587 211.68 236.707 211.973 236.707 212.32C236.707 212.667 236.587 212.96 236.347 213.2C236.12 213.44 235.84 213.56 235.507 213.56ZM238.405 209.2V207.54H242.165V222H240.325V209.2H238.405ZM244.811 209.2V207.54H248.571V222H246.731V209.2H244.811ZM253.817 213.06C254.177 212.433 254.71 211.913 255.417 211.5C256.137 211.073 256.97 210.86 257.917 210.86C258.89 210.86 259.77 211.093 260.557 211.56C261.357 212.027 261.984 212.687 262.437 213.54C262.89 214.38 263.117 215.36 263.117 216.48C263.117 217.587 262.89 218.573 262.437 219.44C261.984 220.307 261.357 220.98 260.557 221.46C259.77 221.94 258.89 222.18 257.917 222.18C256.984 222.18 256.157 221.973 255.437 221.56C254.73 221.133 254.19 220.607 253.817 219.98V227.2H251.997V211.04H253.817V213.06ZM261.257 216.48C261.257 215.653 261.09 214.933 260.757 214.32C260.424 213.707 259.97 213.24 259.397 212.92C258.837 212.6 258.217 212.44 257.537 212.44C256.87 212.44 256.25 212.607 255.677 212.94C255.117 213.26 254.664 213.733 254.317 214.36C253.984 214.973 253.817 215.687 253.817 216.5C253.817 217.327 253.984 218.053 254.317 218.68C254.664 219.293 255.117 219.767 255.677 220.1C256.25 220.42 256.87 220.58 257.537 220.58C258.217 220.58 258.837 220.42 259.397 220.1C259.97 219.767 260.424 219.293 260.757 218.68C261.09 218.053 261.257 217.32 261.257 216.48ZM278.693 210.84C279.546 210.84 280.306 211.02 280.973 211.38C281.639 211.727 282.166 212.253 282.553 212.96C282.939 213.667 283.133 214.527 283.133 215.54V222H281.333V215.8C281.333 214.707 281.059 213.873 280.513 213.3C279.979 212.713 279.253 212.42 278.333 212.42C277.386 212.42 276.633 212.727 276.073 213.34C275.513 213.94 275.233 214.813 275.233 215.96V222H273.433V215.8C273.433 214.707 273.159 213.873 272.613 213.3C272.079 212.713 271.353 212.42 270.433 212.42C269.486 212.42 268.733 212.727 268.173 213.34C267.613 213.94 267.333 214.813 267.333 215.96V222H265.513V211.04H267.333V212.62C267.693 212.047 268.173 211.607 268.773 211.3C269.386 210.993 270.059 210.84 270.793 210.84C271.713 210.84 272.526 211.047 273.233 211.46C273.939 211.873 274.466 212.48 274.813 213.28C275.119 212.507 275.626 211.907 276.333 211.48C277.039 211.053 277.826 210.84 278.693 210.84Z" fill="#28004F"/>
<path d="M150.829 312.78V311.4L157.849 301.68H160.029V311.2H162.029V312.78H160.029V316H158.229V312.78H150.829ZM158.309 303.58L152.929 311.2H158.309V303.58ZM164.727 316.12C164.381 316.12 164.087 316 163.847 315.76C163.607 315.52 163.487 315.227 163.487 314.88C163.487 314.533 163.607 314.24 163.847 314C164.087 313.76 164.381 313.64 164.727 313.64C165.061 313.64 165.341 313.76 165.567 314C165.807 314.24 165.927 314.533 165.927 314.88C165.927 315.227 165.807 315.52 165.567 315.76C165.341 316 165.061 316.12 164.727 316.12ZM164.727 307.56C164.381 307.56 164.087 307.44 163.847 307.2C163.607 306.96 163.487 306.667 163.487 306.32C163.487 305.973 163.607 305.68 163.847 305.44C164.087 305.2 164.381 305.08 164.727 305.08C165.061 305.08 165.341 305.2 165.567 305.44C165.807 305.68 165.927 305.973 165.927 306.32C165.927 306.667 165.807 306.96 165.567 307.2C165.341 307.44 165.061 307.56 164.727 307.56ZM167.625 303.2V301.54H171.385V316H169.545V303.2H167.625ZM174.071 312.78V311.4L181.091 301.68H183.271V311.2H185.271V312.78H183.271V316H181.471V312.78H174.071ZM181.551 303.58L176.171 311.2H181.551V303.58ZM186.71 310.48C186.71 309.36 186.936 308.38 187.39 307.54C187.843 306.687 188.463 306.027 189.25 305.56C190.05 305.093 190.936 304.86 191.91 304.86C192.87 304.86 193.703 305.067 194.41 305.48C195.116 305.893 195.643 306.413 195.99 307.04V305.04H197.83V316H195.99V313.96C195.63 314.6 195.09 315.133 194.37 315.56C193.663 315.973 192.836 316.18 191.89 316.18C190.916 316.18 190.036 315.94 189.25 315.46C188.463 314.98 187.843 314.307 187.39 313.44C186.936 312.573 186.71 311.587 186.71 310.48ZM195.99 310.5C195.99 309.673 195.823 308.953 195.49 308.34C195.156 307.727 194.703 307.26 194.13 306.94C193.57 306.607 192.95 306.44 192.27 306.44C191.59 306.44 190.97 306.6 190.41 306.92C189.85 307.24 189.403 307.707 189.07 308.32C188.736 308.933 188.57 309.653 188.57 310.48C188.57 311.32 188.736 312.053 189.07 312.68C189.403 313.293 189.85 313.767 190.41 314.1C190.97 314.42 191.59 314.58 192.27 314.58C192.95 314.58 193.57 314.42 194.13 314.1C194.703 313.767 195.156 313.293 195.49 312.68C195.823 312.053 195.99 311.327 195.99 310.5ZM214.085 304.84C214.939 304.84 215.699 305.02 216.365 305.38C217.032 305.727 217.559 306.253 217.945 306.96C218.332 307.667 218.525 308.527 218.525 309.54V316H216.725V309.8C216.725 308.707 216.452 307.873 215.905 307.3C215.372 306.713 214.645 306.42 213.725 306.42C212.779 306.42 212.025 306.727 211.465 307.34C210.905 307.94 210.625 308.813 210.625 309.96V316H208.825V309.8C208.825 308.707 208.552 307.873 208.005 307.3C207.472 306.713 206.745 306.42 205.825 306.42C204.879 306.42 204.125 306.727 203.565 307.34C203.005 307.94 202.725 308.813 202.725 309.96V316H200.905V305.04H202.725V306.62C203.085 306.047 203.565 305.607 204.165 305.3C204.779 304.993 205.452 304.84 206.185 304.84C207.105 304.84 207.919 305.047 208.625 305.46C209.332 305.873 209.859 306.48 210.205 307.28C210.512 306.507 211.019 305.907 211.725 305.48C212.432 305.053 213.219 304.84 214.085 304.84Z" fill="#28004F"/>
<path d="M155.324 396.96L149.764 410H147.924L153.564 397.14H145.844V395.58H155.324V396.96ZM158.222 410.12C157.875 410.12 157.582 410 157.342 409.76C157.102 409.52 156.982 409.227 156.982 408.88C156.982 408.533 157.102 408.24 157.342 408C157.582 407.76 157.875 407.64 158.222 407.64C158.555 407.64 158.835 407.76 159.062 408C159.302 408.24 159.422 408.533 159.422 408.88C159.422 409.227 159.302 409.52 159.062 409.76C158.835 410 158.555 410.12 158.222 410.12ZM158.222 401.56C157.875 401.56 157.582 401.44 157.342 401.2C157.102 400.96 156.982 400.667 156.982 400.32C156.982 399.973 157.102 399.68 157.342 399.44C157.582 399.2 157.875 399.08 158.222 399.08C158.555 399.08 158.835 399.2 159.062 399.44C159.302 399.68 159.422 399.973 159.422 400.32C159.422 400.667 159.302 400.96 159.062 401.2C158.835 401.44 158.555 401.56 158.222 401.56ZM161.559 399.18C161.653 397.953 162.126 396.993 162.979 396.3C163.833 395.607 164.939 395.26 166.299 395.26C167.206 395.26 167.986 395.427 168.639 395.76C169.306 396.08 169.806 396.52 170.139 397.08C170.486 397.64 170.659 398.273 170.659 398.98C170.659 399.807 170.419 400.52 169.939 401.12C169.473 401.72 168.859 402.107 168.099 402.28V402.38C168.966 402.593 169.653 403.013 170.159 403.64C170.666 404.267 170.919 405.087 170.919 406.1C170.919 406.86 170.746 407.547 170.399 408.16C170.053 408.76 169.533 409.233 168.839 409.58C168.146 409.927 167.313 410.1 166.339 410.1C164.926 410.1 163.766 409.733 162.859 409C161.953 408.253 161.446 407.2 161.339 405.84H163.099C163.193 406.64 163.519 407.293 164.079 407.8C164.639 408.307 165.386 408.56 166.319 408.56C167.253 408.56 167.959 408.32 168.439 407.84C168.933 407.347 169.179 406.713 169.179 405.94C169.179 404.94 168.846 404.22 168.179 403.78C167.513 403.34 166.506 403.12 165.159 403.12H164.699V401.6H165.179C166.406 401.587 167.333 401.387 167.959 401C168.586 400.6 168.899 399.987 168.899 399.16C168.899 398.453 168.666 397.887 168.199 397.46C167.746 397.033 167.093 396.82 166.239 396.82C165.413 396.82 164.746 397.033 164.239 397.46C163.733 397.887 163.433 398.46 163.339 399.18H161.559ZM182.597 397.12H175.577V401.68C175.883 401.253 176.337 400.907 176.937 400.64C177.537 400.36 178.183 400.22 178.877 400.22C179.983 400.22 180.883 400.453 181.577 400.92C182.27 401.373 182.763 401.967 183.057 402.7C183.363 403.42 183.517 404.187 183.517 405C183.517 405.96 183.337 406.82 182.977 407.58C182.617 408.34 182.063 408.94 181.317 409.38C180.583 409.82 179.67 410.04 178.577 410.04C177.177 410.04 176.043 409.68 175.177 408.96C174.31 408.24 173.783 407.28 173.597 406.08H175.377C175.55 406.84 175.917 407.433 176.477 407.86C177.037 408.287 177.743 408.5 178.597 408.5C179.65 408.5 180.443 408.187 180.977 407.56C181.51 406.92 181.777 406.08 181.777 405.04C181.777 404 181.51 403.2 180.977 402.64C180.443 402.067 179.657 401.78 178.617 401.78C177.91 401.78 177.29 401.953 176.757 402.3C176.237 402.633 175.857 403.093 175.617 403.68H173.897V395.52H182.597V397.12ZM185.555 404.48C185.555 403.36 185.782 402.38 186.235 401.54C186.689 400.687 187.309 400.027 188.095 399.56C188.895 399.093 189.782 398.86 190.755 398.86C191.715 398.86 192.549 399.067 193.255 399.48C193.962 399.893 194.489 400.413 194.835 401.04V399.04H196.675V410H194.835V407.96C194.475 408.6 193.935 409.133 193.215 409.56C192.509 409.973 191.682 410.18 190.735 410.18C189.762 410.18 188.882 409.94 188.095 409.46C187.309 408.98 186.689 408.307 186.235 407.44C185.782 406.573 185.555 405.587 185.555 404.48ZM194.835 404.5C194.835 403.673 194.669 402.953 194.335 402.34C194.002 401.727 193.549 401.26 192.975 400.94C192.415 400.607 191.795 400.44 191.115 400.44C190.435 400.44 189.815 400.6 189.255 400.92C188.695 401.24 188.249 401.707 187.915 402.32C187.582 402.933 187.415 403.653 187.415 404.48C187.415 405.32 187.582 406.053 187.915 406.68C188.249 407.293 188.695 407.767 189.255 408.1C189.815 408.42 190.435 408.58 191.115 408.58C191.795 408.58 192.415 408.42 192.975 408.1C193.549 407.767 194.002 407.293 194.335 406.68C194.669 406.053 194.835 405.327 194.835 404.5ZM212.931 398.84C213.784 398.84 214.544 399.02 215.211 399.38C215.878 399.727 216.404 400.253 216.791 400.96C217.178 401.667 217.371 402.527 217.371 403.54V410H215.571V403.8C215.571 402.707 215.298 401.873 214.751 401.3C214.218 400.713 213.491 400.42 212.571 400.42C211.624 400.42 210.871 400.727 210.311 401.34C209.751 401.94 209.471 402.813 209.471 403.96V410H207.671V403.8C207.671 402.707 207.398 401.873 206.851 401.3C206.318 400.713 205.591 400.42 204.671 400.42C203.724 400.42 202.971 400.727 202.411 401.34C201.851 401.94 201.571 402.813 201.571 403.96V410H199.751V399.04H201.571V400.62C201.931 400.047 202.411 399.607 203.011 399.3C203.624 398.993 204.298 398.84 205.031 398.84C205.951 398.84 206.764 399.047 207.471 399.46C208.178 399.873 208.704 400.48 209.051 401.28C209.358 400.507 209.864 399.907 210.571 399.48C211.278 399.053 212.064 398.84 212.931 398.84Z" fill="#28004F"/>
<path d="M278.159 312.78V311.4L285.179 301.68H287.359V311.2H289.359V312.78H287.359V316H285.559V312.78H278.159ZM285.639 303.58L280.259 311.2H285.639V303.58ZM292.058 316.12C291.711 316.12 291.418 316 291.178 315.76C290.938 315.52 290.818 315.227 290.818 314.88C290.818 314.533 290.938 314.24 291.178 314C291.418 313.76 291.711 313.64 292.058 313.64C292.391 313.64 292.671 313.76 292.898 314C293.138 314.24 293.258 314.533 293.258 314.88C293.258 315.227 293.138 315.52 292.898 315.76C292.671 316 292.391 316.12 292.058 316.12ZM292.058 307.56C291.711 307.56 291.418 307.44 291.178 307.2C290.938 306.96 290.818 306.667 290.818 306.32C290.818 305.973 290.938 305.68 291.178 305.44C291.418 305.2 291.711 305.08 292.058 305.08C292.391 305.08 292.671 305.2 292.898 305.44C293.138 305.68 293.258 305.973 293.258 306.32C293.258 306.667 293.138 306.96 292.898 307.2C292.671 307.44 292.391 307.56 292.058 307.56ZM294.955 303.2V301.54H298.715V316H296.875V303.2H294.955ZM310.742 302.96L305.182 316H303.342L308.982 303.14H301.262V301.58H310.742V302.96ZM312.38 310.48C312.38 309.36 312.606 308.38 313.06 307.54C313.513 306.687 314.133 306.027 314.92 305.56C315.72 305.093 316.606 304.86 317.58 304.86C318.54 304.86 319.373 305.067 320.08 305.48C320.786 305.893 321.313 306.413 321.66 307.04V305.04H323.5V316H321.66V313.96C321.3 314.6 320.76 315.133 320.04 315.56C319.333 315.973 318.506 316.18 317.56 316.18C316.586 316.18 315.706 315.94 314.92 315.46C314.133 314.98 313.513 314.307 313.06 313.44C312.606 312.573 312.38 311.587 312.38 310.48ZM321.66 310.5C321.66 309.673 321.493 308.953 321.16 308.34C320.826 307.727 320.373 307.26 319.8 306.94C319.24 306.607 318.62 306.44 317.94 306.44C317.26 306.44 316.64 306.6 316.08 306.92C315.52 307.24 315.073 307.707 314.74 308.32C314.406 308.933 314.24 309.653 314.24 310.48C314.24 311.32 314.406 312.053 314.74 312.68C315.073 313.293 315.52 313.767 316.08 314.1C316.64 314.42 317.26 314.58 317.94 314.58C318.62 314.58 319.24 314.42 319.8 314.1C320.373 313.767 320.826 313.293 321.16 312.68C321.493 312.053 321.66 311.327 321.66 310.5ZM339.755 304.84C340.608 304.84 341.368 305.02 342.035 305.38C342.702 305.727 343.228 306.253 343.615 306.96C344.002 307.667 344.195 308.527 344.195 309.54V316H342.395V309.8C342.395 308.707 342.122 307.873 341.575 307.3C341.042 306.713 340.315 306.42 339.395 306.42C338.448 306.42 337.695 306.727 337.135 307.34C336.575 307.94 336.295 308.813 336.295 309.96V316H334.495V309.8C334.495 308.707 334.222 307.873 333.675 307.3C333.142 306.713 332.415 306.42 331.495 306.42C330.548 306.42 329.795 306.727 329.235 307.34C328.675 307.94 328.395 308.813 328.395 309.96V316H326.575V305.04H328.395V306.62C328.755 306.047 329.235 305.607 329.835 305.3C330.448 304.993 331.122 304.84 331.855 304.84C332.775 304.84 333.588 305.047 334.295 305.46C335.002 305.873 335.528 306.48 335.875 307.28C336.182 306.507 336.688 305.907 337.395 305.48C338.102 305.053 338.888 304.84 339.755 304.84Z" fill="#28004F"/>
<path d="M281.294 396.96L275.734 410H273.894L279.534 397.14H271.814V395.58H281.294V396.96ZM284.192 410.12C283.846 410.12 283.552 410 283.312 409.76C283.072 409.52 282.952 409.227 282.952 408.88C282.952 408.533 283.072 408.24 283.312 408C283.552 407.76 283.846 407.64 284.192 407.64C284.526 407.64 284.806 407.76 285.032 408C285.272 408.24 285.392 408.533 285.392 408.88C285.392 409.227 285.272 409.52 285.032 409.76C284.806 410 284.526 410.12 284.192 410.12ZM284.192 401.56C283.846 401.56 283.552 401.44 283.312 401.2C283.072 400.96 282.952 400.667 282.952 400.32C282.952 399.973 283.072 399.68 283.312 399.44C283.552 399.2 283.846 399.08 284.192 399.08C284.526 399.08 284.806 399.2 285.032 399.44C285.272 399.68 285.392 399.973 285.392 400.32C285.392 400.667 285.272 400.96 285.032 401.2C284.806 401.44 284.526 401.56 284.192 401.56ZM287.53 399.18C287.623 397.953 288.097 396.993 288.95 396.3C289.803 395.607 290.91 395.26 292.27 395.26C293.177 395.26 293.957 395.427 294.61 395.76C295.277 396.08 295.777 396.52 296.11 397.08C296.457 397.64 296.63 398.273 296.63 398.98C296.63 399.807 296.39 400.52 295.91 401.12C295.443 401.72 294.83 402.107 294.07 402.28V402.38C294.937 402.593 295.623 403.013 296.13 403.64C296.637 404.267 296.89 405.087 296.89 406.1C296.89 406.86 296.717 407.547 296.37 408.16C296.023 408.76 295.503 409.233 294.81 409.58C294.117 409.927 293.283 410.1 292.31 410.1C290.897 410.1 289.737 409.733 288.83 409C287.923 408.253 287.417 407.2 287.31 405.84H289.07C289.163 406.64 289.49 407.293 290.05 407.8C290.61 408.307 291.357 408.56 292.29 408.56C293.223 408.56 293.93 408.32 294.41 407.84C294.903 407.347 295.15 406.713 295.15 405.94C295.15 404.94 294.817 404.22 294.15 403.78C293.483 403.34 292.477 403.12 291.13 403.12H290.67V401.6H291.15C292.377 401.587 293.303 401.387 293.93 401C294.557 400.6 294.87 399.987 294.87 399.16C294.87 398.453 294.637 397.887 294.17 397.46C293.717 397.033 293.063 396.82 292.21 396.82C291.383 396.82 290.717 397.033 290.21 397.46C289.703 397.887 289.403 398.46 289.31 399.18H287.53ZM301.987 402.48C301.241 402.187 300.667 401.76 300.267 401.2C299.867 400.64 299.667 399.96 299.667 399.16C299.667 398.44 299.847 397.793 300.207 397.22C300.567 396.633 301.101 396.173 301.807 395.84C302.527 395.493 303.394 395.32 304.407 395.32C305.421 395.32 306.281 395.493 306.987 395.84C307.707 396.173 308.247 396.633 308.607 397.22C308.981 397.793 309.167 398.44 309.167 399.16C309.167 399.933 308.961 400.613 308.547 401.2C308.134 401.773 307.567 402.2 306.847 402.48C307.674 402.733 308.327 403.18 308.807 403.82C309.301 404.447 309.547 405.207 309.547 406.1C309.547 406.967 309.334 407.727 308.907 408.38C308.481 409.02 307.874 409.52 307.087 409.88C306.314 410.227 305.421 410.4 304.407 410.4C303.394 410.4 302.501 410.227 301.727 409.88C300.967 409.52 300.374 409.02 299.947 408.38C299.521 407.727 299.307 406.967 299.307 406.1C299.307 405.207 299.547 404.44 300.027 403.8C300.507 403.16 301.161 402.72 301.987 402.48ZM307.407 399.38C307.407 398.567 307.141 397.94 306.607 397.5C306.074 397.06 305.341 396.84 304.407 396.84C303.487 396.84 302.761 397.06 302.227 397.5C301.694 397.94 301.427 398.573 301.427 399.4C301.427 400.147 301.701 400.747 302.247 401.2C302.807 401.653 303.527 401.88 304.407 401.88C305.301 401.88 306.021 401.653 306.567 401.2C307.127 400.733 307.407 400.127 307.407 399.38ZM304.407 403.28C303.421 403.28 302.614 403.513 301.987 403.98C301.361 404.433 301.047 405.12 301.047 406.04C301.047 406.893 301.347 407.58 301.947 408.1C302.561 408.62 303.381 408.88 304.407 408.88C305.434 408.88 306.247 408.62 306.847 408.1C307.447 407.58 307.747 406.893 307.747 406.04C307.747 405.147 307.441 404.467 306.827 404C306.214 403.52 305.407 403.28 304.407 403.28ZM311.585 404.48C311.585 403.36 311.811 402.38 312.265 401.54C312.718 400.687 313.338 400.027 314.125 399.56C314.925 399.093 315.811 398.86 316.785 398.86C317.745 398.86 318.578 399.067 319.285 399.48C319.991 399.893 320.518 400.413 320.865 401.04V399.04H322.705V410H320.865V407.96C320.505 408.6 319.965 409.133 319.245 409.56C318.538 409.973 317.711 410.18 316.765 410.18C315.791 410.18 314.911 409.94 314.125 409.46C313.338 408.98 312.718 408.307 312.265 407.44C311.811 406.573 311.585 405.587 311.585 404.48ZM320.865 404.5C320.865 403.673 320.698 402.953 320.365 402.34C320.031 401.727 319.578 401.26 319.005 400.94C318.445 400.607 317.825 400.44 317.145 400.44C316.465 400.44 315.845 400.6 315.285 400.92C314.725 401.24 314.278 401.707 313.945 402.32C313.611 402.933 313.445 403.653 313.445 404.48C313.445 405.32 313.611 406.053 313.945 406.68C314.278 407.293 314.725 407.767 315.285 408.1C315.845 408.42 316.465 408.58 317.145 408.58C317.825 408.58 318.445 408.42 319.005 408.1C319.578 407.767 320.031 407.293 320.365 406.68C320.698 406.053 320.865 405.327 320.865 404.5ZM338.96 398.84C339.814 398.84 340.574 399.02 341.24 399.38C341.907 399.727 342.434 400.253 342.82 400.96C343.207 401.667 343.4 402.527 343.4 403.54V410H341.6V403.8C341.6 402.707 341.327 401.873 340.78 401.3C340.247 400.713 339.52 400.42 338.6 400.42C337.654 400.42 336.9 400.727 336.34 401.34C335.78 401.94 335.5 402.813 335.5 403.96V410H333.7V403.8C333.7 402.707 333.427 401.873 332.88 401.3C332.347 400.713 331.62 400.42 330.7 400.42C329.754 400.42 329 400.727 328.44 401.34C327.88 401.94 327.6 402.813 327.6 403.96V410H325.78V399.04H327.6V400.62C327.96 400.047 328.44 399.607 329.04 399.3C329.654 398.993 330.327 398.84 331.06 398.84C331.98 398.84 332.794 399.047 333.5 399.46C334.207 399.873 334.734 400.48 335.08 401.28C335.387 400.507 335.894 399.907 336.6 399.48C337.307 399.053 338.094 398.84 338.96 398.84Z" fill="#28004F"/>
<path d="M148.076 494.2V492.54H151.836V507H149.996V494.2H148.076ZM154.963 499.62C154.963 497.327 155.336 495.54 156.083 494.26C156.829 492.967 158.136 492.32 160.003 492.32C161.856 492.32 163.156 492.967 163.903 494.26C164.649 495.54 165.023 497.327 165.023 499.62C165.023 501.953 164.649 503.767 163.903 505.06C163.156 506.353 161.856 507 160.003 507C158.136 507 156.829 506.353 156.083 505.06C155.336 503.767 154.963 501.953 154.963 499.62ZM163.223 499.62C163.223 498.46 163.143 497.48 162.983 496.68C162.836 495.867 162.523 495.213 162.043 494.72C161.576 494.227 160.896 493.98 160.003 493.98C159.096 493.98 158.403 494.227 157.923 494.72C157.456 495.213 157.143 495.867 156.983 496.68C156.836 497.48 156.763 498.46 156.763 499.62C156.763 500.82 156.836 501.827 156.983 502.64C157.143 503.453 157.456 504.107 157.923 504.6C158.403 505.093 159.096 505.34 160.003 505.34C160.896 505.34 161.576 505.093 162.043 504.6C162.523 504.107 162.836 503.453 162.983 502.64C163.143 501.827 163.223 500.82 163.223 499.62ZM168.401 507.12C168.055 507.12 167.761 507 167.521 506.76C167.281 506.52 167.161 506.227 167.161 505.88C167.161 505.533 167.281 505.24 167.521 505C167.761 504.76 168.055 504.64 168.401 504.64C168.735 504.64 169.015 504.76 169.241 505C169.481 505.24 169.601 505.533 169.601 505.88C169.601 506.227 169.481 506.52 169.241 506.76C169.015 507 168.735 507.12 168.401 507.12ZM168.401 498.56C168.055 498.56 167.761 498.44 167.521 498.2C167.281 497.96 167.161 497.667 167.161 497.32C167.161 496.973 167.281 496.68 167.521 496.44C167.761 496.2 168.055 496.08 168.401 496.08C168.735 496.08 169.015 496.2 169.241 496.44C169.481 496.68 169.601 496.973 169.601 497.32C169.601 497.667 169.481 497.96 169.241 498.2C169.015 498.44 168.735 498.56 168.401 498.56ZM171.299 494.2V492.54H175.059V507H173.219V494.2H171.299ZM180.825 499.48C180.079 499.187 179.505 498.76 179.105 498.2C178.705 497.64 178.505 496.96 178.505 496.16C178.505 495.44 178.685 494.793 179.045 494.22C179.405 493.633 179.939 493.173 180.645 492.84C181.365 492.493 182.232 492.32 183.245 492.32C184.259 492.32 185.119 492.493 185.825 492.84C186.545 493.173 187.085 493.633 187.445 494.22C187.819 494.793 188.005 495.44 188.005 496.16C188.005 496.933 187.799 497.613 187.385 498.2C186.972 498.773 186.405 499.2 185.685 499.48C186.512 499.733 187.165 500.18 187.645 500.82C188.139 501.447 188.385 502.207 188.385 503.1C188.385 503.967 188.172 504.727 187.745 505.38C187.319 506.02 186.712 506.52 185.925 506.88C185.152 507.227 184.259 507.4 183.245 507.4C182.232 507.4 181.339 507.227 180.565 506.88C179.805 506.52 179.212 506.02 178.785 505.38C178.359 504.727 178.145 503.967 178.145 503.1C178.145 502.207 178.385 501.44 178.865 500.8C179.345 500.16 179.999 499.72 180.825 499.48ZM186.245 496.38C186.245 495.567 185.979 494.94 185.445 494.5C184.912 494.06 184.179 493.84 183.245 493.84C182.325 493.84 181.599 494.06 181.065 494.5C180.532 494.94 180.265 495.573 180.265 496.4C180.265 497.147 180.539 497.747 181.085 498.2C181.645 498.653 182.365 498.88 183.245 498.88C184.139 498.88 184.859 498.653 185.405 498.2C185.965 497.733 186.245 497.127 186.245 496.38ZM183.245 500.28C182.259 500.28 181.452 500.513 180.825 500.98C180.199 501.433 179.885 502.12 179.885 503.04C179.885 503.893 180.185 504.58 180.785 505.1C181.399 505.62 182.219 505.88 183.245 505.88C184.272 505.88 185.085 505.62 185.685 505.1C186.285 504.58 186.585 503.893 186.585 503.04C186.585 502.147 186.279 501.467 185.665 501C185.052 500.52 184.245 500.28 183.245 500.28ZM190.423 501.48C190.423 500.36 190.649 499.38 191.103 498.54C191.556 497.687 192.176 497.027 192.963 496.56C193.763 496.093 194.649 495.86 195.623 495.86C196.583 495.86 197.416 496.067 198.123 496.48C198.829 496.893 199.356 497.413 199.703 498.04V496.04H201.543V507H199.703V504.96C199.343 505.6 198.803 506.133 198.083 506.56C197.376 506.973 196.549 507.18 195.603 507.18C194.629 507.18 193.749 506.94 192.963 506.46C192.176 505.98 191.556 505.307 191.103 504.44C190.649 503.573 190.423 502.587 190.423 501.48ZM199.703 501.5C199.703 500.673 199.536 499.953 199.203 499.34C198.869 498.727 198.416 498.26 197.843 497.94C197.283 497.607 196.663 497.44 195.983 497.44C195.303 497.44 194.683 497.6 194.123 497.92C193.563 498.24 193.116 498.707 192.783 499.32C192.449 499.933 192.283 500.653 192.283 501.48C192.283 502.32 192.449 503.053 192.783 503.68C193.116 504.293 193.563 504.767 194.123 505.1C194.683 505.42 195.303 505.58 195.983 505.58C196.663 505.58 197.283 505.42 197.843 505.1C198.416 504.767 198.869 504.293 199.203 503.68C199.536 503.053 199.703 502.327 199.703 501.5ZM217.798 495.84C218.651 495.84 219.411 496.02 220.078 496.38C220.745 496.727 221.271 497.253 221.658 497.96C222.045 498.667 222.238 499.527 222.238 500.54V507H220.438V500.8C220.438 499.707 220.165 498.873 219.618 498.3C219.085 497.713 218.358 497.42 217.438 497.42C216.491 497.42 215.738 497.727 215.178 498.34C214.618 498.94 214.338 499.813 214.338 500.96V507H212.538V500.8C212.538 499.707 212.265 498.873 211.718 498.3C211.185 497.713 210.458 497.42 209.538 497.42C208.591 497.42 207.838 497.727 207.278 498.34C206.718 498.94 206.438 499.813 206.438 500.96V507H204.618V496.04H206.438V497.62C206.798 497.047 207.278 496.607 207.878 496.3C208.491 495.993 209.165 495.84 209.898 495.84C210.818 495.84 211.631 496.047 212.338 496.46C213.045 496.873 213.571 497.48 213.918 498.28C214.225 497.507 214.731 496.907 215.438 496.48C216.145 496.053 216.931 495.84 217.798 495.84Z" fill="#28004F"/>
<path d="M274.133 494.2V492.54H277.893V507H276.053V494.2H274.133ZM281.019 499.62C281.019 497.327 281.393 495.54 282.139 494.26C282.886 492.967 284.193 492.32 286.059 492.32C287.913 492.32 289.213 492.967 289.959 494.26C290.706 495.54 291.079 497.327 291.079 499.62C291.079 501.953 290.706 503.767 289.959 505.06C289.213 506.353 287.913 507 286.059 507C284.193 507 282.886 506.353 282.139 505.06C281.393 503.767 281.019 501.953 281.019 499.62ZM289.279 499.62C289.279 498.46 289.199 497.48 289.039 496.68C288.893 495.867 288.579 495.213 288.099 494.72C287.633 494.227 286.953 493.98 286.059 493.98C285.153 493.98 284.459 494.227 283.979 494.72C283.513 495.213 283.199 495.867 283.039 496.68C282.893 497.48 282.819 498.46 282.819 499.62C282.819 500.82 282.893 501.827 283.039 502.64C283.199 503.453 283.513 504.107 283.979 504.6C284.459 505.093 285.153 505.34 286.059 505.34C286.953 505.34 287.633 505.093 288.099 504.6C288.579 504.107 288.893 503.453 289.039 502.64C289.199 501.827 289.279 500.82 289.279 499.62ZM294.458 507.12C294.111 507.12 293.818 507 293.578 506.76C293.338 506.52 293.218 506.227 293.218 505.88C293.218 505.533 293.338 505.24 293.578 505C293.818 504.76 294.111 504.64 294.458 504.64C294.791 504.64 295.071 504.76 295.298 505C295.538 505.24 295.658 505.533 295.658 505.88C295.658 506.227 295.538 506.52 295.298 506.76C295.071 507 294.791 507.12 294.458 507.12ZM294.458 498.56C294.111 498.56 293.818 498.44 293.578 498.2C293.338 497.96 293.218 497.667 293.218 497.32C293.218 496.973 293.338 496.68 293.578 496.44C293.818 496.2 294.111 496.08 294.458 496.08C294.791 496.08 295.071 496.2 295.298 496.44C295.538 496.68 295.658 496.973 295.658 497.32C295.658 497.667 295.538 497.96 295.298 498.2C295.071 498.44 294.791 498.56 294.458 498.56ZM297.616 505.54C299.309 504.18 300.636 503.067 301.596 502.2C302.556 501.32 303.362 500.407 304.016 499.46C304.682 498.5 305.016 497.56 305.016 496.64C305.016 495.773 304.802 495.093 304.376 494.6C303.962 494.093 303.289 493.84 302.356 493.84C301.449 493.84 300.742 494.127 300.236 494.7C299.742 495.26 299.476 496.013 299.436 496.96H297.676C297.729 495.467 298.182 494.313 299.036 493.5C299.889 492.687 300.989 492.28 302.336 492.28C303.709 492.28 304.796 492.66 305.596 493.42C306.409 494.18 306.816 495.227 306.816 496.56C306.816 497.667 306.482 498.747 305.816 499.8C305.162 500.84 304.416 501.76 303.576 502.56C302.736 503.347 301.662 504.267 300.356 505.32H307.236V506.84H297.616V505.54ZM308.86 494.2V492.54H312.62V507H310.78V494.2H308.86ZM315.366 501.48C315.366 500.36 315.593 499.38 316.046 498.54C316.499 497.687 317.119 497.027 317.906 496.56C318.706 496.093 319.593 495.86 320.566 495.86C321.526 495.86 322.359 496.067 323.066 496.48C323.773 496.893 324.299 497.413 324.646 498.04V496.04H326.486V507H324.646V504.96C324.286 505.6 323.746 506.133 323.026 506.56C322.319 506.973 321.493 507.18 320.546 507.18C319.573 507.18 318.693 506.94 317.906 506.46C317.119 505.98 316.499 505.307 316.046 504.44C315.593 503.573 315.366 502.587 315.366 501.48ZM324.646 501.5C324.646 500.673 324.479 499.953 324.146 499.34C323.813 498.727 323.359 498.26 322.786 497.94C322.226 497.607 321.606 497.44 320.926 497.44C320.246 497.44 319.626 497.6 319.066 497.92C318.506 498.24 318.059 498.707 317.726 499.32C317.393 499.933 317.226 500.653 317.226 501.48C317.226 502.32 317.393 503.053 317.726 503.68C318.059 504.293 318.506 504.767 319.066 505.1C319.626 505.42 320.246 505.58 320.926 505.58C321.606 505.58 322.226 505.42 322.786 505.1C323.359 504.767 323.813 504.293 324.146 503.68C324.479 503.053 324.646 502.327 324.646 501.5ZM342.741 495.84C343.595 495.84 344.355 496.02 345.021 496.38C345.688 496.727 346.215 497.253 346.601 497.96C346.988 498.667 347.181 499.527 347.181 500.54V507H345.381V500.8C345.381 499.707 345.108 498.873 344.561 498.3C344.028 497.713 343.301 497.42 342.381 497.42C341.435 497.42 340.681 497.727 340.121 498.34C339.561 498.94 339.281 499.813 339.281 500.96V507H337.481V500.8C337.481 499.707 337.208 498.873 336.661 498.3C336.128 497.713 335.401 497.42 334.481 497.42C333.535 497.42 332.781 497.727 332.221 498.34C331.661 498.94 331.381 499.813 331.381 500.96V507H329.561V496.04H331.381V497.62C331.741 497.047 332.221 496.607 332.821 496.3C333.435 495.993 334.108 495.84 334.841 495.84C335.761 495.84 336.575 496.047 337.281 496.46C337.988 496.873 338.515 497.48 338.861 498.28C339.168 497.507 339.675 496.907 340.381 496.48C341.088 496.053 341.875 495.84 342.741 495.84Z" fill="#28004F"/>
<path d="M149.114 585.2V583.54H152.874V598H151.034V585.2H149.114ZM155.52 585.2V583.54H159.28V598H157.44V585.2H155.52ZM163.286 598.12C162.939 598.12 162.646 598 162.406 597.76C162.166 597.52 162.046 597.227 162.046 596.88C162.046 596.533 162.166 596.24 162.406 596C162.646 595.76 162.939 595.64 163.286 595.64C163.619 595.64 163.899 595.76 164.126 596C164.366 596.24 164.486 596.533 164.486 596.88C164.486 597.227 164.366 597.52 164.126 597.76C163.899 598 163.619 598.12 163.286 598.12ZM163.286 589.56C162.939 589.56 162.646 589.44 162.406 589.2C162.166 588.96 162.046 588.667 162.046 588.32C162.046 587.973 162.166 587.68 162.406 587.44C162.646 587.2 162.939 587.08 163.286 587.08C163.619 587.08 163.899 587.2 164.126 587.44C164.366 587.68 164.486 587.973 164.486 588.32C164.486 588.667 164.366 588.96 164.126 589.2C163.899 589.44 163.619 589.56 163.286 589.56ZM166.184 585.2V583.54H169.944V598H168.104V585.2H166.184ZM181.13 586.98C180.837 585.5 179.923 584.76 178.39 584.76C177.203 584.76 176.317 585.22 175.73 586.14C175.143 587.047 174.857 588.547 174.87 590.64C175.177 589.947 175.683 589.407 176.39 589.02C177.11 588.62 177.91 588.42 178.79 588.42C180.163 588.42 181.257 588.847 182.07 589.7C182.897 590.553 183.31 591.733 183.31 593.24C183.31 594.147 183.13 594.96 182.77 595.68C182.423 596.4 181.89 596.973 181.17 597.4C180.463 597.827 179.603 598.04 178.59 598.04C177.217 598.04 176.143 597.733 175.37 597.12C174.597 596.507 174.057 595.66 173.75 594.58C173.443 593.5 173.29 592.167 173.29 590.58C173.29 585.687 174.997 583.24 178.41 583.24C179.717 583.24 180.743 583.593 181.49 584.3C182.237 585.007 182.677 585.9 182.81 586.98H181.13ZM178.41 589.96C177.837 589.96 177.297 590.08 176.79 590.32C176.283 590.547 175.87 590.9 175.55 591.38C175.243 591.847 175.09 592.42 175.09 593.1C175.09 594.113 175.383 594.94 175.97 595.58C176.557 596.207 177.397 596.52 178.49 596.52C179.423 596.52 180.163 596.233 180.71 595.66C181.27 595.073 181.55 594.287 181.55 593.3C181.55 592.26 181.283 591.447 180.75 590.86C180.217 590.26 179.437 589.96 178.41 589.96ZM185.385 592.48C185.385 591.36 185.612 590.38 186.065 589.54C186.519 588.687 187.139 588.027 187.925 587.56C188.725 587.093 189.612 586.86 190.585 586.86C191.545 586.86 192.379 587.067 193.085 587.48C193.792 587.893 194.319 588.413 194.665 589.04V587.04H196.505V598H194.665V595.96C194.305 596.6 193.765 597.133 193.045 597.56C192.339 597.973 191.512 598.18 190.565 598.18C189.592 598.18 188.712 597.94 187.925 597.46C187.139 596.98 186.519 596.307 186.065 595.44C185.612 594.573 185.385 593.587 185.385 592.48ZM194.665 592.5C194.665 591.673 194.499 590.953 194.165 590.34C193.832 589.727 193.379 589.26 192.805 588.94C192.245 588.607 191.625 588.44 190.945 588.44C190.265 588.44 189.645 588.6 189.085 588.92C188.525 589.24 188.079 589.707 187.745 590.32C187.412 590.933 187.245 591.653 187.245 592.48C187.245 593.32 187.412 594.053 187.745 594.68C188.079 595.293 188.525 595.767 189.085 596.1C189.645 596.42 190.265 596.58 190.945 596.58C191.625 596.58 192.245 596.42 192.805 596.1C193.379 595.767 193.832 595.293 194.165 594.68C194.499 594.053 194.665 593.327 194.665 592.5ZM212.761 586.84C213.614 586.84 214.374 587.02 215.041 587.38C215.708 587.727 216.234 588.253 216.621 588.96C217.008 589.667 217.201 590.527 217.201 591.54V598H215.401V591.8C215.401 590.707 215.128 589.873 214.581 589.3C214.048 588.713 213.321 588.42 212.401 588.42C211.454 588.42 210.701 588.727 210.141 589.34C209.581 589.94 209.301 590.813 209.301 591.96V598H207.501V591.8C207.501 590.707 207.228 589.873 206.681 589.3C206.148 588.713 205.421 588.42 204.501 588.42C203.554 588.42 202.801 588.727 202.241 589.34C201.681 589.94 201.401 590.813 201.401 591.96V598H199.581V587.04H201.401V588.62C201.761 588.047 202.241 587.607 202.841 587.3C203.454 586.993 204.128 586.84 204.861 586.84C205.781 586.84 206.594 587.047 207.301 587.46C208.008 587.873 208.534 588.48 208.881 589.28C209.188 588.507 209.694 587.907 210.401 587.48C211.108 587.053 211.894 586.84 212.761 586.84Z" fill="#28004F"/>
<path d="M275.162 585.2V583.54H278.922V598H277.082V585.2H275.162ZM281.569 585.2V583.54H285.329V598H283.489V585.2H281.569ZM289.335 598.12C288.988 598.12 288.695 598 288.455 597.76C288.215 597.52 288.095 597.227 288.095 596.88C288.095 596.533 288.215 596.24 288.455 596C288.695 595.76 288.988 595.64 289.335 595.64C289.668 595.64 289.948 595.76 290.175 596C290.415 596.24 290.535 596.533 290.535 596.88C290.535 597.227 290.415 597.52 290.175 597.76C289.948 598 289.668 598.12 289.335 598.12ZM289.335 589.56C288.988 589.56 288.695 589.44 288.455 589.2C288.215 588.96 288.095 588.667 288.095 588.32C288.095 587.973 288.215 587.68 288.455 587.44C288.695 587.2 288.988 587.08 289.335 587.08C289.668 587.08 289.948 587.2 290.175 587.44C290.415 587.68 290.535 587.973 290.535 588.32C290.535 588.667 290.415 588.96 290.175 589.2C289.948 589.44 289.668 589.56 289.335 589.56ZM292.233 585.2V583.54H295.993V598H294.153V585.2H292.233ZM301.459 594.12C301.592 594.88 301.899 595.467 302.379 595.88C302.872 596.293 303.532 596.5 304.359 596.5C305.466 596.5 306.279 596.067 306.799 595.2C307.332 594.333 307.586 592.873 307.559 590.82C307.279 591.42 306.812 591.893 306.159 592.24C305.506 592.573 304.779 592.74 303.979 592.74C303.086 592.74 302.286 592.56 301.579 592.2C300.886 591.827 300.339 591.287 299.939 590.58C299.539 589.873 299.339 589.02 299.339 588.02C299.339 586.593 299.752 585.447 300.579 584.58C301.406 583.7 302.579 583.26 304.099 583.26C305.966 583.26 307.272 583.867 308.019 585.08C308.779 586.293 309.159 588.1 309.159 590.5C309.159 592.18 309.006 593.567 308.699 594.66C308.406 595.753 307.899 596.587 307.179 597.16C306.472 597.733 305.499 598.02 304.259 598.02C302.899 598.02 301.839 597.653 301.079 596.92C300.319 596.187 299.886 595.253 299.779 594.12H301.459ZM304.279 591.2C305.172 591.2 305.906 590.927 306.479 590.38C307.052 589.82 307.339 589.067 307.339 588.12C307.339 587.12 307.059 586.313 306.499 585.7C305.939 585.087 305.152 584.78 304.139 584.78C303.206 584.78 302.459 585.073 301.899 585.66C301.352 586.247 301.079 587.02 301.079 587.98C301.079 588.953 301.352 589.733 301.899 590.32C302.446 590.907 303.239 591.2 304.279 591.2ZM311.337 592.48C311.337 591.36 311.563 590.38 312.017 589.54C312.47 588.687 313.09 588.027 313.877 587.56C314.677 587.093 315.563 586.86 316.537 586.86C317.497 586.86 318.33 587.067 319.037 587.48C319.743 587.893 320.27 588.413 320.617 589.04V587.04H322.457V598H320.617V595.96C320.257 596.6 319.717 597.133 318.997 597.56C318.29 597.973 317.463 598.18 316.517 598.18C315.543 598.18 314.663 597.94 313.877 597.46C313.09 596.98 312.47 596.307 312.017 595.44C311.563 594.573 311.337 593.587 311.337 592.48ZM320.617 592.5C320.617 591.673 320.45 590.953 320.117 590.34C319.783 589.727 319.33 589.26 318.757 588.94C318.197 588.607 317.577 588.44 316.897 588.44C316.217 588.44 315.597 588.6 315.037 588.92C314.477 589.24 314.03 589.707 313.697 590.32C313.363 590.933 313.197 591.653 313.197 592.48C313.197 593.32 313.363 594.053 313.697 594.68C314.03 595.293 314.477 595.767 315.037 596.1C315.597 596.42 316.217 596.58 316.897 596.58C317.577 596.58 318.197 596.42 318.757 596.1C319.33 595.767 319.783 595.293 320.117 594.68C320.45 594.053 320.617 593.327 320.617 592.5ZM338.712 586.84C339.566 586.84 340.326 587.02 340.992 587.38C341.659 587.727 342.186 588.253 342.572 588.96C342.959 589.667 343.152 590.527 343.152 591.54V598H341.352V591.8C341.352 590.707 341.079 589.873 340.532 589.3C339.999 588.713 339.272 588.42 338.352 588.42C337.406 588.42 336.652 588.727 336.092 589.34C335.532 589.94 335.252 590.813 335.252 591.96V598H333.452V591.8C333.452 590.707 333.179 589.873 332.632 589.3C332.099 588.713 331.372 588.42 330.452 588.42C329.506 588.42 328.752 588.727 328.192 589.34C327.632 589.94 327.352 590.813 327.352 591.96V598H325.532V587.04H327.352V588.62C327.712 588.047 328.192 587.607 328.792 587.3C329.406 586.993 330.079 586.84 330.812 586.84C331.732 586.84 332.546 587.047 333.252 587.46C333.959 587.873 334.486 588.48 334.832 589.28C335.139 588.507 335.646 587.907 336.352 587.48C337.059 587.053 337.846 586.84 338.712 586.84Z" fill="#28004F"/>
<path d="M32.8898 302.06C34.4098 302.06 35.7231 302.347 36.8298 302.92C37.9498 303.48 38.8031 304.287 39.3898 305.34C39.9898 306.393 40.2898 307.633 40.2898 309.06C40.2898 310.487 39.9898 311.727 39.3898 312.78C38.8031 313.82 37.9498 314.62 36.8298 315.18C35.7231 315.727 34.4098 316 32.8898 316H28.5498V302.06H32.8898ZM32.8898 314.5C34.6898 314.5 36.0631 314.027 37.0098 313.08C37.9564 312.12 38.4298 310.78 38.4298 309.06C38.4298 307.327 37.9498 305.973 36.9898 305C36.0431 304.027 34.6764 303.54 32.8898 303.54H30.3698V314.5H32.8898ZM48.1304 304.84C48.9571 304.84 49.7037 305.02 50.3704 305.38C51.0371 305.727 51.5571 306.253 51.9304 306.96C52.3171 307.667 52.5104 308.527 52.5104 309.54V316H50.7104V309.8C50.7104 308.707 50.4371 307.873 49.8904 307.3C49.3437 306.713 48.5971 306.42 47.6504 306.42C46.6904 306.42 45.9237 306.72 45.3504 307.32C44.7904 307.92 44.5104 308.793 44.5104 309.94V316H42.6904V301.2H44.5104V306.6C44.8704 306.04 45.3637 305.607 45.9904 305.3C46.6304 304.993 47.3437 304.84 48.1304 304.84ZM65.2034 305.04V316H63.3834V314.38C63.0367 314.94 62.55 315.38 61.9234 315.7C61.31 316.007 60.63 316.16 59.8834 316.16C59.03 316.16 58.2634 315.987 57.5834 315.64C56.9034 315.28 56.3634 314.747 55.9634 314.04C55.5767 313.333 55.3834 312.473 55.3834 311.46V305.04H57.1834V311.22C57.1834 312.3 57.4567 313.133 58.0034 313.72C58.55 314.293 59.2967 314.58 60.2434 314.58C61.2167 314.58 61.9834 314.28 62.5434 313.68C63.1034 313.08 63.3834 312.207 63.3834 311.06V305.04H65.2034ZM73.7163 304.84C74.543 304.84 75.2897 305.02 75.9563 305.38C76.623 305.727 77.143 306.253 77.5163 306.96C77.903 307.667 78.0963 308.527 78.0963 309.54V316H76.2963V309.8C76.2963 308.707 76.023 307.873 75.4763 307.3C74.9297 306.713 74.183 306.42 73.2363 306.42C72.2763 306.42 71.5097 306.72 70.9363 307.32C70.3763 307.92 70.0963 308.793 70.0963 309.94V316H68.2763V301.2H70.0963V306.6C70.4563 306.04 70.9497 305.607 71.5763 305.3C72.2163 304.993 72.9297 304.84 73.7163 304.84ZM82.8893 306.82C83.2093 306.193 83.6626 305.707 84.2493 305.36C84.8493 305.013 85.576 304.84 86.4293 304.84V306.72H85.9493C83.9093 306.72 82.8893 307.827 82.8893 310.04V316H81.0693V305.04H82.8893V306.82Z" fill="#28004F"/>
<path d="M51.0866 406.9H45.0066L43.8866 410H41.9666L47.0066 396.14H49.1066L54.1266 410H52.2066L51.0866 406.9ZM50.5666 405.42L48.0466 398.38L45.5266 405.42H50.5666ZM60.2032 410.18C59.3632 410.18 58.6099 410.04 57.9432 409.76C57.2765 409.467 56.7499 409.067 56.3632 408.56C55.9765 408.04 55.7632 407.447 55.7232 406.78H57.6032C57.6565 407.327 57.9099 407.773 58.3632 408.12C58.8299 408.467 59.4365 408.64 60.1832 408.64C60.8765 408.64 61.4232 408.487 61.8232 408.18C62.2232 407.873 62.4232 407.487 62.4232 407.02C62.4232 406.54 62.2099 406.187 61.7832 405.96C61.3565 405.72 60.6965 405.487 59.8032 405.26C58.9899 405.047 58.3232 404.833 57.8032 404.62C57.2965 404.393 56.8565 404.067 56.4832 403.64C56.1232 403.2 55.9432 402.627 55.9432 401.92C55.9432 401.36 56.1099 400.847 56.4432 400.38C56.7765 399.913 57.2499 399.547 57.8632 399.28C58.4765 399 59.1765 398.86 59.9632 398.86C61.1765 398.86 62.1565 399.167 62.9032 399.78C63.6499 400.393 64.0499 401.233 64.1032 402.3H62.2832C62.2432 401.727 62.0099 401.267 61.5832 400.92C61.1699 400.573 60.6099 400.4 59.9032 400.4C59.2499 400.4 58.7299 400.54 58.3432 400.82C57.9565 401.1 57.7632 401.467 57.7632 401.92C57.7632 402.28 57.8765 402.58 58.1032 402.82C58.3432 403.047 58.6365 403.233 58.9832 403.38C59.3432 403.513 59.8365 403.667 60.4632 403.84C61.2499 404.053 61.8899 404.267 62.3832 404.48C62.8765 404.68 63.2965 404.987 63.6432 405.4C64.0032 405.813 64.1899 406.353 64.2032 407.02C64.2032 407.62 64.0365 408.16 63.7032 408.64C63.3699 409.12 62.8965 409.5 62.2832 409.78C61.6832 410.047 60.9899 410.18 60.2032 410.18ZM68.5924 400.82C68.9124 400.193 69.3658 399.707 69.9524 399.36C70.5524 399.013 71.2791 398.84 72.1324 398.84V400.72H71.6524C69.6124 400.72 68.5924 401.827 68.5924 404.04V410H66.7724V399.04H68.5924V400.82Z" fill="#28004F"/>
<path d="M31.7054 494.16V508H29.8854V497.68L25.2854 508H24.0054L19.3854 497.66V508H17.5654V494.16H19.5254L24.6454 505.6L29.7654 494.16H31.7054ZM34.112 502.48C34.112 501.36 34.3386 500.38 34.792 499.54C35.2453 498.687 35.8653 498.027 36.652 497.56C37.452 497.093 38.3386 496.86 39.312 496.86C40.272 496.86 41.1053 497.067 41.812 497.48C42.5186 497.893 43.0453 498.413 43.392 499.04V497.04H45.232V508H43.392V505.96C43.032 506.6 42.492 507.133 41.772 507.56C41.0653 507.973 40.2386 508.18 39.292 508.18C38.3186 508.18 37.4386 507.94 36.652 507.46C35.8653 506.98 35.2453 506.307 34.792 505.44C34.3386 504.573 34.112 503.587 34.112 502.48ZM43.392 502.5C43.392 501.673 43.2253 500.953 42.892 500.34C42.5586 499.727 42.1053 499.26 41.532 498.94C40.972 498.607 40.352 498.44 39.672 498.44C38.992 498.44 38.372 498.6 37.812 498.92C37.252 499.24 36.8053 499.707 36.472 500.32C36.1386 500.933 35.972 501.653 35.972 502.48C35.972 503.32 36.1386 504.053 36.472 504.68C36.8053 505.293 37.252 505.767 37.812 506.1C38.372 506.42 38.992 506.58 39.672 506.58C40.352 506.58 40.972 506.42 41.532 506.1C42.1053 505.767 42.5586 505.293 42.892 504.68C43.2253 504.053 43.392 503.327 43.392 502.5ZM52.8276 496.86C53.7742 496.86 54.6009 497.067 55.3076 497.48C56.0276 497.893 56.5609 498.413 56.9076 499.04V497.04H58.7476V508.24C58.7476 509.24 58.5342 510.127 58.1076 510.9C57.6809 511.687 57.0676 512.3 56.2676 512.74C55.4809 513.18 54.5609 513.4 53.5076 513.4C52.0676 513.4 50.8676 513.06 49.9076 512.38C48.9476 511.7 48.3809 510.773 48.2076 509.6H50.0076C50.2076 510.267 50.6209 510.8 51.2476 511.2C51.8742 511.613 52.6276 511.82 53.5076 511.82C54.5076 511.82 55.3209 511.507 55.9476 510.88C56.5876 510.253 56.9076 509.373 56.9076 508.24V505.94C56.5476 506.58 56.0142 507.113 55.3076 507.54C54.6009 507.967 53.7742 508.18 52.8276 508.18C51.8542 508.18 50.9676 507.94 50.1676 507.46C49.3809 506.98 48.7609 506.307 48.3076 505.44C47.8542 504.573 47.6276 503.587 47.6276 502.48C47.6276 501.36 47.8542 500.38 48.3076 499.54C48.7609 498.687 49.3809 498.027 50.1676 497.56C50.9676 497.093 51.8542 496.86 52.8276 496.86ZM56.9076 502.5C56.9076 501.673 56.7409 500.953 56.4076 500.34C56.0742 499.727 55.6209 499.26 55.0476 498.94C54.4876 498.607 53.8676 498.44 53.1876 498.44C52.5076 498.44 51.8876 498.6 51.3276 498.92C50.7676 499.24 50.3209 499.707 49.9876 500.32C49.6542 500.933 49.4876 501.653 49.4876 502.48C49.4876 503.32 49.6542 504.053 49.9876 504.68C50.3209 505.293 50.7676 505.767 51.3276 506.1C51.8876 506.42 52.5076 506.58 53.1876 506.58C53.8676 506.58 54.4876 506.42 55.0476 506.1C55.6209 505.767 56.0742 505.293 56.4076 504.68C56.7409 504.053 56.9076 503.327 56.9076 502.5ZM67.2632 496.84C68.0899 496.84 68.8365 497.02 69.5032 497.38C70.1699 497.727 70.6899 498.253 71.0632 498.96C71.4499 499.667 71.6432 500.527 71.6432 501.54V508H69.8432V501.8C69.8432 500.707 69.5699 499.873 69.0232 499.3C68.4765 498.713 67.7299 498.42 66.7832 498.42C65.8232 498.42 65.0565 498.72 64.4832 499.32C63.9232 499.92 63.6432 500.793 63.6432 501.94V508H61.8232V493.2H63.6432V498.6C64.0032 498.04 64.4965 497.607 65.1232 497.3C65.7632 496.993 66.4765 496.84 67.2632 496.84ZM76.4362 498.82C76.7562 498.193 77.2095 497.707 77.7962 497.36C78.3962 497.013 79.1228 496.84 79.9762 496.84V498.72H79.4962C77.4562 498.72 76.4362 499.827 76.4362 502.04V508H74.6162V497.04H76.4362V498.82ZM83.0171 495.26C82.6704 495.26 82.3771 495.14 82.1371 494.9C81.8971 494.66 81.7771 494.367 81.7771 494.02C81.7771 493.673 81.8971 493.38 82.1371 493.14C82.3771 492.9 82.6704 492.78 83.0171 492.78C83.3504 492.78 83.6304 492.9 83.8571 493.14C84.0971 493.38 84.2171 493.673 84.2171 494.02C84.2171 494.367 84.0971 494.66 83.8571 494.9C83.6304 495.14 83.3504 495.26 83.0171 495.26ZM83.8971 497.04V508H82.0771V497.04H83.8971ZM88.819 499.08C89.1923 498.427 89.739 497.893 90.459 497.48C91.179 497.067 91.999 496.86 92.919 496.86C93.9057 496.86 94.7923 497.093 95.579 497.56C96.3657 498.027 96.9857 498.687 97.439 499.54C97.8923 500.38 98.119 501.36 98.119 502.48C98.119 503.587 97.8923 504.573 97.439 505.44C96.9857 506.307 96.359 506.98 95.559 507.46C94.7723 507.94 93.8923 508.18 92.919 508.18C91.9723 508.18 91.139 507.973 90.419 507.56C89.7123 507.147 89.179 506.62 88.819 505.98V508H86.999V493.2H88.819V499.08ZM96.259 502.48C96.259 501.653 96.0923 500.933 95.759 500.32C95.4257 499.707 94.9723 499.24 94.399 498.92C93.839 498.6 93.219 498.44 92.539 498.44C91.8723 498.44 91.2523 498.607 90.679 498.94C90.119 499.26 89.6657 499.733 89.319 500.36C88.9857 500.973 88.819 501.687 88.819 502.5C88.819 503.327 88.9857 504.053 89.319 504.68C89.6657 505.293 90.119 505.767 90.679 506.1C91.2523 506.42 91.8723 506.58 92.539 506.58C93.219 506.58 93.839 506.42 94.399 506.1C94.9723 505.767 95.4257 505.293 95.759 504.68C96.0923 504.053 96.259 503.32 96.259 502.48Z" fill="#28004F"/>
<path d="M39.5202 585.06V599H37.7002V585.06H39.5202ZM46.502 599.18C45.662 599.18 44.9087 599.04 44.242 598.76C43.5754 598.467 43.0487 598.067 42.662 597.56C42.2754 597.04 42.062 596.447 42.022 595.78H43.902C43.9554 596.327 44.2087 596.773 44.662 597.12C45.1287 597.467 45.7354 597.64 46.482 597.64C47.1754 597.64 47.722 597.487 48.122 597.18C48.522 596.873 48.722 596.487 48.722 596.02C48.722 595.54 48.5087 595.187 48.082 594.96C47.6554 594.72 46.9954 594.487 46.102 594.26C45.2887 594.047 44.622 593.833 44.102 593.62C43.5954 593.393 43.1554 593.067 42.782 592.64C42.422 592.2 42.242 591.627 42.242 590.92C42.242 590.36 42.4087 589.847 42.742 589.38C43.0754 588.913 43.5487 588.547 44.162 588.28C44.7754 588 45.4754 587.86 46.262 587.86C47.4754 587.86 48.4554 588.167 49.202 588.78C49.9487 589.393 50.3487 590.233 50.402 591.3H48.582C48.542 590.727 48.3087 590.267 47.882 589.92C47.4687 589.573 46.9087 589.4 46.202 589.4C45.5487 589.4 45.0287 589.54 44.642 589.82C44.2554 590.1 44.062 590.467 44.062 590.92C44.062 591.28 44.1754 591.58 44.402 591.82C44.642 592.047 44.9354 592.233 45.282 592.38C45.642 592.513 46.1354 592.667 46.762 592.84C47.5487 593.053 48.1887 593.267 48.682 593.48C49.1754 593.68 49.5954 593.987 49.942 594.4C50.302 594.813 50.4887 595.353 50.502 596.02C50.502 596.62 50.3354 597.16 50.002 597.64C49.6687 598.12 49.1954 598.5 48.582 598.78C47.982 599.047 47.2887 599.18 46.502 599.18ZM58.5113 587.84C59.3379 587.84 60.0846 588.02 60.7513 588.38C61.4179 588.727 61.9379 589.253 62.3113 589.96C62.6979 590.667 62.8913 591.527 62.8913 592.54V599H61.0913V592.8C61.0913 591.707 60.8179 590.873 60.2713 590.3C59.7246 589.713 58.9779 589.42 58.0313 589.42C57.0713 589.42 56.3046 589.72 55.7313 590.32C55.1713 590.92 54.8913 591.793 54.8913 592.94V599H53.0713V584.2H54.8913V589.6C55.2513 589.04 55.7446 588.607 56.3713 588.3C57.0113 587.993 57.7246 587.84 58.5113 587.84ZM65.1842 593.48C65.1842 592.36 65.4109 591.38 65.8642 590.54C66.3176 589.687 66.9376 589.027 67.7242 588.56C68.5242 588.093 69.4109 587.86 70.3842 587.86C71.3442 587.86 72.1776 588.067 72.8842 588.48C73.5909 588.893 74.1176 589.413 74.4642 590.04V588.04H76.3042V599H74.4642V596.96C74.1042 597.6 73.5642 598.133 72.8442 598.56C72.1376 598.973 71.3109 599.18 70.3642 599.18C69.3909 599.18 68.5109 598.94 67.7242 598.46C66.9376 597.98 66.3176 597.307 65.8642 596.44C65.4109 595.573 65.1842 594.587 65.1842 593.48ZM74.4642 593.5C74.4642 592.673 74.2976 591.953 73.9642 591.34C73.6309 590.727 73.1776 590.26 72.6042 589.94C72.0442 589.607 71.4242 589.44 70.7442 589.44C70.0642 589.44 69.4442 589.6 68.8842 589.92C68.3242 590.24 67.8776 590.707 67.5442 591.32C67.2109 591.933 67.0442 592.653 67.0442 593.48C67.0442 594.32 67.2109 595.053 67.5442 595.68C67.8776 596.293 68.3242 596.767 68.8842 597.1C69.4442 597.42 70.0642 597.58 70.7442 597.58C71.4242 597.58 72.0442 597.42 72.6042 597.1C73.1776 596.767 73.6309 596.293 73.9642 595.68C74.2976 595.053 74.4642 594.327 74.4642 593.5Z" fill="#28004F"/>
<path d="M163.004 42.34H157.444L156.524 45H153.584L158.604 31.02H161.864L166.884 45H163.924L163.004 42.34ZM162.244 40.1L160.224 34.26L158.204 40.1H162.244ZM168.041 39.42C168.041 38.3 168.261 37.3067 168.701 36.44C169.154 35.5733 169.768 34.9067 170.541 34.44C171.314 33.9733 172.174 33.74 173.121 33.74C173.841 33.74 174.528 33.9 175.181 34.22C175.834 34.5267 176.354 34.94 176.741 35.46V30.2H179.581V45H176.741V43.36C176.394 43.9067 175.908 44.3467 175.281 44.68C174.654 45.0133 173.928 45.18 173.101 45.18C172.168 45.18 171.314 44.94 170.541 44.46C169.768 43.98 169.154 43.3067 168.701 42.44C168.261 41.56 168.041 40.5533 168.041 39.42ZM176.761 39.46C176.761 38.78 176.628 38.2 176.361 37.72C176.094 37.2267 175.734 36.8533 175.281 36.6C174.828 36.3333 174.341 36.2 173.821 36.2C173.301 36.2 172.821 36.3267 172.381 36.58C171.941 36.8333 171.581 37.2067 171.301 37.7C171.034 38.18 170.901 38.7533 170.901 39.42C170.901 40.0867 171.034 40.6733 171.301 41.18C171.581 41.6733 171.941 42.0533 172.381 42.32C172.834 42.5867 173.314 42.72 173.821 42.72C174.341 42.72 174.828 42.5933 175.281 42.34C175.734 42.0733 176.094 41.7 176.361 41.22C176.628 40.7267 176.761 40.14 176.761 39.46ZM188.556 33.76C189.396 33.76 190.142 33.9467 190.796 34.32C191.449 34.68 191.956 35.22 192.316 35.94C192.689 36.6467 192.876 37.5 192.876 38.5V45H190.076V38.88C190.076 38 189.856 37.3267 189.416 36.86C188.976 36.38 188.376 36.14 187.616 36.14C186.842 36.14 186.229 36.38 185.776 36.86C185.336 37.3267 185.116 38 185.116 38.88V45H182.316V30.2H185.116V35.3C185.476 34.82 185.956 34.4467 186.556 34.18C187.156 33.9 187.822 33.76 188.556 33.76ZM194.818 39.42C194.818 38.3 195.038 37.3067 195.478 36.44C195.932 35.5733 196.538 34.9067 197.298 34.44C198.072 33.9733 198.932 33.74 199.878 33.74C200.705 33.74 201.425 33.9067 202.038 34.24C202.665 34.5733 203.165 34.9933 203.538 35.5V33.92H206.358V45H203.538V43.38C203.178 43.9 202.678 44.3333 202.038 44.68C201.412 45.0133 200.685 45.18 199.858 45.18C198.925 45.18 198.072 44.94 197.298 44.46C196.538 43.98 195.932 43.3067 195.478 42.44C195.038 41.56 194.818 40.5533 194.818 39.42ZM203.538 39.46C203.538 38.78 203.405 38.2 203.138 37.72C202.872 37.2267 202.512 36.8533 202.058 36.6C201.605 36.3333 201.118 36.2 200.598 36.2C200.078 36.2 199.598 36.3267 199.158 36.58C198.718 36.8333 198.358 37.2067 198.078 37.7C197.812 38.18 197.678 38.7533 197.678 39.42C197.678 40.0867 197.812 40.6733 198.078 41.18C198.358 41.6733 198.718 42.0533 199.158 42.32C199.612 42.5867 200.092 42.72 200.598 42.72C201.118 42.72 201.605 42.5933 202.058 42.34C202.512 42.0733 202.872 41.7 203.138 41.22C203.405 40.7267 203.538 40.14 203.538 39.46ZM215.233 33.76C216.553 33.76 217.62 34.18 218.433 35.02C219.246 35.8467 219.653 37.0067 219.653 38.5V45H216.853V38.88C216.853 38 216.633 37.3267 216.193 36.86C215.753 36.38 215.153 36.14 214.393 36.14C213.62 36.14 213.006 36.38 212.553 36.86C212.113 37.3267 211.893 38 211.893 38.88V45H209.093V33.92H211.893V35.3C212.266 34.82 212.74 34.4467 213.313 34.18C213.9 33.9 214.54 33.76 215.233 33.76Z" fill="white"/>
<path d="M274.475 31.04V45H271.675V31.04H274.475ZM276.521 39.44C276.521 38.3333 276.748 37.3533 277.201 36.5C277.668 35.6333 278.295 34.96 279.081 34.48C279.868 34 280.735 33.76 281.681 33.76C282.468 33.76 283.161 33.9133 283.761 34.22C284.375 34.5133 284.868 34.8933 285.241 35.36V33.92H288.061V50.28H285.241V43.48C284.868 43.96 284.368 44.36 283.741 44.68C283.115 45 282.408 45.16 281.621 45.16C280.688 45.16 279.828 44.92 279.041 44.44C278.268 43.9467 277.655 43.2667 277.201 42.4C276.748 41.5333 276.521 40.5467 276.521 39.44ZM285.241 39.46C285.241 38.78 285.101 38.1933 284.821 37.7C284.541 37.2067 284.175 36.8333 283.721 36.58C283.281 36.3267 282.808 36.2 282.301 36.2C281.808 36.2 281.335 36.3267 280.881 36.58C280.441 36.8333 280.081 37.2067 279.801 37.7C279.521 38.18 279.381 38.76 279.381 39.44C279.381 40.12 279.521 40.7133 279.801 41.22C280.081 41.7133 280.441 42.0867 280.881 42.34C281.335 42.5933 281.808 42.72 282.301 42.72C282.808 42.72 283.281 42.5933 283.721 42.34C284.175 42.0867 284.541 41.7133 284.821 41.22C285.101 40.7267 285.241 40.14 285.241 39.46ZM290.076 39.42C290.076 38.3 290.296 37.3067 290.736 36.44C291.189 35.5733 291.796 34.9067 292.556 34.44C293.329 33.9733 294.189 33.74 295.136 33.74C295.963 33.74 296.683 33.9067 297.296 34.24C297.923 34.5733 298.423 34.9933 298.796 35.5V33.92H301.616V45H298.796V43.38C298.436 43.9 297.936 44.3333 297.296 44.68C296.669 45.0133 295.943 45.18 295.116 45.18C294.183 45.18 293.329 44.94 292.556 44.46C291.796 43.98 291.189 43.3067 290.736 42.44C290.296 41.56 290.076 40.5533 290.076 39.42ZM298.796 39.46C298.796 38.78 298.663 38.2 298.396 37.72C298.129 37.2267 297.769 36.8533 297.316 36.6C296.863 36.3333 296.376 36.2 295.856 36.2C295.336 36.2 294.856 36.3267 294.416 36.58C293.976 36.8333 293.616 37.2067 293.336 37.7C293.069 38.18 292.936 38.7533 292.936 39.42C292.936 40.0867 293.069 40.6733 293.336 41.18C293.616 41.6733 293.976 42.0533 294.416 42.32C294.869 42.5867 295.349 42.72 295.856 42.72C296.376 42.72 296.863 42.5933 297.316 42.34C297.769 42.0733 298.129 41.7 298.396 41.22C298.663 40.7267 298.796 40.14 298.796 39.46ZM318.111 33.76C319.471 33.76 320.564 34.18 321.391 35.02C322.231 35.8467 322.651 37.0067 322.651 38.5V45H319.851V38.88C319.851 38.0133 319.631 37.3533 319.191 36.9C318.751 36.4333 318.151 36.2 317.391 36.2C316.631 36.2 316.024 36.4333 315.571 36.9C315.131 37.3533 314.911 38.0133 314.911 38.88V45H312.111V38.88C312.111 38.0133 311.891 37.3533 311.451 36.9C311.011 36.4333 310.411 36.2 309.651 36.2C308.877 36.2 308.264 36.4333 307.811 36.9C307.371 37.3533 307.151 38.0133 307.151 38.88V45H304.351V33.92H307.151V35.26C307.511 34.7933 307.971 34.4267 308.531 34.16C309.104 33.8933 309.731 33.76 310.411 33.76C311.277 33.76 312.051 33.9467 312.731 34.32C313.411 34.68 313.937 35.2 314.311 35.88C314.671 35.24 315.191 34.7267 315.871 34.34C316.564 33.9533 317.311 33.76 318.111 33.76ZM324.588 39.42C324.588 38.3 324.808 37.3067 325.248 36.44C325.701 35.5733 326.308 34.9067 327.068 34.44C327.841 33.9733 328.701 33.74 329.648 33.74C330.474 33.74 331.194 33.9067 331.808 34.24C332.434 34.5733 332.934 34.9933 333.308 35.5V33.92H336.128V45H333.308V43.38C332.948 43.9 332.448 44.3333 331.808 44.68C331.181 45.0133 330.454 45.18 329.628 45.18C328.694 45.18 327.841 44.94 327.068 44.46C326.308 43.98 325.701 43.3067 325.248 42.44C324.808 41.56 324.588 40.5533 324.588 39.42ZM333.308 39.46C333.308 38.78 333.174 38.2 332.908 37.72C332.641 37.2267 332.281 36.8533 331.828 36.6C331.374 36.3333 330.888 36.2 330.368 36.2C329.848 36.2 329.368 36.3267 328.928 36.58C328.488 36.8333 328.128 37.2067 327.848 37.7C327.581 38.18 327.448 38.7533 327.448 39.42C327.448 40.0867 327.581 40.6733 327.848 41.18C328.128 41.6733 328.488 42.0533 328.928 42.32C329.381 42.5867 329.861 42.72 330.368 42.72C330.888 42.72 331.374 42.5933 331.828 42.34C332.281 42.0733 332.641 41.7 332.908 41.22C333.174 40.7267 333.308 40.14 333.308 39.46ZM345.102 33.76C345.942 33.76 346.689 33.9467 347.342 34.32C347.996 34.68 348.502 35.22 348.862 35.94C349.236 36.6467 349.422 37.5 349.422 38.5V45H346.622V38.88C346.622 38 346.402 37.3267 345.962 36.86C345.522 36.38 344.922 36.14 344.162 36.14C343.389 36.14 342.776 36.38 342.322 36.86C341.882 37.3267 341.662 38 341.662 38.88V45H338.862V30.2H341.662V35.3C342.022 34.82 342.502 34.4467 343.102 34.18C343.702 33.9 344.369 33.76 345.102 33.76Z" fill="#E5E5E5"/>
</svg>
