<svg width="38" height="38" viewBox="0 0 38 38" fill="none" xmlns="http://www.w3.org/2000/svg">
<path d="M34.0001 0.666672H4.00008C2.15841 0.666672 0.666748 2.15834 0.666748 4.00001V34C0.666748 35.8417 2.15841 37.3333 4.00008 37.3333H20.6667V22.3333H15.6667V17.3333H20.6667V14.6483C20.6667 9.56501 23.1434 7.33334 27.3684 7.33334C29.3917 7.33334 30.4618 7.48334 30.9684 7.55167V12.3333H28.0867C26.2934 12.3333 25.6667 13.28 25.6667 15.1967V17.3333H30.9234L30.2101 22.3333H25.6667V37.3333H34.0001C35.8418 37.3333 37.3334 35.8417 37.3334 34V4.00001C37.3334 2.15834 35.8401 0.666672 34.0001 0.666672Z" fill="#28004F"/>
</svg>
