<svg width="39" height="39" viewBox="0 0 39 39" fill="none" xmlns="http://www.w3.org/2000/svg">
<path d="M19.5001 13.2333C17.838 13.2333 16.2441 13.8936 15.0689 15.0688C13.8936 16.244 13.2334 17.838 13.2334 19.5C13.2334 21.162 13.8936 22.756 15.0689 23.9312C16.2441 25.1064 17.838 25.7667 19.5001 25.7667C21.1621 25.7667 22.756 25.1064 23.9313 23.9312C25.1065 22.756 25.7667 21.162 25.7667 19.5C25.7667 17.838 25.1065 16.244 23.9313 15.0688C22.756 13.8936 21.1621 13.2333 19.5001 13.2333V13.2333Z" fill="#28004F"/>
<path d="M27.3317 0.699999H11.665C5.61928 0.699999 0.699951 5.6209 0.699951 11.6682V27.3349C0.699951 33.3807 5.62085 38.3 11.6682 38.3H27.3348C33.3806 38.3 38.2999 33.3791 38.2999 27.3318V11.6651C38.2999 5.61933 33.379 0.699999 27.3317 0.699999ZM19.4999 28.9C14.3158 28.9 10.1 24.6841 10.1 19.5C10.1 14.3159 14.3158 10.1 19.4999 10.1C24.684 10.1 28.8999 14.3159 28.8999 19.5C28.8999 24.6841 24.684 28.9 19.4999 28.9ZM30.4666 10.1C29.6018 10.1 28.8999 9.39813 28.8999 8.53333C28.8999 7.66853 29.6018 6.96667 30.4666 6.96667C31.3314 6.96667 32.0333 7.66853 32.0333 8.53333C32.0333 9.39813 31.3314 10.1 30.4666 10.1Z" fill="#28004F"/>
</svg>
