<svg width="41" height="30" viewBox="0 0 41 30" fill="none" xmlns="http://www.w3.org/2000/svg">
<path fill-rule="evenodd" clip-rule="evenodd" d="M37.2385 0C38.467 0 39.558 0.559195 40.2445 1.42413L20.308 17.3003L0.549102 1.71243C1.20975 0.68547 2.4013 0 3.76147 0H37.2385ZM0 26.4286V4.52959L14.1775 15.7143L0.0292258 26.8759C0.00994089 26.7294 0 26.5801 0 26.4286ZM1.29662 29.1264C1.95676 29.6706 2.8186 30 3.76147 30H37.2385C38.0489 30 38.7995 29.7567 39.4135 29.3428L24.3483 17.3457L21.6391 19.5031C20.8729 20.1133 19.7567 20.1157 18.9876 19.5089L16.2376 17.3395L1.29662 29.1264ZM26.397 15.7143L40.8972 27.2613C40.9644 26.9942 41 26.7153 41 26.4286V4.08536L26.397 15.7143Z" fill="white"/>
</svg>
