<svg width="44" height="33" viewBox="0 0 44 33" fill="none" xmlns="http://www.w3.org/2000/svg">
<path d="M37.2479 3.27229C34.4434 2.044 31.4361 1.13905 28.2918 0.620743C28.2346 0.61074 28.1774 0.635738 28.1479 0.685736C27.7611 1.34236 27.3327 2.19898 27.0327 2.87229C23.6507 2.38899 20.2862 2.38899 16.9736 2.87229C16.6735 2.18402 16.2296 1.34236 15.8411 0.685736C15.8116 0.637406 15.7544 0.612408 15.6971 0.620743C12.5545 1.13739 9.54719 2.04234 6.74105 3.27229C6.71675 3.28229 6.69593 3.29897 6.68211 3.32062C0.977885 11.4553 -0.584742 19.3899 0.18183 27.2263C0.185299 27.2646 0.207845 27.3013 0.239063 27.3246C4.00255 29.9628 7.64813 31.5644 11.226 32.626C11.2833 32.6427 11.3439 32.6227 11.3804 32.5776C12.2267 31.4744 12.9812 30.3111 13.628 29.0878C13.6662 29.0162 13.6298 28.9312 13.5518 28.9028C12.3551 28.4695 11.2156 27.9412 10.1195 27.3413C10.0328 27.2929 10.0259 27.1746 10.1056 27.1179C10.3363 26.9529 10.567 26.7812 10.7873 26.6079C10.8271 26.5763 10.8826 26.5696 10.9295 26.5896C18.1304 29.7278 25.9262 29.7278 33.0421 26.5896C33.0889 26.5679 33.1445 26.5746 33.186 26.6063C33.4063 26.7796 33.637 26.9529 33.8694 27.1179C33.9492 27.1746 33.944 27.2929 33.8573 27.3413C32.7612 27.9529 31.6217 28.4695 30.4233 28.9012C30.3452 28.9295 30.3105 29.0162 30.3487 29.0878C31.0095 30.3094 31.7639 31.4727 32.5946 32.576C32.6293 32.6227 32.6918 32.6427 32.749 32.626C36.3442 31.5644 39.9898 29.9628 43.7533 27.3246C43.7863 27.3013 43.8071 27.2662 43.8106 27.2279C44.728 18.1683 42.2739 10.2987 37.3051 3.32228C37.2929 3.29897 37.2722 3.28229 37.2479 3.27229ZM14.7034 22.4548C12.5354 22.4548 10.7491 20.5549 10.7491 18.2216C10.7491 15.8884 12.5008 13.9885 14.7034 13.9885C16.9233 13.9885 18.6923 15.9051 18.6576 18.2216C18.6576 20.5549 16.9059 22.4548 14.7034 22.4548ZM29.3237 22.4548C27.1558 22.4548 25.3695 20.5549 25.3695 18.2216C25.3695 15.8884 27.1211 13.9885 29.3237 13.9885C31.5437 13.9885 33.3126 15.9051 33.278 18.2216C33.278 20.5549 31.5437 22.4548 29.3237 22.4548Z" fill="white"/>
</svg>
