<svg width="34" height="34" viewBox="0 0 34 34" fill="none" xmlns="http://www.w3.org/2000/svg">
<path d="M16.7373 11.1584C15.2577 11.1584 13.8386 11.7462 12.7923 12.7925C11.746 13.8388 11.1582 15.2579 11.1582 16.7376C11.1582 18.2173 11.746 19.6363 12.7923 20.6826C13.8386 21.7289 15.2577 22.3167 16.7373 22.3167C18.217 22.3167 19.6361 21.7289 20.6824 20.6826C21.7287 19.6363 22.3165 18.2173 22.3165 16.7376C22.3165 15.2579 21.7287 13.8388 20.6824 12.7925C19.6361 11.7462 18.217 11.1584 16.7373 11.1584V11.1584Z" fill="white"/>
<path d="M23.71 0H9.7621C4.37963 0 0 4.38102 0 9.7649V23.7128C0 29.0952 4.38102 33.4749 9.7649 33.4749H23.7128C29.0952 33.4749 33.4749 29.0938 33.4749 23.71V9.7621C33.4749 4.37963 29.0938 0 23.71 0ZM16.7374 25.1061C12.1221 25.1061 8.36871 21.3528 8.36871 16.7374C8.36871 12.1221 12.1221 8.36871 16.7374 8.36871C21.3528 8.36871 25.1061 12.1221 25.1061 16.7374C25.1061 21.3528 21.3528 25.1061 16.7374 25.1061ZM26.5009 8.36871C25.731 8.36871 25.1061 7.74385 25.1061 6.97393C25.1061 6.20401 25.731 5.57914 26.5009 5.57914C27.2709 5.57914 27.8957 6.20401 27.8957 6.97393C27.8957 7.74385 27.2709 8.36871 26.5009 8.36871Z" fill="white"/>
</svg>
