<svg width="32" height="32" viewBox="0 0 32 32" fill="none" xmlns="http://www.w3.org/2000/svg">
<path d="M28.4719 0.578613H3.36795C1.82684 0.578613 0.578613 1.82684 0.578613 3.36795V28.4719C0.578613 30.0131 1.82684 31.2613 3.36795 31.2613H28.4719C30.0131 31.2613 31.2613 30.0131 31.2613 28.4719V3.36795C31.2613 1.82684 30.0117 0.578613 28.4719 0.578613ZM26.6435 13.7917C26.4622 13.8084 26.2795 13.8196 26.0954 13.8196C24.0104 13.8196 22.1778 12.7485 21.1109 11.1265C21.1109 15.3788 21.1109 20.2183 21.1109 20.2992C21.1109 24.0439 18.0747 27.0787 14.3314 27.0787C10.5881 27.0773 7.55195 24.0411 7.55195 20.2978C7.55195 16.5531 10.5881 13.5183 14.3314 13.5183C14.4737 13.5183 14.6117 13.5309 14.7498 13.5393V16.8809C14.6104 16.8641 14.4751 16.839 14.3314 16.839C12.4207 16.839 10.8713 18.3885 10.8713 20.2992C10.8713 22.2099 12.4193 23.7594 14.3314 23.7594C16.2435 23.7594 17.9311 22.2531 17.9311 20.3424C17.9311 20.2657 17.9645 4.76401 17.9645 4.76401H21.1569C21.4568 7.61889 23.7622 9.87267 26.6435 10.0791V13.7917Z" fill="white"/>
</svg>
