<svg width="32" height="32" viewBox="0 0 32 32" fill="none" xmlns="http://www.w3.org/2000/svg">
<path d="M28.4748 0.579102H3.36867C1.82743 0.579102 0.579102 1.82743 0.579102 3.36867V28.4748C0.579102 30.0161 1.82743 31.2644 3.36867 31.2644H17.3165V18.7113H13.1322V14.527H17.3165V12.28C17.3165 8.02586 19.3892 6.15825 22.925 6.15825C24.6182 6.15825 25.5137 6.28378 25.9377 6.34096V10.3426H23.5261C22.0253 10.3426 21.5009 11.1348 21.5009 12.7388V14.527H25.9L25.3031 18.7113H21.5009V31.2644H28.4748C30.0161 31.2644 31.2644 30.0161 31.2644 28.4748V3.36867C31.2644 1.82743 30.0147 0.579102 28.4748 0.579102Z" fill="white"/>
</svg>
