<svg width="570" height="242" viewBox="0 0 570 242" fill="none" xmlns="http://www.w3.org/2000/svg">
<path d="M167.187 66.21C165.647 66.21 164.267 65.96 163.047 65.46C161.827 64.96 160.847 64.22 160.107 63.24C159.387 62.26 159.007 61.08 158.967 59.7H164.427C164.507 60.48 164.777 61.08 165.237 61.5C165.697 61.9 166.297 62.1 167.037 62.1C167.797 62.1 168.397 61.93 168.837 61.59C169.277 61.23 169.497 60.74 169.497 60.12C169.497 59.6 169.317 59.17 168.957 58.83C168.617 58.49 168.187 58.21 167.667 57.99C167.167 57.77 166.447 57.52 165.507 57.24C164.147 56.82 163.037 56.4 162.177 55.98C161.317 55.56 160.577 54.94 159.957 54.12C159.337 53.3 159.027 52.23 159.027 50.91C159.027 48.95 159.737 47.42 161.157 46.32C162.577 45.2 164.427 44.64 166.707 44.64C169.027 44.64 170.897 45.2 172.317 46.32C173.737 47.42 174.497 48.96 174.597 50.94H169.047C169.007 50.26 168.757 49.73 168.297 49.35C167.837 48.95 167.247 48.75 166.527 48.75C165.907 48.75 165.407 48.92 165.027 49.26C164.647 49.58 164.457 50.05 164.457 50.67C164.457 51.35 164.777 51.88 165.417 52.26C166.057 52.64 167.057 53.05 168.417 53.49C169.777 53.95 170.877 54.39 171.717 54.81C172.577 55.23 173.317 55.84 173.937 56.64C174.557 57.44 174.867 58.47 174.867 59.73C174.867 60.93 174.557 62.02 173.937 63C173.337 63.98 172.457 64.76 171.297 65.34C170.137 65.92 168.767 66.21 167.187 66.21ZM187.354 61.65V66H184.744C182.884 66 181.434 65.55 180.394 64.65C179.354 63.73 178.834 62.24 178.834 60.18V53.52H176.794V49.26H178.834V45.18H183.964V49.26H187.324V53.52H183.964V60.24C183.964 60.74 184.084 61.1 184.324 61.32C184.564 61.54 184.964 61.65 185.524 61.65H187.354ZM195.341 52.05C195.941 51.13 196.691 50.41 197.591 49.89C198.491 49.35 199.491 49.08 200.591 49.08V54.51H199.181C197.901 54.51 196.941 54.79 196.301 55.35C195.661 55.89 195.341 56.85 195.341 58.23V66H190.211V49.26H195.341V52.05ZM218.823 57.36C218.823 57.84 218.793 58.34 218.733 58.86H207.123C207.203 59.9 207.533 60.7 208.113 61.26C208.713 61.8 209.443 62.07 210.303 62.07C211.583 62.07 212.473 61.53 212.973 60.45H218.433C218.153 61.55 217.643 62.54 216.903 63.42C216.183 64.3 215.273 64.99 214.173 65.49C213.073 65.99 211.843 66.24 210.483 66.24C208.843 66.24 207.383 65.89 206.103 65.19C204.823 64.49 203.823 63.49 203.103 62.19C202.383 60.89 202.023 59.37 202.023 57.63C202.023 55.89 202.373 54.37 203.073 53.07C203.793 51.77 204.793 50.77 206.073 50.07C207.353 49.37 208.823 49.02 210.483 49.02C212.103 49.02 213.543 49.36 214.803 50.04C216.063 50.72 217.043 51.69 217.743 52.95C218.463 54.21 218.823 55.68 218.823 57.36ZM213.573 56.01C213.573 55.13 213.273 54.43 212.673 53.91C212.073 53.39 211.323 53.13 210.423 53.13C209.563 53.13 208.833 53.38 208.233 53.88C207.653 54.38 207.293 55.09 207.153 56.01H213.573ZM231.729 49.08C233.689 49.08 235.249 49.72 236.409 51C237.589 52.26 238.179 54 238.179 56.22V66H233.079V56.91C233.079 55.79 232.789 54.92 232.209 54.3C231.629 53.68 230.849 53.37 229.869 53.37C228.889 53.37 228.109 53.68 227.529 54.3C226.949 54.92 226.659 55.79 226.659 56.91V66H221.529V49.26H226.659V51.48C227.179 50.74 227.879 50.16 228.759 49.74C229.639 49.3 230.629 49.08 231.729 49.08ZM248.104 49.02C249.284 49.02 250.314 49.26 251.194 49.74C252.094 50.22 252.784 50.85 253.264 51.63V49.26H258.394V65.97C258.394 67.51 258.084 68.9 257.464 70.14C256.864 71.4 255.934 72.4 254.674 73.14C253.434 73.88 251.884 74.25 250.024 74.25C247.544 74.25 245.534 73.66 243.994 72.48C242.454 71.32 241.574 69.74 241.354 67.74H246.424C246.584 68.38 246.964 68.88 247.564 69.24C248.164 69.62 248.904 69.81 249.784 69.81C250.844 69.81 251.684 69.5 252.304 68.88C252.944 68.28 253.264 67.31 253.264 65.97V63.6C252.764 64.38 252.074 65.02 251.194 65.52C250.314 66 249.284 66.24 248.104 66.24C246.724 66.24 245.474 65.89 244.354 65.19C243.234 64.47 242.344 63.46 241.684 62.16C241.044 60.84 240.724 59.32 240.724 57.6C240.724 55.88 241.044 54.37 241.684 53.07C242.344 51.77 243.234 50.77 244.354 50.07C245.474 49.37 246.724 49.02 248.104 49.02ZM253.264 57.63C253.264 56.35 252.904 55.34 252.184 54.6C251.484 53.86 250.624 53.49 249.604 53.49C248.584 53.49 247.714 53.86 246.994 54.6C246.294 55.32 245.944 56.32 245.944 57.6C245.944 58.88 246.294 59.9 246.994 60.66C247.714 61.4 248.584 61.77 249.604 61.77C250.624 61.77 251.484 61.4 252.184 60.66C252.904 59.92 253.264 58.91 253.264 57.63ZM271.436 61.65V66H268.826C266.966 66 265.516 65.55 264.476 64.65C263.436 63.73 262.916 62.24 262.916 60.18V53.52H260.876V49.26H262.916V45.18H268.046V49.26H271.406V53.52H268.046V60.24C268.046 60.74 268.166 61.1 268.406 61.32C268.646 61.54 269.046 61.65 269.606 61.65H271.436ZM284.583 49.08C286.503 49.08 288.043 49.72 289.203 51C290.363 52.26 290.943 54 290.943 56.22V66H285.843V56.91C285.843 55.79 285.553 54.92 284.973 54.3C284.393 53.68 283.613 53.37 282.633 53.37C281.653 53.37 280.873 53.68 280.293 54.3C279.713 54.92 279.423 55.79 279.423 56.91V66H274.293V43.8H279.423V51.51C279.943 50.77 280.653 50.18 281.553 49.74C282.453 49.3 283.463 49.08 284.583 49.08ZM310.288 57.36C310.288 57.84 310.258 58.34 310.198 58.86H298.588C298.668 59.9 298.998 60.7 299.578 61.26C300.178 61.8 300.908 62.07 301.768 62.07C303.048 62.07 303.938 61.53 304.438 60.45H309.898C309.618 61.55 309.108 62.54 308.368 63.42C307.648 64.3 306.738 64.99 305.638 65.49C304.538 65.99 303.308 66.24 301.948 66.24C300.308 66.24 298.848 65.89 297.568 65.19C296.288 64.49 295.288 63.49 294.568 62.19C293.848 60.89 293.488 59.37 293.488 57.63C293.488 55.89 293.838 54.37 294.538 53.07C295.258 51.77 296.258 50.77 297.538 50.07C298.818 49.37 300.288 49.02 301.948 49.02C303.568 49.02 305.008 49.36 306.268 50.04C307.528 50.72 308.508 51.69 309.208 52.95C309.928 54.21 310.288 55.68 310.288 57.36ZM305.038 56.01C305.038 55.13 304.738 54.43 304.138 53.91C303.538 53.39 302.788 53.13 301.888 53.13C301.028 53.13 300.298 53.38 299.698 53.88C299.118 54.38 298.758 55.09 298.618 56.01H305.038ZM323.194 49.08C325.154 49.08 326.714 49.72 327.874 51C329.054 52.26 329.644 54 329.644 56.22V66H324.544V56.91C324.544 55.79 324.254 54.92 323.674 54.3C323.094 53.68 322.314 53.37 321.334 53.37C320.354 53.37 319.574 53.68 318.994 54.3C318.414 54.92 318.124 55.79 318.124 56.91V66H312.994V49.26H318.124V51.48C318.644 50.74 319.344 50.16 320.224 49.74C321.104 49.3 322.094 49.08 323.194 49.08ZM347.187 66.24C345.547 66.24 344.067 65.89 342.747 65.19C341.447 64.49 340.417 63.49 339.657 62.19C338.917 60.89 338.547 59.37 338.547 57.63C338.547 55.91 338.927 54.4 339.687 53.1C340.447 51.78 341.487 50.77 342.807 50.07C344.127 49.37 345.607 49.02 347.247 49.02C348.887 49.02 350.367 49.37 351.687 50.07C353.007 50.77 354.047 51.78 354.807 53.1C355.567 54.4 355.947 55.91 355.947 57.63C355.947 59.35 355.557 60.87 354.777 62.19C354.017 63.49 352.967 64.49 351.627 65.19C350.307 65.89 348.827 66.24 347.187 66.24ZM347.187 61.8C348.167 61.8 348.997 61.44 349.677 60.72C350.377 60 350.727 58.97 350.727 57.63C350.727 56.29 350.387 55.26 349.707 54.54C349.047 53.82 348.227 53.46 347.247 53.46C346.247 53.46 345.417 53.82 344.757 54.54C344.097 55.24 343.767 56.27 343.767 57.63C343.767 58.97 344.087 60 344.727 60.72C345.387 61.44 346.207 61.8 347.187 61.8ZM375.198 49.26V66H370.068V63.72C369.548 64.46 368.838 65.06 367.938 65.52C367.058 65.96 366.078 66.18 364.998 66.18C363.718 66.18 362.588 65.9 361.608 65.34C360.628 64.76 359.868 63.93 359.328 62.85C358.788 61.77 358.518 60.5 358.518 59.04V49.26H363.618V58.35C363.618 59.47 363.908 60.34 364.488 60.96C365.068 61.58 365.848 61.89 366.828 61.89C367.828 61.89 368.618 61.58 369.198 60.96C369.778 60.34 370.068 59.47 370.068 58.35V49.26H375.198ZM384.013 52.05C384.613 51.13 385.363 50.41 386.263 49.89C387.163 49.35 388.163 49.08 389.263 49.08V54.51H387.853C386.573 54.51 385.613 54.79 384.973 55.35C384.333 55.89 384.013 56.85 384.013 58.23V66H378.883V49.26H384.013V52.05ZM406.472 53.52H403.712V66H398.582V53.52H396.722V49.26H398.582V48.78C398.582 46.72 399.172 45.16 400.352 44.1C401.532 43.02 403.262 42.48 405.542 42.48C405.922 42.48 406.202 42.49 406.382 42.51V46.86C405.402 46.8 404.712 46.94 404.312 47.28C403.912 47.62 403.712 48.23 403.712 49.11V49.26H406.472V53.52ZM407.863 57.6C407.863 55.88 408.183 54.37 408.823 53.07C409.483 51.77 410.373 50.77 411.493 50.07C412.613 49.37 413.863 49.02 415.243 49.02C416.423 49.02 417.453 49.26 418.333 49.74C419.233 50.22 419.923 50.85 420.403 51.63V49.26H425.533V66H420.403V63.63C419.903 64.41 419.203 65.04 418.303 65.52C417.423 66 416.393 66.24 415.213 66.24C413.853 66.24 412.613 65.89 411.493 65.19C410.373 64.47 409.483 63.46 408.823 62.16C408.183 60.84 407.863 59.32 407.863 57.6ZM420.403 57.63C420.403 56.35 420.043 55.34 419.323 54.6C418.623 53.86 417.763 53.49 416.743 53.49C415.723 53.49 414.853 53.86 414.133 54.6C413.433 55.32 413.083 56.32 413.083 57.6C413.083 58.88 413.433 59.9 414.133 60.66C414.853 61.4 415.723 61.77 416.743 61.77C417.763 61.77 418.623 61.4 419.323 60.66C420.043 59.92 420.403 58.91 420.403 57.63ZM431.824 47.52C430.924 47.52 430.184 47.26 429.604 46.74C429.044 46.2 428.764 45.54 428.764 44.76C428.764 43.96 429.044 43.3 429.604 42.78C430.184 42.24 430.924 41.97 431.824 41.97C432.704 41.97 433.424 42.24 433.984 42.78C434.564 43.3 434.854 43.96 434.854 44.76C434.854 45.54 434.564 46.2 433.984 46.74C433.424 47.26 432.704 47.52 431.824 47.52ZM434.374 49.26V66H429.244V49.26H434.374ZM447.422 61.65V66H444.812C442.952 66 441.502 65.55 440.462 64.65C439.422 63.73 438.902 62.24 438.902 60.18V53.52H436.862V49.26H438.902V45.18H444.032V49.26H447.392V53.52H444.032V60.24C444.032 60.74 444.152 61.1 444.392 61.32C444.632 61.54 445.032 61.65 445.592 61.65H447.422ZM460.569 49.08C462.489 49.08 464.029 49.72 465.189 51C466.349 52.26 466.929 54 466.929 56.22V66H461.829V56.91C461.829 55.79 461.539 54.92 460.959 54.3C460.379 53.68 459.599 53.37 458.619 53.37C457.639 53.37 456.859 53.68 456.279 54.3C455.699 54.92 455.409 55.79 455.409 56.91V66H450.279V43.8H455.409V51.51C455.929 50.77 456.639 50.18 457.539 49.74C458.439 49.3 459.449 49.08 460.569 49.08Z" fill="#7E71B9"/>
<path d="M181.532 101.575L176.482 119H173.932L169.882 104.975L165.682 119L163.157 119.025L158.282 101.575H160.707L164.507 116.35L168.707 101.575H171.257L175.257 116.3L179.082 101.575H181.532ZM189.996 119.225C188.713 119.225 187.546 118.933 186.496 118.35C185.463 117.767 184.646 116.942 184.046 115.875C183.463 114.792 183.171 113.542 183.171 112.125C183.171 110.725 183.471 109.492 184.071 108.425C184.688 107.342 185.521 106.517 186.571 105.95C187.621 105.367 188.796 105.075 190.096 105.075C191.396 105.075 192.571 105.367 193.621 105.95C194.671 106.517 195.496 107.333 196.096 108.4C196.713 109.467 197.021 110.708 197.021 112.125C197.021 113.542 196.705 114.792 196.071 115.875C195.455 116.942 194.613 117.767 193.546 118.35C192.48 118.933 191.296 119.225 189.996 119.225ZM189.996 117.225C190.813 117.225 191.58 117.033 192.296 116.65C193.013 116.267 193.588 115.692 194.021 114.925C194.471 114.158 194.696 113.225 194.696 112.125C194.696 111.025 194.48 110.092 194.046 109.325C193.613 108.558 193.046 107.992 192.346 107.625C191.646 107.242 190.888 107.05 190.071 107.05C189.238 107.05 188.471 107.242 187.771 107.625C187.088 107.992 186.538 108.558 186.121 109.325C185.705 110.092 185.496 111.025 185.496 112.125C185.496 113.242 185.696 114.183 186.096 114.95C186.513 115.717 187.063 116.292 187.746 116.675C188.43 117.042 189.18 117.225 189.996 117.225ZM202.287 107.525C202.687 106.742 203.254 106.133 203.987 105.7C204.737 105.267 205.646 105.05 206.712 105.05V107.4H206.112C203.562 107.4 202.287 108.783 202.287 111.55V119H200.012V105.3H202.287V107.525ZM216.989 119L211.614 112.95V119H209.339V100.5H211.614V111.375L216.889 105.3H220.064L213.614 112.125L220.089 119H216.989ZM231.645 107.175V115.25C231.645 115.917 231.786 116.392 232.07 116.675C232.353 116.942 232.845 117.075 233.545 117.075H235.22V119H233.17C231.903 119 230.953 118.708 230.32 118.125C229.686 117.542 229.37 116.583 229.37 115.25V107.175H227.595V105.3H229.37V101.85H231.645V105.3H235.22V107.175H231.645ZM243.951 119.225C242.668 119.225 241.501 118.933 240.451 118.35C239.418 117.767 238.601 116.942 238.001 115.875C237.418 114.792 237.126 113.542 237.126 112.125C237.126 110.725 237.426 109.492 238.026 108.425C238.643 107.342 239.476 106.517 240.526 105.95C241.576 105.367 242.751 105.075 244.051 105.075C245.351 105.075 246.526 105.367 247.576 105.95C248.626 106.517 249.451 107.333 250.051 108.4C250.668 109.467 250.976 110.708 250.976 112.125C250.976 113.542 250.66 114.792 250.026 115.875C249.41 116.942 248.568 117.767 247.501 118.35C246.435 118.933 245.251 119.225 243.951 119.225ZM243.951 117.225C244.768 117.225 245.535 117.033 246.251 116.65C246.968 116.267 247.543 115.692 247.976 114.925C248.426 114.158 248.651 113.225 248.651 112.125C248.651 111.025 248.435 110.092 248.001 109.325C247.568 108.558 247.001 107.992 246.301 107.625C245.601 107.242 244.843 107.05 244.026 107.05C243.193 107.05 242.426 107.242 241.726 107.625C241.043 107.992 240.493 108.558 240.076 109.325C239.66 110.092 239.451 111.025 239.451 112.125C239.451 113.242 239.651 114.183 240.051 114.95C240.468 115.717 241.018 116.292 241.701 116.675C242.385 117.042 243.135 117.225 243.951 117.225ZM272.217 105.3L267.942 119H265.592L262.292 108.125L258.992 119H256.642L252.342 105.3H254.667L257.817 116.8L261.217 105.3H263.542L266.867 116.825L269.967 105.3H272.217ZM273.625 112.1C273.625 110.7 273.909 109.475 274.475 108.425C275.042 107.358 275.817 106.533 276.8 105.95C277.8 105.367 278.909 105.075 280.125 105.075C281.325 105.075 282.367 105.333 283.25 105.85C284.134 106.367 284.792 107.017 285.225 107.8V105.3H287.525V119H285.225V116.45C284.775 117.25 284.1 117.917 283.2 118.45C282.317 118.967 281.284 119.225 280.1 119.225C278.884 119.225 277.784 118.925 276.8 118.325C275.817 117.725 275.042 116.883 274.475 115.8C273.909 114.717 273.625 113.483 273.625 112.1ZM285.225 112.125C285.225 111.092 285.017 110.192 284.6 109.425C284.184 108.658 283.617 108.075 282.9 107.675C282.2 107.258 281.425 107.05 280.575 107.05C279.725 107.05 278.95 107.25 278.25 107.65C277.55 108.05 276.992 108.633 276.575 109.4C276.159 110.167 275.95 111.067 275.95 112.1C275.95 113.15 276.159 114.067 276.575 114.85C276.992 115.617 277.55 116.208 278.25 116.625C278.95 117.025 279.725 117.225 280.575 117.225C281.425 117.225 282.2 117.025 282.9 116.625C283.617 116.208 284.184 115.617 284.6 114.85C285.017 114.067 285.225 113.158 285.225 112.125ZM293.645 107.525C294.045 106.742 294.611 106.133 295.345 105.7C296.095 105.267 297.003 105.05 298.07 105.05V107.4H297.47C294.92 107.4 293.645 108.783 293.645 111.55V119H291.37V105.3H293.645V107.525ZM299.846 112.1C299.846 110.7 300.129 109.475 300.696 108.425C301.263 107.358 302.038 106.533 303.021 105.95C304.021 105.367 305.138 105.075 306.371 105.075C307.438 105.075 308.429 105.325 309.346 105.825C310.263 106.308 310.963 106.95 311.446 107.75V100.5H313.746V119H311.446V116.425C310.996 117.242 310.329 117.917 309.446 118.45C308.563 118.967 307.529 119.225 306.346 119.225C305.129 119.225 304.021 118.925 303.021 118.325C302.038 117.725 301.263 116.883 300.696 115.8C300.129 114.717 299.846 113.483 299.846 112.1ZM311.446 112.125C311.446 111.092 311.238 110.192 310.821 109.425C310.404 108.658 309.838 108.075 309.121 107.675C308.421 107.258 307.646 107.05 306.796 107.05C305.946 107.05 305.171 107.25 304.471 107.65C303.771 108.05 303.213 108.633 302.796 109.4C302.379 110.167 302.171 111.067 302.171 112.1C302.171 113.15 302.379 114.067 302.796 114.85C303.213 115.617 303.771 116.208 304.471 116.625C305.171 117.025 305.946 117.225 306.796 117.225C307.646 117.225 308.421 117.025 309.121 116.625C309.838 116.208 310.404 115.617 310.821 114.85C311.238 114.067 311.446 113.158 311.446 112.125ZM322.441 119.225C321.391 119.225 320.449 119.05 319.616 118.7C318.782 118.333 318.124 117.833 317.641 117.2C317.157 116.55 316.891 115.808 316.841 114.975H319.191C319.257 115.658 319.574 116.217 320.141 116.65C320.724 117.083 321.482 117.3 322.416 117.3C323.282 117.3 323.966 117.108 324.466 116.725C324.966 116.342 325.216 115.858 325.216 115.275C325.216 114.675 324.949 114.233 324.416 113.95C323.882 113.65 323.057 113.358 321.941 113.075C320.924 112.808 320.091 112.542 319.441 112.275C318.807 111.992 318.257 111.583 317.791 111.05C317.341 110.5 317.116 109.783 317.116 108.9C317.116 108.2 317.324 107.558 317.741 106.975C318.157 106.392 318.749 105.933 319.516 105.6C320.282 105.25 321.157 105.075 322.141 105.075C323.657 105.075 324.882 105.458 325.816 106.225C326.749 106.992 327.249 108.042 327.316 109.375H325.041C324.991 108.658 324.699 108.083 324.166 107.65C323.649 107.217 322.949 107 322.066 107C321.249 107 320.599 107.175 320.116 107.525C319.632 107.875 319.391 108.333 319.391 108.9C319.391 109.35 319.532 109.725 319.816 110.025C320.116 110.308 320.482 110.542 320.916 110.725C321.366 110.892 321.982 111.083 322.766 111.3C323.749 111.567 324.549 111.833 325.166 112.1C325.782 112.35 326.307 112.733 326.741 113.25C327.191 113.767 327.424 114.442 327.441 115.275C327.441 116.025 327.232 116.7 326.816 117.3C326.399 117.9 325.807 118.375 325.041 118.725C324.291 119.058 323.424 119.225 322.441 119.225ZM342.167 119.225C341.117 119.225 340.175 119.05 339.342 118.7C338.509 118.333 337.85 117.833 337.367 117.2C336.884 116.55 336.617 115.808 336.567 114.975H338.917C338.984 115.658 339.3 116.217 339.867 116.65C340.45 117.083 341.209 117.3 342.142 117.3C343.009 117.3 343.692 117.108 344.192 116.725C344.692 116.342 344.942 115.858 344.942 115.275C344.942 114.675 344.675 114.233 344.142 113.95C343.609 113.65 342.784 113.358 341.667 113.075C340.65 112.808 339.817 112.542 339.167 112.275C338.534 111.992 337.984 111.583 337.517 111.05C337.067 110.5 336.842 109.783 336.842 108.9C336.842 108.2 337.05 107.558 337.467 106.975C337.884 106.392 338.475 105.933 339.242 105.6C340.009 105.25 340.884 105.075 341.867 105.075C343.384 105.075 344.609 105.458 345.542 106.225C346.475 106.992 346.975 108.042 347.042 109.375H344.767C344.717 108.658 344.425 108.083 343.892 107.65C343.375 107.217 342.675 107 341.792 107C340.975 107 340.325 107.175 339.842 107.525C339.359 107.875 339.117 108.333 339.117 108.9C339.117 109.35 339.259 109.725 339.542 110.025C339.842 110.308 340.209 110.542 340.642 110.725C341.092 110.892 341.709 111.083 342.492 111.3C343.475 111.567 344.275 111.833 344.892 112.1C345.509 112.35 346.034 112.733 346.467 113.25C346.917 113.767 347.15 114.442 347.167 115.275C347.167 116.025 346.959 116.7 346.542 117.3C346.125 117.9 345.534 118.375 344.767 118.725C344.017 119.058 343.15 119.225 342.167 119.225ZM353.154 107.175V115.25C353.154 115.917 353.295 116.392 353.579 116.675C353.862 116.942 354.354 117.075 355.054 117.075H356.729V119H354.679C353.412 119 352.462 118.708 351.829 118.125C351.195 117.542 350.879 116.583 350.879 115.25V107.175H349.104V105.3H350.879V101.85H353.154V105.3H356.729V107.175H353.154ZM361.76 107.525C362.16 106.742 362.727 106.133 363.46 105.7C364.21 105.267 365.118 105.05 366.185 105.05V107.4H365.585C363.035 107.4 361.76 108.783 361.76 111.55V119H359.485V105.3H361.76V107.525ZM381.311 111.625C381.311 112.058 381.286 112.517 381.236 113H370.286C370.37 114.35 370.828 115.408 371.661 116.175C372.511 116.925 373.536 117.3 374.736 117.3C375.72 117.3 376.536 117.075 377.186 116.625C377.853 116.158 378.32 115.542 378.586 114.775H381.036C380.67 116.092 379.936 117.167 378.836 118C377.736 118.817 376.37 119.225 374.736 119.225C373.436 119.225 372.27 118.933 371.236 118.35C370.22 117.767 369.42 116.942 368.836 115.875C368.253 114.792 367.961 113.542 367.961 112.125C367.961 110.708 368.245 109.467 368.811 108.4C369.378 107.333 370.17 106.517 371.186 105.95C372.22 105.367 373.403 105.075 374.736 105.075C376.036 105.075 377.186 105.358 378.186 105.925C379.186 106.492 379.953 107.275 380.486 108.275C381.036 109.258 381.311 110.375 381.311 111.625ZM378.961 111.15C378.961 110.283 378.77 109.542 378.386 108.925C378.003 108.292 377.478 107.817 376.811 107.5C376.161 107.167 375.436 107 374.636 107C373.486 107 372.503 107.367 371.686 108.1C370.886 108.833 370.428 109.85 370.311 111.15H378.961ZM390.989 105.05C392.656 105.05 394.006 105.558 395.039 106.575C396.072 107.575 396.589 109.025 396.589 110.925V119H394.339V111.25C394.339 109.883 393.997 108.842 393.314 108.125C392.631 107.392 391.697 107.025 390.514 107.025C389.314 107.025 388.356 107.4 387.639 108.15C386.939 108.9 386.589 109.992 386.589 111.425V119H384.314V105.3H386.589V107.25C387.039 106.55 387.647 106.008 388.414 105.625C389.197 105.242 390.056 105.05 390.989 105.05ZM405.955 105.075C407.139 105.075 408.172 105.333 409.055 105.85C409.955 106.367 410.622 107.017 411.055 107.8V105.3H413.355V119.3C413.355 120.55 413.089 121.658 412.555 122.625C412.022 123.608 411.255 124.375 410.255 124.925C409.272 125.475 408.122 125.75 406.805 125.75C405.005 125.75 403.505 125.325 402.305 124.475C401.105 123.625 400.397 122.467 400.18 121H402.43C402.68 121.833 403.197 122.5 403.98 123C404.764 123.517 405.705 123.775 406.805 123.775C408.055 123.775 409.072 123.383 409.855 122.6C410.655 121.817 411.055 120.717 411.055 119.3V116.425C410.605 117.225 409.939 117.892 409.055 118.425C408.172 118.958 407.139 119.225 405.955 119.225C404.739 119.225 403.63 118.925 402.63 118.325C401.647 117.725 400.872 116.883 400.305 115.8C399.739 114.717 399.455 113.483 399.455 112.1C399.455 110.7 399.739 109.475 400.305 108.425C400.872 107.358 401.647 106.533 402.63 105.95C403.63 105.367 404.739 105.075 405.955 105.075ZM411.055 112.125C411.055 111.092 410.847 110.192 410.43 109.425C410.014 108.658 409.447 108.075 408.73 107.675C408.03 107.258 407.255 107.05 406.405 107.05C405.555 107.05 404.78 107.25 404.08 107.65C403.38 108.05 402.822 108.633 402.405 109.4C401.989 110.167 401.78 111.067 401.78 112.1C401.78 113.15 401.989 114.067 402.405 114.85C402.822 115.617 403.38 116.208 404.08 116.625C404.78 117.025 405.555 117.225 406.405 117.225C407.255 117.225 408.03 117.025 408.73 116.625C409.447 116.208 410.014 115.617 410.43 114.85C410.847 114.067 411.055 113.158 411.055 112.125ZM419.975 107.175V115.25C419.975 115.917 420.117 116.392 420.4 116.675C420.683 116.942 421.175 117.075 421.875 117.075H423.55V119H421.5C420.233 119 419.283 118.708 418.65 118.125C418.017 117.542 417.7 116.583 417.7 115.25V107.175H415.925V105.3H417.7V101.85H419.975V105.3H423.55V107.175H419.975ZM433.106 105.05C434.14 105.05 435.073 105.275 435.906 105.725C436.74 106.158 437.39 106.817 437.856 107.7C438.34 108.583 438.581 109.658 438.581 110.925V119H436.331V111.25C436.331 109.883 435.99 108.842 435.306 108.125C434.623 107.392 433.69 107.025 432.506 107.025C431.306 107.025 430.348 107.4 429.631 108.15C428.931 108.9 428.581 109.992 428.581 111.425V119H426.306V100.5H428.581V107.25C429.031 106.55 429.648 106.008 430.431 105.625C431.231 105.242 432.123 105.05 433.106 105.05ZM454.798 111.625C454.798 112.058 454.773 112.517 454.723 113H443.773C443.856 114.35 444.314 115.408 445.148 116.175C445.998 116.925 447.023 117.3 448.223 117.3C449.206 117.3 450.023 117.075 450.673 116.625C451.339 116.158 451.806 115.542 452.073 114.775H454.523C454.156 116.092 453.423 117.167 452.323 118C451.223 118.817 449.856 119.225 448.223 119.225C446.923 119.225 445.756 118.933 444.723 118.35C443.706 117.767 442.906 116.942 442.323 115.875C441.739 114.792 441.448 113.542 441.448 112.125C441.448 110.708 441.731 109.467 442.298 108.4C442.864 107.333 443.656 106.517 444.673 105.95C445.706 105.367 446.889 105.075 448.223 105.075C449.523 105.075 450.673 105.358 451.673 105.925C452.673 106.492 453.439 107.275 453.973 108.275C454.523 109.258 454.798 110.375 454.798 111.625ZM452.448 111.15C452.448 110.283 452.256 109.542 451.873 108.925C451.489 108.292 450.964 107.817 450.298 107.5C449.648 107.167 448.923 107 448.123 107C446.973 107 445.989 107.367 445.173 108.1C444.373 108.833 443.914 109.85 443.798 111.15H452.448ZM464.475 105.05C466.142 105.05 467.492 105.558 468.525 106.575C469.559 107.575 470.075 109.025 470.075 110.925V119H467.825V111.25C467.825 109.883 467.484 108.842 466.8 108.125C466.117 107.392 465.184 107.025 464 107.025C462.8 107.025 461.842 107.4 461.125 108.15C460.425 108.9 460.075 109.992 460.075 111.425V119H457.8V105.3H460.075V107.25C460.525 106.55 461.134 106.008 461.9 105.625C462.684 105.242 463.542 105.05 464.475 105.05ZM474.967 103.075C474.533 103.075 474.167 102.925 473.867 102.625C473.567 102.325 473.417 101.958 473.417 101.525C473.417 101.092 473.567 100.725 473.867 100.425C474.167 100.125 474.533 99.975 474.967 99.975C475.383 99.975 475.733 100.125 476.017 100.425C476.317 100.725 476.467 101.092 476.467 101.525C476.467 101.958 476.317 102.325 476.017 102.625C475.733 102.925 475.383 103.075 474.967 103.075ZM476.067 105.3V119H473.792V105.3H476.067ZM486.619 105.05C488.286 105.05 489.636 105.558 490.669 106.575C491.702 107.575 492.219 109.025 492.219 110.925V119H489.969V111.25C489.969 109.883 489.627 108.842 488.944 108.125C488.261 107.392 487.327 107.025 486.144 107.025C484.944 107.025 483.986 107.4 483.269 108.15C482.569 108.9 482.219 109.992 482.219 111.425V119H479.944V105.3H482.219V107.25C482.669 106.55 483.277 106.008 484.044 105.625C484.827 105.242 485.686 105.05 486.619 105.05ZM501.585 105.075C502.769 105.075 503.802 105.333 504.685 105.85C505.585 106.367 506.252 107.017 506.685 107.8V105.3H508.985V119.3C508.985 120.55 508.719 121.658 508.185 122.625C507.652 123.608 506.885 124.375 505.885 124.925C504.902 125.475 503.752 125.75 502.435 125.75C500.635 125.75 499.135 125.325 497.935 124.475C496.735 123.625 496.027 122.467 495.81 121H498.06C498.31 121.833 498.827 122.5 499.61 123C500.394 123.517 501.335 123.775 502.435 123.775C503.685 123.775 504.702 123.383 505.485 122.6C506.285 121.817 506.685 120.717 506.685 119.3V116.425C506.235 117.225 505.569 117.892 504.685 118.425C503.802 118.958 502.769 119.225 501.585 119.225C500.369 119.225 499.26 118.925 498.26 118.325C497.277 117.725 496.502 116.883 495.935 115.8C495.369 114.717 495.085 113.483 495.085 112.1C495.085 110.7 495.369 109.475 495.935 108.425C496.502 107.358 497.277 106.533 498.26 105.95C499.26 105.367 500.369 105.075 501.585 105.075ZM506.685 112.125C506.685 111.092 506.477 110.192 506.06 109.425C505.644 108.658 505.077 108.075 504.36 107.675C503.66 107.258 502.885 107.05 502.035 107.05C501.185 107.05 500.41 107.25 499.71 107.65C499.01 108.05 498.452 108.633 498.035 109.4C497.619 110.167 497.41 111.067 497.41 112.1C497.41 113.15 497.619 114.067 498.035 114.85C498.452 115.617 499.01 116.208 499.71 116.625C500.41 117.025 501.185 117.225 502.035 117.225C502.885 117.225 503.66 117.025 504.36 116.625C505.077 116.208 505.644 115.617 506.06 114.85C506.477 114.067 506.685 113.158 506.685 112.125ZM165.207 145.175H162.332V157H160.057V145.175H158.282V143.3H160.057V142.325C160.057 140.792 160.448 139.675 161.232 138.975C162.032 138.258 163.307 137.9 165.057 137.9V139.8C164.057 139.8 163.348 140 162.932 140.4C162.532 140.783 162.332 141.425 162.332 142.325V143.3H165.207V145.175ZM167.009 150.1C167.009 148.7 167.292 147.475 167.859 146.425C168.426 145.358 169.201 144.533 170.184 143.95C171.184 143.367 172.292 143.075 173.509 143.075C174.709 143.075 175.751 143.333 176.634 143.85C177.517 144.367 178.176 145.017 178.609 145.8V143.3H180.909V157H178.609V154.45C178.159 155.25 177.484 155.917 176.584 156.45C175.701 156.967 174.667 157.225 173.484 157.225C172.267 157.225 171.167 156.925 170.184 156.325C169.201 155.725 168.426 154.883 167.859 153.8C167.292 152.717 167.009 151.483 167.009 150.1ZM178.609 150.125C178.609 149.092 178.401 148.192 177.984 147.425C177.567 146.658 177.001 146.075 176.284 145.675C175.584 145.258 174.809 145.05 173.959 145.05C173.109 145.05 172.334 145.25 171.634 145.65C170.934 146.05 170.376 146.633 169.959 147.4C169.542 148.167 169.334 149.067 169.334 150.1C169.334 151.15 169.542 152.067 169.959 152.85C170.376 153.617 170.934 154.208 171.634 154.625C172.334 155.025 173.109 155.225 173.959 155.225C174.809 155.225 175.584 155.025 176.284 154.625C177.001 154.208 177.567 153.617 177.984 152.85C178.401 152.067 178.609 151.158 178.609 150.125ZM185.929 141.075C185.495 141.075 185.129 140.925 184.829 140.625C184.529 140.325 184.379 139.958 184.379 139.525C184.379 139.092 184.529 138.725 184.829 138.425C185.129 138.125 185.495 137.975 185.929 137.975C186.345 137.975 186.695 138.125 186.979 138.425C187.279 138.725 187.429 139.092 187.429 139.525C187.429 139.958 187.279 140.325 186.979 140.625C186.695 140.925 186.345 141.075 185.929 141.075ZM187.029 143.3V157H184.754V143.3H187.029ZM193.681 145.175V153.25C193.681 153.917 193.823 154.392 194.106 154.675C194.389 154.942 194.881 155.075 195.581 155.075H197.256V157H195.206C193.939 157 192.989 156.708 192.356 156.125C191.723 155.542 191.406 154.583 191.406 153.25V145.175H189.631V143.3H191.406V139.85H193.681V143.3H197.256V145.175H193.681ZM206.812 143.05C207.846 143.05 208.779 143.275 209.612 143.725C210.446 144.158 211.096 144.817 211.562 145.7C212.046 146.583 212.287 147.658 212.287 148.925V157H210.037V149.25C210.037 147.883 209.696 146.842 209.012 146.125C208.329 145.392 207.396 145.025 206.212 145.025C205.012 145.025 204.054 145.4 203.337 146.15C202.637 146.9 202.287 147.992 202.287 149.425V157H200.012V138.5H202.287V145.25C202.737 144.55 203.354 144.008 204.137 143.625C204.937 143.242 205.829 143.05 206.812 143.05ZM223.844 141.075C223.41 141.075 223.044 140.925 222.744 140.625C222.444 140.325 222.294 139.958 222.294 139.525C222.294 139.092 222.444 138.725 222.744 138.425C223.044 138.125 223.41 137.975 223.844 137.975C224.26 137.975 224.61 138.125 224.894 138.425C225.194 138.725 225.344 139.092 225.344 139.525C225.344 139.958 225.194 140.325 224.894 140.625C224.61 140.925 224.26 141.075 223.844 141.075ZM224.944 143.3V157H222.669V143.3H224.944ZM235.496 143.05C237.163 143.05 238.513 143.558 239.546 144.575C240.579 145.575 241.096 147.025 241.096 148.925V157H238.846V149.25C238.846 147.883 238.504 146.842 237.821 146.125C237.138 145.392 236.204 145.025 235.021 145.025C233.821 145.025 232.863 145.4 232.146 146.15C231.446 146.9 231.096 147.992 231.096 149.425V157H228.821V143.3H231.096V145.25C231.546 144.55 232.154 144.008 232.921 143.625C233.704 143.242 234.563 143.05 235.496 143.05ZM256.327 157.225C255.277 157.225 254.336 157.05 253.502 156.7C252.669 156.333 252.011 155.833 251.527 155.2C251.044 154.55 250.777 153.808 250.727 152.975H253.077C253.144 153.658 253.461 154.217 254.027 154.65C254.611 155.083 255.369 155.3 256.302 155.3C257.169 155.3 257.852 155.108 258.352 154.725C258.852 154.342 259.102 153.858 259.102 153.275C259.102 152.675 258.836 152.233 258.302 151.95C257.769 151.65 256.944 151.358 255.827 151.075C254.811 150.808 253.977 150.542 253.327 150.275C252.694 149.992 252.144 149.583 251.677 149.05C251.227 148.5 251.002 147.783 251.002 146.9C251.002 146.2 251.211 145.558 251.627 144.975C252.044 144.392 252.636 143.933 253.402 143.6C254.169 143.25 255.044 143.075 256.027 143.075C257.544 143.075 258.769 143.458 259.702 144.225C260.636 144.992 261.136 146.042 261.202 147.375H258.927C258.877 146.658 258.586 146.083 258.052 145.65C257.536 145.217 256.836 145 255.952 145C255.136 145 254.486 145.175 254.002 145.525C253.519 145.875 253.277 146.333 253.277 146.9C253.277 147.35 253.419 147.725 253.702 148.025C254.002 148.308 254.369 148.542 254.802 148.725C255.252 148.892 255.869 149.083 256.652 149.3C257.636 149.567 258.436 149.833 259.052 150.1C259.669 150.35 260.194 150.733 260.627 151.25C261.077 151.767 261.311 152.442 261.327 153.275C261.327 154.025 261.119 154.7 260.702 155.3C260.286 155.9 259.694 156.375 258.927 156.725C258.177 157.058 257.311 157.225 256.327 157.225ZM267.314 145.175V153.25C267.314 153.917 267.455 154.392 267.739 154.675C268.022 154.942 268.514 155.075 269.214 155.075H270.889V157H268.839C267.572 157 266.622 156.708 265.989 156.125C265.355 155.542 265.039 154.583 265.039 153.25V145.175H263.264V143.3H265.039V139.85H267.314V143.3H270.889V145.175H267.314ZM285.795 143.3V157H283.52V154.975C283.087 155.675 282.479 156.225 281.695 156.625C280.929 157.008 280.079 157.2 279.145 157.2C278.079 157.2 277.12 156.983 276.27 156.55C275.42 156.1 274.745 155.433 274.245 154.55C273.762 153.667 273.52 152.592 273.52 151.325V143.3H275.77V151.025C275.77 152.375 276.112 153.417 276.795 154.15C277.479 154.867 278.412 155.225 279.595 155.225C280.812 155.225 281.77 154.85 282.47 154.1C283.17 153.35 283.52 152.258 283.52 150.825V143.3H285.795ZM288.786 150.1C288.786 148.7 289.07 147.475 289.636 146.425C290.203 145.358 290.978 144.533 291.961 143.95C292.961 143.367 294.078 143.075 295.311 143.075C296.378 143.075 297.37 143.325 298.286 143.825C299.203 144.308 299.903 144.95 300.386 145.75V138.5H302.686V157H300.386V154.425C299.936 155.242 299.27 155.917 298.386 156.45C297.503 156.967 296.47 157.225 295.286 157.225C294.07 157.225 292.961 156.925 291.961 156.325C290.978 155.725 290.203 154.883 289.636 153.8C289.07 152.717 288.786 151.483 288.786 150.1ZM300.386 150.125C300.386 149.092 300.178 148.192 299.761 147.425C299.345 146.658 298.778 146.075 298.061 145.675C297.361 145.258 296.586 145.05 295.736 145.05C294.886 145.05 294.111 145.25 293.411 145.65C292.711 146.05 292.153 146.633 291.736 147.4C291.32 148.167 291.111 149.067 291.111 150.1C291.111 151.15 291.32 152.067 291.736 152.85C292.153 153.617 292.711 154.208 293.411 154.625C294.111 155.025 294.886 155.225 295.736 155.225C296.586 155.225 297.361 155.025 298.061 154.625C298.778 154.208 299.345 153.617 299.761 152.85C300.178 152.067 300.386 151.158 300.386 150.125ZM319.031 149.625C319.031 150.058 319.006 150.517 318.956 151H308.006C308.089 152.35 308.548 153.408 309.381 154.175C310.231 154.925 311.256 155.3 312.456 155.3C313.439 155.3 314.256 155.075 314.906 154.625C315.573 154.158 316.039 153.542 316.306 152.775H318.756C318.389 154.092 317.656 155.167 316.556 156C315.456 156.817 314.089 157.225 312.456 157.225C311.156 157.225 309.989 156.933 308.956 156.35C307.939 155.767 307.139 154.942 306.556 153.875C305.973 152.792 305.681 151.542 305.681 150.125C305.681 148.708 305.964 147.467 306.531 146.4C307.098 145.333 307.889 144.517 308.906 143.95C309.939 143.367 311.123 143.075 312.456 143.075C313.756 143.075 314.906 143.358 315.906 143.925C316.906 144.492 317.673 145.275 318.206 146.275C318.756 147.258 319.031 148.375 319.031 149.625ZM316.681 149.15C316.681 148.283 316.489 147.542 316.106 146.925C315.723 146.292 315.198 145.817 314.531 145.5C313.881 145.167 313.156 145 312.356 145C311.206 145 310.223 145.367 309.406 146.1C308.606 146.833 308.148 147.85 308.031 149.15H316.681ZM328.709 143.05C330.376 143.05 331.726 143.558 332.759 144.575C333.792 145.575 334.309 147.025 334.309 148.925V157H332.059V149.25C332.059 147.883 331.717 146.842 331.034 146.125C330.351 145.392 329.417 145.025 328.234 145.025C327.034 145.025 326.076 145.4 325.359 146.15C324.659 146.9 324.309 147.992 324.309 149.425V157H322.034V143.3H324.309V145.25C324.759 144.55 325.367 144.008 326.134 143.625C326.917 143.242 327.776 143.05 328.709 143.05ZM340.8 145.175V153.25C340.8 153.917 340.942 154.392 341.225 154.675C341.508 154.942 342 155.075 342.7 155.075H344.375V157H342.325C341.058 157 340.108 156.708 339.475 156.125C338.842 155.542 338.525 154.583 338.525 153.25V145.175H336.75V143.3H338.525V139.85H340.8V143.3H344.375V145.175H340.8ZM351.982 157.225C350.932 157.225 349.99 157.05 349.157 156.7C348.323 156.333 347.665 155.833 347.182 155.2C346.698 154.55 346.432 153.808 346.382 152.975H348.732C348.798 153.658 349.115 154.217 349.682 154.65C350.265 155.083 351.023 155.3 351.957 155.3C352.823 155.3 353.507 155.108 354.007 154.725C354.507 154.342 354.757 153.858 354.757 153.275C354.757 152.675 354.49 152.233 353.957 151.95C353.423 151.65 352.598 151.358 351.482 151.075C350.465 150.808 349.632 150.542 348.982 150.275C348.348 149.992 347.798 149.583 347.332 149.05C346.882 148.5 346.657 147.783 346.657 146.9C346.657 146.2 346.865 145.558 347.282 144.975C347.698 144.392 348.29 143.933 349.057 143.6C349.823 143.25 350.698 143.075 351.682 143.075C353.198 143.075 354.423 143.458 355.357 144.225C356.29 144.992 356.79 146.042 356.857 147.375H354.582C354.532 146.658 354.24 146.083 353.707 145.65C353.19 145.217 352.49 145 351.607 145C350.79 145 350.14 145.175 349.657 145.525C349.173 145.875 348.932 146.333 348.932 146.9C348.932 147.35 349.073 147.725 349.357 148.025C349.657 148.308 350.023 148.542 350.457 148.725C350.907 148.892 351.523 149.083 352.307 149.3C353.29 149.567 354.09 149.833 354.707 150.1C355.323 150.35 355.848 150.733 356.282 151.25C356.732 151.767 356.965 152.442 356.982 153.275C356.982 154.025 356.773 154.7 356.357 155.3C355.94 155.9 355.348 156.375 354.582 156.725C353.832 157.058 352.965 157.225 351.982 157.225ZM366.008 150.1C366.008 148.7 366.291 147.475 366.858 146.425C367.425 145.358 368.2 144.533 369.183 143.95C370.183 143.367 371.291 143.075 372.508 143.075C373.708 143.075 374.75 143.333 375.633 143.85C376.516 144.367 377.175 145.017 377.608 145.8V143.3H379.908V157H377.608V154.45C377.158 155.25 376.483 155.917 375.583 156.45C374.7 156.967 373.666 157.225 372.483 157.225C371.266 157.225 370.166 156.925 369.183 156.325C368.2 155.725 367.425 154.883 366.858 153.8C366.291 152.717 366.008 151.483 366.008 150.1ZM377.608 150.125C377.608 149.092 377.4 148.192 376.983 147.425C376.566 146.658 376 146.075 375.283 145.675C374.583 145.258 373.808 145.05 372.958 145.05C372.108 145.05 371.333 145.25 370.633 145.65C369.933 146.05 369.375 146.633 368.958 147.4C368.541 148.167 368.333 149.067 368.333 150.1C368.333 151.15 368.541 152.067 368.958 152.85C369.375 153.617 369.933 154.208 370.633 154.625C371.333 155.025 372.108 155.225 372.958 155.225C373.808 155.225 374.583 155.025 375.283 154.625C376 154.208 376.566 153.617 376.983 152.85C377.4 152.067 377.608 151.158 377.608 150.125ZM390.428 143.05C392.094 143.05 393.444 143.558 394.478 144.575C395.511 145.575 396.028 147.025 396.028 148.925V157H393.778V149.25C393.778 147.883 393.436 146.842 392.753 146.125C392.069 145.392 391.136 145.025 389.953 145.025C388.753 145.025 387.794 145.4 387.078 146.15C386.378 146.9 386.028 147.992 386.028 149.425V157H383.753V143.3H386.028V145.25C386.478 144.55 387.086 144.008 387.853 143.625C388.636 143.242 389.494 143.05 390.428 143.05ZM398.894 150.1C398.894 148.7 399.177 147.475 399.744 146.425C400.311 145.358 401.086 144.533 402.069 143.95C403.069 143.367 404.186 143.075 405.419 143.075C406.486 143.075 407.477 143.325 408.394 143.825C409.311 144.308 410.011 144.95 410.494 145.75V138.5H412.794V157H410.494V154.425C410.044 155.242 409.377 155.917 408.494 156.45C407.611 156.967 406.577 157.225 405.394 157.225C404.177 157.225 403.069 156.925 402.069 156.325C401.086 155.725 400.311 154.883 399.744 153.8C399.177 152.717 398.894 151.483 398.894 150.1ZM410.494 150.125C410.494 149.092 410.286 148.192 409.869 147.425C409.452 146.658 408.886 146.075 408.169 145.675C407.469 145.258 406.694 145.05 405.844 145.05C404.994 145.05 404.219 145.25 403.519 145.65C402.819 146.05 402.261 146.633 401.844 147.4C401.427 148.167 401.219 149.067 401.219 150.1C401.219 151.15 401.427 152.067 401.844 152.85C402.261 153.617 402.819 154.208 403.519 154.625C404.219 155.025 404.994 155.225 405.844 155.225C406.694 155.225 407.469 155.025 408.169 154.625C408.886 154.208 409.452 153.617 409.869 152.85C410.286 152.067 410.494 151.158 410.494 150.125ZM425.578 138.5V157H423.303V138.5H425.578ZM441.956 149.625C441.956 150.058 441.931 150.517 441.881 151H430.931C431.014 152.35 431.472 153.408 432.306 154.175C433.156 154.925 434.181 155.3 435.381 155.3C436.364 155.3 437.181 155.075 437.831 154.625C438.497 154.158 438.964 153.542 439.231 152.775H441.681C441.314 154.092 440.581 155.167 439.481 156C438.381 156.817 437.014 157.225 435.381 157.225C434.081 157.225 432.914 156.933 431.881 156.35C430.864 155.767 430.064 154.942 429.481 153.875C428.897 152.792 428.606 151.542 428.606 150.125C428.606 148.708 428.889 147.467 429.456 146.4C430.022 145.333 430.814 144.517 431.831 143.95C432.864 143.367 434.047 143.075 435.381 143.075C436.681 143.075 437.831 143.358 438.831 143.925C439.831 144.492 440.597 145.275 441.131 146.275C441.681 147.258 441.956 148.375 441.956 149.625ZM439.606 149.15C439.606 148.283 439.414 147.542 439.031 146.925C438.647 146.292 438.122 145.817 437.456 145.5C436.806 145.167 436.081 145 435.281 145C434.131 145 433.147 145.367 432.331 146.1C431.531 146.833 431.072 147.85 430.956 149.15H439.606ZM444.109 150.1C444.109 148.7 444.392 147.475 444.959 146.425C445.525 145.358 446.3 144.533 447.284 143.95C448.284 143.367 449.392 143.075 450.609 143.075C451.809 143.075 452.85 143.333 453.734 143.85C454.617 144.367 455.275 145.017 455.709 145.8V143.3H458.009V157H455.709V154.45C455.259 155.25 454.584 155.917 453.684 156.45C452.8 156.967 451.767 157.225 450.584 157.225C449.367 157.225 448.267 156.925 447.284 156.325C446.3 155.725 445.525 154.883 444.959 153.8C444.392 152.717 444.109 151.483 444.109 150.1ZM455.709 150.125C455.709 149.092 455.5 148.192 455.084 147.425C454.667 146.658 454.1 146.075 453.384 145.675C452.684 145.258 451.909 145.05 451.059 145.05C450.209 145.05 449.434 145.25 448.734 145.65C448.034 146.05 447.475 146.633 447.059 147.4C446.642 148.167 446.434 149.067 446.434 150.1C446.434 151.15 446.642 152.067 447.059 152.85C447.475 153.617 448.034 154.208 448.734 154.625C449.434 155.025 450.209 155.225 451.059 155.225C451.909 155.225 452.684 155.025 453.384 154.625C454.1 154.208 454.667 153.617 455.084 152.85C455.5 152.067 455.709 151.158 455.709 150.125ZM464.128 145.525C464.528 144.742 465.095 144.133 465.828 143.7C466.578 143.267 467.487 143.05 468.553 143.05V145.4H467.953C465.403 145.4 464.128 146.783 464.128 149.55V157H461.853V143.3H464.128V145.525ZM477.854 143.05C479.521 143.05 480.871 143.558 481.904 144.575C482.938 145.575 483.454 147.025 483.454 148.925V157H481.204V149.25C481.204 147.883 480.863 146.842 480.179 146.125C479.496 145.392 478.563 145.025 477.379 145.025C476.179 145.025 475.221 145.4 474.504 146.15C473.804 146.9 473.454 147.992 473.454 149.425V157H471.179V143.3H473.454V145.25C473.904 144.55 474.513 144.008 475.279 143.625C476.063 143.242 476.921 143.05 477.854 143.05ZM488.346 141.075C487.912 141.075 487.546 140.925 487.246 140.625C486.946 140.325 486.796 139.958 486.796 139.525C486.796 139.092 486.946 138.725 487.246 138.425C487.546 138.125 487.912 137.975 488.346 137.975C488.762 137.975 489.112 138.125 489.396 138.425C489.696 138.725 489.846 139.092 489.846 139.525C489.846 139.958 489.696 140.325 489.396 140.625C489.112 140.925 488.762 141.075 488.346 141.075ZM489.446 143.3V157H487.171V143.3H489.446ZM499.998 143.05C501.665 143.05 503.015 143.558 504.048 144.575C505.081 145.575 505.598 147.025 505.598 148.925V157H503.348V149.25C503.348 147.883 503.006 146.842 502.323 146.125C501.64 145.392 500.706 145.025 499.523 145.025C498.323 145.025 497.365 145.4 496.648 146.15C495.948 146.9 495.598 147.992 495.598 149.425V157H493.323V143.3H495.598V145.25C496.048 144.55 496.656 144.008 497.423 143.625C498.206 143.242 499.065 143.05 499.998 143.05ZM514.964 143.075C516.147 143.075 517.181 143.333 518.064 143.85C518.964 144.367 519.631 145.017 520.064 145.8V143.3H522.364V157.3C522.364 158.55 522.097 159.658 521.564 160.625C521.031 161.608 520.264 162.375 519.264 162.925C518.281 163.475 517.131 163.75 515.814 163.75C514.014 163.75 512.514 163.325 511.314 162.475C510.114 161.625 509.406 160.467 509.189 159H511.439C511.689 159.833 512.206 160.5 512.989 161C513.772 161.517 514.714 161.775 515.814 161.775C517.064 161.775 518.081 161.383 518.864 160.6C519.664 159.817 520.064 158.717 520.064 157.3V154.425C519.614 155.225 518.947 155.892 518.064 156.425C517.181 156.958 516.147 157.225 514.964 157.225C513.747 157.225 512.639 156.925 511.639 156.325C510.656 155.725 509.881 154.883 509.314 153.8C508.747 152.717 508.464 151.483 508.464 150.1C508.464 148.7 508.747 147.475 509.314 146.425C509.881 145.358 510.656 144.533 511.639 143.95C512.639 143.367 513.747 143.075 514.964 143.075ZM520.064 150.125C520.064 149.092 519.856 148.192 519.439 147.425C519.022 146.658 518.456 146.075 517.739 145.675C517.039 145.258 516.264 145.05 515.414 145.05C514.564 145.05 513.789 145.25 513.089 145.65C512.389 146.05 511.831 146.633 511.414 147.4C510.997 148.167 510.789 149.067 510.789 150.1C510.789 151.15 510.997 152.067 511.414 152.85C511.831 153.617 512.389 154.208 513.089 154.625C513.789 155.025 514.564 155.225 515.414 155.225C516.264 155.225 517.039 155.025 517.739 154.625C518.456 154.208 519.022 153.617 519.439 152.85C519.856 152.067 520.064 151.158 520.064 150.125ZM158.782 188.1C158.782 186.7 159.065 185.475 159.632 184.425C160.198 183.358 160.973 182.533 161.957 181.95C162.957 181.367 164.065 181.075 165.282 181.075C166.482 181.075 167.523 181.333 168.407 181.85C169.29 182.367 169.948 183.017 170.382 183.8V181.3H172.682V195H170.382V192.45C169.932 193.25 169.257 193.917 168.357 194.45C167.473 194.967 166.44 195.225 165.257 195.225C164.04 195.225 162.94 194.925 161.957 194.325C160.973 193.725 160.198 192.883 159.632 191.8C159.065 190.717 158.782 189.483 158.782 188.1ZM170.382 188.125C170.382 187.092 170.173 186.192 169.757 185.425C169.34 184.658 168.773 184.075 168.057 183.675C167.357 183.258 166.582 183.05 165.732 183.05C164.882 183.05 164.107 183.25 163.407 183.65C162.707 184.05 162.148 184.633 161.732 185.4C161.315 186.167 161.107 187.067 161.107 188.1C161.107 189.15 161.315 190.067 161.732 190.85C162.148 191.617 162.707 192.208 163.407 192.625C164.107 193.025 164.882 193.225 165.732 193.225C166.582 193.225 167.357 193.025 168.057 192.625C168.773 192.208 169.34 191.617 169.757 190.85C170.173 190.067 170.382 189.158 170.382 188.125ZM178.801 183.85C179.268 183.033 179.951 182.367 180.851 181.85C181.751 181.333 182.776 181.075 183.926 181.075C185.159 181.075 186.268 181.367 187.251 181.95C188.234 182.533 189.009 183.358 189.576 184.425C190.143 185.475 190.426 186.7 190.426 188.1C190.426 189.483 190.143 190.717 189.576 191.8C189.009 192.883 188.226 193.725 187.226 194.325C186.243 194.925 185.143 195.225 183.926 195.225C182.743 195.225 181.701 194.967 180.801 194.45C179.918 193.933 179.251 193.275 178.801 192.475V195H176.526V176.5H178.801V183.85ZM188.101 188.1C188.101 187.067 187.893 186.167 187.476 185.4C187.059 184.633 186.493 184.05 185.776 183.65C185.076 183.25 184.301 183.05 183.451 183.05C182.618 183.05 181.843 183.258 181.126 183.675C180.426 184.075 179.859 184.667 179.426 185.45C179.009 186.217 178.801 187.108 178.801 188.125C178.801 189.158 179.009 190.067 179.426 190.85C179.859 191.617 180.426 192.208 181.126 192.625C181.843 193.025 182.618 193.225 183.451 193.225C184.301 193.225 185.076 193.025 185.776 192.625C186.493 192.208 187.059 191.617 187.476 190.85C187.893 190.067 188.101 189.15 188.101 188.1ZM199.396 195.225C198.112 195.225 196.946 194.933 195.896 194.35C194.862 193.767 194.046 192.942 193.446 191.875C192.862 190.792 192.571 189.542 192.571 188.125C192.571 186.725 192.871 185.492 193.471 184.425C194.087 183.342 194.921 182.517 195.971 181.95C197.021 181.367 198.196 181.075 199.496 181.075C200.796 181.075 201.971 181.367 203.021 181.95C204.071 182.517 204.896 183.333 205.496 184.4C206.112 185.467 206.421 186.708 206.421 188.125C206.421 189.542 206.104 190.792 205.471 191.875C204.854 192.942 204.012 193.767 202.946 194.35C201.879 194.933 200.696 195.225 199.396 195.225ZM199.396 193.225C200.212 193.225 200.979 193.033 201.696 192.65C202.412 192.267 202.987 191.692 203.421 190.925C203.871 190.158 204.096 189.225 204.096 188.125C204.096 187.025 203.879 186.092 203.446 185.325C203.012 184.558 202.446 183.992 201.746 183.625C201.046 183.242 200.287 183.05 199.471 183.05C198.637 183.05 197.871 183.242 197.171 183.625C196.487 183.992 195.937 184.558 195.521 185.325C195.104 186.092 194.896 187.025 194.896 188.125C194.896 189.242 195.096 190.183 195.496 190.95C195.912 191.717 196.462 192.292 197.146 192.675C197.829 193.042 198.579 193.225 199.396 193.225ZM221.562 181.3V195H219.287V192.975C218.853 193.675 218.245 194.225 217.462 194.625C216.695 195.008 215.845 195.2 214.912 195.2C213.845 195.2 212.887 194.983 212.037 194.55C211.187 194.1 210.512 193.433 210.012 192.55C209.528 191.667 209.287 190.592 209.287 189.325V181.3H211.537V189.025C211.537 190.375 211.878 191.417 212.562 192.15C213.245 192.867 214.178 193.225 215.362 193.225C216.578 193.225 217.537 192.85 218.237 192.1C218.937 191.35 219.287 190.258 219.287 188.825V181.3H221.562ZM228.178 183.175V191.25C228.178 191.917 228.32 192.392 228.603 192.675C228.886 192.942 229.378 193.075 230.078 193.075H231.753V195H229.703C228.436 195 227.486 194.708 226.853 194.125C226.22 193.542 225.903 192.583 225.903 191.25V183.175H224.128V181.3H225.903V177.85H228.178V181.3H231.753V183.175H228.178ZM243.45 177.575V195H241.175V177.575H243.45ZM252.177 195.225C251.127 195.225 250.185 195.05 249.352 194.7C248.519 194.333 247.86 193.833 247.377 193.2C246.894 192.55 246.627 191.808 246.577 190.975H248.927C248.994 191.658 249.31 192.217 249.877 192.65C250.46 193.083 251.219 193.3 252.152 193.3C253.019 193.3 253.702 193.108 254.202 192.725C254.702 192.342 254.952 191.858 254.952 191.275C254.952 190.675 254.685 190.233 254.152 189.95C253.619 189.65 252.794 189.358 251.677 189.075C250.66 188.808 249.827 188.542 249.177 188.275C248.544 187.992 247.994 187.583 247.527 187.05C247.077 186.5 246.852 185.783 246.852 184.9C246.852 184.2 247.06 183.558 247.477 182.975C247.894 182.392 248.485 181.933 249.252 181.6C250.019 181.25 250.894 181.075 251.877 181.075C253.394 181.075 254.619 181.458 255.552 182.225C256.485 182.992 256.985 184.042 257.052 185.375H254.777C254.727 184.658 254.435 184.083 253.902 183.65C253.385 183.217 252.685 183 251.802 183C250.985 183 250.335 183.175 249.852 183.525C249.369 183.875 249.127 184.333 249.127 184.9C249.127 185.35 249.269 185.725 249.552 186.025C249.852 186.308 250.219 186.542 250.652 186.725C251.102 186.892 251.719 187.083 252.502 187.3C253.485 187.567 254.285 187.833 254.902 188.1C255.519 188.35 256.044 188.733 256.477 189.25C256.927 189.767 257.16 190.442 257.177 191.275C257.177 192.025 256.969 192.7 256.552 193.3C256.135 193.9 255.544 194.375 254.777 194.725C254.027 195.058 253.16 195.225 252.177 195.225ZM262.663 176.5V195H260.388V176.5H262.663ZM265.691 188.1C265.691 186.7 265.974 185.475 266.541 184.425C267.107 183.358 267.882 182.533 268.866 181.95C269.866 181.367 270.974 181.075 272.191 181.075C273.391 181.075 274.432 181.333 275.316 181.85C276.199 182.367 276.857 183.017 277.291 183.8V181.3H279.591V195H277.291V192.45C276.841 193.25 276.166 193.917 275.266 194.45C274.382 194.967 273.349 195.225 272.166 195.225C270.949 195.225 269.849 194.925 268.866 194.325C267.882 193.725 267.107 192.883 266.541 191.8C265.974 190.717 265.691 189.483 265.691 188.1ZM277.291 188.125C277.291 187.092 277.082 186.192 276.666 185.425C276.249 184.658 275.682 184.075 274.966 183.675C274.266 183.258 273.491 183.05 272.641 183.05C271.791 183.05 271.016 183.25 270.316 183.65C269.616 184.05 269.057 184.633 268.641 185.4C268.224 186.167 268.016 187.067 268.016 188.1C268.016 189.15 268.224 190.067 268.641 190.85C269.057 191.617 269.616 192.208 270.316 192.625C271.016 193.025 271.791 193.225 272.641 193.225C273.491 193.225 274.266 193.025 274.966 192.625C275.682 192.208 276.249 191.617 276.666 190.85C277.082 190.067 277.291 189.158 277.291 188.125ZM299.91 181.05C300.977 181.05 301.927 181.275 302.76 181.725C303.594 182.158 304.252 182.817 304.735 183.7C305.219 184.583 305.46 185.658 305.46 186.925V195H303.21V187.25C303.21 185.883 302.869 184.842 302.185 184.125C301.519 183.392 300.61 183.025 299.46 183.025C298.277 183.025 297.335 183.408 296.635 184.175C295.935 184.925 295.585 186.017 295.585 187.45V195H293.335V187.25C293.335 185.883 292.994 184.842 292.31 184.125C291.644 183.392 290.735 183.025 289.585 183.025C288.402 183.025 287.46 183.408 286.76 184.175C286.06 184.925 285.71 186.017 285.71 187.45V195H283.435V181.3H285.71V183.275C286.16 182.558 286.76 182.008 287.51 181.625C288.277 181.242 289.119 181.05 290.035 181.05C291.185 181.05 292.202 181.308 293.085 181.825C293.969 182.342 294.627 183.1 295.06 184.1C295.444 183.133 296.077 182.383 296.96 181.85C297.844 181.317 298.827 181.05 299.91 181.05ZM309.917 195.15C309.484 195.15 309.117 195 308.817 194.7C308.517 194.4 308.367 194.033 308.367 193.6C308.367 193.167 308.517 192.8 308.817 192.5C309.117 192.2 309.484 192.05 309.917 192.05C310.334 192.05 310.684 192.2 310.967 192.5C311.267 192.8 311.417 193.167 311.417 193.6C311.417 194.033 311.267 194.4 310.967 194.7C310.684 195 310.334 195.15 309.917 195.15Z" fill="black"/>
<path d="M64.2045 195.989C54.8295 195.989 46.4725 194.379 39.1335 191.159C31.8419 187.939 26.0417 183.465 21.733 177.736C17.4716 171.959 15.1515 165.259 14.7727 157.636H32.6705C33.0492 162.324 34.6591 166.372 37.5 169.781C40.3409 173.143 44.0578 175.747 48.6506 177.594C53.2434 179.44 58.3333 180.364 63.9205 180.364C70.1705 180.364 75.7102 179.275 80.5398 177.097C85.3693 174.919 89.1572 171.888 91.9034 168.006C94.6496 164.123 96.0227 159.625 96.0227 154.511C96.0227 149.161 94.697 144.45 92.0455 140.378C89.3939 136.259 85.5114 133.039 80.3977 130.719C75.2841 128.399 69.0341 127.239 61.6477 127.239H50V111.614H61.6477C67.4242 111.614 72.4905 110.572 76.8466 108.489C81.25 106.405 84.6828 103.47 87.1449 99.6818C89.6544 95.8939 90.9091 91.4432 90.9091 86.3295C90.9091 81.4053 89.8201 77.1203 87.642 73.4744C85.464 69.8286 82.3864 66.9877 78.4091 64.9517C74.4792 62.9157 69.839 61.8977 64.4886 61.8977C59.4697 61.8977 54.7349 62.821 50.2841 64.6676C45.8807 66.4669 42.2822 69.0947 39.4886 72.5511C36.6951 75.9602 35.1799 80.0795 34.9432 84.9091H17.8977C18.1818 77.286 20.4782 70.6098 24.7869 64.8807C29.0956 59.1042 34.7301 54.6061 41.6903 51.3864C48.6979 48.1667 56.392 46.5568 64.7727 46.5568C73.7689 46.5568 81.4867 48.3797 87.9261 52.0256C94.3655 55.624 99.3134 60.3826 102.77 66.3011C106.226 72.2197 107.955 78.6117 107.955 85.4773C107.955 93.6686 105.8 100.652 101.491 106.429C97.2301 112.205 91.4299 116.206 84.0909 118.432V119.568C93.2765 121.083 100.45 124.99 105.611 131.287C110.772 137.537 113.352 145.278 113.352 154.511C113.352 162.419 111.198 169.521 106.889 175.818C102.628 182.068 96.804 186.992 89.4176 190.591C82.0313 194.189 73.6269 195.989 64.2045 195.989Z" fill="#EDBB5F"/>
</svg>
